<svg width="79" height="79" viewBox="0 0 79 79" fill="none" xmlns="http://www.w3.org/2000/svg">
<path fill-rule="evenodd" clip-rule="evenodd" d="M73.075 71.0886H70.9025C70.4493 73.3214 69.2381 75.3287 67.4744 76.7705C65.7107 78.2124 63.5029 79 61.225 79C58.9471 79 56.7393 78.2124 54.9756 76.7705C53.2119 75.3287 52.0007 73.3214 51.5475 71.0886H27.4525C26.9993 73.3214 25.7881 75.3287 24.0244 76.7705C22.2607 78.2124 20.0529 79 17.775 79C15.4971 79 13.2893 78.2124 11.5256 76.7705C9.76192 75.3287 8.55074 73.3214 8.09745 71.0886H5.925C4.35359 71.0886 2.84651 70.4643 1.73536 69.3529C0.624205 68.2415 0 66.7342 0 65.1625V39.4827C0 37.911 0.624205 36.4036 1.73536 35.2923C2.84651 34.1809 4.35359 33.5566 5.925 33.5566H59.1987C62.4712 33.5566 64.8946 36.1739 67.1856 38.7103L79 51.3132V65.1625C79 66.7342 78.3758 68.2415 77.2646 69.3529C76.1535 70.4643 74.6464 71.0886 73.075 71.0886ZM61.225 75.0394C62.3969 75.0394 63.5423 74.6918 64.5167 74.0406C65.4911 73.3895 66.2506 72.4639 66.699 71.3811C67.1475 70.2982 67.2648 69.1067 67.0362 67.9571C66.8076 66.8076 66.2433 65.7516 65.4146 64.9228C64.586 64.0941 63.5302 63.5297 62.3809 63.301C61.2316 63.0723 60.0402 63.1897 58.9576 63.6382C57.8749 64.0868 56.9496 64.8463 56.2986 65.8209C55.6475 66.7954 55.3 67.9412 55.3 69.1132C55.3 70.6849 55.9242 72.1923 57.0354 73.3036C58.1465 74.415 59.6536 75.0394 61.225 75.0394ZM17.775 75.0394C18.9469 75.0394 20.0923 74.6918 21.0667 74.0406C22.0411 73.3895 22.8006 72.4639 23.249 71.3811C23.6975 70.2982 23.8148 69.1067 23.5862 67.9571C23.3576 66.8076 22.7933 65.7516 21.9646 64.9228C21.136 64.0941 20.0802 63.5297 18.9309 63.301C17.7816 63.0723 16.5902 63.1897 15.5076 63.6382C14.4249 64.0868 13.4996 64.8463 12.8486 65.8209C12.1975 66.7954 11.85 67.9412 11.85 69.1132C11.85 70.6849 12.4742 72.1923 13.5854 73.3036C14.6965 74.415 16.2036 75.0394 17.775 75.0394ZM75.05 53.3103H57.275C56.2274 53.3103 55.2228 52.894 54.482 52.1531C53.7412 51.4122 53.325 50.4073 53.325 49.3595V43.4334C53.325 42.9095 53.5331 42.4071 53.9035 42.0366C54.2739 41.6662 54.7762 41.458 55.3 41.458C55.8238 41.458 56.3261 41.6662 56.6965 42.0366C57.0669 42.4071 57.275 42.9095 57.275 43.4334V49.3595H72.1073L62.9314 39.6802C61.8895 38.4852 60.4467 37.7124 58.8747 37.5073H5.925C5.4012 37.5073 4.89888 37.7154 4.52849 38.0859C4.15811 38.4563 3.95 38.9588 3.95 39.4827V65.1625C3.95 65.6864 4.15811 66.1889 4.52849 66.5593C4.89888 66.9298 5.4012 67.1379 5.925 67.1379H8.09745C8.55074 64.9051 9.76192 62.8978 11.5256 61.456C13.2893 60.0141 15.4971 59.2265 17.775 59.2265C20.0529 59.2265 22.2607 60.0141 24.0244 61.456C25.7881 62.8978 26.9993 64.9051 27.4525 67.1379H51.5475C52.0007 64.9051 53.2119 62.8978 54.9756 61.456C56.7393 60.0141 58.9471 59.2265 61.225 59.2265C63.5029 59.2265 65.7107 60.0141 67.4744 61.456C69.2381 62.8978 70.4493 64.9051 70.9025 67.1379H73.075C73.5988 67.1379 74.1011 66.9298 74.4715 66.5593C74.8419 66.1889 75.05 65.6864 75.05 65.1625V53.3103ZM41.475 55.2856H31.6C31.0762 55.2856 30.5739 55.0775 30.2035 54.7071C29.8331 54.3366 29.625 53.8342 29.625 53.3103C29.625 52.7864 29.8331 52.2839 30.2035 51.9135C30.5739 51.543 31.0762 51.3349 31.6 51.3349H41.475C41.9988 51.3349 42.5011 51.543 42.8715 51.9135C43.2419 52.2839 43.45 52.7864 43.45 53.3103C43.45 53.8342 43.2419 54.3366 42.8715 54.7071C42.5011 55.0775 41.9988 55.2856 41.475 55.2856ZM41.475 49.3595H17.775C17.2512 49.3595 16.7489 49.1514 16.3785 48.781C16.0081 48.4105 15.8 47.9081 15.8 47.3842C15.8 46.8603 16.0081 46.3578 16.3785 45.9874C16.7489 45.6169 17.2512 45.4088 17.775 45.4088H41.475C41.9988 45.4088 42.5011 45.6169 42.8715 45.9874C43.2419 46.3578 43.45 46.8603 43.45 47.3842C43.45 47.9081 43.2419 48.4105 42.8715 48.781C42.5011 49.1514 41.9988 49.3595 41.475 49.3595ZM19.9001 18.925C20.1156 18.4479 20.5117 18.0759 21.0013 17.8907C21.4908 17.7055 22.0338 17.7223 22.5111 17.9373L29.3248 20.9912C29.9997 20.3788 30.8335 19.9691 31.7306 19.809C32.6276 19.649 33.5517 19.7452 34.3966 20.0865L40.0689 14.3322C40.4451 13.9958 40.9358 13.8163 41.4403 13.8304C41.9448 13.8445 42.4247 14.0513 42.7816 14.4082C43.1384 14.7651 43.3451 15.2451 43.3592 15.7497C43.3733 16.2543 43.1939 16.7451 42.8575 17.1215L37.1794 22.8896C37.4048 23.4553 37.5221 24.0584 37.525 24.6674C37.525 25.9771 37.0048 27.2333 36.0788 28.1594C35.1529 29.0855 33.897 29.6058 32.5875 29.6058C31.278 29.6058 30.0221 29.0855 29.0962 28.1594C28.1702 27.2333 27.65 25.9771 27.65 24.6674C27.65 24.6338 27.65 24.6022 27.65 24.5686L20.8836 21.5364C20.4073 21.3201 20.0364 20.9237 19.852 20.4341C19.6676 19.9445 19.6849 19.4018 19.9001 18.925ZM32.5875 25.6551C32.7828 25.6551 32.9737 25.5971 33.1361 25.4886C33.2985 25.3801 33.425 25.2258 33.4998 25.0454C33.5745 24.8649 33.5942 24.6663 33.5561 24.4747C33.518 24.2831 33.4239 24.1071 33.2858 23.969C33.1477 23.8309 32.9717 23.7368 32.7801 23.6987C32.5886 23.6606 32.39 23.6801 32.2096 23.7549C32.0292 23.8296 31.875 23.9562 31.7665 24.1187C31.658 24.2811 31.6 24.472 31.6 24.6674C31.6 24.9293 31.704 25.1806 31.8892 25.3658C32.0744 25.551 32.3256 25.6551 32.5875 25.6551ZM52.7088 29.6058C53.4711 26.5485 53.5269 23.3576 52.872 20.2754C52.2171 17.1933 50.8686 14.3009 48.9291 11.8178C46.9896 9.33479 44.5099 7.32637 41.6784 5.94504C38.8468 4.56371 35.7379 3.84579 32.5875 3.84579C29.4371 3.84579 26.3282 4.56371 23.4966 5.94504C20.6651 7.32637 18.1854 9.33479 16.2459 11.8178C14.3064 14.3009 12.9579 17.1933 12.303 20.2754C11.6481 23.3576 11.7039 26.5485 12.4662 29.6058H8.39568C7.66761 26.0196 7.74561 22.3164 8.62399 18.7641C9.50237 15.2117 11.1592 11.899 13.4746 9.06567C15.79 6.23232 18.7062 3.94912 22.012 2.38124C25.3179 0.813357 28.9307 0 32.5894 0C36.2481 0 39.8611 0.813357 43.167 2.38124C46.4728 3.94912 49.389 6.23232 51.7044 9.06567C54.0198 11.899 55.6766 15.2117 56.555 18.7641C57.4334 22.3164 57.5112 26.0196 56.7832 29.6058H52.7128H52.7088Z" fill="white"/>
</svg>
