<svg width="125" height="75" viewBox="0 0 125 75" fill="none" xmlns="http://www.w3.org/2000/svg">
<path fill-rule="evenodd" clip-rule="evenodd" d="M0 0.48099V8.17681H10.6168V35.6619H20.0617V8.17681H30.6786V0.48099H0ZM61.6162 27.9833C63.1447 25.292 63.9087 21.9881 63.9087 18.0714C63.9087 14.1548 63.1447 10.8566 61.6162 8.17681C60.0882 5.48556 58.0258 3.45281 55.4289 2.07856C52.8323 0.692852 49.9366 0 46.7424 0C43.5251 0 40.6184 0.692852 38.0214 2.07856C35.4362 3.45281 33.3795 5.48556 31.8513 8.17681C30.3346 10.8566 29.5762 14.1548 29.5762 18.0714C29.5762 21.9652 30.3346 25.2577 31.8513 27.9489C33.3795 30.6287 35.4362 32.6672 38.0214 34.0643C40.6184 35.4501 43.5251 36.1429 46.7424 36.1429C49.9366 36.1429 52.8323 35.4558 55.4289 34.0815C58.0258 32.6958 60.0882 30.6631 61.6162 27.9833ZM53.2058 12.7462C53.7685 14.1892 54.0502 15.9643 54.0502 18.0714C54.0502 20.1786 53.7685 21.9594 53.2058 23.4139C52.6541 24.8568 51.8324 25.9562 50.7412 26.7121C49.6609 27.4565 48.3281 27.8287 46.7424 27.8287C45.1567 27.8287 43.8182 27.4565 42.7266 26.7121C41.6467 25.9562 40.825 24.8568 40.2619 23.4139C39.7106 21.9594 39.4346 20.1786 39.4346 18.0714C39.4346 15.9643 39.7106 14.1892 40.2619 12.7462C40.825 11.2918 41.6467 10.1924 42.7266 9.44802C43.8182 8.69218 45.1567 8.31426 46.7424 8.31426C48.3281 8.31426 49.6609 8.69218 50.7412 9.44802C51.8324 10.1924 52.6541 11.2918 53.2058 12.7462ZM97.3325 27.9833C98.8609 25.292 99.625 21.9881 99.625 18.0714C99.625 14.1548 98.8609 10.8566 97.3325 8.17681C95.8044 5.48556 93.7421 3.45281 91.1451 2.07856C88.5485 0.692852 85.6528 0 82.4586 0C79.2413 0 76.3346 0.692852 73.7376 2.07856C71.1524 3.45281 69.0958 5.48556 67.5674 8.17681C66.0507 10.8566 65.2923 14.1548 65.2923 18.0714C65.2923 21.9652 66.0507 25.2577 67.5674 27.9489C69.0958 30.6287 71.1524 32.6672 73.7376 34.0643C76.3346 35.4501 79.2413 36.1429 82.4586 36.1429C85.6528 36.1429 88.5485 35.4558 91.1451 34.0815C93.7421 32.6958 95.8044 30.6631 97.3325 27.9833ZM88.922 12.7462C89.4847 14.1892 89.7664 15.9643 89.7664 18.0714C89.7664 20.1786 89.4847 21.9594 88.922 23.4139C88.3703 24.8568 87.5487 25.9562 86.4574 26.7121C85.3771 27.4565 84.0443 27.8287 82.4586 27.8287C80.8729 27.8287 79.5345 27.4565 78.4428 26.7121C77.3629 25.9562 76.5413 24.8568 75.9782 23.4139C75.4269 21.9594 75.1508 20.1786 75.1508 18.0714C75.1508 15.9643 75.4269 14.1892 75.9782 12.7462C76.5413 11.2918 77.3629 10.1924 78.4428 9.44802C79.5345 8.69218 80.8729 8.31426 82.4586 8.31426C84.0443 8.31426 85.3771 8.69218 86.4574 9.44802C87.5487 10.1924 88.3703 11.2918 88.922 12.7462ZM110.729 0.48099H101.147V35.6619H125V27.9661H110.729V0.48099ZM0.965169 39.4067V74.5877H10.41V70.2586H10.6168C10.9845 71.152 11.5073 71.9536 12.1853 72.6637C12.8747 73.3625 13.7019 73.9176 14.6671 74.3299C15.6438 74.7309 16.7526 74.9312 17.9935 74.9312C19.8779 74.9312 21.6071 74.4388 23.1813 73.4539C24.7669 72.4691 26.0308 70.9744 26.973 68.9703C27.9267 66.9662 28.4035 64.4413 28.4035 61.3949C28.4035 58.2113 27.9037 55.6229 26.9041 53.6301C25.9159 51.6377 24.629 50.1775 23.0434 49.25C21.4693 48.3222 19.809 47.8585 18.0624 47.8585C16.7526 47.8585 15.6036 48.0876 14.6154 48.5456C13.6272 48.9923 12.8 49.5936 12.1335 50.3494C11.4671 51.0935 10.9615 51.9125 10.6168 52.8059H10.479V39.4067H0.965169ZM10.772 64.7274C10.4387 63.7882 10.2722 62.6775 10.2722 61.3949C10.2722 60.0892 10.4387 58.9728 10.772 58.045C11.1167 57.1059 11.5993 56.3901 12.2197 55.8976C12.8517 55.3939 13.6043 55.1418 14.4775 55.1418C15.3508 55.1418 16.0919 55.3939 16.7009 55.8976C17.3213 56.3901 17.7924 57.1059 18.1142 58.045C18.4474 58.9728 18.614 60.0892 18.614 61.3949C18.614 62.7002 18.4474 63.8226 18.1142 64.7618C17.7924 65.6896 17.3213 66.405 16.7009 66.9091C16.0919 67.4015 15.3508 67.6476 14.4775 67.6476C13.6043 67.6476 12.8517 67.3959 12.2197 66.8917C11.5993 66.3766 11.1167 65.6552 10.772 64.7274ZM36.7364 74.1754C38.0347 74.7253 39.5286 75 41.2175 75C42.3664 75 43.4178 74.8624 44.3714 74.5877C45.3368 74.3129 46.1926 73.8719 46.9396 73.265C47.6979 72.658 48.3414 71.8621 48.8699 70.8773H49.0766V74.5877H57.9701V56.5163C57.9701 55.2907 57.6888 54.157 57.1257 53.115C56.574 52.0614 55.7698 51.1453 54.7126 50.3664C53.6555 49.5762 52.3743 48.9636 50.8693 48.5282C49.364 48.0819 47.6634 47.8585 45.7675 47.8585C43.1365 47.8585 40.9418 48.2708 39.184 49.0951C37.4258 49.9084 36.0872 50.9964 35.168 52.3592C34.2603 53.7106 33.749 55.1879 33.6341 56.791H42.3895C42.5044 55.9781 42.8434 55.3769 43.4064 54.9872C43.9809 54.5866 44.7222 54.386 45.6299 54.386C46.4569 54.386 47.1348 54.5693 47.6634 54.9358C48.192 55.3024 48.4563 55.8293 48.4563 56.5163V56.5851C48.4563 57.0889 48.2553 57.4955 47.853 57.8046C47.4511 58.1024 46.7959 58.3371 45.8881 58.5091C44.9921 58.6693 43.8027 58.8065 42.3205 58.921C40.9532 59.0242 39.678 59.2475 38.4942 59.5911C37.3224 59.9346 36.294 60.4327 35.4093 61.0857C34.5246 61.7384 33.8351 62.58 33.3411 63.611C32.847 64.6302 32.5999 65.8611 32.5999 67.304C32.5999 69.0564 32.9676 70.4994 33.703 71.6331C34.4384 72.7669 35.4495 73.6142 36.7364 74.1754ZM46.3537 68.5754C45.7217 68.8732 45.0437 69.0221 44.3199 69.0221C43.5156 69.0221 42.8547 68.8274 42.3379 68.4378C41.8207 68.0485 41.5621 67.4873 41.5621 66.7545C41.5621 66.2965 41.6713 65.8842 41.8897 65.5176C42.1195 65.1397 42.4642 64.8249 42.9237 64.5728C43.3951 64.3094 43.9983 64.1204 44.7335 64.0059C45.1127 63.9485 45.4744 63.8857 45.8195 63.817C46.1755 63.7482 46.5088 63.6737 46.819 63.5936C47.1405 63.5135 47.4393 63.4277 47.7154 63.3359C48.0024 63.2444 48.2724 63.1469 48.5253 63.0441V65.2429C48.5253 66.0444 48.3243 66.7258 47.922 67.287C47.5197 67.8482 46.9972 68.2776 46.3537 68.5754ZM73.4859 74.5877V59.7456C73.4973 58.8753 73.658 58.1312 73.9682 57.5125C74.2784 56.8829 74.7208 56.4018 75.2953 56.0696C75.8815 55.7261 76.5651 55.5541 77.3462 55.5541C78.5414 55.5541 79.4719 55.9264 80.1385 56.6709C80.8164 57.4154 81.1497 58.4403 81.138 59.7456V74.5877H90.6518V57.7532C90.6636 55.8406 90.2844 54.1399 89.5143 52.6513C88.756 51.1623 87.6818 49.9942 86.2913 49.1469C84.9127 48.2879 83.2868 47.8585 81.414 47.8585C79.4719 47.8585 77.7717 48.3336 76.3122 49.284C74.8646 50.2349 73.8533 51.5459 73.2789 53.2182H73.0032V48.2021H63.972V74.5877H73.4859ZM101.182 73.4539C102.768 74.4388 104.503 74.9312 106.387 74.9312C107.628 74.9312 108.731 74.7309 109.697 74.3299C110.673 73.9176 111.5 73.3625 112.178 72.6637C112.868 71.9536 113.396 71.152 113.764 70.2586H113.971V74.5877H123.415V39.4067H113.902V52.8059H113.764C113.419 51.9125 112.913 51.0935 112.247 50.3494C111.581 49.5936 110.754 48.9923 109.765 48.5456C108.777 48.0876 107.628 47.8585 106.319 47.8585C104.572 47.8585 102.906 48.3222 101.32 49.25C99.7459 50.1775 98.459 51.6377 97.4595 53.6301C96.4714 55.6229 95.9773 58.2113 95.9773 61.3949C95.9773 64.4413 96.4482 66.9662 97.3905 68.9703C98.3441 70.9744 99.6083 72.4691 101.182 73.4539ZM112.144 66.8917C111.523 67.3959 110.776 67.6476 109.903 67.6476C109.03 67.6476 108.283 67.4015 107.663 66.9091C107.054 66.405 106.583 65.6896 106.25 64.7618C105.928 63.8226 105.767 62.7002 105.767 61.3949C105.767 60.0892 105.928 58.9728 106.25 58.045C106.583 57.1059 107.054 56.3901 107.663 55.8976C108.283 55.3939 109.03 55.1418 109.903 55.1418C110.776 55.1418 111.523 55.3939 112.144 55.8976C112.776 56.3901 113.259 57.1059 113.591 58.045C113.936 58.9728 114.109 60.0892 114.109 61.3949C114.109 62.6775 113.936 63.7882 113.591 64.7274C113.259 65.6552 112.776 66.3766 112.144 66.8917Z" fill="white"/>
</svg>
