<svg width="79" height="79" viewBox="0 0 79 79" fill="none" xmlns="http://www.w3.org/2000/svg">
<path fill-rule="evenodd" clip-rule="evenodd" d="M47.4 19.75H55.3C55.8238 19.75 56.3263 19.9581 56.6966 20.3285C57.067 20.6988 57.275 21.2012 57.275 21.725C57.275 22.2488 57.067 22.7512 56.6966 23.1215C56.3263 23.4919 55.8238 23.7 55.3 23.7H47.4C46.8762 23.7 46.3738 23.4919 46.0034 23.1215C45.633 22.7512 45.425 22.2488 45.425 21.725C45.425 21.2012 45.633 20.6988 46.0034 20.3285C46.3738 19.9581 46.8762 19.75 47.4 19.75ZM47.4 27.65H55.3C55.8238 27.65 56.3263 27.8581 56.6966 28.2285C57.067 28.5988 57.275 29.1012 57.275 29.625C57.275 30.1488 57.067 30.6512 56.6966 31.0215C56.3263 31.3919 55.8238 31.6 55.3 31.6H47.4C46.8762 31.6 46.3738 31.3919 46.0034 31.0215C45.633 30.6512 45.425 30.1488 45.425 29.625C45.425 29.1012 45.633 28.5988 46.0034 28.2285C46.3738 27.8581 46.8762 27.65 47.4 27.65ZM47.4 43.45H55.3C55.8238 43.45 56.3263 43.6581 56.6966 44.0285C57.067 44.3988 57.275 44.9012 57.275 45.425C57.275 45.9488 57.067 46.4512 56.6966 46.8215C56.3263 47.1919 55.8238 47.4 55.3 47.4H47.4C46.8762 47.4 46.3738 47.1919 46.0034 46.8215C45.633 46.4512 45.425 45.9488 45.425 45.425C45.425 44.9012 45.633 44.3988 46.0034 44.0285C46.3738 43.6581 46.8762 43.45 47.4 43.45ZM47.4 35.55H55.3C55.8238 35.55 56.3263 35.7581 56.6966 36.1285C57.067 36.4988 57.275 37.0012 57.275 37.525C57.275 38.0488 57.067 38.5512 56.6966 38.9215C56.3263 39.2919 55.8238 39.5 55.3 39.5H47.4C46.8762 39.5 46.3738 39.2919 46.0034 38.9215C45.633 38.5512 45.425 38.0488 45.425 37.525C45.425 37.0012 45.633 36.4988 46.0034 36.1285C46.3738 35.7581 46.8762 35.55 47.4 35.55ZM77.025 21.725H69.125V72.0875C69.125 73.9208 68.3967 75.679 67.1003 76.9754C65.804 78.2717 64.0458 79 62.2125 79C61.8814 78.9914 61.5513 78.9584 61.225 78.9012V79H7.90005V78.9012C7.57375 78.9584 7.24369 78.9914 6.91255 79C5.07924 79 3.32106 78.2717 2.02472 76.9754C0.728372 75.679 5.32547e-05 73.9208 5.32547e-05 72.0875V63.2C5.32547e-05 62.6762 0.208041 62.1738 0.578425 61.8035C0.948809 61.4331 1.45125 61.225 1.97505 61.225C2.49885 61.225 3.00129 61.4331 3.37168 61.8035C3.74206 62.1738 3.95005 62.6762 3.95005 63.2V72.0875C3.95005 72.8732 4.26215 73.6267 4.81773 74.1823C5.3733 74.7379 6.12685 75.05 6.91255 75.05C7.2507 75.0421 7.58488 74.9753 7.90005 74.8525V75.05H55.9912C55.5396 74.1275 55.3033 73.1146 55.3 72.0875V65.175H37.525C37.0012 65.175 36.4988 64.9669 36.1284 64.5965C35.758 64.2262 35.55 63.7238 35.55 63.2C35.55 62.6762 35.758 62.1738 36.1284 61.8035C36.4988 61.4331 37.0012 61.225 37.525 61.225H59.25V72.0875C59.25 72.8732 59.5621 73.6267 60.1177 74.1823C60.6733 74.7379 61.4268 75.05 62.2125 75.05C62.9982 75.05 63.7518 74.7379 64.3073 74.1823C64.8629 73.6267 65.175 72.8732 65.175 72.0875V6.9125C65.1783 5.88541 65.4146 4.87246 65.8662 3.95H19.75V4.1475C19.4349 4.02472 19.1007 3.95789 18.7625 3.95C17.9768 3.95 17.2233 4.26212 16.6677 4.81769C16.1121 5.37327 15.8 6.1268 15.8 6.9125V7.9C15.8 8.4238 15.5921 8.92615 15.2217 9.29654C14.8513 9.66692 14.3488 9.875 13.825 9.875C13.3012 9.875 12.7988 9.66692 12.4284 9.29654C12.058 8.92615 11.85 8.4238 11.85 7.9V6.9125C11.85 5.07919 12.5784 3.32097 13.8747 2.02463C15.1711 0.728281 16.9292 0 18.7625 0C19.0937 0.00862184 19.4237 0.0416263 19.75 0.0987485V0H71.1V0.0987485C71.4263 0.0416263 71.7564 0.00862184 72.0875 0C73.9208 0 75.679 0.728281 76.9753 2.02463C78.2717 3.32097 79 5.07919 79 6.9125V21.725H77.025ZM75.05 6.9125C75.05 6.1268 74.7379 5.37327 74.1823 4.81769C73.6267 4.26212 72.8732 3.95 72.0875 3.95C71.3018 3.95 70.5483 4.26212 69.9927 4.81769C69.4371 5.37327 69.125 6.1268 69.125 6.9125V15.8V17.775H75.05V6.9125ZM39.5 33.575C39.498 36.6374 38.7831 39.6572 37.412 42.3955C36.0408 45.1338 34.0509 47.5152 31.6 49.3513V63.2C31.6043 63.4716 31.5505 63.741 31.4421 63.99C31.2357 64.4699 30.8474 64.8484 30.3625 65.0427C29.8776 65.237 29.3355 65.2314 28.8548 65.0269L19.7698 61.3692L10.6453 65.0269C10.1646 65.2314 9.62245 65.237 9.13756 65.0427C8.65266 64.8484 8.26442 64.4699 8.05796 63.99C7.94954 63.741 7.89576 63.4716 7.90005 63.2V49.3513C5.20604 47.3308 3.07342 44.655 1.70479 41.5781C0.336161 38.5013 -0.223094 35.1256 0.0803358 31.7717C0.383766 28.4179 1.53983 25.1974 3.43846 22.4161C5.33709 19.6349 7.91522 17.3853 10.9281 15.8811C13.941 14.3769 17.2887 13.6681 20.6527 13.8219C24.0167 13.9758 27.2854 14.9873 30.1484 16.7603C33.0114 18.5333 35.3735 21.0089 37.0103 23.9519C38.6471 26.8949 39.5041 30.2075 39.5 33.575ZM11.85 60.3165L18.9798 57.4607C19.2297 57.356 19.4989 57.3048 19.7698 57.3105C20.0473 57.3031 20.3233 57.3543 20.5796 57.4607L27.65 60.3086V51.67C25.1592 52.7611 22.4694 53.3244 19.75 53.3244C17.0307 53.3244 14.3409 52.7611 11.85 51.67V60.3165ZM3.95005 33.575C3.95005 36.6999 4.87675 39.7547 6.61288 42.353C8.349 44.9513 10.8165 46.9764 13.7035 48.1723C16.5906 49.3682 19.7675 49.6811 22.8324 49.0714C25.8973 48.4618 28.7127 46.957 30.9223 44.7473C33.132 42.5376 34.6369 39.7223 35.2465 36.6574C35.8561 33.5925 35.5431 30.4157 34.3472 27.5286C33.1514 24.6415 31.1264 22.1739 28.5281 20.4378C25.9298 18.7017 22.875 17.775 19.75 17.775C15.5596 17.775 11.5408 19.4396 8.57775 22.4027C5.61468 25.3658 3.95005 29.3846 3.95005 33.575ZM31.6 33.575C31.6 35.9187 30.9049 38.2098 29.6029 40.1585C28.3008 42.1072 26.4502 43.6261 24.2849 44.523C22.1196 45.4199 19.7369 45.6545 17.4382 45.1973C15.1396 44.7401 13.028 43.6115 11.3708 41.9542C9.71351 40.297 8.58487 38.1855 8.12764 35.8868C7.6704 33.5881 7.90506 31.2055 8.80196 29.0402C9.69886 26.8749 11.2179 25.0242 13.1666 23.7221C15.1154 22.42 17.4063 21.725 19.75 21.725C22.8929 21.725 25.907 22.9735 28.1293 25.1958C30.3516 27.4181 31.6 30.4322 31.6 33.575ZM11.85 33.575C11.85 35.1375 12.3133 36.6649 13.1813 37.964C14.0494 39.2632 15.2833 40.2757 16.7268 40.8736C18.1703 41.4716 19.7589 41.628 21.2913 41.3232C22.8238 41.0184 24.2312 40.266 25.3361 39.1612C26.4409 38.0563 27.1933 36.6487 27.4981 35.1162C27.803 33.5838 27.6467 31.9953 27.0488 30.5518C26.4508 29.1083 25.4382 27.8744 24.1391 27.0064C22.8399 26.1383 21.3125 25.675 19.75 25.675C17.6548 25.675 15.6456 26.5073 14.164 27.9889C12.6825 29.4704 11.85 31.4798 11.85 33.575Z" fill="white"/>
</svg>
