<svg width="79" height="79" viewBox="0 0 79 79" fill="none" xmlns="http://www.w3.org/2000/svg">
<path fill-rule="evenodd" clip-rule="evenodd" d="M75.05 63.2V73.075C75.05 74.6464 74.4257 76.1535 73.3146 77.2646C72.2034 78.3758 70.6964 79 69.125 79H7.9C5.80479 79 3.79539 78.1677 2.31385 76.6861C0.832313 75.2046 0 73.1952 0 71.1V23.7H0.0987259C0.33198 22.058 1.14928 20.5552 2.40076 19.4669C3.65224 18.3787 5.25405 17.778 6.9125 17.775H9.05934C9.63565 19.1972 10.4161 20.5278 11.376 21.725H6.9125C6.1268 21.725 5.37326 22.0371 4.81768 22.5927C4.2621 23.1483 3.95 23.9018 3.95 24.6875C3.95 25.4732 4.2621 26.2267 4.81768 26.7823C5.37326 27.3379 6.1268 27.65 6.9125 27.65H37.9852C37.4973 26.0278 37.3957 24.3139 37.6883 22.6454C37.9809 20.9769 38.6597 19.3999 39.6705 18.0405C40.6812 16.6811 41.9959 15.577 43.5094 14.8162C45.023 14.0555 46.6935 13.6593 48.3875 13.6593C50.0815 13.6593 51.752 14.0555 53.2656 14.8162C54.7791 15.577 56.0938 16.6811 57.1045 18.0405C58.1153 19.3999 58.7941 20.9769 59.0867 22.6454C59.3793 24.3139 59.2777 26.0278 58.7898 27.65H67.15V23.7C67.15 23.1762 66.9419 22.6739 66.5715 22.3035C66.2011 21.9331 65.6988 21.725 65.175 21.725H62.9018C62.621 20.3471 62.1434 19.0168 61.4837 17.775H65.175C66.7464 17.775 68.2534 18.3992 69.3646 19.5104C70.4757 20.6215 71.1 22.1286 71.1 23.7V28.0134C72.2527 28.4182 73.2515 29.1704 73.9589 30.1664C74.6663 31.1624 75.0475 32.3533 75.05 33.575V43.45C76.0976 43.45 77.1023 43.8662 77.8431 44.6069C78.5838 45.3477 79 46.3524 79 47.4V59.25C79 60.2976 78.5838 61.3023 77.8431 62.0431C77.1023 62.7838 76.0976 63.2 75.05 63.2ZM55.3 24.6875C55.3 22.8542 54.5717 21.096 53.2754 19.7996C51.979 18.5033 50.2208 17.775 48.3875 17.775C46.5542 17.775 44.7959 18.5033 43.4996 19.7996C42.2033 21.096 41.475 22.8542 41.475 24.6875C41.4802 25.7144 41.7164 26.7269 42.1663 27.65H54.6087C55.0586 26.7269 55.2948 25.7144 55.3 24.6875ZM71.1 33.575C71.1 33.0512 70.8919 32.5489 70.5215 32.1785C70.1511 31.8081 69.6488 31.6 69.125 31.6H3.95V71.1C3.95 72.1476 4.36616 73.1523 5.10693 73.8931C5.84769 74.6338 6.8524 75.05 7.9 75.05H69.125C69.6488 75.05 70.1511 74.8419 70.5215 74.4715C70.8919 74.1012 71.1 73.5988 71.1 73.075V63.2H54.3125C51.9554 63.2 49.6948 62.2636 48.0281 60.5969C46.3614 58.9302 45.425 56.6696 45.425 54.3125V52.3375C45.425 49.9804 46.3614 47.7198 48.0281 46.0531C49.6948 44.3864 51.9554 43.45 54.3125 43.45H71.1V33.575ZM75.05 47.4H54.3125C53.003 47.4 51.7471 47.9202 50.8212 48.8462C49.8952 49.7721 49.375 51.028 49.375 52.3375V54.3125C49.375 55.622 49.8952 56.8779 50.8212 57.8038C51.7471 58.7298 53.003 59.25 54.3125 59.25H75.05V47.4ZM51.9978 53.325C51.9978 52.6719 52.1914 52.0334 52.5543 51.4904C52.9171 50.9473 53.4329 50.5241 54.0363 50.2742C54.6397 50.0242 55.3037 49.9588 55.9443 50.0863C56.5848 50.2137 57.1732 50.5282 57.635 50.99C58.0968 51.4518 58.4113 52.0402 58.5387 52.6808C58.6661 53.3213 58.6008 53.9853 58.3509 54.5887C58.1009 55.1921 57.6777 55.7078 57.1346 56.0707C56.5916 56.4335 55.9531 56.6272 55.3 56.6272C54.4242 56.6272 53.5843 56.2793 52.965 55.66C52.3457 55.0407 51.9978 54.2008 51.9978 53.325ZM11.85 69.125C11.3262 69.125 10.8239 68.9169 10.4535 68.5465C10.0831 68.1762 9.875 67.6738 9.875 67.15V39.5C9.875 38.9762 10.0831 38.4739 10.4535 38.1035C10.8239 37.7331 11.3262 37.525 11.85 37.525C12.3738 37.525 12.8761 37.7331 13.2465 38.1035C13.6169 38.4739 13.825 38.9762 13.825 39.5V67.15C13.825 67.6738 13.6169 68.1762 13.2465 68.5465C12.8761 68.9169 12.3738 69.125 11.85 69.125ZM23.7 23.7C21.3563 23.7 19.0652 23.005 17.1165 21.7029C15.1677 20.4008 13.6489 18.5501 12.752 16.3848C11.8551 14.2195 11.6205 11.8369 12.0777 9.53819C12.5349 7.23951 13.6635 5.12804 15.3208 3.47079C16.978 1.81354 19.0895 0.684935 21.3882 0.2277C23.6869 -0.229535 26.0695 0.00513444 28.2348 0.902033C30.4001 1.79893 32.2508 3.31778 33.5529 5.2665C34.855 7.21522 35.55 9.5063 35.55 11.85C35.55 14.9928 34.3015 18.0069 32.0792 20.2292C29.8569 22.4515 26.8428 23.7 23.7 23.7ZM23.7 3.95001C22.1375 3.95001 20.6101 4.41333 19.311 5.2814C18.0118 6.14946 16.9993 7.38328 16.4013 8.82681C15.8034 10.2703 15.647 11.8588 15.9518 13.3912C16.2566 14.9237 17.009 16.3313 18.1139 17.4362C19.2187 18.541 20.6263 19.2934 22.1588 19.5982C23.6912 19.903 25.2797 19.7466 26.7232 19.1487C28.1667 18.5507 29.4005 17.5382 30.2686 16.239C31.1367 14.9399 31.6 13.4125 31.6 11.85C31.6 9.7548 30.7677 7.7454 29.2861 6.26386C27.8046 4.78233 25.7952 3.95001 23.7 3.95001Z" fill="white"/>
</svg>
