<?xml version="1.0" encoding="UTF-8"?>
<!DOCTYPE svg PUBLIC "-//W3C//DTD SVG 1.1//EN" "http://www.w3.org/Graphics/SVG/1.1/DTD/svg11.dtd">
<!-- Creator: CorelDRAW -->
<svg xmlns="http://www.w3.org/2000/svg" xml:space="preserve" width="42.3332mm" height="42.3332mm" version="1.1" style="shape-rendering:geometricPrecision; text-rendering:geometricPrecision; image-rendering:optimizeQuality; fill-rule:evenodd; clip-rule:evenodd"
viewBox="0 0 4233.32 4233.32"
 xmlns:xlink="http://www.w3.org/1999/xlink"
 xmlns:xodm="http://www.corel.com/coreldraw/odm/2003">
 <defs>
  <style type="text/css">
   <![CDATA[
    .fil3 {fill:black}
    .fil2 {fill:#1A1A1A}
    .fil14 {fill:#232323}
    .fil5 {fill:#333333}
    .fil12 {fill:#414141}
    .fil9 {fill:#4D4D4D}
    .fil7 {fill:#525252}
    .fil10 {fill:#666666}
    .fil13 {fill:dimgray}
    .fil8 {fill:#828282}
    .fil11 {fill:#939393}
    .fil15 {fill:#A7A7A7}
    .fil6 {fill:#C7C7C7}
    .fil4 {fill:#CCCCCC}
    .fil16 {fill:#D9D9D9}
    .fil0 {fill:#E6E6E6}
    .fil1 {fill:white}
   ]]>
  </style>
 </defs>
 <g id="Слой_x0020_1">
  <metadata id="CorelCorpID_0Corel-Layer"/>
  <path class="fil0" d="M1437.37 275.32c-67.48,9.16 -7.01,53.9 -76.46,82.85 -123.96,51.66 -62.63,32.13 -142.76,147.95 -12.33,17.82 -25.63,24.38 -38.24,43.99 -11.62,18.07 -17.69,40.37 -25.92,56.34 -11.34,22 -24.08,28.7 -32.78,44.85l-34.8 83.33 39.8 -45.22c16.71,-18.72 26.2,-22.88 58.23,-25.72 -8.55,25.46 -42.8,40.2 -61.34,56.98 -27.35,24.74 -79.72,90.63 -90.99,128.13l-5.47 16.02c-0.78,1.45 -1.87,3.09 -2.77,4.42l-33.22 41.23c-0.33,-0.96 -1.62,2.5 -2.61,3.59 -13.02,51.42 -66.74,73.03 -55.06,143.74 4.62,38.4 29.15,-8.73 21.55,59.38 -12.68,113.69 -21.47,20.62 18.54,143.75 10.17,31.27 20.73,18.96 35.96,47.29 3.5,-42.28 33.43,-76.96 54.7,-19.97 4.22,11.3 5.74,23.45 9.36,36.54 13.11,-24.78 22.17,-20.31 57.63,-19.35l109.52 -178.16c13.3,-18.54 37.61,-37.71 11.71,-58.78 -23.57,-8.67 -32.5,22.21 -61.88,41.38 -5.05,19.73 -67.7,111.9 -82.59,137.19 -6.68,-11.74 -0.26,-12.56 0.4,-39.3 -25.19,5.46 -52.84,21.83 -79.96,3.67 -39.83,-26.69 3.62,-33.8 -53.38,-49.71 7.2,-23.78 14.87,-31.43 19.95,-59.38 13.14,-72.41 86.4,-109.1 104.15,-108.61 16.03,-24.35 101.46,-74.2 112.61,13.86l6.3 50.46c35.51,-11.5 24.94,-9.42 15.61,-105.73 -5.44,-56.13 -9.75,-77.7 26.74,-102.25 29.99,19.81 45.82,32.74 74.46,54.43 28.44,21.53 40.55,38.47 70.44,60.57 51.55,38.13 65.68,5.07 163.04,31.68 39.91,10.91 10.84,17.61 38.64,21.67 -26.63,0.99 -53.13,1.84 -79.75,2.45 -60.41,1.38 -30.83,-1.48 -61.94,20.54 9.25,40.6 8.47,2.81 22.9,45.48 0.32,0.95 0.6,3.06 0.96,4.01 13.08,34.57 50.5,36.73 74.37,66.31 28.5,35.32 -13.83,-5.23 68.55,49.16 28.69,18.94 54.5,29.64 81.3,12.48 0.62,2.38 -2.31,12.44 -1.06,30.22 52.73,2.77 124.79,12.97 139.94,54.61 -8.04,14.52 -16.54,11.03 -25.06,20.64l102.69 65.8c36.6,22.83 16.7,11.01 35.56,7.36 1.21,-0.23 3.2,-1.05 4.47,-1.23l35.58 6.42c92.43,35.8 43.25,10.49 99.57,17.71 37.39,4.78 7.03,12.94 45.31,9.76 50.94,-4.25 45.26,-16.13 74.3,-41.74 37.19,-32.8 145.46,-140.69 191.28,-138.11 19.05,1.08 4.24,-2.89 15.56,5.23 -19.42,12.39 -53.25,29.75 -66.72,45.86 -34.38,41.13 13.58,41.83 -44.95,65.53l28.53 -2.8 62.64 -17.2 66.55 -37.75c31.74,-10.12 31.18,0.37 101.75,-29.98 4.78,-2.05 22.24,-8.06 24.82,-8.64 60.58,-13.75 145.3,51.38 194.06,58.52 6.25,-14.26 4.87,-11.28 14.08,-18.49 -21.01,-72.81 -8.24,-43.42 -44.88,-105.06 -14.64,-24.64 0.67,16.21 -12.19,-22.2 19.36,3 15.26,2.16 27.13,5.54l21.2 8c2.76,-45.64 -7.39,-15.33 22.71,-30.75 -13.87,-54.79 -3.73,-27.49 5.92,-52.26l-8.84 -12.09c-44.29,-50.14 -32.43,-54.78 -87.05,-57.78 1.32,-1.36 4.04,-4.89 4.5,-3.46 0.42,1.27 3.45,-2.65 3.92,-3.18l-10.02 -24.02c-18.7,-47.34 33,-46.4 -3.05,-72 -0.62,-0.44 -2.66,-1.42 -3.94,-2.24 3.63,-19 6.83,-30.1 6.99,-55.04 -76.72,-40.45 -40.6,-0.61 -65.05,-44.3l-86.2 -0.35c14.09,-14.15 2.05,-5.58 22.69,-14.04 18.58,-7.63 29.02,-1.7 66.54,-23.86 -15.76,-42.67 0.57,-77.48 40.87,-92.22 113.14,-79.4 149.38,-49.8 173.94,-89.87 44.84,-73.2 -16.35,-66.31 -6.85,-102.89 5.26,-20.3 13.01,6.64 14.32,-38.92l-3.56 -28.5c0.61,-40.37 8.11,-62.45 -6.88,-96.1 -57.22,-128.43 -53.88,-62.27 -77.25,-134.98 -8.26,-11.51 -39.36,-18.86 -50.6,-26.24 -3.9,-2.56 -20.72,-14.08 -24.36,-17.04 -27.94,-22.65 -89.39,-69.38 -123.5,-79.79 -56.2,-23.75 -96.77,5.74 -149.4,5.53 3.15,37.2 -11,60.81 17.91,68.88 41.01,11.44 41.58,-15.82 59.48,24.61 7.58,-11.32 19.91,-28.94 38.03,-19.46 18.34,9.59 12.3,22.42 16.14,45.5l41.55 7.92 52.81 2.77 7.89 44.77c45.33,17.78 39.3,11.45 93.38,11 18.75,31 22.19,52.63 45.62,90.16l19.37 30.19c12.54,16.06 17.83,14.38 30.01,30.07 -21.64,37.91 -48.25,28.81 -82.62,14.16 -34.96,-14.91 -103.31,-102.93 -207.27,-138.02 -40.41,-3.24 -32.5,-0.72 -59.66,-19.88 -16.2,-11.42 -28.55,-17.52 -48.72,-25.05 -62.72,-23.41 -68.02,-9.97 -103.26,-54.55l-28.07 -9.47c-1.17,-36.57 7.1,-41.57 25.01,-59.86 15.58,-15.94 23.58,-25.83 39.17,-34.6 15.73,-17.04 17.43,-4.88 11.66,-28.26 -13.38,-54.13 -99.38,6.33 -124.87,21.95l-121.51 32.96 -226.17 6.13 -10.47 24.47c-17.52,23.86 14.41,-3.91 -18.34,13.79 -1.28,0.69 -3.19,1.44 -4.5,2.13 -1.35,0.7 -3.24,1.46 -4.62,2.19l-17.88 10.84c-67.89,50.85 -58.48,31.49 -175.82,72.07 -15.82,5.49 -88.21,24.42 -91.1,26.46 -13.66,13.55 1.89,30.47 -26.54,55.8l-39.01 38.37c-15.76,-7.8 -38.22,-5.96 -63.83,-50.5l-34.9 -69.48c-1.04,-7.52 -10.35,-0.79 -30.38,6.79z"/>
  <path class="fil1" d="M2713.02 709.27c-40.3,14.74 -56.63,49.55 -40.87,92.22 -37.52,22.16 -47.96,16.23 -66.54,23.86 -20.64,8.46 -8.6,-0.11 -22.69,14.04l86.2 0.35c24.45,43.69 -11.67,3.85 65.05,44.3 -0.16,24.94 -3.36,36.04 -6.99,55.04 1.28,0.82 3.32,1.8 3.94,2.24 36.05,25.6 -15.65,24.66 3.05,72l10.02 24.02c-0.47,0.53 -3.5,4.45 -3.92,3.18 -0.46,-1.43 -3.18,2.1 -4.5,3.46 54.62,3 42.76,7.64 87.05,57.78l8.84 12.09c-9.65,24.77 -19.79,-2.53 -5.92,52.26 -30.1,15.42 -19.95,-14.89 -22.71,30.75l-21.2 -8c-11.87,-3.38 -7.77,-2.54 -27.13,-5.54 12.86,38.41 -2.45,-2.44 12.19,22.2 36.64,61.64 23.87,32.25 44.88,105.06 -9.21,7.21 -7.83,4.23 -14.08,18.49 -48.76,-7.14 -133.48,-72.27 -194.06,-58.52 -2.58,0.58 -20.04,6.59 -24.82,8.64 -70.57,30.35 -70.01,19.86 -101.75,29.98l-66.55 37.75c84.73,-10.42 224.8,-89.36 272.53,-14.9 -75.89,-4.16 -86.57,-4.75 -134.2,37.15 -24.84,21.85 -63.68,56.27 -68.77,109.73 42.92,-2.28 59.2,-28.95 164.7,-10.54 27.45,4.79 41.38,12.69 69.4,19.22 41.12,9.59 52.5,-7.84 75.28,5.48 68.08,39.82 77.33,139.92 -23.89,138.3 -37.34,-0.61 -46.66,-4.94 -73.76,29.11 57.19,-10.85 15.93,-4.06 31.89,7.83 -11.06,13.56 -6.49,15.9 -34.15,27.29 -72.42,29.82 -96.33,21.15 -115.2,60.4 42.63,15.23 69.8,19.4 118.84,0.33 14.59,-12.61 33.15,-19.42 48.9,-36.19 20.56,-21.86 21.37,-63.63 98.91,-89.07 41.18,-13.5 35.45,11.49 36.15,49.23l17.32 10.4c28.23,8.67 25.4,6.16 36.63,33.94 8.44,20.84 10.72,33.06 9.46,60.75 -1.33,28.86 -3.34,36.84 -19.19,53.36 -39.04,40.64 -77.61,105.21 -119.93,154.32l-49.09 53.66c-27.05,43.64 -23.41,29.73 -114.69,59.59 -53.54,17.52 -105.97,-51.04 -164.2,-104.43 -17.49,-16.04 -25.25,-18.08 -36.28,-39.03 -28.89,-2.74 -49.77,-34.91 -63.85,-54.24l-5.93 -7.79c-25.94,-33.65 -12.28,-19.99 -34.17,-33.26 -12.48,-7.56 -19.22,-10.57 -29.77,-18.82l-29.22 -25.82c-17.22,-12.91 -15.64,-5.79 -32.2,-23.26 -19.64,-20.76 3.5,-8.21 -26.96,-27 -0.02,0.04 -4.38,6.3 -7.49,11.84 -0.58,1.03 -1.82,2.95 -2.44,4.14 -0.63,1.22 -1.64,3.04 -2.26,4.36 -0.64,1.37 -1.49,3.19 -2.08,4.65l-11.57 36.54c-0.55,1.62 -1.25,3.37 -1.81,4.99 -24.57,73.04 -29.48,37.13 -32.48,85.31 -48.02,1.32 -35.39,3.7 -42.45,12.98l-8.31 15.36c-5.71,-38.22 -24.94,-40.42 -56.27,-49.26l18.14 -14.12c16.24,-12.45 4.23,-0.15 14.61,-11.44 1.85,1.29 4.1,1.45 5.06,4.46 0.97,3.07 8.09,7.04 9.72,8.17 18.16,12.54 21.72,12.52 41.22,2.08 -6.58,-12.44 5.16,1.87 -7.83,-8.18 -0.7,-0.54 -2.4,-2.05 -3.25,-2.61 -32.94,-22.49 -77.24,-5.11 -138.76,-5.59l-2.94 -53.28c-19.71,4.64 -70.95,62.84 -90.36,79.15 46.14,27.78 18.27,-14.03 67.83,52.84l-14.54 21.88c91.42,-11.21 92.71,25.02 150.88,22.54 57.25,-2.45 59.27,-34.11 129.78,-44.77 32.71,-4.94 10.66,-11.18 34.97,2.94 21.91,12.72 28.13,15.52 42.87,39.4 22.77,36.93 67.31,43.58 106.05,63.39 10.25,72.47 12.14,48.79 -30.09,75.68l-8.27 34.36c27.93,-10.24 21.24,-2.29 32.39,-6.91 17.18,-7.11 8.3,-7.58 22.95,-19.93 75.4,46.21 124.01,149.05 169.06,226.38 39.07,74.86 6.11,48.24 31.38,81.3 22.69,29.66 32.59,10.53 63.92,59.7 43.83,68.81 102.63,52.68 109.42,133.75 6.03,72.05 -13.59,94.75 -25.48,148.04 35.28,-7.74 16.83,-5.66 40.04,-20.75 18.87,-12.29 20.25,-7.54 39.66,-15.68 9.39,-19.6 2.88,-17.94 8.6,-32.86l10.33 -17.31c1,-1.32 2.58,-2.97 3.54,-4.16 12.95,-16 6.88,-34.71 -2.95,-56.15 -27.73,-60.42 -74.84,-42.8 -77.7,-105.19 50.05,0.1 168.09,41.38 138.32,117.08l-4.6 9.72c-22.66,56.07 0.5,97 -31.66,140.1 -19.49,26.12 -16.46,3.99 -27.7,51.15 -5.24,21.97 -7.31,38.36 -16.72,56.2 -64.63,122.45 -103.86,21.2 -115.06,184.7 -5.73,83.73 -154.13,66.31 -130.6,127.76 7.66,20.01 5.44,13.93 29.14,15.45 21.7,-10.11 20.73,-18.55 43.21,-27.14 24.39,-9.33 40.9,-4.03 67.7,-9.45 29.31,-5.92 27.95,-13.42 39.11,-36.4 11.67,-23.98 25.55,-27.64 29.67,-44.66 10.96,-45.2 -35.87,-62.33 34.24,-102.6 20.39,-11.72 28.58,-13.85 47.92,-28.33 15.84,-11.85 25.44,-31.22 43.17,-36.41 29.71,60.31 -44.89,71.52 -52.47,113.05 -0.17,0.9 -0.32,3.25 0.04,4.82 24.62,4.04 1.16,5.4 31.75,-4.95 13.42,-22.05 47.72,-12.06 80.65,-56.49 18.61,-25.1 -4.63,-8.5 24.56,-25.14 -0.48,-27.03 -6.89,-14.84 -3.59,-49.37 38.05,-12.69 55.46,-28.47 97.78,-34.87 48.38,-7.31 59.88,-13.15 79.29,-45.52 5.01,-25.82 5.29,-46.48 15.15,-65.78 14.71,-28.83 19.44,-16.94 25.9,-52.12 -28.76,16.73 -10.28,5.29 -18.93,0 -0.39,-12.96 0.39,-35.3 -1.28,-47.03 -4.77,-33.68 -0.99,-21.82 -18.3,-29.29l-7.58 151.83c-33.01,24.19 -74.99,34.88 -114.82,49.61 -26.01,9.61 -2.58,-0.09 -26.31,14.19 -37.31,22.46 -41.65,12.96 -56.29,14.73 -35.74,4.3 6.01,5.1 -34.91,9.78 -15.49,-22.32 -24.53,-55.76 -12.79,-79.75l11.1 -16.9c17.68,-22.63 25.56,-20.92 46.6,-42.72l23.06 -25.71c0.8,-0.94 2.34,-2.4 3.05,-3.34 12.19,-16.25 6.03,-27.84 8.43,-63.07l5.04 -20.49c0.53,-0.99 1.9,-2.57 2.49,-3.58l7.73 -12.36c0.71,-1.39 1.56,-3.36 2.21,-4.76l5.84 -14.97c-20.98,-29.16 -26.01,0.74 -27.3,-47.73 -32.14,2.25 -13.13,8.29 -34.19,-0.43l-3.73 -20.9c44.87,-30.52 74.09,-18.56 100.04,-18.67 1.16,-1.39 2.72,-5.52 3.25,-4.36 5.29,11.63 -1,-5.29 19.53,-22.51l94.64 71.15c3.03,-21.35 2.54,-18.37 3.1,-37.46 0.97,-33 0.89,-4.31 3.35,-25.63 -5.02,-15.93 -36.15,-34.28 -21.24,-70.49 12.45,-30.25 87.83,-36.55 119.83,-41.12l-9.25 -77.35c-0.59,-2.23 -1.04,-3.94 -1.74,-6.04l-8.29 -16.68 0.99 84.22 -39.42 4.53c-20.94,-78.18 16.36,-152.75 -13.44,-203.9 -7.2,5.8 -21.32,3.23 -21.44,47.99 -0.16,60.52 5.88,63.76 0.88,155.57 -16.09,2.48 -17.22,7.37 -34.23,1.5 -18.96,-49.43 -0.61,-182.83 -0.24,-246.34 -34.27,19.18 -31.23,28.69 -35.58,103.17 -1.81,31.1 -3.89,81.93 -12.55,107.82 -30.17,-43.11 -28.16,-110.36 -27.6,-173.26 -12.53,19.16 -14.52,36.18 -15.07,58.31 -1.22,48.73 3.69,80.11 -17.27,120.33 -1.89,3.64 -8.98,16.19 -12.32,22.15l-4.55 8.13c-0.29,0.52 -4.82,9.4 -5.74,11.5 -12.55,-14.87 -13.73,-13.13 -2.78,-34.78 10.69,-21.13 10.91,-9.3 13.62,-43.84 13.42,-171.3 11.38,-88.87 38.01,-211.21 8.95,-41.15 -2.62,-42.49 -4.49,-49.43 -9.32,-34.5 9.23,-22.88 -23.72,-49.6 -2.07,1.07 -4.69,0.88 -5.62,4.12 -0.91,3.13 -4.08,2.98 -5.25,4.23 -22.26,23.89 -20.36,54.98 -37.61,110.4 -11.15,35.87 -25.2,99.79 -47.42,115.16 -4.91,27.36 -1.75,-23.89 -28.66,19.63 -30.29,48.96 -27.58,62.47 -41.04,91.53l-7.07 12.5c-14.36,18.94 -15.88,7.62 -33.71,38.82l-41.27 1.4c-18.35,-24.41 -22.18,-6.37 -25.13,-40.68 -4.03,-46.63 6.4,-20.12 -5.86,-37.21 -5.4,-7.51 -2.95,3.41 -8.26,-8.51 30.67,-56.26 -6.19,-79.69 40.51,-221.98l12.19 -20.97c0.93,-0.99 2.6,-2.19 3.58,-3.15 0.98,-0.97 2.65,-2.19 3.66,-3.15 66.17,-63.32 13.75,-52.95 61.42,-96.85 1.06,-0.97 2.87,-2.01 3.87,-3.05l20.82 -48.41c22.72,-80.58 46.91,-99.96 53.09,-132.71 78.25,-4.04 56.97,-32.83 88.04,5.14l27.24 46.75 44.28 1.65c40.06,-2.28 70.42,-11.95 95.74,-32.07 19.53,-15.53 17.01,-18.19 30.29,-38.16 14,-21.05 16.08,-18.17 32.47,-31.76l17.36 -33.33c1.56,1.85 3.13,2.45 3.71,6.22l9.55 25.24c6.81,31.09 -0.21,55.59 -1.02,69.73 -0.95,16.77 -2.56,24.41 8.81,38.03 -4.3,-39.95 8.92,-65.79 2.57,-106.65 -5.16,-33.23 -7.66,-13.48 -11.18,-41.99l14.47 -117.95c9.62,-41.44 -4.46,-19.72 9.37,-60.05l5 -31.79 49.27 1.12c-14.58,-15.38 -3.46,-5.49 -32.58,-15.8 -30.84,-10.93 -11.43,9.46 -24.22,-15.84l28.36 -6.01c14.02,-1.17 17.03,0.99 34.24,-2.58 6.43,-14.45 -6.02,-5.43 13.76,-18.89 -9.77,-3.73 -16.99,-10.95 -20.71,-20.71 -12.91,17.61 3.52,7.69 -20.57,12.52 -54.62,10.97 -113.74,-87.5 -174.61,-140.97 -26.1,-22.94 -37.84,-28.42 -57.89,-80.46 -3.35,-8.71 -5.68,-15.91 -6.12,-25.78 -1.28,-28.65 7.02,-28.71 7.46,-27l98.72 84.24c31.77,29.13 20.94,1.43 79.65,57.03 15.49,14.67 18.08,22.29 33.52,36.6 23.49,21.78 45.26,50.53 75.47,21.94 -9.29,-52.46 -27.09,-38.71 -53.88,-71.17 -27.13,-32.86 -42.22,-58.34 -75.11,-82.39 -36.55,-26.72 -50.04,-55.37 -76.07,-90.42 -27.02,-36.39 -0.71,-2.11 -7.99,-32.26l43.87 25.33c-5.62,-41.43 -8.19,-77.42 -12,-121.14 -4.92,-56.43 -16.24,-70.92 -24.36,-114.06l-40.37 -55.95 -63.3 -50.93c-69.12,-61.03 -59.32,-187.65 -147.33,-184.57 -5.1,63.76 41.77,103.85 23.64,170.14 -52.49,-34.23 -14.41,-80.53 -130.16,-44.61 -1.23,83.4 65.22,140.48 97.98,190.73 -32.82,-14.56 -129.03,-181.69 -139.65,-185.92 -85.89,1.09 -72.83,41.03 -155.61,37.35 4.19,-10.88 6.68,-18.14 11.91,-32.71z"/>
  <path class="fil2" d="M1302.07 3351.54c37.15,-3.46 5.9,-14.46 39.31,-32.69 35.52,11.14 29.76,33.04 60.5,50.27 15.6,8.74 22.31,6.75 37.3,17.33 21.59,15.26 9.65,14.06 31.65,31.48 28.49,22.55 48.87,26.02 73.48,42.33 32.57,21.58 23.59,38.97 47.91,65.6l24.27 -4c11.33,23.91 17.04,23.11 18.61,51.65 1.72,31.6 -2.39,42.18 2.9,76.07 20.36,8.53 8.03,-2.57 33.2,13.77 -2.69,21.72 -7.76,31.61 -21.59,46.19 -12.74,13.42 -25.85,27.6 -37.51,38.86 -5.52,5.32 -13.96,12.11 -18.42,15.87l-46.9 29.85c-11.19,6.95 -11.52,9.52 -24.12,15.31 27.58,8.69 77.83,-33.26 106.34,-50.94 106.91,-66.3 37.27,-38.45 90.35,-88.67 16.93,6.95 10.75,15.09 27.92,21.84 22.54,-14.86 33.69,-26.29 52.92,-44.51 19,-18.01 28.22,-33.42 64.44,-31.55 5.69,63.28 -48.68,78.67 -70.01,124.22 48.91,-3.48 58.09,-12.26 81.14,-44.04 70,-96.51 38.08,-107.8 3.4,-164.98 -17.92,-29.52 -37.1,-62.09 -42.42,-94.44 12.47,-9.3 6.88,-7.63 6.88,-34.4l20.46 10.37c35.28,20.19 24.01,24.35 41.39,37.78 -16.98,-14.01 -4.52,-3.95 -12.21,-15 -0.56,-0.8 -9.35,-14.65 -10.44,-16.77 -12.45,-24.22 -14.23,-77.54 -6.13,-94.06 10.5,-21.37 12.9,-2.42 31.6,8.81 9.79,-13.22 24.76,-12.21 39.92,-3.96 16.03,8.73 24.81,15.83 39.48,24.27 26.65,15.36 61.67,20.07 86.26,38.33 45.84,34.03 75.67,72.63 141.53,102.59 44.45,14.08 11.27,4.27 23.41,-2.96 -13.37,-77.18 -113.65,-111.63 -129.29,-181.31 106.47,-2.64 119.98,56.08 188.03,132.58 26.89,-12.7 25.08,-28.23 66.02,-18.04 23.56,5.86 42.41,18.16 50.97,42.52 29.63,-4.96 7.88,8.39 26.22,-12.73 18.8,-21.66 18.82,-110.84 16.72,-137.72 -2.98,-38.19 7.19,-14.73 10.44,-55.14 -16.1,-10.34 -26.08,-15.81 -47.75,-19.43 -1.03,1.11 -9.64,13.26 -12.5,16.9 -12.43,15.8 -40.39,22.83 -61.96,22.57 -19.24,-30.45 -81.78,-58.5 -129.51,-71.86 -3.69,-39.48 6.03,-23.41 -6.01,-64.78 -9.87,-33.95 -9.72,-56.7 6.66,-81.46 -26.2,0.88 -36.58,4.43 -32.52,-32.13 1.92,-17.26 10.74,-24.58 20.36,-37.38 -8.08,3.1 -27.92,16.08 -29.44,17.36 -37.48,31.16 -36.42,52.66 -37.67,106.13 -33.16,-10.83 -28.67,-16.17 -61.24,-53.33 -5.64,73.75 -12.97,12.74 -28.71,55.76 7.59,16.69 20.62,24.54 34.73,35.91 10.97,8.86 9.24,8.03 20.09,13.19l109.05 70.55c19.95,13.67 25.3,19.72 42.38,34.25 18.77,15.97 65.79,20.12 74.08,55.56 3.49,14.93 -4.9,20.32 -15.45,32.31l-8.08 7.95c-50.83,-31.52 -87.13,-115.04 -171.54,-110.53 -53.8,2.86 -74.39,1.24 -117.95,-19.58 -55.9,-26.72 -47.7,-26.86 -87.48,-52.22 6.13,-64.49 24.52,-50.39 41.28,-53.63 -2.24,-49 8.3,-41.28 -4.75,-74.53 -57.25,-145.96 -8.71,-47.04 -66.05,-119.19 -11.17,-14.06 -23.2,-31.93 -40.68,-40.73l1.15 29.45c9.71,31.45 31.96,20.95 38.04,71.86 -30.29,-0.67 -67.67,-2.42 -87.31,-16.91 20.01,37.01 19.3,72.87 1.87,103.49 -29.63,52.08 -35.79,63.19 -81.56,97.45 -38.43,28.76 -21.45,26.06 -35.84,50.57 -25.11,42.77 25.73,-33.15 -10.89,11.95 -16.06,19.78 -4.62,11.76 -11.21,32.5 -23.72,-31.49 -38.9,-30.18 -40.75,-76.8 -0.12,-3.06 0,-15.4 -0.01,-15.54 -1.02,-25.1 4.5,1.47 -1.75,-16.73 -67.62,-12.49 -39.85,25.97 -71.18,75.68 -27.87,-8.94 -67.18,-31.77 -83.79,-51.46 -51.3,-60.82 -38.97,-5.18 -63.9,-84.22 1.63,-19.7 0.92,-6.75 -12.79,-24.65 -8.21,-10.72 -8.95,-10.53 -17.76,-24.64 -7.23,-11.58 -33.62,-47.28 -12.26,-44.53 -15.49,-34.27 -26.97,-23.44 -31.71,-68.96 -3.86,-37.02 2.07,-49.16 -9.79,-81.65 -24.96,-68.34 0.09,-75.54 42.08,-118.72 25.49,6.19 6.98,3.36 27.57,15.58 1.25,0.75 2.9,1.86 4.17,2.57 1.28,0.71 3.04,1.65 4.36,2.34 27.02,14 12.46,-5.02 33.62,20.59 13.53,-19.71 20.04,-43.37 34.42,-66.79 13.79,-22.44 29.43,-37.75 38.22,-59.38 -12.94,1.66 -43.54,32.12 -54.92,-7.5 -18.73,-65.18 13.63,-169.48 10.37,-257.78 -1.62,-43.9 -14.4,-28.54 -27.43,-57.26 -20.04,11.99 2.11,8.91 -21.3,37.17 -8.09,-8.55 -7.72,-0.87 -34.44,0 -4.07,62.62 -4.98,-5.34 -13.75,41.27l-22.16 -24.45c-0.76,-2.6 -3.27,-2.26 -5.06,-3.07 4.78,52.69 18.66,165.7 -44.41,95.17 0.32,25.52 1.76,62.05 -32.48,49.54 -25.19,-9.2 -57.37,-108.38 -125.83,-146.78 8.09,33.62 5.66,21.86 31.55,49.5l59.59 77.99c1.98,3.56 10.66,22.75 10.97,24.04 1.41,5.85 0.99,6.76 0.69,14.12 -0.04,0.93 -1.18,5.54 -1.25,4.62 -0.08,-0.95 -0.81,3.2 -1.63,4.61 -10.05,6.01 15.05,7.68 -20.49,5.27 -29.91,-2.04 -174.63,-204.18 -180.06,-219.32 29.09,-47 27.08,-14.75 20.64,-48.02 28.9,1.82 52.55,15.96 47.69,-27.65 -24.29,-14.73 -33.22,-0.79 -59.75,-14.82 38.25,-14.87 39.75,4.98 60.08,-30.06 -114.27,24.03 -62.66,2.78 -108.55,87.73 -17.61,32.59 -15.76,53.31 4.28,82.21 74.81,107.92 60.05,53.22 58.99,134.11 25.87,16.19 40.52,27.09 42.33,68.2 -28.93,0.54 -13.03,2.38 -26.84,-7.59 -20.69,-14.95 5.68,-5.48 -24.72,-21.3 -44.24,13.54 -110.28,65.34 -126.55,98.44 -19.87,40.41 -12.22,150.88 30.23,176.49 35.24,-10.42 12.02,-3.28 27.52,-28.72 24.75,52.19 -7.16,37.14 37.84,78.76 51.31,47.46 20.53,47.65 58.47,56.45 8.01,-19.7 8.55,-28.98 17.96,-47 -11.24,-30.13 -22.11,2.27 -19.37,-40.58 1.18,-18.39 13.55,-28.31 24.77,-39.18 20.11,-19.47 47.07,-42.43 72.95,-57.19 14.15,24.87 21.78,23.56 40.23,33.76 -121.88,192.96 -74.85,156.98 -89.37,186.56 -10.07,20.53 -55.4,30.44 -61.24,33.59l28.93 107.93c16.66,31.69 39.19,54.27 63.09,82.57 29.15,34.52 36.96,14.88 78.31,59.1 8.96,9.59 22.29,28.83 31.7,36.84 22.98,19.58 32.14,5.19 34.15,41.54z"/>
  <path class="fil3" d="M1098.64 993.74l66.62 -23.34 5.74 27.74c2.43,21.96 -31.65,46.54 24.89,21.78 -17.15,57.97 -35.13,29.39 -45.38,109.36 21.38,-2.37 33.44,-2.66 39.56,-19.4 29.38,-19.17 38.31,-50.05 61.88,-41.38 25.9,21.07 1.59,40.24 -11.71,58.78l-109.52 178.16c-35.46,-0.96 -44.52,-5.43 -57.63,19.35 -3.62,-13.09 -5.14,-25.24 -9.36,-36.54 -21.27,-56.99 -51.2,-22.31 -54.7,19.97 -15.23,-28.33 -25.79,-16.02 -35.96,-47.29 -40.01,-123.13 -31.22,-30.06 -18.54,-143.75 7.6,-68.11 -16.93,-20.98 -21.55,-59.38l-8.43 6.68c-22.75,37.15 3.02,25.8 -13.64,70.01 -10.17,26.99 -21.12,44.59 -25.05,72.89 19.92,13.46 37.32,16.59 50.75,39.94 34.47,60.01 5.63,73.23 87.14,83.71 8.3,1.06 20.25,5.66 27.4,8.25l20.59 6.85c1.64,0.55 3.78,1.24 5.26,1.74 1.48,0.5 4.01,1.44 5.22,1.85 20.9,7.24 50.38,77.03 87.29,118.64 46.77,52.73 53.95,67.4 48.97,154.37 -28.12,18.76 -32.38,11.59 -48.34,46.31 -23.65,-10.59 -12.39,-14.24 -25.19,-19.31 -29.83,-11.83 -29.91,2.35 -34.29,5.34l28.12 2.82 5.49 25.73 -24.53 10.97c45.16,6.71 45.56,10.67 63.05,-19.96 20.08,21.38 22.09,54.82 18.49,79.43 -5.66,38.77 18.75,128.3 32.09,166.48 11.83,33.89 7.8,50.91 27.92,71.13 5.6,3.73 18.42,9.56 24.77,13.41 12.44,7.52 9.25,4.98 19.89,15l40.48 42.75c3.77,4.94 5.68,8.52 8.51,12.93l95.35 74.68c39.01,23.7 85.12,69.83 82.69,122.57 -18.16,12.43 -28.01,15.56 -44.39,30.94 10.59,14.46 17.38,3.55 31.63,38.54 -18.22,16.88 3.82,10.13 -34.33,12.94 21.04,34.91 26.12,21.23 55,2 27.65,21.64 -3.4,13.34 27.86,21.22 24.76,6.25 7.9,-4 40.9,-0.8 1.23,-29.26 65.43,-117.07 86.65,-155.57 15.46,-28.03 28.16,-45.63 44.47,-79.14 18.43,-37.82 29.03,-34.7 60.03,-73.24 1.77,-51.4 32.12,-112 63.22,-140.17 -9.33,-7.47 2.86,-3.46 -14.2,-6.32 -10.46,-1.75 -13.4,0.42 -17.08,1.37 -12.22,48.15 -46.51,35.59 -90.36,130.53 -16.68,36.13 -19.95,33.94 -41.88,61.59 -40.96,51.6 -33.93,84.16 -84.45,40.36 -19.22,-16.65 -6.92,-10.89 -35.57,-19.03 -62.71,-17.81 -68.44,-75.45 -116.67,-103.73 -50.84,-29.79 -21.96,40.58 -92.72,-52.01l-9.44 -11.13c-11.51,-15.24 -14.22,-27.58 -29.82,-39.32 -6.75,-5.09 -1.61,-0.5 -8.54,-5.21 -33.8,-22.89 -44.11,-69.61 -49.24,-115.43 -3.04,-27.17 1.65,-76.98 22.22,-96.35 20.24,2.78 40.2,0.65 58.42,3.07 33.96,4.52 14.84,10.74 44.85,15.19 -4.57,-9.02 -5.99,-14.21 -23.87,-23.07 -13.67,-6.76 -27.98,-9.78 -44.15,-11.77 2.31,-39.19 6.94,-31.62 -16.29,-52.44 -9.2,-6.28 -12,-7.73 -18.86,-12.86 5.69,-29.14 18.55,-28.22 16.42,-58.9 -2.47,-35.75 -17.42,-35.37 -25.7,-57.31 5.4,-44.94 39.68,-49.21 69.54,-68.61 37.74,-24.52 -4.96,-10.1 83.9,-58.63 48.59,-26.53 159.44,-78.26 227.89,-44.94 41.78,9.93 189.59,106.72 224.55,110.55 50.21,5.49 14.37,0.98 36.59,-10.51 39.71,59.26 63.04,14.56 216.72,44.78 -57.6,73.62 -128.08,-14.56 -156.02,67.75 33.58,8.52 57.72,-6.79 97.25,-9.15 35.74,62.26 36.43,-8.92 58.77,87.9 56.13,9.02 9.19,-12.3 55.07,-9.11 -0.73,22.18 -27.42,135.52 52.38,118.61l18.01 -6.47c4.92,-0.8 65.19,8.47 69.1,9.86 45.22,4.57 31.63,-6.1 56.22,-10.98 15.37,-3.05 54.99,-0.94 72.52,-0.94 -1.86,-2.3 -5.05,-7.69 -6.59,-5.93l-30.44 -20.33c-24.94,-15.31 -16.04,-7.35 -23.46,-21.87 37.36,-31.63 101.97,38.45 247.26,-10.56l35.33 -20.9c-0.11,0.01 -19.94,0.64 -20.68,0.55 -16.87,-1.96 -8.19,-0.89 -21.04,-5.6 -9.8,-3.58 -27.99,-11.8 -38.04,-15.58 -19.57,-7.35 -61.64,-17.9 -87.29,-16.89 -14.07,0.56 -62.13,16.9 -81.31,22.23 -35.71,9.9 -39.9,26.53 -62.58,46.27l26.91 19.44c-39.78,12.09 -44.43,59.98 -146.31,-10.23 -7.43,-5.11 -13.7,-10.3 -19.22,-15.04 -6.01,-5.13 -5.84,-4.9 -11.07,-9.93 -6.62,-6.35 -5.8,-5.62 -10.91,-11.27l8.06 -72.78c-45.02,15.88 -89.76,-16.44 -89.6,-57.94 22.42,-18.73 27.63,-19.52 50.68,-32.53 21.86,-12.34 36.41,-61.8 93.94,-98.62l64.65 -35.44 -28.53 2.8c58.53,-23.7 10.57,-24.4 44.95,-65.53 13.47,-16.11 47.3,-33.47 66.72,-45.86 -11.32,-8.12 3.49,-4.15 -15.56,-5.23 -45.82,-2.58 -154.09,105.31 -191.28,138.11 -29.04,25.61 -23.36,37.49 -74.3,41.74 -38.28,3.18 -7.92,-4.98 -45.31,-9.76 -56.32,-7.22 -7.14,18.09 -99.57,-17.71l-35.58 -6.42c-1.27,0.18 -3.26,1 -4.47,1.23 -18.86,3.65 1.04,15.47 -35.56,-7.36l-102.69 -65.8c8.52,-9.61 17.02,-6.12 25.06,-20.64 -15.15,-41.64 -87.21,-51.84 -139.94,-54.61 -1.25,-17.78 1.68,-27.84 1.06,-30.22 -26.8,17.16 -52.61,6.46 -81.3,-12.48 -82.38,-54.39 -40.05,-13.84 -68.55,-49.16 -23.87,-29.58 -61.29,-31.74 -74.37,-66.31 -0.36,-0.95 -0.64,-3.06 -0.96,-4.01 -14.43,-42.67 -13.65,-4.88 -22.9,-45.48 31.11,-22.02 1.53,-19.16 61.94,-20.54 26.62,-0.61 53.12,-1.46 79.75,-2.45 -27.8,-4.06 1.27,-10.76 -38.64,-21.67 -97.36,-26.61 -111.49,6.45 -163.04,-31.68 -29.89,-22.1 -42,-39.04 -70.44,-60.57 -28.64,-21.69 -44.47,-34.62 -74.46,-54.43 -36.49,24.55 -32.18,46.12 -26.74,102.25 9.33,96.31 19.9,94.23 -15.61,105.73l-6.3 -50.46c-11.15,-88.06 -96.58,-38.21 -112.61,-13.86z"/>
  <path class="fil3" d="M2776.64 2792.8c-9.16,24.94 -36.53,39.34 -45.64,57.04l-18.17 17.95c-31.35,30.48 -10.73,26.76 -32.4,55.72 -23.72,31.69 -43.25,26.24 -79.7,17.89 8.55,64.76 15.9,41.75 43.12,61.52 -18.67,72.33 5.14,67.25 -85.89,123.31 -25.61,15.76 -32.7,10.1 -56.77,17.9 -25.02,-40.79 -19.27,-26.36 -54.54,-49.7 -34.49,-22.83 -32.83,-38.3 -70.09,-20.27 -3.9,-18.03 -20.31,-26.38 -34.4,-33.63l27.69 -42.55c0.95,-4.31 51.18,-72.07 -3.43,-117.51 -26.52,29.42 -25.12,102.91 -60.35,123.96l-36.33 20.25 48.49 -14.84c-0.54,35.75 -3.26,25.77 -11.94,48.71 -0.37,0.96 -1.41,2.54 -1.66,3.43 -3.28,11.45 3.31,20.59 3.75,26.23l10.44 -6.97c1.38,-0.9 3.3,-2.28 4.74,-3.2 1.31,-0.84 3.09,-2.08 4.33,-2.84 7.61,-4.63 0.48,-5.36 14.88,-7.08 8.22,15.16 -0.07,4.47 13.31,14.67 24.65,18.81 41.02,4.98 63.43,18.61l60.71 39.11c1.05,49.34 -9.12,56.85 -13.34,93.3 -5.55,-20.18 0.52,-12.4 -19.82,-19 -52.34,50.7 -126.76,33.78 -178.42,-3.73 -47.8,-34.68 -18.9,-39.55 -36.37,-82.12 -17.5,-42.66 8.91,-60.83 20.63,-96.08 -12.88,26.6 -9.85,19.47 -35.97,30.58 -16.38,24.76 -16.53,47.51 -6.66,81.46 12.04,41.37 2.32,25.3 6.01,64.78 47.73,13.36 110.27,41.41 129.51,71.86 21.57,0.26 49.53,-6.77 61.96,-22.57 2.86,-3.64 11.47,-15.79 12.5,-16.9 21.67,3.62 31.65,9.09 47.75,19.43 -3.25,40.41 -13.42,16.95 -10.44,55.14 2.1,26.88 2.08,116.06 -16.72,137.72 -18.34,21.12 3.41,7.77 -26.22,12.73 27.22,48.47 86.89,162.6 42.87,223.75 25.25,13.34 -2.62,12.21 53.26,25.8 12.93,3.14 36.37,37.97 41.38,61.26 11.11,26.27 18.27,16.56 38.44,32.64 26.35,21.01 8.35,20.53 27.63,45.45l48.34 14.34c30.61,22.26 21.23,50.67 18.61,71.77 -3.22,26 1.55,32.81 -9.21,55.92 -9.59,20.6 -15.71,11.16 -21.93,43.03 -3.05,15.59 -2.74,37.91 -0.61,53.77 26.68,2.36 16.52,2.37 34.91,-6.18 48.89,-22.73 34.3,-23.8 83.34,-74.57 37.09,-38.41 23.69,-58.62 119.08,-99.84 30.23,-14.13 61.5,-76.41 93.53,-85.84 3.75,-20.29 13.06,-49.84 3.35,-71.17 -16,-35.14 -21.98,2.32 -34.5,-51.74 27.84,-24.47 -5.21,-36.9 43.65,-20.58 34.55,-0.61 49.08,-13.55 65.17,-35.34 -6.23,-34.25 -24.52,-51.07 -36.41,-74.65 -19.89,-39.47 -33.1,-51.5 -77.27,-32.95l-100.06 149.09c-24.77,38.12 -3.62,38.36 -48.68,41.17 -1.99,-28.35 5.28,-51.32 14.16,-70.81 -0.22,-24.85 5.24,-9.92 -3.27,-25.6 5.44,-18.02 17.69,-29.7 26.6,-45.98 8.27,-15.11 14.19,-30.59 23.2,-46 18.73,-32.04 40.81,-80.09 15.3,-118.1 -59.44,-4.14 -26.04,17.97 -59.96,41.69 -6.83,94.37 -66.92,198.91 -127.21,217.83 2.91,-92.64 79.19,-110.42 72.5,-224.14 -20.39,7.36 -52.21,35.51 -64.19,53.11 -34.91,-10.91 -65.35,-35.86 -86.37,-64.16 8.7,-34.69 129.98,-113.65 145.67,-200.5 -79.93,-2.15 -73.97,1.75 -130.67,32.26 6.88,48.02 2.28,5.22 14.34,35.82 -84.63,103.75 -30.23,84.56 -50.58,113.95l-107.23 -90.26c-19.9,-22.63 -4.93,-33.67 3.71,-47.5l17.46 19.98c0.97,0.92 3.12,2.7 3.93,3.44 0.83,0.76 2.68,2.33 3.99,3.53 48.96,-29.8 50.49,-45.36 68.79,-75.67 14.81,24.12 -8.62,20.58 26.58,20.51 15.34,-0.03 6.74,0.78 16.08,-4.74 23.76,-14.04 6.19,-2.18 16.94,-18.04 -23.7,-1.52 -21.48,4.56 -29.14,-15.45 -23.53,-61.45 124.87,-44.03 130.6,-127.76 11.2,-163.5 50.43,-62.25 115.06,-184.7 9.41,-17.84 11.48,-34.23 16.72,-56.2 11.24,-47.16 8.21,-25.03 27.7,-51.15 32.16,-43.1 9,-84.03 31.66,-140.1l4.6 -9.72c29.77,-75.7 -88.27,-116.98 -138.32,-117.08 2.86,62.39 49.97,44.77 77.7,105.19 9.83,21.44 15.9,40.15 2.95,56.15 -0.96,1.19 -2.54,2.84 -3.54,4.16l-10.33 17.31c-5.72,14.92 0.79,13.26 -8.6,32.86 -19.41,8.14 -20.79,3.39 -39.66,15.68 -23.21,15.09 -4.76,13.01 -40.04,20.75z"/>
  <path class="fil4" d="M1990.26 1557.35c-43.5,44.82 -3.05,88.61 -46.87,134.71 -0.99,1.02 -2.5,2.41 -3.49,3.43l-34.2 35.07c-16.37,17.32 -20.3,27.82 -46.31,32.11l-6.33 9.39c-1.75,1.07 -4.25,1.76 -5.75,2.24 -36.05,11.59 -32.43,2.08 -58.93,24.48 -18.26,15.44 -28.49,20.48 -48.59,33.99 -126.2,84.8 -211.32,-40.26 -224.18,-49.03 -19.78,-13.51 -84.26,-26.49 -116.07,-50.43 -30.01,-4.45 -10.89,-10.67 -44.85,-15.19 -18.22,-2.42 -38.18,-0.29 -58.42,-3.07 -8.9,106.45 62.81,144.38 81.95,164.29 9.11,9.47 26.9,53.99 87.4,63.35 -6.53,24.26 6.82,6.86 -2.64,21.98l-17.83 20.09c24.51,23.25 21.37,5.55 59.49,10.38 21.67,2.74 7.82,5.15 30.47,8.2 20.63,2.78 11.89,-3.19 40.17,-1.97 11.32,5.24 11.08,47.95 81.67,32.84 33.94,-7.26 -1.57,-0.04 20.93,-7.48 16.73,-5.54 23.53,-4.06 38.66,-9.35 40.97,-14.31 68.61,-73.68 116.2,-92.6 3.68,-0.95 6.62,-3.12 17.08,-1.37 17.06,2.86 4.87,-1.15 14.2,6.32 -31.1,28.17 -61.45,88.77 -63.22,140.17l12.87 -2.55c23.38,-30.97 99.29,-77.38 133.14,-90.42l14.54 -21.88c-49.56,-66.87 -21.69,-25.06 -67.83,-52.84 19.41,-16.31 70.65,-74.51 90.36,-79.15l2.94 53.28c61.52,0.48 105.82,-16.9 138.76,5.59 0.85,0.56 2.55,2.07 3.25,2.61 12.99,10.05 1.25,-4.26 7.83,8.18 -19.5,10.44 -23.06,10.46 -41.22,-2.08 -1.63,-1.13 -8.75,-5.1 -9.72,-8.17 -0.96,-3.01 -3.21,-3.17 -5.06,-4.46 -10.38,11.29 1.63,-1.01 -14.61,11.44l-18.14 14.12c31.33,8.84 50.56,11.04 56.27,49.26l8.31 -15.36c7.06,-9.28 -5.57,-11.66 42.45,-12.98 3,-48.18 7.91,-12.27 32.48,-85.31 0.56,-1.62 1.26,-3.37 1.81,-4.99l11.57 -36.54c0.59,-1.46 1.44,-3.28 2.08,-4.65 0.62,-1.32 1.63,-3.14 2.26,-4.36 0.62,-1.19 1.86,-3.11 2.44,-4.14 3.11,-5.54 7.47,-11.8 7.49,-11.84 30.46,18.79 7.32,6.24 26.96,27 16.56,17.47 14.98,10.35 32.2,23.26l29.22 25.82c10.55,8.25 17.29,11.26 29.77,18.82 21.89,13.27 8.23,-0.39 34.17,33.26l5.93 7.79c14.08,19.33 34.96,51.5 63.85,54.24 79.73,-7.43 83.38,38.09 149.39,55.17 9.1,-17.55 -31.81,-40.16 117.07,-41.66 49.86,-0.5 33.02,-1.55 61.01,-13.69 1.49,-0.65 3.28,-1.44 4.84,-2.05 27.12,-10.63 20.24,5.93 33.12,-14.88 21.73,-35.12 -26.09,-22.1 -3.16,-61.98 19.82,-34.48 12.16,-43.5 46.24,-73.52 18.46,-16.26 35.42,-15.11 49.9,-39.68 13.06,-22.18 5.14,-13.51 -1.12,-79.87l-17.32 -10.4c-0.7,-37.74 5.03,-62.73 -36.15,-49.23 -77.54,25.44 -78.35,67.21 -98.91,89.07 -15.75,16.77 -34.31,23.58 -48.9,36.19 -8.23,12.48 3.29,5.17 -19.55,21.39 -26.21,18.6 -141.34,33.97 -162.69,32.35 -80.58,-6.16 -100.23,-29.74 -128.62,-45.03 -10.96,-5.9 -32.93,-12.21 -41.48,-16.04 -3.91,-1.39 -64.18,-10.66 -69.1,-9.86l-18.01 6.47c-79.8,16.91 -53.11,-96.43 -52.38,-118.61 -45.88,-3.19 1.06,18.13 -55.07,9.11 -22.34,-96.82 -23.03,-25.64 -58.77,-87.9 -39.53,2.36 -63.67,17.67 -97.25,9.15z"/>
  <path class="fil0" d="M1609.65 2377.85c-10.09,53.54 -12.44,45.2 -27.52,47.2 2.7,14.77 -1.97,15.9 9.27,27.68l6.69 3.79c0.93,0.36 3.03,0.63 4.05,0.85 30.88,6.64 36.61,-9.95 51.01,-13.01 0.87,-0.18 3.07,-0.19 3.83,-0.27 0.78,-0.06 3.23,0.55 3.85,0.55 26.61,0.34 -6.01,61.79 30.81,130.9 8.65,16.22 13.06,12.91 21.23,28.34 30.45,-4.28 17.3,2.78 26.52,-23.61 -30.58,-42.5 -30.51,-76.29 -7.13,-124.41l6.74 -12.74c1.27,-2.24 6.24,-10.65 7.36,-12.23 5.28,-7.55 48.8,-61.23 43.94,-82.41 -0.58,27.98 -13.82,34.16 -15.47,76.53 58.65,-1.34 40.84,-4.77 64.21,-47.28 10.35,-18.85 22.69,-39.61 32.74,-55.92 -2.03,10.16 -20.24,21.8 -23.48,49.73l2.84 32.62c28.87,8.59 15.41,1.33 47.48,1.95 3.12,6.07 4.83,11.96 7.19,16.28l9.58 15.58c0.96,1.5 2.39,3.9 3.86,5.64l89.44 -62.87 43.77 14.07c1.2,-1.05 6.85,-6.01 8.37,-7.42 16.1,-14.93 26.5,-30.93 44.17,-39.55 12.15,4.94 12.98,13.49 31.82,13.33 12.05,-0.09 21.16,-7.76 45.81,2.02 30.88,12.26 39.81,79.33 67.09,33.87 14.03,44.04 36.08,37.57 47.01,40.64 1.68,-18.26 6.79,-44.83 14.31,-55.85 15.38,-22.53 33.66,-21.04 48.5,-20.36 24.05,34.02 37.16,98.3 44.07,142.48 11.01,4.91 16.52,7.01 24.69,10.47 6.25,-13.82 11.59,-22.63 18.01,-40.1 11.55,-31.44 5.37,-62.09 34.8,-73.55 0.77,-0.31 2.73,-0.92 3.52,-1.16 0.81,-0.25 2.81,-0.75 3.63,-0.94l18.85 -1.58c12.66,0.25 17.91,20.02 21.8,29.37 0.34,0.82 0.99,2.73 1.34,3.53l15.04 29.4 36.66 -31.93c14.14,-15.6 22.39,-14.86 15.45,-57.47 -45.05,-77.33 -93.66,-180.17 -169.06,-226.38 -14.65,12.35 -5.77,12.82 -22.95,19.93 -11.15,4.62 -4.46,-3.33 -32.39,6.91 -25.82,-5.4 -55.98,-9.31 -82.21,-8.22 -9.88,31.97 -98.61,72.66 -115.46,85.36 -104.01,78.4 -35.29,-37.04 -154.6,-54.29 -48.2,-6.96 -37.61,-4.43 -72.56,-23.98 -40.99,-22.93 -33.9,-6.31 -70.22,-3.35l-62.88 -2.25c-23.75,-42.12 -13.19,-57.3 -1.4,-96.39l-12.87 2.55c-31,38.54 -41.6,35.42 -60.03,73.24 -16.31,33.51 -29.01,51.11 -44.47,79.14 -21.22,38.5 -85.42,126.31 -86.65,155.57z"/>
  <path class="fil1" d="M1849.54 2848.75l-3.17 30.55c-7.35,1.72 -17.37,2.31 -17.78,2.45 -1.76,0.57 -3.74,1.19 -5.62,1.91l-19.15 9.19c1.81,28.78 15.66,67.33 5.4,90.73 19.64,14.49 57.02,16.24 87.31,16.91 -6.08,-50.91 -28.33,-40.41 -38.04,-71.86l-1.15 -29.45c17.48,8.8 29.51,26.67 40.68,40.73 57.34,72.15 8.8,-26.77 66.05,119.19 13.05,33.25 2.51,25.53 4.75,74.53 -16.76,3.24 -35.15,-10.86 -41.28,53.63 39.78,25.36 31.58,25.5 87.48,52.22 43.56,20.82 64.15,22.44 117.95,19.58 84.41,-4.51 120.71,79.01 171.54,110.53l8.08 -7.95c10.55,-11.99 18.94,-17.38 15.45,-32.31 -8.29,-35.44 -55.31,-39.59 -74.08,-55.56 -17.08,-14.53 -22.43,-20.58 -42.38,-34.25l-109.05 -70.55c-10.85,-5.16 -9.12,-4.33 -20.09,-13.19 -14.11,-11.37 -27.14,-19.22 -34.73,-35.91 15.74,-43.02 23.07,17.99 28.71,-55.76 32.57,37.16 28.08,42.5 61.24,53.33 1.25,-53.47 0.19,-74.97 37.67,-106.13 1.52,-1.28 21.36,-14.26 29.44,-17.36 -9.62,12.8 -18.44,20.12 -20.36,37.38 -4.06,36.56 6.32,33.01 32.52,32.13 26.12,-11.11 23.09,-3.98 35.97,-30.58l16.84 -8.2 36.33 -20.25c35.23,-21.05 33.83,-94.54 60.35,-123.96 54.61,45.44 4.38,113.2 3.43,117.51l-11.11 22.63c40.45,3.07 64.49,15.49 94.8,34.59 13.48,8.51 -7.31,-1.04 16.08,9.6l15.92 -11.3c1.24,-1.07 2.94,-2.58 4.22,-3.76l19.39 -20.51c38.11,-40.17 44.21,-97.67 -4.09,-137.76 -44.9,-37.27 -70.02,-59.99 -122.95,-76.8 -10.31,-3.27 -39.6,-13.1 -48.2,-18.13l-1.08 -34.06c-47.52,-14.11 -148.7,8.98 -217.16,0.51 -39.49,-4.89 -73.36,-7.52 -108.47,3.8 -54.92,17.7 -41.92,-3.53 -79.21,-10.25 -8.72,13.05 -11.69,13.93 -20.41,29.34 -34.01,60.1 -9.95,17.84 -58.04,62.87z"/>
  <path class="fil5" d="M2410.51 1346.92l-62.64 17.2 -64.65 35.44c-57.53,36.82 -72.08,86.28 -93.94,98.62 -23.05,13.01 -28.26,13.8 -50.68,32.53 -0.16,41.5 44.58,73.82 89.6,57.94l-8.06 72.78c5.11,5.65 4.29,4.92 10.91,11.27 5.23,5.03 5.06,4.8 11.07,9.93 5.52,4.74 11.79,9.93 19.22,15.04 101.88,70.21 106.53,22.32 146.31,10.23l-26.91 -19.44c22.68,-19.74 26.87,-36.37 62.58,-46.27 19.18,-5.33 67.24,-21.67 81.31,-22.23 25.65,-1.01 67.72,9.54 87.29,16.89 10.05,3.78 28.24,12 38.04,15.58 12.85,4.71 4.17,3.64 21.04,5.6 0.74,0.09 20.57,-0.54 20.68,-0.55l0.12 2.99c27.1,-34.05 36.42,-29.72 73.76,-29.11 101.22,1.62 91.97,-98.48 23.89,-138.3 -22.78,-13.32 -34.16,4.11 -75.28,-5.48 -28.02,-6.53 -41.95,-14.43 -69.4,-19.22 -105.5,-18.41 -121.78,8.26 -164.7,10.54 5.09,-53.46 43.93,-87.88 68.77,-109.73 47.63,-41.9 58.31,-41.31 134.2,-37.15 -47.73,-74.46 -187.8,4.48 -272.53,14.9z"/>
  <path class="fil2" d="M667.96 1465.99c18.72,3.68 1.96,-1.74 13.53,9.38 29.84,28.67 23.73,34.28 33.86,62.33 37.49,1.6 31.29,-1.74 60.3,-8.92l105.59 8.03c19.88,11.02 12.91,19.82 31.51,36.8 44.29,40.43 47.11,46.8 84.18,54.53 52.53,10.93 26.44,31.3 113.73,26.93 4.38,-2.99 4.46,-17.17 34.29,-5.34 12.8,5.07 1.54,8.72 25.19,19.31 15.96,-34.72 20.22,-27.55 48.34,-46.31 4.98,-86.97 -2.2,-101.64 -48.97,-154.37 -36.91,-41.61 -66.39,-111.4 -87.29,-118.64 -1.21,-0.41 -3.74,-1.35 -5.22,-1.85 -1.48,-0.5 -3.62,-1.19 -5.26,-1.74l-20.59 -6.85c-7.15,-2.59 -19.1,-7.19 -27.4,-8.25 -81.51,-10.48 -52.67,-23.7 -87.14,-83.71 -13.43,-23.35 -30.83,-26.48 -50.75,-39.94 3.93,-28.3 14.88,-45.9 25.05,-72.89 16.66,-44.21 -9.11,-32.86 13.64,-70.01 -49,4.01 -55.19,46.38 -78.3,81.15 -25.2,37.9 -44.66,43.37 -63.28,102.31 -62.05,196.5 -77.36,94.01 -98.85,186.19 -7.51,32.22 9.14,4.73 -16.16,31.86z"/>
  <path class="fil6" d="M1367.4 3016.65c20.25,7.61 34.53,29.51 59.13,45.37 24.7,15.92 50.58,31.74 79.02,34.82l38.27 5.41c-14.96,-40.71 -39.74,-52.25 -47.82,-108 5.14,-46.61 -19.17,-67.29 -0.68,-112.11l12.35 -3.9c0.48,-0.03 2.03,-12.58 30.82,9.5 10.03,7.68 20.36,18.75 30.87,25.44 19.74,-11.33 8.57,2.31 1.37,-15.95 -12.42,-31.51 -51.18,-129.05 -39.36,-157.46 14.74,-35.43 -2.22,-12.04 23.28,-21.34 15.62,23.98 -0.94,28.68 21.55,63.43 22.49,34.76 39.08,87.51 58.41,113.55 21.1,28.42 28.87,22.15 34.19,63.43 -34.7,-1.01 -28.38,0.39 -52.24,-17.38l-0.03 14.42c1.62,12.43 -3.36,5.64 11.05,16.75 35.34,9.82 16.23,10.25 38.07,19.01 27.2,4.02 22.31,9.01 43.59,-4.62 -1.48,-17.71 -4.23,-19.02 -12.25,-31.09 -26.56,-39.97 -34.76,-43.26 -49.44,-88.86 -6.68,-20.75 -21.47,-51.86 -14.4,-78.51 18.5,-69.77 10.75,30.6 31.14,-49.2 26.98,5.35 20.37,12.44 38.5,-7.36 7.95,-8.7 18.5,-23.58 24.7,-31.78 -4.36,-19.81 -5.8,-14.85 -9,-27.87 -0.42,-1.67 -2.17,-13.71 -2.17,-13.93l26.75 -44.63c0.7,-2.48 3.34,-1.84 4.76,-2.98l-8.44 -30.54c-9.22,26.39 3.93,19.33 -26.52,23.61 -8.17,-15.43 -12.58,-12.12 -21.23,-28.34 -36.82,-69.11 -4.2,-130.56 -30.81,-130.9 -0.62,0 -3.07,-0.61 -3.85,-0.55 -0.76,0.08 -2.96,0.09 -3.83,0.27 -14.4,3.06 -20.13,19.65 -51.01,13.01 -1.02,-0.22 -3.12,-0.49 -4.05,-0.85l-6.69 -3.79c-11.24,-11.78 -6.57,-12.91 -9.27,-27.68 15.08,-2 17.43,6.34 27.52,-47.2 -33,-3.2 -16.14,7.05 -40.9,0.8 -31.26,-7.88 -0.21,0.42 -27.86,-21.22 -28.88,19.23 -33.96,32.91 -55,-2 -16.08,-11.88 -23.46,-18.22 -47.53,-15.74 13.03,28.72 25.81,13.36 27.43,57.26 3.26,88.3 -29.1,192.6 -10.37,257.78 11.38,39.62 41.98,9.16 54.92,7.5 -8.79,21.63 -24.43,36.94 -38.22,59.38 -14.38,23.42 -20.89,47.08 -34.42,66.79 -21.16,-25.61 -6.6,-6.59 -33.62,-20.59 -1.32,-0.69 -3.08,-1.63 -4.36,-2.34 -1.27,-0.71 -2.92,-1.82 -4.17,-2.57 -20.59,-12.22 -2.08,-9.39 -27.57,-15.58 -41.99,43.18 -67.04,50.38 -42.08,118.72 11.86,32.49 5.93,44.63 9.79,81.65 4.74,45.52 16.22,34.69 31.71,68.96z"/>
  <path class="fil1" d="M1420.24 3642.74c-17.5,-20.63 2.05,-6.77 -23.79,-25.49l29.02 119.13c19.9,54.85 47.09,31.1 41.83,99.41 -23.81,17.98 -63.41,20.01 -50.24,59.29 21.26,11.62 15.88,9.67 44.55,5.52 32.87,-4.75 46.7,-12.47 63.87,7.6 17.65,20.63 17,31.67 26.62,62.03 8.49,26.79 19.62,61.61 30.07,88.93 30.76,-0.27 13.29,3.39 29.95,-8.42 1.1,-0.78 2.51,-2.28 3.54,-3.14l6.81 -6.9c36.12,-34.09 36.98,-18.77 64.48,-41.86 1.98,6.24 3.6,16.21 17.23,23.31l31.39 5.81 7.51 34.29 -40.89 31.94c-34.31,21.2 -7.44,-8.94 -17.9,16.88l-4.28 12.73c-0.12,0.28 -5.62,10.45 -6.59,12.63 45.05,11.97 86.8,36.96 115.01,52.67 1.38,0.77 3.88,2.34 5.05,3.01 1.23,0.7 3.46,2.2 5.24,3.24 -24.12,-83.82 -14.05,-1.61 43.7,-133.47 7.94,-18.12 19.77,-101.67 70.81,-132.17l3 -12c-1.72,-47.75 -41.16,-109.93 64.94,-109.93l20.64 -27.52c21.52,0.44 15.7,-0.56 33.65,4.16l64.54 26.2c68.95,32.91 45.07,36 80.64,38.43l20.64 -106.66c-24.05,-21.03 -1.37,-33.08 -36.11,-63.45l-120.99 -65.94c-20.73,-9.11 -42.17,-19.12 -51.79,-31.78 -33.02,3.17 -15.27,-8.73 -31.22,22.5l-12.78 34.88c-6.79,26.06 -2.78,62.01 -19.36,74.76 -22.84,17.56 -21.94,-8.55 -61.09,36.57 -27.37,31.56 -32.04,20.02 -57.91,38.12 -13.18,9.23 -30.61,37.75 -46.34,50.1 -38.16,30 -86.75,3.82 -176.46,17.98 -24.38,3.84 -48.82,7.46 -73.34,2.51 -26.03,-5.24 -33.92,-18.18 -27.16,-47.96 3.43,-15.13 11.91,-28.75 19.13,-37.58 -26.23,-14.07 -23.95,9.9 -61.91,-61.6l26.04 -4.88c-18.08,-11.95 -45.77,-34.32 -49.75,-63.88z"/>
  <path class="fil2" d="M2206.24 3921.3l3.57 60.75c-14.65,9.86 -23,8.16 -39.89,21.06 -17.72,13.53 -6.39,11.49 -30.52,25.69 -38.57,-10.09 -9.49,-20.37 -49.12,-21.51 -67.09,0 -3.2,8.88 -95.35,-4.77l-16.87 37.86c-3.47,13.7 -5.62,28.39 -9.39,43.13 -9.71,37.88 -22.31,45.84 -63.45,40.76 -4.34,-53.75 27.21,-107.44 57.5,-134.57 -10.6,-22.94 -31.7,-47.98 -49.49,-59.99 -51.04,30.5 -62.87,114.05 -70.81,132.17 -57.75,131.86 -67.82,49.65 -43.7,133.47l44.9 38.28c56.62,1.14 125.29,-34.86 179.04,-51.61 39.77,-12.38 45.31,-19.02 81.59,-36.58 53.11,-25.71 34.87,-18.41 48.91,-65.96l72.73 -0.24c2.58,40.26 3.17,64.32 94.16,60.47 10.8,-21.13 15.73,-35.32 21.8,-61.17 17.23,22.76 29.77,7.12 58.97,0.83 8.56,23.06 24.5,78.43 42.5,92.22 19.86,15.22 36.09,12.71 55.71,3.53l8.96 -5.54c1.35,-0.75 2.98,-1.92 4.29,-2.65l16.71 -8.41c23.51,-12.68 1.1,8.84 9.45,-5.89l20.82 -69.85c21.76,-45.23 6.33,-3.95 38.32,-21.79l-40.18 -63.87c-24.71,5.9 -46.22,32.92 -86.98,46.67 -46.44,15.69 -60.63,36.92 -103.69,3.13 -14.3,-43.8 -4.47,-59.03 19.42,-81.84 34.93,-33.36 0.34,-31.04 24.6,-78.54 1.54,-0.05 3.78,0.9 4.48,1.18l13.14 11.47c33.29,-104.37 48.94,-66.68 -17.39,-149.73 -6.9,78.48 -3.42,21.92 -25.05,64.1 -51.37,-5.76 -5.98,-2.19 -40.53,-10.6 -37.65,-9.17 -33.03,21.45 -42.3,51.88 -43.27,11.27 -55.08,-7.75 -91.35,-3.01 -12.65,25.36 -10.07,36.79 -5.51,69.47z"/>
  <path class="fil7" d="M1765.58 2797.11l11.98 0c1.58,-39 -7.68,-75.72 15.8,-99.46 42.45,-42.92 28.77,0.77 29,-73.98 82.45,-40.1 5.27,-95.35 379.29,-85.05 26.48,0.73 85.95,6.97 106.58,10.43 34.72,5.84 22.58,4.56 46.63,16.87 81.38,41.68 10,-16.25 92.48,80.85 29.05,34.23 19.04,42.5 14.52,80.97 -20.79,13.46 -9.58,-0.95 -32.93,14.88 -19.66,13.32 -32.49,34.08 -87.8,-18.63 -18.04,-17.19 -8.71,-7.59 0.11,-31.96 -21.26,-10.49 -57.09,-37.18 -77.98,-41.84 -37.98,-8.46 -207.09,10.16 -262.09,12.13 -55.49,1.98 -41.97,2.91 -45.66,12.3 -13.11,9.71 -6.05,1.3 -14.04,30.33 -16.96,61.62 -100.45,89.79 -91.93,143.8 48.09,-45.03 24.03,-2.77 58.04,-62.87 8.72,-15.41 11.69,-16.29 20.41,-29.34 37.29,6.72 24.29,27.95 79.21,10.25 35.11,-11.32 68.98,-8.69 108.47,-3.8 68.46,8.47 169.64,-14.62 217.16,-0.51 41.4,4.41 19.2,4.89 66.72,27.13 92.16,43.12 141.69,135.26 194.35,123.88 0.72,-35.42 -6.26,-4.03 -29.5,-34.44 6.51,-16.59 7.04,-15.13 8.41,-34.36 -21.28,-18.18 -14.36,-15.71 -43.74,-17.97 -9.38,-62.49 -8.19,-24.38 -21.31,-59.72 -8.51,-22.94 -8.69,-68.99 -28.53,-94.29 40.02,-33.89 57.92,-35.8 62.44,-106.67l-44.13 10.26c-78.19,21.65 -52.19,-30.83 -73.07,-49.86 -11.45,-10.42 -26.23,-6.82 -45.13,-28.83l-1.42 3.43c-1.8,-0.96 -3.79,-2.65 -5.03,-3.51l-18.91 -12.82c-12.97,-6.78 -4.25,-4.51 -21.79,-7.39 -23.5,-3.86 -39.82,1.24 -62.12,-0.18 -25.21,-1.61 -26.81,-7.2 -52.34,-9.71 -27.25,-2.69 -27.13,4.56 -52.95,-6.71 -34.8,-4.85 -35.92,-13.19 -59.78,-28.56 -40.2,1.78 -45.89,9.8 -92.4,10.25 -30.89,0.3 -6.61,5.1 -63.82,25.77 -76.05,27.49 -85.83,40.08 -143.54,33.78 -9.16,31.84 -8.63,42.15 -52.17,37.83l4.21 64.12c-3.69,50.47 0,1.13 -10.96,32.56 -16.61,47.7 21.33,131.62 19.26,160.64z"/>
  <path class="fil2" d="M664.47 1620.74c33.28,18.47 27,33.81 75.33,37.97 3.12,82.69 32.16,61.49 51.9,119.63l48.34 20.36 -1.16 89.37c22.55,15.09 99.49,45.27 106.46,53.06 44.53,7.8 164.82,66.85 188.2,105.51 13.68,5.87 15.72,2.52 28.98,27.51 21.38,-9.82 25.76,-5.33 16.96,-56.13 -4.26,-24.49 0.3,-41.74 0.07,-58.1 -41.27,-86.1 -15.53,-99.89 -33.67,-179.36 -83.03,4.74 -64.19,59.1 -108.28,73.14l-39.7 2.23c-76.35,-18.97 5.9,-77.32 22.27,-136.85l99.57 -24.49 24.53 -10.97 -5.49 -25.73 -28.12 -2.82c-87.29,4.37 -61.2,-16 -113.73,-26.93 -37.07,-7.73 -39.89,-14.1 -84.18,-54.53 -18.6,-16.98 -11.63,-25.78 -31.51,-36.8l-105.59 -8.03c-29.01,7.18 -22.81,10.52 -60.3,8.92 -10.13,-28.05 -4.02,-33.66 -33.86,-62.33 -11.57,-11.12 5.19,-5.7 -13.53,-9.38 -15.98,19.22 -35.59,96.02 -34.57,128.34l31.08 26.41z"/>
  <path class="fil0" d="M2215.48 3494.32c20.71,28.78 30.35,17.81 22.31,55.05 -25.76,9.23 -11.5,8.11 -39.61,-0.78 15.36,20.03 14.55,8.92 31.98,23.58 22.02,18.53 6.9,17.66 31.11,34.02l56.82 -11.98c-6.47,-54.38 -19.8,-35.73 13.93,-68.46 22.24,6.11 26.69,9.5 36.57,31.87 21.98,49.83 36.19,62.05 48.18,91.2 25.67,62.4 -51.51,71.24 -98.47,77.09 6.95,39.52 -8.89,68.04 -48.19,69.16l-21.71 -26.7c-9.92,43.13 -28.73,38.4 -63.06,57.01 12.18,64.14 -4.27,68.26 20.9,95.92 -4.56,-32.68 -7.14,-44.11 5.51,-69.47 36.27,-4.74 48.08,14.28 91.35,3.01 9.27,-30.43 4.65,-61.05 42.3,-51.88 34.55,8.41 -10.84,4.84 40.53,10.6 21.63,-42.18 18.15,14.38 25.05,-64.1 66.33,83.05 50.68,45.36 17.39,149.73l-13.14 -11.47c-0.7,-0.28 -2.94,-1.23 -4.48,-1.18 -24.26,47.5 10.33,45.18 -24.6,78.54 -23.89,22.81 -33.72,38.04 -19.42,81.84 43.06,33.79 57.25,12.56 103.69,-3.13 40.76,-13.75 62.27,-40.77 86.98,-46.67l40.18 63.87c-31.99,17.84 -16.56,-23.44 -38.32,21.79l-20.82 69.85c16.08,-11.34 6.82,-0.54 16.91,-18.11 3.22,-5.62 6.41,-21.43 7.84,-25.89 84.51,-35.46 23.71,-32.24 77.73,-54.18 -4.55,37.18 0.74,63.29 12.87,92.03l29.08 1.34 16.71 -53.63c1.88,1.28 4.36,1.26 5.27,4.38 0.09,0.31 14.34,24.83 52.56,27.91 31.39,-16.46 18.6,-59.25 22.46,-105.41 34.75,-23.62 93.76,-67.05 110.86,-106.82 -95.39,41.22 -81.99,61.43 -119.08,99.84 -49.04,50.77 -34.45,51.84 -83.34,74.57 -18.39,8.55 -8.23,8.54 -34.91,6.18 -2.13,-15.86 -2.44,-38.18 0.61,-53.77 6.22,-31.87 12.34,-22.43 21.93,-43.03 10.76,-23.11 5.99,-29.92 9.21,-55.92 2.62,-21.1 12,-49.51 -18.61,-71.77l-48.34 -14.34c19.14,40.13 13.28,30.54 -1.74,63 -20.91,45.17 -2.1,61.38 -74.8,69.02 -31.96,3.35 -17.56,6.33 -48.46,-5.15 -15.77,-36.68 6.19,-72.89 -5.97,-126.72 -9.1,-40.3 -16.66,-85.17 -20.01,-127.44 28.84,5.24 27.79,4.47 44.84,22.98 27.19,29.51 -7.55,5.32 40.07,26.22 -5.01,-23.29 -28.45,-58.12 -41.38,-61.26 -55.88,-13.59 -28.01,-12.46 -53.26,-25.8 44.02,-61.15 -15.65,-175.28 -42.87,-223.75 -8.56,-24.36 -27.41,-36.66 -50.97,-42.52 -40.94,-10.19 -39.13,5.34 -66.02,18.04 -68.05,-76.5 -81.56,-135.22 -188.03,-132.58 15.64,69.68 115.92,104.13 129.29,181.31 -12.14,7.23 21.04,17.04 -23.41,2.96z"/>
  <path class="fil5" d="M1780.51 109.6c5.5,39.46 2.5,10.4 -5.72,21.35 -46.22,-37.19 -188.49,66.79 -192.54,76.98l-28.92 76.72c-78.86,-18.28 -45.93,-55.09 -33.05,-75.12 5.05,-7.88 6.26,-9.97 10.47,-16.71 10.31,-16.5 13.51,-21.41 23.43,-39.28 -48.67,14.23 -104.72,46.7 -86.47,100.58 -2.43,1 -12.06,4.61 -14.14,6.03 -14.76,10.06 -6.15,2.11 -16.2,15.17 20.03,-7.58 29.34,-14.31 30.38,-6.79l34.9 69.48c25.61,44.54 48.07,42.7 63.83,50.5l39.01 -38.37c28.43,-25.33 12.88,-42.25 26.54,-55.8 2.89,-2.04 75.28,-20.97 91.1,-26.46 117.34,-40.58 107.93,-21.22 175.82,-72.07l17.88 -10.84c1.38,-0.73 3.27,-1.49 4.62,-2.19 1.31,-0.69 3.22,-1.44 4.5,-2.13 32.75,-17.7 0.82,10.07 18.34,-13.79l10.47 -24.47 226.17 -6.13 121.51 -32.96c25.49,-15.62 111.49,-76.08 124.87,-21.95 5.77,23.38 4.07,11.22 -11.66,28.26l31.1 -0.16c8.95,41.05 -42.18,89.48 -67.21,104.09 35.24,44.58 40.54,31.14 103.26,54.55 20.17,7.53 32.52,13.63 48.72,25.05 27.16,19.16 19.25,16.64 59.66,19.88 5.01,-52.02 7.02,-8.26 30.42,-64 0.4,-0.96 1.06,-2.91 1.49,-3.9 0.46,-1.05 1.29,-3.05 1.78,-4.1 1.08,-2.31 5.42,-10.56 7.12,-13.1l-41.55 -7.92c-3.84,-23.08 2.2,-35.91 -16.14,-45.5 -18.12,-9.48 -30.45,8.14 -38.03,19.46 -17.9,-40.43 -18.47,-13.17 -59.48,-24.61 -28.91,-8.07 -14.76,-31.68 -17.91,-68.88 52.63,0.21 93.2,-29.28 149.4,-5.53 -33.47,-42.61 -14.06,17.8 -160.39,-42.27 -30.98,-12.71 1.41,-6.86 -33.98,-11.61 -29.49,-3.95 -102.75,-13.31 -123.2,-31.84 -127.54,-4.75 -107.23,31.01 -124.64,55.92 -26.89,38.48 -141.44,59.96 -192.75,66.13 -85.77,10.31 -89.31,58.07 -187.74,-18 -1.21,-0.93 -3.26,-2.64 -5.07,-3.67z"/>
  <path class="fil7" d="M2639.28 3242.86c-10.75,15.86 6.82,4 -16.94,18.04 -9.34,5.52 -0.74,4.71 -16.08,4.74 -35.2,0.07 -11.77,3.61 -26.58,-20.51 -18.3,30.31 -19.83,45.87 -68.79,75.67 -1.31,-1.2 -3.16,-2.77 -3.99,-3.53 -0.81,-0.74 -2.96,-2.52 -3.93,-3.44l-17.46 -19.98c-8.64,13.83 -23.61,24.87 -3.71,47.5l107.23 90.26c20.35,-29.39 -34.05,-10.2 50.58,-113.95 -12.06,-30.6 -7.46,12.2 -14.34,-35.82 56.7,-30.51 50.74,-34.41 130.67,-32.26 -15.69,86.85 -136.97,165.81 -145.67,200.5 21.02,28.3 51.46,53.25 86.37,64.16 11.98,-17.6 43.8,-45.75 64.19,-53.11 6.69,113.72 -69.59,131.5 -72.5,224.14 60.29,-18.92 120.38,-123.46 127.21,-217.83 25.89,-140.08 6.37,-69.98 48.59,-117.16 26.48,-29.59 -0.32,-16.2 37.67,-30.28 -2.77,35.29 -11.1,41.49 -14.06,69.99 41.78,-25.78 7.99,-11.05 31.93,-50.09 -4.62,-13.67 -8.43,-15.26 -13.11,-25.62 -14.08,-7.21 -20.22,-8.39 -30.34,-23.79 -34.35,-52.31 18.53,-68.17 27.87,-72.81 29.38,-14.58 12.29,-7.42 26.44,-33.95 13.97,-0.61 22.46,1.82 29.33,1.71 29.53,-0.43 -4.31,0.61 21.28,-2.32 80.25,-9.2 76.87,75.13 114.61,5.02 -23.58,-12.32 -46.24,-10.44 -62.6,-20.15l2.06 -114.04c-10.71,12.02 -5.42,1.54 -10.56,24.33l-4.65 62.23c-67.21,14.36 -0.44,21.11 -55.24,25.83 -40.4,3.47 -87.93,-12.03 -63.91,-56.16l22.77 -39.39c-30.59,10.35 -7.13,8.99 -31.75,4.95 -0.36,-1.57 -0.21,-3.92 -0.04,-4.82 7.58,-41.53 82.18,-52.74 52.47,-113.05 -17.73,5.19 -27.33,24.56 -43.17,36.41 -19.34,14.48 -27.53,16.61 -47.92,28.33 -70.11,40.27 -23.28,57.4 -34.24,102.6 -4.12,17.02 -18,20.68 -29.67,44.66 -11.16,22.98 -9.8,30.48 -39.11,36.4 -26.8,5.42 -43.31,0.12 -67.7,9.45 -22.48,8.59 -21.51,17.03 -43.21,27.14z"/>
  <path class="fil3" d="M1777.56 2797.11l-0.88 33.39 46.27 27.91c12.35,-4.04 17.67,-6.01 26.59,-9.66 -8.52,-54.01 74.97,-82.18 91.93,-143.8 7.99,-29.03 0.93,-20.62 14.04,-30.33 3.69,-9.39 -9.83,-10.32 45.66,-12.3 55,-1.97 224.11,-20.59 262.09,-12.13 20.89,4.66 56.72,31.35 77.98,41.84 -8.82,24.37 -18.15,14.77 -0.11,31.96 55.31,52.71 68.14,31.95 87.8,18.63 23.35,-15.83 12.14,-1.42 32.93,-14.88 4.52,-38.47 14.53,-46.74 -14.52,-80.97 -82.48,-97.1 -11.1,-39.17 -92.48,-80.85 -24.05,-12.31 -11.91,-11.03 -46.63,-16.87 -20.63,-3.46 -80.1,-9.7 -106.58,-10.43 -374.02,-10.3 -296.84,44.95 -379.29,85.05 -0.23,74.75 13.45,31.06 -29,73.98 -23.48,23.74 -14.22,60.46 -15.8,99.46z"/>
  <path class="fil8" d="M3123.07 2180.75c0.49,-19.22 7.1,-54.39 12.43,-72.82 16.13,-55.85 13.65,-3.14 44.98,-49.51 -90.69,-3.99 -67.27,-94.69 -105.48,-105.63 -20.07,32.06 -24.65,161.97 -92.14,179.14 -0.1,-66.48 10.67,-108.5 34.08,-156.68 27.4,-56.37 15.39,-87.09 64.94,-120.13 27.45,9.67 -0.38,15.41 40.08,12.55 21.14,-1.49 26.39,-9.75 38.6,-20.7l-44.28 -1.65 -27.24 -46.75c-31.07,-37.97 -9.79,-9.18 -88.04,-5.14 -6.18,32.75 -30.37,52.13 -53.09,132.71l-20.82 48.41c-1,1.04 -2.81,2.08 -3.87,3.05 -47.67,43.9 4.75,33.53 -61.42,96.85 -1.01,0.96 -2.68,2.18 -3.66,3.15 -0.98,0.96 -2.65,2.16 -3.58,3.15l-12.19 20.97c-46.7,142.29 -9.84,165.72 -40.51,221.98 5.31,11.92 2.86,1 8.26,8.51 12.26,17.09 1.83,-9.42 5.86,37.21 2.95,34.31 6.78,16.27 25.13,40.68l41.27 -1.4c17.83,-31.2 19.35,-19.88 33.71,-38.82l7.07 -12.5c13.46,-29.06 10.75,-42.57 41.04,-91.53 26.91,-43.52 23.75,7.73 28.66,-19.63 22.22,-15.37 36.27,-79.29 47.42,-115.16 17.25,-55.42 15.35,-86.51 37.61,-110.4 1.17,-1.25 4.34,-1.1 5.25,-4.23 0.93,-3.24 3.55,-3.05 5.62,-4.12 32.95,26.72 14.4,15.1 23.72,49.6 1.87,6.94 13.44,8.28 4.49,49.43 -26.63,122.34 -24.59,39.91 -38.01,211.21 -2.71,34.54 -2.93,22.71 -13.62,43.84 -10.95,21.65 -9.77,19.91 2.78,34.78 0.92,-2.1 5.45,-10.98 5.74,-11.5l4.55 -8.13c3.34,-5.96 10.43,-18.51 12.32,-22.15 20.96,-40.22 16.05,-71.6 17.27,-120.33 0.55,-22.13 2.54,-39.15 15.07,-58.31z"/>
  <path class="fil2" d="M1644.37 1436.14c39.14,26.13 -23.15,20.79 56.26,69.23 1.68,1.03 4.21,0.76 5,3.15 2.07,6.27 6.52,3.86 9.43,5.27 4.31,2.09 7.19,3.3 11.06,4.39 15.09,7.13 39.66,13.22 61.31,20.87 58.79,20.8 18.96,-13.09 86.91,43.67 7.76,6.48 1.64,0.33 10.59,9.61 16.86,17.48 14.19,27.22 37.93,31.72l-20.79 42.09c-34.35,-49 -47.61,-59.73 -110.7,-92.12 -3.06,-1.57 -24.2,-10.9 -25.4,-10.96 -27.71,-1.29 -24.03,4.96 -32.42,13.1 35.58,3.19 59.83,25.15 88.72,43.97l59.46 43.72c13.11,16.6 8.82,4.83 13.58,29.85 -56.71,3.89 -13.93,5.06 -105.55,-53.15 -33.93,-21.56 -76.82,-43.65 -118.19,-41.29 -85.63,4.88 -141.15,44.19 -176.54,115.86 -1.24,2.53 -1.91,4.22 -3.05,6.68 -1.24,2.69 -2.04,5.11 -3.04,7.42 -1.07,2.43 -2.24,5.16 -3.05,7.85 38.44,-14.57 28.22,-23.41 61.84,-10.5l12.94 0.25 123.46 -66.8c37.04,-16.87 43.39,0.42 84.11,2.55 38.49,2.01 65.18,-3.03 47.54,38.7l42.37 6.37c-14.45,56.61 -29.74,3.3 -35.49,50.1 19.05,10.26 11.04,6.71 36.73,4.93 26.01,-4.29 29.94,-14.79 46.31,-32.11l34.2 -35.07c0.99,-1.02 2.5,-2.41 3.49,-3.43 43.82,-46.1 3.37,-89.89 46.87,-134.71 27.94,-82.31 98.42,5.87 156.02,-67.75 -153.68,-30.22 -177.01,14.48 -216.72,-44.78 -22.22,11.49 13.62,16 -36.59,10.51 -34.96,-3.83 -182.77,-100.62 -224.55,-110.55l-58.76 -0.6 -19.16 47.62c27.76,6.39 -4.3,-6.95 26.3,20.42 16.34,14.64 13.38,6.48 27.57,23.92z"/>
  <path class="fil8" d="M1592.22 3525.86c17.16,42.46 2.39,33.37 -12.2,54.94 42.04,81.83 11.74,40.82 28.5,82.22l-62.57 -3.1c6.75,15.89 -10.31,13.78 39.07,34.57l-14.55 19.07c-4.9,5.24 -17.82,15.43 -22.61,18.28 -19,11.35 -27.78,5.11 -40.88,-6.54 -35.31,-31.34 -41.85,-67.75 -86.74,-82.56 3.98,29.56 31.67,51.93 49.75,63.88l-26.04 4.88c37.96,71.5 35.68,47.53 61.91,61.6 -7.22,8.83 -15.7,22.45 -19.13,37.58 -6.76,29.78 1.13,42.72 27.16,47.96 24.52,4.95 48.96,1.33 73.34,-2.51 89.71,-14.16 138.3,12.02 176.46,-17.98 15.73,-12.35 33.16,-40.87 46.34,-50.1 25.87,-18.1 30.54,-6.56 57.91,-38.12 39.15,-45.12 38.25,-19.01 61.09,-36.57 16.58,-12.75 12.57,-48.7 19.36,-74.76l12.78 -34.88c15.95,-31.23 -1.8,-19.33 31.22,-22.5l-20.06 -26.48c-11.88,-13.58 -4.08,-2.77 -14.78,-17.69 -11.96,-16.7 -16.31,-28.33 -26.14,-45.66 -17.83,-14.74 -17.95,-20.55 -25.94,-41.28 -17.38,-13.43 -6.11,-17.59 -41.39,-37.78l-20.46 -10.37c0,26.77 5.59,25.1 -6.88,34.4 5.32,32.35 24.5,64.92 42.42,94.44 34.68,57.18 66.6,68.47 -3.4,164.98 -23.05,31.78 -32.23,40.56 -81.14,44.04 21.33,-45.55 75.7,-60.94 70.01,-124.22 -36.22,-1.87 -45.44,13.54 -64.44,31.55 -19.23,18.22 -30.38,29.65 -52.92,44.51 -17.17,-6.75 -10.99,-14.89 -27.92,-21.84 -53.08,50.22 16.56,22.37 -90.35,88.67 -28.51,17.68 -78.76,59.63 -106.34,50.94 12.6,-5.79 12.93,-8.36 24.12,-15.31l46.9 -29.85c4.46,-3.76 12.9,-10.55 18.42,-15.87 11.66,-11.26 24.77,-25.44 37.51,-38.86 13.83,-14.58 18.9,-24.47 21.59,-46.19 -25.17,-16.34 -12.84,-5.24 -33.2,-13.77 -5.29,-33.89 -1.18,-44.47 -2.9,-76.07 -1.57,-28.54 -7.28,-27.74 -18.61,-51.65l-24.27 4z"/>
  <path class="fil9" d="M3432.77 1453.33c42.19,-5.35 15.35,8.4 62.92,-12.05l9.51 -81.82c0.61,-20.28 -24.77,-124.94 -31.24,-152.63 -20.84,-89.22 -5.16,-63.07 -53.31,-132.6 -27.68,-39.97 -132.59,-190.06 -164.74,-208.49 8.12,43.14 19.44,57.63 24.36,114.06 3.81,43.72 6.38,79.71 12,121.14l-43.87 -25.33c7.28,30.15 -19.03,-4.13 7.99,32.26 26.03,35.05 39.52,63.7 76.07,90.42 32.89,24.05 47.98,49.53 75.11,82.39 26.79,32.46 44.59,18.71 53.88,71.17 -30.21,28.59 -51.98,-0.16 -75.47,-21.94 -15.44,-14.31 -18.03,-21.93 -33.52,-36.6 -58.71,-55.6 -47.88,-27.9 -79.65,-57.03l-98.72 -84.24c-0.44,-1.71 -8.74,-1.65 -7.46,27 0.44,9.87 2.77,17.07 6.12,25.78 20.05,52.04 31.79,57.52 57.89,80.46 60.87,53.47 119.99,151.94 174.61,140.97 24.09,-4.83 7.66,5.09 20.57,-12.52 3.72,9.76 10.94,16.98 20.71,20.71 -19.78,13.46 -7.33,4.44 -13.76,18.89z"/>
  <path class="fil3" d="M1739.39 2580.27l8.44 30.54c-1.42,1.14 -4.06,0.5 -4.76,2.98l-26.75 44.63c0,0.22 1.75,12.26 2.17,13.93 3.2,13.02 4.64,8.06 9,27.87 -6.2,8.2 -16.75,23.08 -24.7,31.78 -18.13,19.8 -11.52,12.71 -38.5,7.36 -20.39,79.8 -12.64,-20.57 -31.14,49.2 -7.07,26.65 7.72,57.76 14.4,78.51 14.68,45.6 22.88,48.89 49.44,88.86 8.02,12.07 10.77,13.38 12.25,31.09 -21.28,13.63 -16.39,8.64 -43.59,4.62l45.51 29.21c1.05,0.19 3.17,0.16 4.3,0.36 8.85,1.54 -4.18,-2.29 14.86,2.85 19.87,5.37 -5.22,7.01 25.9,7.89 9.04,-16.46 1.31,-85.99 -1.44,-117.94 -6.13,-71.22 -4.69,-49.38 10.8,-116.9 2.07,-29.02 -35.87,-112.94 -19.26,-160.64 10.96,-31.43 7.27,17.91 10.96,-32.56l-4.21 -64.12c43.54,4.32 43.01,-5.99 52.17,-37.83 57.71,6.3 67.49,-6.29 143.54,-33.78 57.21,-20.67 32.93,-25.47 63.82,-25.77 46.51,-0.45 52.2,-8.47 92.4,-10.25 23.86,15.37 24.98,23.71 59.78,28.56l37.64 -2.02c2.94,-52.03 -19.5,-31.14 -33.47,-61.17 14.28,-12.95 7.13,-11.13 32.37,-8.03 8.01,32.81 24.91,63.86 55.03,78.49 65.08,1.31 57.73,-65.32 96.31,-97.06 19.1,32.56 8.76,81.87 25.26,130.11l1.42 -3.43 24.27 6.36c-6.91,-44.18 -20.02,-108.46 -44.07,-142.48 -14.84,-0.68 -33.12,-2.17 -48.5,20.36 -7.52,11.02 -12.63,37.59 -14.31,55.85 -10.93,-3.07 -32.98,3.4 -47.01,-40.64 -27.28,45.46 -36.21,-21.61 -67.09,-33.87 -24.65,-9.78 -33.76,-2.11 -45.81,-2.02 -18.84,0.16 -19.67,-8.39 -31.82,-13.33 -17.67,8.62 -28.07,24.62 -44.17,39.55 -1.52,1.41 -7.17,6.37 -8.37,7.42l-43.77 -14.07 -89.44 62.87c-1.47,-1.74 -2.9,-4.14 -3.86,-5.64l-9.58 -15.58c-2.36,-4.32 -4.07,-10.21 -7.19,-16.28 -32.07,-0.62 -18.61,6.64 -47.48,-1.95l-2.84 -32.62c3.24,-27.93 21.45,-39.57 23.48,-49.73 -10.05,16.31 -22.39,37.07 -32.74,55.92 -23.37,42.51 -5.56,45.94 -64.21,47.28 1.65,-42.37 14.89,-48.55 15.47,-76.53 4.86,21.18 -38.66,74.86 -43.94,82.41 -1.12,1.58 -6.09,9.99 -7.36,12.23l-6.74 12.74c-23.38,48.12 -23.45,81.91 7.13,124.41z"/>
  <path class="fil5" d="M1946.81 1976.93c-33.85,13.04 -109.76,59.45 -133.14,90.42 -11.79,39.09 -22.35,54.27 1.4,96.39l62.88 2.25c5.46,-16.11 69.67,-60.87 71.31,-61.59 30.07,-13.3 74.93,12 105.39,18.91 173.11,39.32 139.91,-107.88 248.64,-26.52 20.34,15.21 16.14,8.55 30.75,29.18 -1.65,1.59 -5.43,5.15 -6.44,5.98l-23.48 18.09c-8.87,7.38 -4.88,1.55 -13.33,12.21 26.23,-1.09 56.39,2.82 82.21,8.22l8.27 -34.36c42.23,-26.89 40.34,-3.21 30.09,-75.68 -38.74,-19.81 -83.28,-26.46 -106.05,-63.39 -14.74,-23.88 -20.96,-26.68 -42.87,-39.4 -24.31,-14.12 -2.26,-7.88 -34.97,-2.94 -70.51,10.66 -72.53,42.32 -129.78,44.77 -58.17,2.48 -59.46,-33.75 -150.88,-22.54z"/>
  <path class="fil6" d="M3243.36 2741.5c3.45,-26.53 5.06,-64.5 1.97,-96.45 -3.94,-40.48 -18.63,-40.46 -25.39,-70.83l-94.64 -71.15c-20.53,17.22 -14.24,34.14 -19.53,22.51 -0.53,-1.16 -2.09,2.97 -3.25,4.36 -25.95,0.11 -55.17,-11.85 -100.04,18.67l3.73 20.9c21.06,8.72 2.05,2.68 34.19,0.43 1.29,48.47 6.32,18.57 27.3,47.73l-5.84 14.97c-0.65,1.4 -1.5,3.37 -2.21,4.76l-7.73 12.36c-0.59,1.01 -1.96,2.59 -2.49,3.58l-5.04 20.49c-2.4,35.23 3.76,46.82 -8.43,63.07 -0.71,0.94 -2.25,2.4 -3.05,3.34l-23.06 25.71c-21.04,21.8 -28.92,20.09 -46.6,42.72l-11.1 16.9c-11.74,23.99 -2.7,57.43 12.79,79.75 40.92,-4.68 -0.83,-5.48 34.91,-9.78 14.64,-1.77 18.98,7.73 56.29,-14.73 23.73,-14.28 0.3,-4.58 26.31,-14.19 39.83,-14.73 81.81,-25.42 114.82,-49.61l7.58 -151.83c17.31,7.47 13.53,-4.39 18.3,29.29 1.67,11.73 0.89,34.07 1.28,47.03 8.65,5.29 -9.83,16.73 18.93,0z"/>
  <path class="fil6" d="M1133.54 2046.64c10.39,50.72 -55.78,-1.18 -72.68,-5.42 0.81,41.16 21,57.84 39.21,81.13 -10.77,9.38 1.4,7.49 -18.35,4.53 -13.59,38.82 -17.99,12 -17.91,67.13 35.7,-1.74 39.95,-9.84 78.09,-8.73 30.88,0.91 57.66,-1.6 60.05,26.5l-94.99 17.04c-20.33,35.04 -21.83,15.19 -60.08,30.06 26.53,14.03 35.46,0.09 59.75,14.82 4.86,43.61 -18.79,29.47 -47.69,27.65 6.44,33.27 8.45,1.02 -20.64,48.02 5.43,15.14 150.15,217.28 180.06,219.32 35.54,2.41 10.44,0.74 20.49,-5.27 0.82,-1.41 1.55,-5.56 1.63,-4.61 0.07,0.92 1.21,-3.69 1.25,-4.62 0.3,-7.36 0.72,-8.27 -0.69,-14.12 -0.31,-1.29 -8.99,-20.48 -10.97,-24.04l-59.59 -77.99c-25.89,-27.64 -23.46,-15.88 -31.55,-49.5 -11.7,-22.47 -22.37,-19.63 -33.38,-46.7 46.96,1.43 124.72,-26.8 157.6,10.08 17.14,19.22 32.79,109.58 34.09,133.86 63.07,70.53 49.19,-42.48 44.41,-95.17 -32.21,-174.17 -139.23,-150.21 -161,-327.38 21.36,-20.13 -3.07,1.83 23.11,-12.39 -4.66,-14.63 -1.82,-26.25 -10.84,-49.83 -5.82,-15.23 -11.33,-23.76 -13.37,-41.09 0.23,16.36 -4.33,33.61 -0.07,58.1 8.8,50.8 4.42,46.31 -16.96,56.13 -13.26,-24.99 -15.3,-21.64 -28.98,-27.51z"/>
  <path class="fil10" d="M1119.74 1694.59l-99.57 24.49c-16.37,59.53 -98.62,117.88 -22.27,136.85l39.7 -2.23c44.09,-14.04 25.25,-68.4 108.28,-73.14 18.14,79.47 -7.6,93.26 33.67,179.36 2.04,17.33 7.55,25.86 13.37,41.09 9.02,23.58 6.18,35.2 10.84,49.83 -4.46,36.27 18.54,48.06 31.52,85.92l86.53 149.92c59.95,57.62 32.86,47.79 77.03,45.28 -5.12,-34.66 -12.63,-27.39 -18.15,-49.16 -9.38,-36.97 5.84,-5.33 18.55,-39.84 -19.35,-20.21 -19.87,-44.55 -23.43,-65.21 -8.62,-49.92 -89.74,-96.23 -114.52,-186.08 -20.12,-20.22 -16.09,-37.24 -27.92,-71.13 -13.34,-38.18 -37.75,-127.71 -32.09,-166.48 3.6,-24.61 1.59,-58.05 -18.49,-79.43 -17.49,30.63 -17.89,26.67 -63.05,19.96z"/>
  <path class="fil11" d="M3035.21 3053.95l-2.06 114.04c16.36,9.71 39.02,7.83 62.6,20.15 -37.74,70.11 -34.36,-14.22 -114.61,-5.02 -25.59,2.93 8.25,1.89 -21.28,2.32 -6.87,0.11 -15.36,-2.32 -29.33,-1.71 -14.15,26.53 2.94,19.37 -26.44,33.95 -9.34,4.64 -62.22,20.5 -27.87,72.81 10.12,15.4 16.26,16.58 30.34,23.79 -11.96,-30.42 -12.02,-19.95 -14.53,-54.74 8.31,-7.74 17.31,-17.64 24.75,-28.91l87.51 8.1c29.35,6.52 90.99,92.02 96.92,110.43 40.92,127.15 -29.6,46.53 -72.28,32.85 12.79,41.15 8.86,20.21 34.91,45.37 14.65,14.14 19.64,26.81 24.75,50.32 37.93,-17.63 7.41,-22.27 31.56,-44.03 13.55,-12.21 21.81,-5.53 43.62,-31.75 13.01,-81.7 -28.62,-53.91 19.69,-118.6 64.87,-86.89 68.13,-123.25 64.61,-232.72 -0.82,-25.45 -17.78,-89.83 -49.24,-94.33 -12.32,20.4 -4.72,42.31 -9.87,70.69 -5.08,27.98 -13.67,39.21 -22.35,61.6 -44.85,-0.41 -95.86,-17.76 -131.4,-34.61z"/>
  <path class="fil5" d="M1315.23 1646.03c23.23,20.82 18.6,13.25 16.29,52.44 16.17,1.99 30.48,5.01 44.15,11.77 17.88,8.86 19.3,14.05 23.87,23.07 29.54,2.46 62.16,18.7 73.69,19.91 64.32,6.73 -12.55,-28.81 74.5,-26.65 -33.62,-12.91 -23.4,-4.07 -61.84,10.5 0.81,-2.69 1.98,-5.42 3.05,-7.85 1,-2.31 1.8,-4.73 3.04,-7.42 1.14,-2.46 1.81,-4.15 3.05,-6.68 35.39,-71.67 90.91,-110.98 176.54,-115.86 41.37,-2.36 84.26,19.73 118.19,41.29 91.62,58.21 48.84,57.04 105.55,53.15 -4.76,-25.02 -0.47,-13.25 -13.58,-29.85l-59.46 -43.72c-28.89,-18.82 -53.14,-40.78 -88.72,-43.97 8.39,-8.14 4.71,-14.39 32.42,-13.1 1.2,0.06 22.34,9.39 25.4,10.96 63.09,32.39 76.35,43.12 110.7,92.12l20.79 -42.09c-23.74,-4.5 -21.07,-14.24 -37.93,-31.72 -8.95,-9.28 -2.83,-3.13 -10.59,-9.61 -67.95,-56.76 -28.12,-22.87 -86.91,-43.67 -21.65,-7.65 -46.22,-13.74 -61.31,-20.87 -7.99,8.02 7.59,12.39 -54.26,9.6 -177.24,-7.98 -154.94,36.36 -337.8,46.23l-8.9 0.75c-17.54,56.64 1.87,7.1 10.88,38.51l-20.55 23.45c-9.13,44.5 -2.56,-35.15 -0.26,9.31z"/>
  <path class="fil3" d="M2713.02 709.27c-5.23,14.57 -7.72,21.83 -11.91,32.71 82.78,3.68 69.72,-36.26 155.61,-37.35 10.62,4.23 106.83,171.36 139.65,185.92 -32.76,-50.25 -99.21,-107.33 -97.98,-190.73 115.75,-35.92 77.67,10.38 130.16,44.61 18.13,-66.29 -28.74,-106.38 -23.64,-170.14 88.01,-3.08 78.21,123.54 147.33,184.57l63.3 50.93c-58.12,-107.79 -59.62,-46.64 -111.15,-205.14 -0.7,-2.15 -6.29,-17.12 -7.34,-19.28 -0.72,-1.46 -12.18,-19.57 -12.92,-20.48 -27.6,-33.26 -38.32,-1.22 -63.94,-60.07 -59.03,-135.61 -64.06,-86.81 -102.9,-143.72 -14.46,-21.19 -25.64,-60.44 -43.69,-80.7l-66.86 -62.39c23.37,72.71 20.03,6.55 77.25,134.98 14.99,33.65 7.49,55.73 6.88,96.1l3.56 28.5c-1.31,45.56 -9.06,18.62 -14.32,38.92 -9.5,36.58 51.69,29.69 6.85,102.89 -24.56,40.07 -60.8,10.47 -173.94,89.87z"/>
  <path class="fil6" d="M2403.61 2503.97l45.33 10.55c6.31,15.38 4.6,69.53 55.38,27.51 33.37,-27.63 14.77,-59.5 40.97,-80.48 33.43,9.44 7.85,7.69 24.29,27.38 12.47,14.93 8.25,-1.95 28.06,20.94l17.75 16.52c1.32,0.85 3.32,1.48 4.67,2.31 1.35,0.82 3.28,1.56 4.6,2.41 1.31,0.83 3.09,1.81 4.34,2.69l17.84 16.61c3.28,3.29 23.15,2.91 21.67,53.3 -2.22,75.17 -30.23,101.09 -65.73,146.62 -33.49,42.96 -28.48,24.29 -45.74,43.27 5.93,12.92 10.89,15.3 15.77,31.41 64.86,1.01 74.62,-60.41 108.09,-67.12l29.23 -92.98c15.96,21.72 7.48,12.81 33.47,28.3 4.47,52.94 6.31,82.75 -20.6,116.07 -29.67,36.71 -59.26,30.6 -81.13,56.05 6.1,3.94 -3.21,12.86 35.47,-4.41 25.65,-11.45 20.74,-9.6 53.66,-11.08 9.11,-17.7 36.48,-32.1 45.64,-57.04 11.89,-53.29 31.51,-75.99 25.48,-148.04 -6.79,-81.07 -65.59,-64.94 -109.42,-133.75 -31.33,-49.17 -41.23,-30.04 -63.92,-59.7 -25.27,-33.06 7.69,-6.44 -31.38,-81.3 6.94,42.61 -1.31,41.87 -15.45,57.47l-36.66 31.93 -15.04 -29.4c-0.35,-0.8 -1,-2.71 -1.34,-3.53 -3.89,-9.35 -9.14,-29.12 -21.8,-29.37l-18.85 1.58c-0.82,0.19 -2.82,0.69 -3.63,0.94 -0.79,0.24 -2.75,0.85 -3.52,1.16 -29.43,11.46 -23.25,42.11 -34.8,73.55 -6.42,17.47 -11.76,26.28 -18.01,40.1 -8.17,-3.46 -13.68,-5.56 -24.69,-10.47z"/>
  <path class="fil8" d="M3432.77 1453.33c-17.21,3.57 -20.22,1.41 -34.24,2.58l-28.36 6.01c12.79,25.3 -6.62,4.91 24.22,15.84 29.12,10.31 18,0.42 32.58,15.8 46.14,23.82 52.24,82.21 54.77,133.64 1.57,31.76 15.43,54.52 20.53,82.76 5.4,29.93 8.03,57.41 6.44,90.54 -28.36,11.88 -52.17,14.92 -84.19,24.65 -22.7,6.9 -47.15,24.13 -67.05,25.72 -11.37,-13.62 -9.76,-21.26 -8.81,-38.03 0.81,-14.14 7.83,-38.64 1.02,-69.73l-9.55 -25.24c-0.58,-3.77 -2.15,-4.37 -3.71,-6.22l-17.36 33.33c11.62,-10.14 3.66,7.75 17.65,-16.18 2.14,155.34 -18.96,42.58 -28.95,164.96 -60.55,33.76 -71.8,61.24 -99.31,128.25 25.01,-7.17 58.7,-33.98 78.36,-52.47 154.13,-144.97 157.38,-75.16 200.86,-79.66 28.72,-2.97 20.94,-11.52 27.62,-29.78 -2.7,31.96 -74.79,40.69 -87.9,77.87 82.91,1.81 34.79,11.92 135.11,-23.69 9.08,-99.15 -15.41,-193.3 -16.19,-287.62 -0.39,-47.71 -31.81,-107.99 -30.91,-192.02 0.24,-22.38 5.55,-40 -1.58,-60.59 -6.38,-18.42 1.93,-3.14 -8.62,-14.59l-9.51 81.82c-47.57,20.45 -20.73,6.7 -62.92,12.05z"/>
  <path class="fil11" d="M2403.61 2503.97l-24.27 -6.36c18.9,22.01 33.68,18.41 45.13,28.83 20.88,19.03 -5.12,71.51 73.07,49.86l44.13 -10.26c-4.52,70.87 -22.42,72.78 -62.44,106.67 19.84,25.3 20.02,71.35 28.53,94.29 13.12,35.34 11.93,-2.77 21.31,59.72 29.38,2.26 22.46,-0.21 43.74,17.97 -1.37,19.23 -1.9,17.77 -8.41,34.36 51.76,0 39.34,5.79 72.56,-17.2 39.18,-27.12 76.7,-41.42 85.81,-92.93 7.16,-40.46 -19.32,-18.72 -28.63,-15.37l-13.24 4.34c-33.47,6.71 -43.23,68.13 -108.09,67.12 -4.88,-16.11 -9.84,-18.49 -15.77,-31.41 17.26,-18.98 12.25,-0.31 45.74,-43.27 35.5,-45.53 63.51,-71.45 65.73,-146.62 1.48,-50.39 -18.39,-50.01 -21.67,-53.3l-17.84 -16.61c-1.25,-0.88 -3.03,-1.86 -4.34,-2.69 -1.32,-0.85 -3.25,-1.59 -4.6,-2.41 -1.35,-0.83 -3.35,-1.46 -4.67,-2.31l-17.75 -16.52c-19.81,-22.89 -15.59,-6.01 -28.06,-20.94 -16.44,-19.69 9.14,-17.94 -24.29,-27.38 -26.2,20.98 -7.6,52.85 -40.97,80.48 -50.78,42.02 -49.07,-12.13 -55.38,-27.51l-45.33 -10.55z"/>
  <path class="fil0" d="M1832.74 1924.78c-47.59,18.92 -75.23,78.29 -116.2,92.6 -15.13,5.29 -21.93,3.81 -38.66,9.35 -22.5,7.44 13.01,0.22 -20.93,7.48 -70.59,15.11 -70.35,-27.6 -81.67,-32.84 -28.28,-1.22 -19.54,4.75 -40.17,1.97 -22.65,-3.05 -8.8,-5.46 -30.47,-8.2 -38.12,-4.83 -34.98,12.87 -59.49,-10.38l17.83 -20.09c9.46,-15.12 -3.89,2.28 2.64,-21.98 -60.5,-9.36 -78.29,-53.88 -87.4,-63.35 -19.14,-19.91 -90.85,-57.84 -81.95,-164.29 -20.57,19.37 -25.26,69.18 -22.22,96.35 5.13,45.82 15.44,92.54 49.24,115.43 6.93,4.71 1.79,0.12 8.54,5.21 15.6,11.74 18.31,24.08 29.82,39.32l9.44 11.13c70.76,92.59 41.88,22.22 92.72,52.01 48.23,28.28 53.96,85.92 116.67,103.73 28.65,8.14 16.35,2.38 35.57,19.03 50.52,43.8 43.49,11.24 84.45,-40.36 21.93,-27.65 25.2,-25.46 41.88,-61.59 43.85,-94.94 78.14,-82.38 90.36,-130.53z"/>
  <path class="fil5" d="M1302.07 3351.54c-9.19,62.18 21.18,53.46 25.91,112.19 2.25,27.88 3.55,33.98 12.32,55.36l15.53 33.92c12.55,17.6 -5.06,-0.54 12.89,13.99l-3.18 -44.14c42.69,5.84 65.82,41.4 94.43,69.94 28.54,28.45 53.8,43.26 85.98,67.12l62.57 3.1c-16.76,-41.4 13.54,-0.39 -28.5,-82.22 14.59,-21.57 29.36,-12.48 12.2,-54.94 -24.32,-26.63 -15.34,-44.02 -47.91,-65.6 -24.61,-16.31 -44.99,-19.78 -73.48,-42.33 -22,-17.42 -10.06,-16.22 -31.65,-31.48 -14.99,-10.58 -21.7,-8.59 -37.3,-17.33 -30.74,-17.23 -24.98,-39.13 -60.5,-50.27 -33.41,18.23 -2.16,29.23 -39.31,32.69z"/>
  <path class="fil7" d="M3319.06 1744.98c-16.39,13.59 -18.47,10.71 -32.47,31.76 -13.28,19.97 -10.76,22.63 -30.29,38.16 -25.32,20.12 -55.68,29.79 -95.74,32.07 -12.21,10.95 -17.46,19.21 -38.6,20.7 -40.46,2.86 -12.63,-2.88 -40.08,-12.55 -49.55,33.04 -37.54,63.76 -64.94,120.13 -23.41,48.18 -34.18,90.2 -34.08,156.68 67.49,-17.17 72.07,-147.08 92.14,-179.14 38.21,10.94 14.79,101.64 105.48,105.63l27.97 -36.41c27.51,-67.01 38.76,-94.49 99.31,-128.25 9.99,-122.38 31.09,-9.62 28.95,-164.96 -13.99,23.93 -6.03,6.04 -17.65,16.18z"/>
  <path class="fil6" d="M3208.45 2022.01l-27.97 36.41c-31.33,46.37 -28.85,-6.34 -44.98,49.51 -5.33,18.43 -11.94,53.6 -12.43,72.82 -0.56,62.9 -2.57,130.15 27.6,173.26 8.66,-25.89 10.74,-76.72 12.55,-107.82 4.35,-74.48 1.31,-83.99 35.58,-103.17 -0.37,63.51 -18.72,196.91 0.24,246.34 17.01,5.87 18.14,0.98 34.23,-1.5 5,-91.81 -1.04,-95.05 -0.88,-155.57 0.12,-44.76 14.24,-42.19 21.44,-47.99 29.8,51.15 -7.5,125.72 13.44,203.9l39.42 -4.53 -0.99 -84.22c-5.15,-45.49 -23.91,-56.78 -13.41,-85.12l4.68 -9.43c-31.08,-23.12 -6.86,12.76 -36.69,-40.15 -12.86,-22.79 -20.86,-26.28 -29.12,-49.28 1.16,-29.18 136.82,-175.15 196.23,-177.5 13.11,-37.18 85.2,-45.91 87.9,-77.87 -6.68,18.26 1.1,26.81 -27.62,29.78 -43.48,4.5 -46.73,-65.31 -200.86,79.66 -19.66,18.49 -53.35,45.3 -78.36,52.47z"/>
  <path class="fil8" d="M1665.65 2991.64c-21.84,-8.76 -2.73,-9.19 -38.07,-19.01 17.83,36.61 44.96,48.49 48.94,72.92 5.27,32.39 -17.28,66.16 -16.16,94.96l60.1 18.33c-9.86,30.28 -30.23,35.65 -61.25,34.6 -19.69,-22.54 -11.94,-29.01 -40.06,-48.85 -49.67,-35.04 -45.61,-45.64 -81.96,-96.31 -6.76,-9.43 -9.99,-14.48 -16.34,-23.88l-20.33 -25.65c-1.09,-1.17 -2.9,-3.13 -4.52,-4.5 8.08,55.75 32.86,67.29 47.82,108l-38.27 -5.41 42.69 23.03 7.89 51.79c-14.07,7.94 -35.07,19.46 -49.64,25.51 -78.75,-48.35 -22.65,-47.2 -96.28,-86.7 24.93,79.04 12.6,23.4 63.9,84.22 16.61,19.69 55.92,42.52 83.79,51.46 31.33,-49.71 3.56,-88.17 71.18,-75.68 6.25,18.2 0.73,-8.37 1.75,16.73 0.01,0.14 -0.11,12.48 0.01,15.54 1.85,46.62 17.03,45.31 40.75,76.8 6.59,-20.74 -4.85,-12.72 11.21,-32.5 36.62,-45.1 -14.22,30.82 10.89,-11.95 14.39,-24.51 -2.59,-21.81 35.84,-50.57 45.77,-34.26 51.93,-45.37 81.56,-97.45 17.43,-30.62 18.14,-66.48 -1.87,-103.49 10.26,-23.4 -3.59,-61.95 -5.4,-90.73l19.15 -9.19c1.88,-0.72 3.86,-1.34 5.62,-1.91 0.41,-0.14 10.43,-0.73 17.78,-2.45l3.17 -30.55c-8.92,3.65 -14.24,5.62 -26.59,9.66l-46.27 -27.91 0.88 -33.39 -11.98 0c-15.49,67.52 -16.93,45.68 -10.8,116.9 2.75,31.95 10.48,101.48 1.44,117.94 -31.12,-0.88 -6.03,-2.52 -25.9,-7.89 -19.04,-5.14 -6.01,-1.31 -14.86,-2.85 -1.13,-0.2 -3.25,-0.17 -4.3,-0.36l-45.51 -29.21z"/>
  <path class="fil11" d="M2680.9 2757.89l13.24 -4.34c9.31,-3.35 35.79,-25.09 28.63,15.37 -9.11,51.51 -46.63,65.81 -85.81,92.93 -33.22,22.99 -20.8,17.2 -72.56,17.2 23.24,30.41 30.22,-0.98 29.5,34.44 -52.66,11.38 -102.19,-80.76 -194.35,-123.88 -47.52,-22.24 -25.32,-22.72 -66.72,-27.13l1.08 34.06c8.6,5.03 37.89,14.86 48.2,18.13 52.93,16.81 78.05,39.53 122.95,76.8 48.3,40.09 42.2,97.59 4.09,137.76l-19.39 20.51c-1.28,1.18 -2.98,2.69 -4.22,3.76l-15.92 11.3c-23.39,-10.64 -2.6,-1.09 -16.08,-9.6 -30.31,-19.1 -54.35,-31.52 -94.8,-34.59l11.11 -22.63 -27.69 42.55c14.09,7.25 30.5,15.6 34.4,33.63 37.26,-18.03 35.6,-2.56 70.09,20.27 35.27,23.34 29.52,8.91 54.54,49.7 24.07,-7.8 31.16,-2.14 56.77,-17.9 91.03,-56.06 67.22,-50.98 85.89,-123.31 -27.22,-19.77 -34.57,3.24 -43.12,-61.52 36.45,8.35 55.98,13.8 79.7,-17.89 21.67,-28.96 1.05,-25.24 32.4,-55.72l18.17 -17.95c-32.92,1.48 -28.01,-0.37 -53.66,11.08 -38.68,17.27 -29.37,8.35 -35.47,4.41 21.87,-25.45 51.46,-19.34 81.13,-56.05 26.91,-33.32 25.07,-63.13 20.6,-116.07 -25.99,-15.49 -17.51,-6.58 -33.47,-28.3l-29.23 92.98z"/>
  <path class="fil0" d="M2437.17 1962.85c11.03,20.95 18.79,22.99 36.28,39.03 58.23,53.39 110.66,121.95 164.2,104.43 91.28,-29.86 87.64,-15.95 114.69,-59.59l49.09 -53.66c42.32,-49.11 80.89,-113.68 119.93,-154.32 15.85,-16.52 17.86,-24.5 19.19,-53.36 1.26,-27.69 -1.02,-39.91 -9.46,-60.75 -11.23,-27.78 -8.4,-25.27 -36.63,-33.94 6.26,66.36 14.18,57.69 1.12,79.87 -14.48,24.57 -31.44,23.42 -49.9,39.68 -34.08,30.02 -26.42,39.04 -46.24,73.52 -22.93,39.88 24.89,26.86 3.16,61.98 -12.88,20.81 -6,4.25 -33.12,14.88 -1.56,0.61 -3.35,1.4 -4.84,2.05 -27.99,12.14 -11.15,13.19 -61.01,13.69 -148.88,1.5 -107.97,24.11 -117.07,41.66 -66.01,-17.08 -69.66,-62.6 -149.39,-55.17z"/>
  <path class="fil9" d="M1916.23 3917.71c21.22,-18.86 10.78,-10.1 23.66,-38.02 21.75,5.51 29.34,14.75 41.9,30.16l32.04 30.77c31.17,25.91 -4.46,6.72 54.94,47.54l21.51 19.13c39.63,1.14 10.55,11.42 49.12,21.51 24.13,-14.2 12.8,-12.16 30.52,-25.69 16.89,-12.9 25.24,-11.2 39.89,-21.06l-3.57 -60.75c-25.17,-27.66 -8.72,-31.78 -20.9,-95.92 34.33,-18.61 53.14,-13.88 63.06,-57.01 -11.61,-17 -12.57,-7.76 -44.82,-10.96l-2.3 -15.02 -20.64 106.66c-35.57,-2.43 -11.69,-5.52 -80.64,-38.43l-64.54 -26.2c-17.95,-4.72 -12.13,-3.72 -33.65,-4.16l-20.64 27.52c-106.1,0 -66.66,62.18 -64.94,109.93z"/>
  <path class="fil5" d="M1203.76 2050.84c-26.18,14.22 -1.75,-7.74 -23.11,12.39 21.77,177.17 128.79,153.21 161,327.38 1.79,0.81 4.3,0.47 5.06,3.07l22.16 24.45c8.77,-46.61 9.68,21.35 13.75,-41.27 26.72,-0.87 26.35,-8.55 34.44,0 23.41,-28.26 1.26,-25.18 21.3,-37.17 24.07,-2.48 31.45,3.86 47.53,15.74 38.15,-2.81 16.11,3.94 34.33,-12.94 -14.25,-34.99 -21.04,-24.08 -31.63,-38.54 16.38,-15.38 26.23,-18.51 44.39,-30.94 2.43,-52.74 -43.68,-98.87 -82.69,-122.57l-95.35 -74.68c-2.83,-4.41 -4.74,-7.99 -8.51,-12.93l-40.48 -42.75c-10.64,-10.02 -7.45,-7.48 -19.89,-15 -6.35,-3.85 -19.17,-9.68 -24.77,-13.41 24.78,89.85 105.9,136.16 114.52,186.08 3.56,20.66 4.08,45 23.43,65.21 -12.71,34.51 -27.93,2.87 -18.55,39.84 5.52,21.77 13.03,14.5 18.15,49.16 -44.17,2.51 -17.08,12.34 -77.03,-45.28l-86.53 -149.92c-12.98,-37.86 -35.98,-49.65 -31.52,-85.92z"/>
  <path class="fil6" d="M2995.19 1390.44c27.1,20.73 58.23,25.46 93.71,57.58 113.98,103.19 206.95,119.28 115.25,204.87l-40.15 46.14 30.66 0.76c12.31,-20.66 27.49,-23.81 38.57,-39.73 1.24,1.93 3.99,6.3 4.71,7.05l5.11 5.45c13.44,9.6 -0.36,8.44 10.99,2.66 23.33,-16.26 11.1,-71.39 14.45,-97.78 4.19,-33.07 -12.37,-14.26 12.93,-26.09 -9.91,-28.47 -15.11,-19.24 -20.21,-61.45 13.16,1.77 29.39,5.88 30.01,5.97l17.36 0.45c-7.78,-20.62 -37.5,-41.4 -54.75,-54.65l-120.04 -100.44c-28.58,-21.94 -28.34,-43.36 -64.6,-43.56 9.55,39.19 35.73,36.78 48.58,75.03 -36.25,-17.11 -45.87,-45.44 -73.99,-57.95 -28.86,-12.85 -23.8,1.32 -44.58,-25.29 -19.78,-25.32 -4.32,-13.31 -34.26,-30.61l-30.01 14.55 -0.16 44.05c30.9,15.16 8.59,-8.92 35.78,22.57 18.76,21.73 20.97,29.62 24.64,50.42z"/>
  <path class="fil3" d="M1315.23 1646.03c-2.3,-44.46 -8.87,35.19 0.26,-9.31l20.55 -23.45c-9.01,-31.41 -28.42,18.13 -10.88,-38.51l8.9 -0.75c182.86,-9.87 160.56,-54.21 337.8,-46.23 61.85,2.79 46.27,-1.58 54.26,-9.6 -3.87,-1.09 -6.75,-2.3 -11.06,-4.39 -2.91,-1.41 -7.36,1 -9.43,-5.27 -0.79,-2.39 -3.32,-2.12 -5,-3.15 -14.22,22.23 14.59,9 -28.87,17.35 -23.21,4.46 -73.52,-14.87 -90.58,-17.09 -22.72,-2.96 -47.12,-0.32 -68.1,-1.53 -24.31,-1.38 -10.88,1.89 -27.92,-6.01l-21.7 -15.53c30.29,-29.07 29.75,-2.06 84.04,-48.47 42.54,-36.38 53.09,-5.03 96.87,2.05 -14.19,-17.44 -11.23,-9.28 -27.57,-23.92 -30.6,-27.37 1.46,-14.03 -26.3,-20.42l19.16 -47.62 58.76 0.6c-68.45,-33.32 -179.3,18.41 -227.89,44.94 -88.86,48.53 -46.16,34.11 -83.9,58.63 -29.86,19.4 -64.14,23.67 -69.54,68.61 8.28,21.94 23.23,21.56 25.7,57.31 2.13,30.68 -10.73,29.76 -16.42,58.9 6.86,5.13 9.66,6.58 18.86,12.86z"/>
  <path class="fil12" d="M1081.72 2126.88c19.75,2.96 7.58,4.85 18.35,-4.53 -18.21,-23.29 -38.4,-39.97 -39.21,-81.13 16.9,4.24 83.07,56.14 72.68,5.42 -23.38,-38.66 -143.67,-97.71 -188.2,-105.51 -26.47,3.84 -96.9,-5.2 -121.93,-15.83 -8.12,77.22 39.08,101.95 88.49,172.51 5.61,8 18.33,19.44 26.63,27.92l10.32 10.5c7.66,8.46 5.79,3.16 11.27,14.85 3.69,7.86 8.22,34.89 11.42,44.49 67.81,1.89 28.97,-1.73 58.39,-34.26 13.28,-14.69 32.37,-20.14 51.79,-34.43z"/>
  <path class="fil13" d="M3108.03 1718.39c17.03,-4.68 40.34,-17.04 55.97,-19.36l40.15 -46.14c91.7,-85.59 -1.27,-101.68 -115.25,-204.87 -35.48,-32.12 -66.61,-36.85 -93.71,-57.58 -82.47,12.67 28.02,117.63 40.39,151.37l33.81 91.49c15.01,36.15 -1.32,83.36 38.64,85.09z"/>
  <path class="fil6" d="M3357.47 1850.87c19.9,-1.59 44.35,-18.82 67.05,-25.72 32.02,-9.73 55.83,-12.77 84.19,-24.65 1.59,-33.13 -1.04,-60.61 -6.44,-90.54 -5.1,-28.24 -18.96,-51 -20.53,-82.76 -2.53,-51.43 -8.63,-109.82 -54.77,-133.64l-49.27 -1.12 -5 31.79c-13.83,40.33 0.25,18.61 -9.37,60.05l-14.47 117.95c3.52,28.51 6.02,8.76 11.18,41.99 6.35,40.86 -6.87,66.7 -2.57,106.65z"/>
  <path class="fil3" d="M1877.95 2165.99c36.32,-2.96 29.23,-19.58 70.22,3.35 34.95,19.55 24.36,17.02 72.56,23.98 119.31,17.25 50.59,132.69 154.6,54.29 16.85,-12.7 105.58,-53.39 115.46,-85.36 8.45,-10.66 4.46,-4.83 13.33,-12.21l23.48 -18.09c1.01,-0.83 4.79,-4.39 6.44,-5.98 -14.61,-20.63 -10.41,-13.97 -30.75,-29.18 -108.73,-81.36 -75.53,65.84 -248.64,26.52 -30.46,-6.91 -75.32,-32.21 -105.39,-18.91 -1.64,0.72 -65.85,45.48 -71.31,61.59z"/>
  <path class="fil13" d="M3305.7 2299.45l8.29 16.68c0.7,2.1 1.15,3.81 1.74,6.04l9.25 77.35c-32,4.57 -107.38,10.87 -119.83,41.12 -14.91,36.21 16.22,54.56 21.24,70.49 19.02,15 15.31,13.51 23.49,33.68 26.03,64.2 15.82,24.2 72.81,45.3 25.11,-98.79 27.79,-24.69 24.27,-163.31 -1.1,-43.07 37.98,-19.02 -11.64,-149.19 -8.28,-23.19 -13.04,-41.86 -20.76,-71.23 -10.89,-41.44 -21.48,-33.21 -43.51,-56.52 32.93,-33.28 55.59,-80.68 91.87,-114.24 12.11,-18.49 19.28,-32.25 31.09,-48.75 8.13,-11.36 11.96,-12.57 19.59,-21.59 16.29,-19.27 10.81,-1.8 13.79,-27.31 -59.41,2.35 -195.07,148.32 -196.23,177.5 8.26,23 16.26,26.49 29.12,49.28 29.83,52.91 5.61,17.03 36.69,40.15l-4.68 9.43c-10.5,28.34 8.26,39.63 13.41,85.12z"/>
  <path class="fil13" d="M2269.74 3024.68l-16.84 8.2c-11.72,35.25 -38.13,53.42 -20.63,96.08 17.47,42.57 -11.43,47.44 36.37,82.12 51.66,37.51 126.08,54.43 178.42,3.73 20.34,6.6 14.27,-1.18 19.82,19 4.22,-36.45 14.39,-43.96 13.34,-93.3l-60.71 -39.11c-22.41,-13.63 -38.78,0.2 -63.43,-18.61 -13.38,-10.2 -5.09,0.49 -13.31,-14.67 -14.4,1.72 -7.27,2.45 -14.88,7.08 -1.24,0.76 -3.02,2 -4.33,2.84 -1.44,0.92 -3.36,2.3 -4.74,3.2l-10.44 6.97c-0.44,-5.64 -7.03,-14.78 -3.75,-26.23 0.25,-0.89 1.29,-2.47 1.66,-3.43 8.68,-22.94 11.4,-12.96 11.94,-48.71l-48.49 14.84z"/>
  <path class="fil1" d="M1560.67 1726.82l-12.94 -0.25c-87.05,-2.16 -10.18,33.38 -74.5,26.65 -11.53,-1.21 -44.15,-17.45 -73.69,-19.91 31.81,23.94 96.29,36.92 116.07,50.43 12.86,8.77 97.98,133.83 224.18,49.03 20.1,-13.51 30.33,-18.55 48.59,-33.99 26.5,-22.4 22.88,-12.89 58.93,-24.48 1.5,-0.48 4,-1.17 5.75,-2.24 -18.31,1.02 -38.79,7.62 -42.98,-15.03 -3.77,-20.43 8.31,-17.67 12.83,-47.41 -52.47,0 -87.65,9.65 -132.04,13.4 -43.3,3.65 -86.47,-3.88 -130.2,3.8z"/>
  <path class="fil11" d="M1098.64 993.74c-17.75,-0.49 -91.01,36.2 -104.15,108.61 -5.08,27.95 -12.75,35.6 -19.95,59.38 57,15.91 13.55,23.02 53.38,49.71 27.12,18.16 54.77,1.79 79.96,-3.67 -0.66,26.74 -7.08,27.56 -0.4,39.3 14.89,-25.29 77.54,-117.46 82.59,-137.19 -6.12,16.74 -18.18,17.03 -39.56,19.4 10.25,-79.97 28.23,-51.39 45.38,-109.36 -56.54,24.76 -22.46,0.18 -24.89,-21.78l-5.74 -27.74 -66.62 23.34z"/>
  <path class="fil13" d="M2815.54 3467.44c33.92,-23.72 0.52,-45.83 59.96,-41.69 25.51,38.01 3.43,86.06 -15.3,118.1 -9.01,15.41 -14.93,30.89 -23.2,46 -8.91,16.28 -21.16,27.96 -26.6,45.98 8.51,15.68 3.05,0.75 3.27,25.6 1.62,-1.23 3.94,-5.22 4.67,-3.92l15.04 -16.58c3.39,-4.96 7.44,-14.2 11.97,-22.52 18.81,-34.57 64.96,-112.64 104.97,-111.41l-2.07 34.98c44.17,-18.55 57.38,-6.52 77.27,32.95 11.89,23.58 30.18,40.4 36.41,74.65 -16.09,21.79 -30.62,34.73 -65.17,35.34 24.96,13.27 27.56,13.36 57.78,5.43 13.07,-23.46 15.45,-32.15 14.17,-68.6 -1.52,-43.59 -5.53,-34.97 -24.55,-58.86 -51,-64.05 29.21,-76.5 29.47,-76.6 20.52,-7.71 8,-0.23 14.96,-8.59 -33.95,1.25 -38.19,0.94 -54.17,-22.13 -19.32,-27.9 -16.01,-18.86 -34.59,-40.24 -25.42,-29.23 -44.94,-58.84 -80.16,-75.43 -23.94,39.04 9.85,24.31 -31.93,50.09 2.96,-28.5 11.29,-34.7 14.06,-69.99 -37.99,14.08 -11.19,0.69 -37.67,30.28 -42.22,47.18 -22.7,-22.92 -48.59,117.16z"/>
  <path class="fil14" d="M3362.92 2035.62c-36.28,33.56 -58.94,80.96 -91.87,114.24 22.03,23.31 32.62,15.08 43.51,56.52 7.72,29.37 12.48,48.04 20.76,71.23 12.43,6.49 13.86,-5.94 10.52,7.57 5.57,-60.58 20.26,-41.04 51.8,-74.17 34.12,-35.81 125.55,-197.12 107.35,-257.91 -36.78,6.46 -75.52,32.31 -103.45,55.53l-38.62 26.99z"/>
  <path class="fil15" d="M1905.47 3450.11c7.99,20.73 8.11,26.54 25.94,41.28 46.43,52.55 58.52,89.27 137.26,109.34l76.33 30.95c28.37,18.03 30.95,39.18 76.23,58.47 3.74,-46.72 18.24,-41.19 -16.31,-84.71l-31.63 -34.65c-1.14,-1.93 -4.73,-8.99 -5.85,-10.98l-7.4 -12.86c-11.81,2.6 21.41,11.32 -13.93,0.33 -18.2,-5.67 -13.21,-5.72 -18.73,-9.14 -65.45,-20.97 -96.44,-40.69 -133.33,-80.17 -19.42,-20.78 -31.96,-37.02 -47.4,-63.65 -10.34,-17.82 -21.46,-43.47 -38.36,-61.23 -18.7,-11.23 -21.1,-30.18 -31.6,-8.81 -8.1,16.52 -6.32,69.84 6.13,94.06 1.09,2.12 9.88,15.97 10.44,16.77 7.69,11.05 -4.77,0.99 12.21,15z"/>
  <path class="fil12" d="M1496 2994.25c1.62,1.37 3.43,3.33 4.52,4.5l20.33 25.65c6.35,9.4 9.58,14.45 16.34,23.88 36.35,50.67 32.29,61.27 81.96,96.31 28.12,19.84 20.37,26.31 40.06,48.85 31.02,1.05 51.39,-4.32 61.25,-34.6l-60.1 -18.33c-1.12,-28.8 21.43,-62.57 16.16,-94.96 -3.98,-24.43 -31.11,-36.31 -48.94,-72.92 -14.41,-11.11 -9.43,-4.32 -11.05,-16.75l-47.17 -42.7c-10.51,-6.69 -20.84,-17.76 -30.87,-25.44 -28.79,-22.08 -30.34,-9.53 -30.82,-9.5l-12.35 3.9c-18.49,44.82 5.82,65.5 0.68,112.11z"/>
  <path class="fil15" d="M2906.56 3314.28c4.68,10.36 8.49,11.95 13.11,25.62 35.22,16.59 54.74,46.2 80.16,75.43 18.58,21.38 15.27,12.34 34.59,40.24 15.98,23.07 20.22,23.38 54.17,22.13 -5.11,-23.51 -10.1,-36.18 -24.75,-50.32 -26.05,-25.16 -22.12,-4.22 -34.91,-45.37 42.68,13.68 113.2,94.3 72.28,-32.85 -5.93,-18.41 -67.57,-103.91 -96.92,-110.43l-87.51 -8.1c-7.44,11.27 -16.44,21.17 -24.75,28.91 2.51,34.79 2.57,24.32 14.53,54.74z"/>
  <path class="fil5" d="M2127.38 3538.14l70.8 10.45c28.11,8.89 13.85,10.01 39.61,0.78 8.04,-37.24 -1.6,-26.27 -22.31,-55.05 -65.86,-29.96 -95.69,-68.56 -141.53,-102.59 -24.59,-18.26 -59.61,-22.97 -86.26,-38.33 -14.67,-8.44 -23.45,-15.54 -39.48,-24.27 -15.16,-8.25 -30.13,-9.26 -39.92,3.96 16.9,17.76 28.02,43.41 38.36,61.23 15.44,26.63 27.98,42.87 47.4,63.65 36.89,39.48 67.88,59.2 133.33,80.17z"/>
  <path class="fil15" d="M2631.99 227.92c-1.7,2.54 -6.04,10.79 -7.12,13.1 -0.49,1.05 -1.32,3.05 -1.78,4.1 -0.43,0.99 -1.09,2.94 -1.49,3.9 -23.4,55.74 -25.41,11.98 -30.42,64 103.96,35.09 172.31,123.11 207.27,138.02 34.37,14.65 60.98,23.75 82.62,-14.16 -12.18,-15.69 -17.47,-14.01 -30.01,-30.07l-19.37 -30.19c-23.43,-37.53 -26.87,-59.16 -45.62,-90.16 -54.08,0.45 -48.05,6.78 -93.38,-11l-7.89 -44.77 -52.81 -2.77z"/>
  <path class="fil12" d="M2618.2 3856.01c-19.28,-24.92 -1.28,-24.44 -27.63,-45.45 -20.17,-16.08 -27.33,-6.37 -38.44,-32.64 -47.62,-20.9 -12.88,3.29 -40.07,-26.22 -17.05,-18.51 -16,-17.74 -44.84,-22.98 3.35,42.27 10.91,87.14 20.01,127.44 12.16,53.83 -9.8,90.04 5.97,126.72 30.9,11.48 16.5,8.5 48.46,5.15 72.7,-7.64 53.89,-23.85 74.8,-69.02 15.02,-32.46 20.88,-22.87 1.74,-63z"/>
  <path class="fil1" d="M2340.84 1748.99c8.55,3.83 30.52,10.14 41.48,16.04 28.39,15.29 48.04,38.87 128.62,45.03 21.35,1.62 136.48,-13.75 162.69,-32.35 22.84,-16.22 11.32,-8.91 19.55,-21.39 -49.04,19.07 -76.21,14.9 -118.84,-0.33 18.87,-39.25 42.78,-30.58 115.2,-60.4 27.66,-11.39 23.09,-13.73 34.15,-27.29 -15.96,-11.89 25.3,-18.68 -31.89,-7.83l-0.12 -2.99 -35.33 20.9c-145.29,49.01 -209.9,-21.07 -247.26,10.56 7.42,14.52 -1.48,6.56 23.46,21.87l30.44 20.33c1.54,-1.76 4.73,3.63 6.59,5.93 -17.53,0 -57.15,-2.11 -72.52,0.94 -24.59,4.88 -11,15.55 -56.22,10.98z"/>
  <path class="fil5" d="M1264.96 829.01c23.99,21.54 48.94,29.05 73.16,51.37 25.58,23.58 53.67,35.3 72.06,58.7 29.89,-8.7 1.47,-2.49 24.26,-9.29 21.33,-6.36 27.76,-1.51 42.94,-20.54 12.73,-15.95 24.96,-41.61 -7.3,-39.92l-73.66 5.17c-1.23,-11.2 -0.39,12.53 1.76,-3.98l-1.34 -62.15c17.6,-17.13 30.96,-21.52 51.83,-34.39l0.82 -45.8c-42.72,-26.02 -75.58,-11.35 -116.28,9.75 -29.14,15.12 -68.66,49.36 -68.25,91.08z"/>
  <path class="fil8" d="M3219.94 2574.22c6.76,30.37 21.45,30.35 25.39,70.83 3.09,31.95 1.48,69.92 -1.97,96.45 -6.46,35.18 -11.19,23.29 -25.9,52.12 -9.86,19.3 -10.14,39.96 -15.15,65.78 46.58,-10.38 58.8,-36.97 75.31,-65.84 14.19,-24.81 27.51,-75.42 51.93,-93.02 20.45,18.07 -0.34,1.67 14.28,19.01 13.5,16.02 0.48,10.46 20.11,16.49 16.61,-43.28 8.77,-145.64 -41.25,-145.93 -56.99,-21.1 -46.78,18.9 -72.81,-45.3 -8.18,-20.17 -4.47,-18.68 -23.49,-33.68 -2.46,21.32 -2.38,-7.37 -3.35,25.63 -0.56,19.09 -0.07,16.11 -3.1,37.46z"/>
  <path class="fil11" d="M1992.39 3581.22c9.62,12.66 31.06,22.67 51.79,31.78l120.99 65.94c34.74,30.37 12.06,42.42 36.11,63.45l2.3 15.02c32.25,3.2 33.21,-6.04 44.82,10.96l21.71 26.7c39.3,-1.12 55.14,-29.64 48.19,-69.16 1.56,-44.95 -41.16,-87.74 -57.03,-119.72 -24.21,-16.36 -9.09,-15.49 -31.11,-34.02 -17.43,-14.66 -16.62,-3.55 -31.98,-23.58l-70.8 -10.45c5.52,3.42 0.53,3.47 18.73,9.14 35.34,10.99 2.12,2.27 13.93,-0.33l7.4 12.86c1.12,1.99 4.71,9.05 5.85,10.98l31.63 34.65c34.55,43.52 20.05,37.99 16.31,84.71 -45.28,-19.29 -47.86,-40.44 -76.23,-58.47l-76.33 -30.95c-78.74,-20.07 -90.83,-56.79 -137.26,-109.34 9.83,17.33 14.18,28.96 26.14,45.66 10.7,14.92 2.9,4.11 14.78,17.69l20.06 26.48z"/>
  <path class="fil13" d="M3084.87 979.81l0.1 18.27c-5.81,32.59 -19.85,127.97 -33.57,144.31 -13.03,15.48 -80.19,34.99 -43.06,117.56 24.18,-22.9 8.83,-68.03 42.12,-36.5 21.48,20.34 23.43,41.48 53.27,53.05 3.31,-150.3 23.07,-185.16 30.94,-347.31 31.14,16.24 -20.65,6.54 32.86,13.42 -0.17,-21.98 2.19,-30.24 -7.5,-46.55 -11.74,-19.74 -17.45,-16.38 -34.29,-22.86 -7.51,16.56 -12.87,31.8 -18.35,51.33 -2.75,9.83 -4.26,18.28 -7.15,27.04 -4.82,14.63 0.39,3.13 -5.99,15.13 -6.87,12.93 -0.93,4.02 -9.38,13.11z"/>
  <path class="fil7" d="M1138.93 2388.54c68.46,38.4 100.64,137.58 125.83,146.78 34.24,12.51 32.8,-24.02 32.48,-49.54 -1.3,-24.28 -16.95,-114.64 -34.09,-133.86 -32.88,-36.88 -110.64,-8.65 -157.6,-10.08 11.01,27.07 21.68,24.23 33.38,46.7z"/>
  <path class="fil6" d="M1554.18 153.54c-9.92,17.87 -13.12,22.78 -23.43,39.28 -4.21,6.74 -5.42,8.83 -10.47,16.71 -12.88,20.03 -45.81,56.84 33.05,75.12l28.92 -76.72c4.05,-10.19 146.32,-114.17 192.54,-76.98 8.22,-10.95 11.22,18.11 5.72,-21.35 -29.4,-58.12 -102.68,-25.53 -120.01,-21.7 -25.81,5.69 -83.25,-0.61 -106.32,65.64z"/>
  <path class="fil9" d="M988.04 914.06c0.99,-1.09 2.28,-4.55 2.61,-3.59l33.22 -41.23c0.9,-1.33 1.99,-2.97 2.77,-4.42l5.47 -16.02c11.27,-37.5 63.64,-103.39 90.99,-128.13 18.54,-16.78 52.79,-31.52 61.34,-56.98 -32.03,2.84 -41.52,7 -58.23,25.72l-39.8 45.22 34.8 -83.33c-54.55,16.8 -95.93,58.31 -121,97.98 -20.88,33.03 -38.23,87.71 -35.56,127.48 2.05,30.75 3.47,24.17 23.39,37.3z"/>
  <path class="fil3" d="M1258.63 609.07c36.96,14.47 23.91,17.03 73.89,16.04 7.61,31.34 3.39,19.84 25.01,25.63 32.68,-21.43 10.61,5.83 26.92,-41.97 8.28,-24.25 8.71,-25.49 27.33,-38.76 53.76,-38.31 68.5,-41.08 70.36,-81.17 -48.19,0.3 -49.63,15.22 -81.33,33.93 -24.01,14.17 -63.24,17.57 -86.94,22.05 -7.89,-16.83 -11.41,-95.2 -45.84,-51.23 -15.39,19.65 -8.8,87.24 -9.4,115.48z"/>
  <path class="fil12" d="M2261.27 3606.19c15.87,31.98 58.59,74.77 57.03,119.72 46.96,-5.85 124.14,-14.69 98.47,-77.09 -11.99,-29.15 -26.2,-41.37 -48.18,-91.2 -9.88,-22.37 -14.33,-25.76 -36.57,-31.87 -33.73,32.73 -20.4,14.08 -13.93,68.46l-56.82 11.98z"/>
  <path class="fil11" d="M1955.51 2674.62l-0.84 31.95c36.51,8.97 231.99,33.5 272.58,20.37l73.97 -24.14c1.48,-0.53 3.88,-1.4 5.55,-2.58 -35.78,-42.13 -119.7,-33.13 -171.35,-26.34 -51.23,6.73 -47.77,-10.32 -82.9,-6.57 -38.66,4.12 -58.91,5.32 -97.01,7.31z"/>
  <path class="fil13" d="M1916.23 3917.71l-3 12c17.79,12.01 38.89,37.05 49.49,59.99 -30.29,27.13 -61.84,80.82 -57.5,134.57 41.14,5.08 53.74,-2.88 63.45,-40.76 3.77,-14.74 5.92,-29.43 9.39,-43.13l16.87 -37.86c92.15,13.65 28.26,4.77 95.35,4.77l-21.51 -19.13c-59.4,-40.82 -23.77,-21.63 -54.94,-47.54l-32.04 -30.77c-12.56,-15.41 -20.15,-24.65 -41.9,-30.16 -12.88,27.92 -2.44,19.16 -23.66,38.02z"/>
  <path class="fil11" d="M1368.72 3567l27.73 50.25c25.84,18.72 6.29,4.86 23.79,25.49 44.89,14.81 51.43,51.22 86.74,82.56 13.1,11.65 21.88,17.89 40.88,6.54 4.79,-2.85 17.71,-13.04 22.61,-18.28l14.55 -19.07c-49.38,-20.79 -32.32,-18.68 -39.07,-34.57 -32.18,-23.86 -57.44,-38.67 -85.98,-67.12 -28.61,-28.54 -51.74,-64.1 -94.43,-69.94l3.18 44.14z"/>
  <path class="fil6" d="M3084.97 998.08l-0.1 -18.27c-3.64,-37.84 11.31,-36.96 -2.56,-75.34l-41.41 -10.44 -19.48 33.43c-14.17,20.55 -6.37,-2.81 -23.91,25.38l0.26 199.93c81.73,-77.59 50.82,-75.82 70.22,-127.98l4.91 -10.87c7.31,-13.09 3.63,-7.57 12.07,-15.84z"/>
  <path class="fil6" d="M2448.27 1552.17c63.25,-2.39 192.87,-27.89 260.65,21.35 16.35,11.87 37.09,38.4 55.52,45.46 -1.69,-106.62 -141.99,-133.08 -244.93,-122.6 -54.53,5.55 -65.68,2.38 -71.24,55.79z"/>
  <path class="fil15" d="M1700.63 1505.37c-79.41,-48.44 -17.12,-43.1 -56.26,-69.23 -43.78,-7.08 -54.33,-38.43 -96.87,-2.05 -54.29,46.41 -53.75,19.4 -84.04,48.47l21.7 15.53c17.04,7.9 3.61,4.63 27.92,6.01 20.98,1.21 45.38,-1.43 68.1,1.53 17.06,2.22 67.37,21.55 90.58,17.09 43.46,-8.35 14.65,4.88 28.87,-17.35z"/>
  <path class="fil0" d="M1560.67 1726.82c43.73,-7.68 86.9,-0.15 130.2,-3.8 44.39,-3.75 79.57,-13.4 132.04,-13.4 -4.52,29.74 -16.6,26.98 -12.83,47.41 4.19,22.65 24.67,16.05 42.98,15.03l6.33 -9.39c-25.69,1.78 -17.68,5.33 -36.73,-4.93 5.75,-46.8 21.04,6.51 35.49,-50.1l-42.37 -6.37c17.64,-41.73 -9.05,-36.69 -47.54,-38.7 -40.72,-2.13 -47.07,-19.42 -84.11,-2.55l-123.46 66.8z"/>
  <path class="fil12" d="M1410.21 3110.47c73.63,39.5 17.53,38.35 96.28,86.7 14.57,-6.05 35.57,-17.57 49.64,-25.51l-7.89 -51.79 -42.69 -23.03c-28.44,-3.08 -54.32,-18.9 -79.02,-34.82 -24.6,-15.86 -38.88,-37.76 -59.13,-45.37 -21.36,-2.75 5.03,32.95 12.26,44.53 8.81,14.11 9.55,13.92 17.76,24.64 13.71,17.9 14.42,4.95 12.79,24.65z"/>
  <path class="fil11" d="M1569.36 2913.18l47.17 42.7 0.03 -14.42c23.86,17.77 17.54,16.37 52.24,17.38 -5.32,-41.28 -13.09,-35.01 -34.19,-63.43 -19.33,-26.04 -35.92,-78.79 -58.41,-113.55 -22.49,-34.75 -5.93,-39.45 -21.55,-63.43 -25.5,9.3 -8.54,-14.09 -23.28,21.34 -11.82,28.41 26.94,125.95 39.36,157.46 7.2,18.26 18.37,4.62 -1.37,15.95z"/>
  <path class="fil10" d="M1122.85 1178.65c22.27,-44.94 13.74,-40.18 -14.07,-75.45 -21.39,-27.14 -20.28,-71.8 -70.72,-51.94 -21.99,8.66 -21.42,19.41 -19.48,45.33 4.55,60.91 32.42,102.5 104.27,82.06z"/>
  <path class="fil16" d="M3164 1699.03c-15.63,2.32 -38.94,14.68 -55.97,19.36 -0.87,1.73 -2.66,2.11 -3.17,4.89 -4.75,26.03 0.85,-3.13 -6.05,9.63 -41.93,77.48 51.37,75.68 97.42,29.5 14.55,-14.59 53.18,-59.71 57.81,-87.19 -11.35,5.78 2.45,6.94 -10.99,-2.66l-5.11 -5.45c-0.72,-0.75 -3.47,-5.12 -4.71,-7.05 -11.08,15.92 -26.26,19.07 -38.57,39.73l-30.66 -0.76z"/>
  <path class="fil12" d="M2813.67 3661.43c-8.88,19.49 -16.15,42.46 -14.16,70.81 45.06,-2.81 23.91,-3.05 48.68,-41.17l100.06 -149.09 2.07 -34.98c-40.01,-1.23 -86.16,76.84 -104.97,111.41 -4.53,8.32 -8.58,17.56 -11.97,22.52l-15.04 16.58c-0.73,-1.3 -3.05,2.69 -4.67,3.92z"/>
  <path class="fil8" d="M791.7 1778.34c-19.74,-58.14 -48.78,-36.94 -51.9,-119.63 -48.33,-4.16 -42.05,-19.5 -75.33,-37.97 6.1,38.44 -30.03,85.51 15.69,109.35 11.94,6.22 41.34,16.69 55.7,22.93 22.36,9.72 32.41,16.73 55.84,25.32z"/>
  <path class="fil8" d="M2164.78 2460.72c25.82,11.27 25.7,4.02 52.95,6.71 25.53,2.51 27.13,8.1 52.34,9.71 22.3,1.42 38.62,-3.68 62.12,0.18 17.54,2.88 8.82,0.61 21.79,7.39l18.91 12.82c1.24,0.86 3.23,2.55 5.03,3.51 -16.5,-48.24 -6.16,-97.55 -25.26,-130.11 -38.58,31.74 -31.23,98.37 -96.31,97.06 -30.12,-14.63 -47.02,-45.68 -55.03,-78.49 -25.24,-3.1 -18.09,-4.92 -32.37,8.03 13.97,30.03 36.41,9.14 33.47,61.17l-37.64 2.02z"/>
  <path class="fil8" d="M2379.54 213.54c25.03,-14.61 76.16,-63.04 67.21,-104.09l-31.1 0.16c-15.59,8.77 -23.59,18.66 -39.17,34.6 -17.91,18.29 -26.18,23.29 -25.01,59.86l28.07 9.47z"/>
 </g>
</svg>
