<svg width="136" height="109" viewBox="0 0 136 109" fill="none" xmlns="http://www.w3.org/2000/svg">
<path d="M72.0453 100.087C74.7263 100.087 128.032 100.087 128.032 100.087C128.032 100.087 128.032 100.087 128.032 100.087C130.713 100.087 132.887 97.914 132.887 95.233V7.85437C132.887 5.17337 130.713 3 128.032 3H74.0453C71.3643 3 67.6764 9.17337 67.6764 11.8544M72.0453 100.087C69.3643 100.087 67.6764 97.914 67.6764 95.233M72.0453 100.087L70.8242 100.463C69.5836 100.845 68.5743 101.718 67.8324 102.783C67.78 102.858 67.7278 102.931 67.6764 103M67.6764 95.233C67.6764 97.914 65.9885 100.087 63.3075 100.087M67.6764 95.233V51.5437V11.8544M67.6764 95.233C67.6764 95.233 67.6764 100.346 67.6764 103M67.6764 11.8544C67.6764 9.17337 63.9885 3 61.3075 3H7.96765C5.28666 3 3.11328 5.17338 3.11328 7.85437V95.233C3.11328 97.914 5.28665 100.087 7.96765 100.087C7.96765 100.087 7.96765 100.087 7.96765 100.087C7.96765 100.087 60.6265 100.087 63.3075 100.087M63.3075 100.087L64.5286 100.463C65.7692 100.845 66.7785 101.718 67.5203 102.783C67.5728 102.858 67.625 102.931 67.6764 103" stroke="#518E2B" stroke-width="6" stroke-miterlimit="16"/>
</svg>
