<svg width="106" height="106" viewBox="0 0 106 106" fill="none" xmlns="http://www.w3.org/2000/svg">
<path d="M17.885 17.2911L28.4916 27.8977M88.5956 88.0019L77.989 77.3953M53.0009 31.351C47.2964 31.5211 42.2532 33.0676 41.3633 37.8412C39.204 49.4242 44.6087 51.0643 53.0009 52.464C61.3932 53.8637 66.4318 57.4677 64.46 68.0449C63.5747 72.794 58.6289 74.4314 53.0009 74.6808M53.0009 31.351C56.7823 31.2383 60.8542 31.7305 64.1996 32.2884M53.0009 31.351V26M53.0009 74.6808C49.2221 74.8482 45.1357 74.3899 41.7644 73.8276M53.0009 74.6808V80M102.887 53C102.887 80.6142 80.501 103 52.8867 103C25.2725 103 2.88672 80.6142 2.88672 53C2.88672 25.3858 25.2725 3 52.8867 3C80.501 3 102.887 25.3858 102.887 53Z" stroke="#518E2B" stroke-width="5" stroke-linecap="round"/>
</svg>
