<svg width="82" height="100" viewBox="0 0 82 100" fill="none" xmlns="http://www.w3.org/2000/svg">
<path fill-rule="evenodd" clip-rule="evenodd" d="M58.5 42.0792C58.5 51.6485 50.665 59.4059 41 59.4059C31.335 59.4059 23.5 51.6485 23.5 42.0792C23.5 32.5099 31.335 24.7525 41 24.7525C50.665 24.7525 58.5 32.5099 58.5 42.0792ZM53.5 42.0792C53.5 48.9144 47.9036 54.4554 41 54.4554C34.0965 54.4554 28.5 48.9144 28.5 42.0792C28.5 35.244 34.0965 29.703 41 29.703C47.9036 29.703 53.5 35.244 53.5 42.0792Z" fill="#518E2B"/>
<path fill-rule="evenodd" clip-rule="evenodd" d="M80.5 51.4851C76.5 77.7228 41 100 41 100C41 100 5.50002 77.7228 1.50002 51.4851C-2.49998 25.2475 11.5279 0 41 0C70.4721 0 84.5 25.2475 80.5 51.4851ZM75.556 50.7463C73.8174 62.1509 65.0117 73.3036 55.7999 81.9985C51.2957 86.25 46.8981 89.7254 43.6242 92.1379C42.634 92.8675 41.7497 93.4977 41 94.0203C40.2504 93.4977 39.366 92.8675 38.3758 92.1379C35.1019 89.7254 30.7043 86.25 26.2001 81.9985C16.9883 73.3036 8.18268 62.1509 6.44401 50.7463C4.59879 38.6428 6.96749 27.0951 12.8121 18.7169C18.5528 10.4875 27.877 4.9505 41 4.9505C54.123 4.9505 63.4472 10.4875 69.188 18.7169C75.0325 27.0951 77.4012 38.6428 75.556 50.7463Z" fill="#518E2B"/>
</svg>
