<svg width="61" height="100" viewBox="0 0 61 100" fill="none" xmlns="http://www.w3.org/2000/svg">
<path d="M35.0626 84.6497V65.479L36.1641 66.0147C36.9413 66.3927 37.8734 66.2286 38.4749 65.608L42.5558 61.3976L44.7528 61.6273V94.9539L35.0626 84.6497ZM23.2956 65.6076C23.8971 66.2286 24.8295 66.3927 25.6069 66.0147L26.7081 65.4791V84.6497L17.0181 94.9538V61.6274L19.2174 61.3976L23.2956 65.6076ZM55.905 32.9593C55.5407 33.4587 55.4279 34.0983 55.5992 34.6922L56.7987 38.8501L53.1952 41.2695C52.6827 41.6136 52.3579 42.175 52.3149 42.7907L52.013 47.1152L47.7912 48.1618C47.1933 48.31 46.697 48.7255 46.446 49.2881L44.6793 53.2478L40.347 52.7921C39.737 52.7279 39.1312 52.9472 38.7037 53.3871L35.6788 56.4991L31.7617 54.5935C31.2094 54.3248 30.5642 54.3248 30.0118 54.5935L26.097 56.498L23.0722 53.3758C22.6446 52.9344 22.0377 52.7141 21.4265 52.7784L17.0942 53.2341L15.3276 49.2746C15.0759 48.7106 14.5778 48.2945 13.978 48.1472L9.76014 47.1118L9.45865 42.7986C9.41562 42.1831 9.09092 41.6219 8.57875 41.2778L4.96104 38.8477L6.16079 34.6897C6.33182 34.0969 6.21971 33.4584 5.85697 32.9593L3.30931 29.4543L5.86547 25.9527C6.23105 25.4519 6.34369 24.8099 6.1704 24.2145L4.96423 20.0706L8.56699 17.6532C9.07963 17.3092 9.40468 16.7477 9.44773 16.1318L9.74918 11.8192L13.977 10.7834C14.5772 10.6364 15.0758 10.2201 15.3276 9.65581L17.0943 5.6963L21.4266 6.15186C22.0378 6.21613 22.6445 5.99585 23.0722 5.55449L26.097 2.43239L30.0118 4.33694C30.5642 4.60566 31.2094 4.60566 31.7617 4.33694L35.6766 2.43239L38.7014 5.55449C39.129 5.99585 39.7358 6.21613 40.347 6.15186L44.6793 5.6963L46.446 9.65581C46.697 10.2184 47.1933 10.6339 47.7912 10.7821L52.0132 11.8287L52.3149 16.1453C52.3579 16.761 52.6828 17.3223 53.1952 17.6663L56.7987 20.0858L55.5992 24.2437C55.4272 24.8398 55.5416 25.4819 55.9089 25.9819L58.4602 29.4558L55.905 32.9593ZM31.2076 16.096C31.1411 16.0893 31.0741 16.0859 31.0066 16.0859C28.3556 16.0859 25.7634 16.8687 23.5578 18.3362C21.3521 19.8039 19.6318 21.8907 18.6155 24.3339C17.5992 26.7772 17.3331 29.4662 17.8513 32.0605C18.3695 34.6548 19.6484 37.0366 21.5248 38.9053C23.4012 40.7739 25.7909 42.0455 28.3912 42.5606C30.9915 43.0757 33.6868 42.8115 36.1368 41.801C38.5868 40.7904 40.6822 39.0785 42.1571 36.8805C43.6321 34.6823 44.4199 32.0971 44.4199 29.4518L44.4199 29.446C44.4098 25.9036 42.9914 22.5111 40.4778 20.0097C38.0108 17.5548 34.6861 16.1541 31.2076 16.096Z" stroke="#FD7E14" stroke-width="4" stroke-linejoin="round"/>
</svg>
