<?xml version="1.0" encoding="UTF-8"?>
<!DOCTYPE svg PUBLIC "-//W3C//DTD SVG 1.0//EN" "http://www.w3.org/TR/2001/REC-SVG-20010904/DTD/svg10.dtd">
<!-- Creator: CorelDRAW -->
<svg xmlns="http://www.w3.org/2000/svg" xml:space="preserve" width="210mm" height="297mm" version="1.0" style="shape-rendering:geometricPrecision; text-rendering:geometricPrecision; image-rendering:optimizeQuality; fill-rule:evenodd; clip-rule:evenodd"
viewBox="0 0 21000 29700"
 xmlns:xlink="http://www.w3.org/1999/xlink"
 xmlns:xodm="http://www.corel.com/coreldraw/odm/2003">
 <defs>
  <style type="text/css">
   <![CDATA[
    .fil8 {fill:#232323}
    .fil6 {fill:#414141}
    .fil5 {fill:#525252}
    .fil7 {fill:dimgray}
    .fil3 {fill:#828282}
    .fil2 {fill:#939393}
    .fil1 {fill:#A7A7A7}
    .fil0 {fill:#C7C7C7}
    .fil4 {fill:#D9D9D9}
   ]]>
  </style>
 </defs>
 <g id="Слой_x0020_1">
  <metadata id="CorelCorpID_0Corel-Layer"/>
  <path class="fil0" d="M6214.65 3727.68c-391.13,53.12 -40.64,312.44 -443.22,480.24 -718.49,299.43 -363.01,186.22 -827.43,857.52 -71.49,103.33 -148.59,141.34 -221.63,254.98 -67.35,104.74 -102.58,234.02 -150.24,326.56 -65.74,127.54 -139.59,166.35 -190.03,259.97l-201.67 482.97 230.68 -262.09c96.83,-108.51 151.84,-132.62 337.49,-149.06 -49.54,147.56 -248.05,232.99 -355.53,330.24 -158.52,143.41 -462.1,525.31 -527.42,742.66l-31.7 92.87c-4.52,8.43 -10.83,17.9 -16.01,25.62l-192.58 239.01c-1.93,-5.6 -9.37,14.46 -15.12,20.77 -75.49,298.03 -386.84,423.3 -319.17,833.18 26.8,222.57 168.98,-50.63 124.95,344.13 -73.52,658.97 -124.47,119.53 107.47,833.22 58.92,181.23 120.14,109.92 208.4,274.1 20.3,-245.04 193.8,-446.05 317.05,-115.76 24.45,65.51 33.3,135.92 54.26,211.84 76.01,-143.65 128.48,-117.74 334.05,-112.19l634.81 -1032.62c77.09,-107.48 217.96,-218.62 67.86,-340.7 -136.62,-50.29 -188.38,128.72 -358.68,239.82 -29.25,114.39 -392.41,648.6 -478.69,795.21 -38.76,-68.05 -1.5,-72.81 2.27,-227.8 -146,31.65 -306.27,126.5 -463.43,21.24 -230.86,-154.66 20.96,-195.87 -309.42,-288.13 41.77,-137.81 86.23,-182.17 115.67,-344.18 76.15,-419.67 500.77,-632.36 603.67,-629.49 92.92,-141.14 588.04,-430.08 652.71,80.3l36.5 292.52c205.81,-66.69 144.53,-54.64 90.47,-612.86 -31.51,-325.34 -56.52,-450.38 154.99,-592.66 173.83,114.82 265.58,189.75 431.59,315.5 164.84,124.8 235.01,222.95 408.27,351.05 298.78,221.02 380.68,29.39 945.03,183.63 231.34,63.25 62.83,102.1 223.94,125.6 -154.33,5.75 -307.91,10.69 -462.24,14.22 -350.11,8.01 -178.69,-8.61 -359.02,119.02 53.65,235.33 49.13,16.34 132.72,263.64 1.88,5.51 3.49,17.71 5.6,23.22 75.83,200.39 292.71,212.92 431.03,384.35 165.21,204.72 -80.11,-30.28 397.35,284.93 166.29,109.83 315.92,171.85 471.24,72.34 3.58,13.84 -13.42,72.1 -6.17,175.2 305.65,16.06 723.3,75.16 811.13,316.53 -46.57,84.16 -95.88,63.91 -145.24,119.62l595.2 381.39c212.17,132.33 96.83,63.81 206.14,42.66 6.97,-1.36 18.55,-6.07 25.9,-7.11l206.19 37.16c535.76,207.55 250.74,60.85 577.16,102.67 216.73,27.74 40.74,75.02 262.61,56.56 295.29,-24.63 262.37,-93.48 430.69,-241.93 215.51,-190.08 843.06,-815.47 1108.69,-800.49 110.39,6.26 24.53,-16.77 90.18,30.33 -112.6,71.82 -308.66,172.42 -386.75,265.81 -199.26,238.4 78.7,242.45 -260.53,379.83l165.4 -16.25 363.06 -99.7 385.72 -218.81c184,-58.63 180.7,2.17 589.78,-173.74 27.69,-11.91 128.9,-46.72 143.83,-50.11 351.15,-79.68 842.22,297.79 1124.8,339.19 36.26,-82.65 28.25,-65.37 81.61,-107.19 -121.74,-421.98 -47.71,-251.64 -260.11,-608.91 -84.87,-142.84 3.86,93.96 -70.64,-128.71 112.18,17.43 88.44,12.53 157.25,32.12l122.87 46.39c16.02,-264.54 -42.85,-88.87 131.64,-178.26 -80.4,-317.57 -21.62,-159.32 34.28,-302.87l-51.24 -70.08c-256.67,-290.63 -187.96,-317.52 -504.54,-334.9 7.63,-7.91 23.41,-28.35 26.09,-20.06 2.41,7.34 20.02,-15.36 22.71,-18.47l-58.07 -139.21c-108.37,-274.38 191.3,-268.92 -17.67,-417.32 -3.62,-2.54 -15.44,-8.24 -22.84,-12.95 21.06,-110.16 39.61,-174.49 40.51,-319.03 -444.68,-234.49 -235.34,-3.53 -377.05,-256.77l-499.6 -2.07c81.67,-81.99 11.87,-32.31 131.49,-81.38 107.71,-44.22 168.18,-9.84 385.67,-138.27 -91.36,-247.35 3.3,-449.11 236.9,-534.5 655.76,-460.22 865.85,-288.65 1008.18,-520.93 259.92,-424.28 -94.76,-384.35 -39.7,-596.37 30.52,-117.65 75.4,38.48 83.03,-225.59l-20.68 -165.17c3.53,-234.02 47.05,-361.98 -39.84,-557.05 -331.65,-744.4 -312.34,-360.9 -447.79,-782.36 -47.85,-66.69 -228.09,-109.31 -293.27,-152.07 -22.6,-14.84 -120.09,-81.62 -141.19,-98.76 -161.92,-131.3 -518.15,-402.15 -715.86,-462.48 -325.72,-137.67 -560.87,33.25 -865.91,32.02 18.23,215.65 -63.76,352.47 103.8,399.23 237.7,66.36 240.99,-91.69 344.75,142.66 43.94,-65.61 115.38,-167.71 220.45,-112.8 106.3,55.58 71.26,129.94 93.53,263.74l240.81 45.92 306.12 16.06 45.73 259.5c262.75,103.04 227.8,66.36 541.23,63.72 108.7,179.72 128.62,305.09 264.44,522.62l112.28 174.96c72.67,93.07 103.33,83.36 173.92,174.31 -125.41,219.7 -279.65,167 -478.87,82.04 -202.65,-86.42 -598.82,-596.57 -1201.37,-799.97 -234.21,-18.8 -188.38,-4.15 -345.78,-115.2 -93.91,-66.22 -165.49,-101.59 -282.39,-145.2 -363.53,-135.68 -394.28,-57.78 -598.54,-316.2l-162.67 -54.87c-6.78,-211.98 41.16,-240.94 144.92,-347 90.33,-92.36 136.67,-149.72 227.05,-200.54 91.17,-98.76 101.02,-28.3 67.58,-163.8 -77.52,-313.75 -575.99,36.69 -723.73,127.26l-704.32 191.02 -1310.91 35.51 -60.71 141.85c-101.54,138.32 83.55,-22.65 -106.3,79.92 -7.39,4.01 -18.46,8.34 -26.09,12.34 -7.81,4.05 -18.79,8.48 -26.75,12.72l-103.66 62.83c-393.48,294.72 -338.95,182.49 -1019.06,417.74 -91.74,31.79 -511.32,141.52 -528.04,153.34 -79.17,78.56 10.93,176.61 -153.86,323.41l-226.11 222.43c-91.32,-45.21 -221.49,-34.52 -369.94,-292.7l-202.32 -402.71c-5.98,-43.62 -59.96,-4.62 -176.05,39.32z"/>
  <path class="fil1" d="M13608.54 6242.98c-233.6,85.39 -328.26,287.15 -236.9,534.5 -217.49,128.43 -277.96,94.05 -385.67,138.27 -119.62,49.07 -49.82,-0.61 -131.49,81.38l499.6 2.07c141.71,253.24 -67.63,22.28 377.05,256.77 -0.9,144.54 -19.45,208.87 -40.51,319.03 7.4,4.71 19.22,10.41 22.84,12.95 208.97,148.4 -90.7,142.94 17.67,417.32l58.07 139.21c-2.69,3.11 -20.3,25.81 -22.71,18.47 -2.68,-8.29 -18.46,12.15 -26.09,20.06 316.58,17.38 247.87,44.27 504.54,334.9l51.24 70.08c-55.9,143.55 -114.68,-14.7 -34.28,302.87 -174.49,89.39 -115.62,-86.28 -131.64,178.26l-122.87 -46.39c-68.81,-19.59 -45.07,-14.69 -157.25,-32.12 74.5,222.67 -14.23,-14.13 70.64,128.71 212.4,357.27 138.37,186.93 260.11,608.91 -53.36,41.82 -45.35,24.54 -81.61,107.19 -282.58,-41.4 -773.65,-418.87 -1124.8,-339.19 -14.93,3.39 -116.14,38.2 -143.83,50.11 -409.08,175.91 -405.78,115.11 -589.78,173.74l-385.72 218.81c491.12,-60.38 1302.96,-517.92 1579.6,-86.38 -439.83,-24.11 -501.76,-27.5 -777.84,215.33 -143.97,126.64 -369.09,326.14 -398.57,636.03 248.76,-13.19 343.14,-167.8 954.59,-61.08 159.14,27.78 239.86,73.56 402.25,111.42 238.35,55.58 304.33,-45.49 436.39,31.75 394.57,230.77 448.21,810.99 -138.51,801.57 -216.41,-3.48 -270.43,-28.63 -427.49,168.75 331.46,-62.88 92.31,-23.55 184.8,45.4 -64.1,78.6 -37.58,92.12 -197.9,158.14 -419.76,172.85 -558.37,122.6 -667.77,350.12 247.11,88.25 404.6,112.46 688.83,1.93 84.58,-73.1 192.15,-112.61 283.47,-209.77 119.15,-126.73 123.86,-368.85 573.3,-516.26 238.68,-78.28 205.43,66.59 209.53,285.3l100.36 60.29c163.61,50.29 147.22,35.74 212.35,196.76 48.89,120.8 62.12,191.59 54.78,352.09 -7.68,167.29 -19.31,213.54 -111.2,309.28 -226.29,235.58 -449.86,609.85 -695.13,894.5l-284.56 311.02c-156.78,252.95 -135.68,172.28 -664.76,345.4 -310.31,101.54 -614.22,-295.86 -951.71,-605.32 -101.4,-92.97 -146.38,-104.79 -210.29,-226.21 -167.47,-15.87 -288.51,-202.37 -370.12,-314.41l-34.34 -45.12c-150.33,-195.07 -71.16,-115.9 -198.08,-192.81 -72.3,-43.8 -111.39,-61.27 -172.52,-109.07l-169.35 -149.67c-99.85,-74.84 -90.66,-33.54 -186.64,-134.84 -113.88,-120.28 20.29,-47.57 -156.27,-156.45 -0.14,0.19 -25.38,36.5 -43.42,68.62 -3.35,5.98 -10.55,17.09 -14.13,23.97 -3.67,7.06 -9.56,17.61 -13.14,25.29 -3.72,7.96 -8.62,18.51 -12.06,26.94l-67.06 211.79c-3.16,9.42 -7.25,19.54 -10.46,28.96 -142.41,423.35 -170.86,215.18 -188.29,494.42 -278.29,7.67 -205.1,21.47 -246.03,75.26l-48.17 89.01c-33.11,-221.5 -144.54,-234.26 -326.14,-285.5l105.16 -81.85c94.1,-72.15 24.49,-0.85 84.68,-66.31 10.69,7.49 23.74,8.43 29.29,25.85 5.65,17.81 46.91,40.83 56.38,47.38 105.21,72.67 125.88,72.53 238.91,12.06 -38.14,-72.15 29.86,10.83 -45.4,-47.43 -4.05,-3.15 -13.94,-11.87 -18.83,-15.16 -190.93,-130.32 -447.7,-29.58 -804.31,-32.4l-17.05 -308.77c-114.21,26.85 -411.19,364.2 -523.71,458.72 267.46,161.07 105.88,-81.29 393.16,306.31l-84.3 126.78c529.92,-64.94 537.37,145.06 874.53,130.65 331.83,-14.18 343.56,-197.66 752.26,-259.45 189.56,-28.64 61.79,-64.81 202.65,17 127.02,73.75 163.05,89.95 248.48,228.41 132.01,214.01 390.19,252.58 614.7,367.4 59.43,420.05 70.36,282.81 -174.4,438.65l-47.94 199.17c161.87,-59.34 123.11,-13.28 187.77,-40.08 99.56,-41.21 48.09,-43.89 133,-115.52 437.05,267.88 718.78,863.92 979.93,1312.14 226.43,433.94 35.37,279.65 181.88,471.24 131.49,171.9 188.9,61.04 370.46,346.06 254.08,398.81 594.87,305.32 634.24,775.25 34.94,417.6 -78.79,549.14 -147.69,858.04 204.49,-44.88 97.53,-32.78 232.09,-120.28 109.35,-71.21 117.36,-43.71 229.87,-90.9 54.4,-113.59 16.67,-103.94 49.83,-190.41l59.9 -100.36c5.75,-7.63 14.93,-17.24 20.49,-24.11 75.07,-92.73 39.89,-201.2 -17.09,-325.44 -160.7,-350.2 -433.76,-248.1 -450.34,-609.7 290.07,0.56 974.28,239.81 801.72,678.61l-26.66 56.32c-131.35,325.01 2.88,562.23 -183.53,812.08 -112.94,151.37 -95.42,23.12 -160.55,296.47 -30.38,127.3 -42.39,222.34 -96.92,325.71 -374.61,709.74 -601.99,122.88 -666.88,1070.59 -33.25,485.32 -893.37,384.35 -757.02,740.49 44.41,116 31.55,80.77 168.93,89.58 125.79,-58.64 120.14,-107.52 250.46,-157.35 141.38,-54.07 237.03,-23.31 392.4,-54.73 169.87,-34.33 161.96,-77.8 226.67,-210.99 67.63,-139.02 148.07,-160.22 172,-258.88 63.53,-262 -207.93,-361.28 198.41,-594.68 118.21,-67.92 165.69,-80.3 277.77,-164.18 91.84,-68.71 147.46,-180.99 250.23,-211.09 172.23,349.6 -260.21,414.59 -304.15,655.3 -0.94,5.18 -1.84,18.84 0.28,27.93 142.66,23.4 6.69,31.32 184.01,-28.69 77.8,-127.81 276.59,-69.93 467.47,-327.45 107.85,-145.48 -26.84,-49.27 142.33,-145.72 -2.78,-156.64 -39.94,-86 -20.82,-286.11 220.55,-73.56 321.48,-165.02 566.8,-202.13 280.41,-42.39 347.05,-76.25 459.56,-263.88 29.06,-149.63 30.66,-269.39 87.79,-381.24 85.29,-167.1 112.7,-98.2 150.14,-302.12 -166.72,97.01 -59.58,30.7 -109.73,0 -2.26,-75.12 2.26,-204.59 -7.4,-272.6 -27.64,-195.21 -5.74,-126.45 -106.06,-169.73l-43.98 880.04c-191.31,140.2 -434.65,202.13 -665.52,287.52 -150.71,55.71 -14.93,-0.52 -152.5,82.27 -216.21,130.18 -241.41,75.12 -326.23,85.34 -207.17,24.96 34.85,29.58 -202.37,56.7 -89.77,-129.37 -142.14,-323.21 -74.13,-462.24l64.33 -97.96c102.48,-131.16 148.17,-121.27 270.1,-247.63l133.7 -148.97c4.62,-5.46 13.57,-13.94 17.67,-19.4 70.64,-94.19 34.94,-161.35 48.83,-365.56l29.25 -118.78c3.06,-5.69 10.97,-14.88 14.41,-20.72l44.79 -71.63c4.14,-8.1 9.04,-19.5 12.81,-27.6l33.86 -86.8c-121.6,-168.98 -150.75,4.34 -158.24,-276.64 -186.26,13.05 -76.06,48.04 -198.13,-2.45l-21.62 -121.18c260.06,-176.89 429.42,-107.56 579.85,-108.18 6.68,-8.1 15.73,-32.02 18.79,-25.29 30.66,67.4 -5.8,-30.66 113.22,-130.45l548.57 412.37c17.52,-123.77 14.69,-106.48 17.94,-217.11 5.61,-191.31 5.18,-25.01 19.41,-148.59 -29.06,-92.31 -209.53,-198.65 -123.11,-408.56 72.2,-175.34 509.11,-211.84 694.57,-238.35l-53.6 -448.31c-3.43,-12.95 -6.02,-22.84 -10.07,-35.04l-48.09 -96.68 5.75 488.15 -228.47 26.27c-121.36,-453.15 94.81,-885.35 -77.89,-1181.82 -41.78,33.62 -123.58,18.69 -124.29,278.15 -0.94,350.77 34.05,369.56 5.09,901.74 -93.25,14.37 -99.8,42.72 -198.37,8.67 -109.92,-286.53 -3.58,-1059.71 -1.41,-1427.81 -198.65,111.15 -181.04,166.25 -206.24,597.98 -10.5,180.23 -22.56,474.87 -72.71,624.91 -174.92,-249.84 -163.24,-639.65 -159.99,-1004.22 -72.62,111.05 -84.16,209.72 -87.36,338 -7.07,282.44 21.38,464.28 -100.08,697.45 -10.97,21.1 -52.09,93.81 -71.45,128.34l-26.37 47.14c-1.65,3.01 -27.93,54.49 -33.25,66.64 -72.76,-86.19 -79.59,-76.11 -16.11,-201.57 61.94,-122.45 63.21,-53.88 78.94,-254.13 77.8,-992.88 65.98,-515.09 220.31,-1224.17 51.9,-238.54 -15.16,-246.31 -26.04,-286.53 -54.02,-199.97 53.5,-132.62 -137.47,-287.47 -11.97,6.21 -27.18,5.08 -32.6,23.87 -5.27,18.14 -23.64,17.29 -30.42,24.54 -129,138.42 -118.02,318.65 -217.96,639.89 -64.62,207.89 -146.09,578.39 -274.9,667.45 -28.44,158.62 -10.12,-138.46 -166.11,113.78 -175.57,283.8 -159.84,362.08 -237.83,530.54l-41.02 72.43c-83.22,109.83 -92.03,44.18 -195.36,225.03l-239.24 8.1c-106.35,-141.48 -128.53,-36.88 -145.67,-235.76 -23.31,-270.29 37.11,-116.61 -33.96,-215.66 -31.27,-43.56 -17.05,19.74 -47.85,-49.35 177.74,-326.1 -35.88,-461.87 234.78,-1286.62l70.69 -121.55c5.37,-5.75 15.07,-12.72 20.72,-18.28 5.7,-5.6 15.4,-12.71 21.24,-18.27 383.5,-366.97 79.69,-306.88 356,-561.34 6.12,-5.65 16.62,-11.63 22.42,-17.66l120.66 -280.64c131.72,-467.05 271.93,-579.33 307.72,-769.18 453.54,-23.4 330.24,-190.31 510.33,29.77l157.87 270.99 256.63 9.56c232.23,-13.19 408.18,-69.28 554.93,-185.89 113.22,-90 98.62,-105.4 175.57,-221.16 81.15,-122.03 93.2,-105.31 188.24,-184.1l100.6 -193.19c9.04,10.74 18.13,14.18 21.52,36.08l55.34 146.28c39.47,180.19 -1.22,322.18 -5.89,404.18 -5.51,97.2 -14.88,141.47 51.06,220.41 -24.96,-231.57 51.66,-381.34 14.88,-618.19 -29.91,-192.57 -44.41,-78.08 -64.8,-243.34l83.87 -683.65c55.76,-240.23 -25.85,-114.3 54.3,-348.08l28.97 -184.29 285.59 6.5c-84.49,-89.11 -20.02,-31.79 -188.81,-91.55 -178.78,-63.35 -66.26,54.82 -140.39,-91.84l164.36 -34.85c81.29,-6.74 98.72,5.74 198.47,-14.93 37.25,-83.74 -34.9,-31.46 79.73,-109.5 -56.61,-21.62 -98.43,-63.44 -120,-120.05 -74.84,102.11 20.39,44.6 -119.25,72.62 -316.58,63.58 -659.25,-507.17 -1012.09,-817.11 -151.27,-132.95 -219.33,-164.74 -335.51,-466.39 -19.45,-50.44 -32.92,-92.17 -35.47,-149.39 -7.44,-166.06 40.69,-166.44 43.24,-156.5l572.17 488.24c184.19,168.89 121.41,8.29 461.68,330.57 89.76,85.01 104.79,129.18 194.27,212.12 136.15,126.26 262.37,292.89 437.47,127.21 -53.83,-304.1 -157.01,-224.37 -312.29,-412.52 -157.25,-190.5 -244.71,-338.15 -435.35,-477.55 -211.89,-154.9 -290.07,-320.96 -440.92,-524.09 -156.64,-210.94 -4.14,-12.24 -46.34,-187.01l254.32 146.84c-32.59,-240.14 -47.47,-448.73 -69.56,-702.15 -28.54,-327.08 -94.15,-411.06 -141.2,-661.09l-234.02 -324.3 -366.87 -295.2c-400.65,-353.78 -343.85,-1087.68 -853.95,-1069.83 -29.57,369.56 242.07,601.93 137,986.14 -304.24,-198.37 -83.54,-466.72 -754.43,-258.56 -7.11,483.44 378.04,814.25 567.93,1105.53 -190.26,-84.39 -747.88,-1053.11 -809.48,-1077.65 -497.81,6.32 -422.12,237.84 -901.94,216.5 24.3,-63.06 38.72,-105.11 69.05,-189.56z"/>
  <path class="fil2" d="M5430.41 21558.04c215.32,-20.07 34.19,-83.79 227.85,-189.47 205.86,64.57 172.51,191.49 350.68,291.38 90.42,50.63 129.32,39.14 216.17,100.46 125.18,88.44 55.95,81.47 183.48,182.45 165.12,130.69 283.24,150.8 425.89,245.37 188.76,125.04 136.72,225.87 277.68,380.2l140.68 -23.17c65.7,138.56 98.8,133.94 107.85,299.34 9.98,183.21 -13.8,244.48 16.86,440.96 117.97,49.41 46.53,-14.93 192.38,79.78 -15.59,125.89 -44.93,183.21 -125.13,267.75 -73.8,77.8 -149.81,159.98 -217.4,225.21 -31.97,30.85 -80.91,70.22 -106.76,91.98l-271.84 173.03c-64.85,40.31 -66.78,55.19 -139.78,88.73 159.84,50.39 451.08,-192.77 616.34,-295.25 619.69,-384.25 216.03,-222.86 523.71,-513.91 98.1,40.27 62.26,87.41 161.82,126.59 130.65,-86.13 195.26,-152.4 306.69,-258.03 110.16,-104.37 163.61,-193.71 373.52,-182.88 33.02,366.83 -282.15,456.03 -405.78,720.05 283.52,-20.2 336.69,-71.07 470.3,-255.31 405.73,-559.35 220.74,-624.82 19.69,-956.23 -103.85,-171.1 -215.04,-359.86 -245.84,-547.4 72.29,-53.88 39.84,-44.22 39.84,-199.36l118.64 60.1c204.49,116.98 139.12,141.1 239.86,218.99 -98.39,-81.24 -26.19,-22.93 -70.74,-86.98 -3.25,-4.62 -54.21,-84.92 -60.52,-97.21 -72.15,-140.34 -82.51,-449.44 -35.51,-545.18 60.85,-123.86 74.74,-13.99 183.15,51.1 56.71,-76.67 143.51,-70.79 231.39,-22.99 92.92,50.59 143.78,91.75 228.84,140.68 154.42,89.01 357.41,116.33 499.97,222.15 265.67,197.29 438.6,420.99 820.32,594.68 257.66,81.57 65.32,24.73 135.68,-17.19 -77.47,-447.36 -658.73,-647.05 -749.39,-1050.9 617.14,-15.3 695.42,325.06 1089.85,768.47 155.88,-73.61 145.38,-163.66 382.7,-104.55 136.53,33.95 245.79,105.21 295.38,246.4 171.76,-28.73 45.73,48.65 152.03,-73.75 108.93,-125.56 109.03,-642.44 96.88,-798.23 -17.29,-221.4 41.68,-85.43 60.52,-319.64 -93.3,-59.91 -151.14,-91.6 -276.79,-112.61 -5.93,6.45 -55.85,76.86 -72.43,97.96 -72.06,91.56 -234.12,132.3 -359.16,130.79 -111.47,-176.47 -473.97,-339.05 -750.61,-416.47 -21.43,-228.84 34.9,-135.73 -34.85,-375.5 -57.22,-196.77 -56.33,-328.63 38.57,-472.14 -151.84,5.09 -211.98,25.67 -188.48,-186.26 11.16,-100.03 62.26,-142.47 118.02,-216.64 -46.81,17.94 -161.82,93.2 -170.67,100.6 -217.21,180.61 -211.09,305.27 -218.34,615.16 -192.15,-62.78 -166.15,-93.72 -354.91,-309.09 -32.74,427.45 -75.17,73.85 -166.44,323.17 43.99,96.74 119.53,142.23 201.29,208.17 63.62,51.33 53.59,46.53 116.46,76.44l632.08 408.93c115.62,79.22 146.66,114.3 245.65,198.51 108.79,92.54 381.34,116.61 429.38,322.04 20.2,86.52 -28.4,117.79 -89.58,187.26l-46.81 46.06c-294.64,-182.69 -505.01,-666.79 -994.25,-640.65 -311.87,16.62 -431.21,7.2 -683.69,-113.46 -324.02,-154.89 -276.45,-155.69 -507.03,-302.68 35.51,-373.8 142.08,-292.09 239.24,-310.88 -13,-283.99 48.09,-239.25 -27.5,-431.97 -331.84,-845.98 -50.49,-272.63 -382.89,-690.85 -64.71,-81.47 -134.46,-185.08 -235.76,-236.09l6.68 170.72c56.24,182.26 185.23,121.42 220.46,416.52 -175.53,-3.91 -392.22,-14.03 -506.05,-98.05 115.95,214.57 111.86,422.4 10.84,599.86 -171.76,301.88 -207.46,366.26 -472.75,564.87 -222.72,166.67 -124.34,151.03 -207.74,293.12 -145.53,247.87 149.15,-192.15 -63.11,69.23 -93.11,114.68 -26.75,68.15 -64.95,188.39 -137.52,-182.5 -225.49,-174.96 -236.19,-445.15 -0.7,-17.76 -0.04,-89.25 -0.09,-90.05 -5.89,-145.53 26.09,8.52 -10.12,-96.97 -391.94,-72.39 -231.01,150.52 -412.57,438.65 -161.54,-51.85 -389.43,-184.14 -485.7,-298.31 -297.31,-352.51 -225.87,-30 -370.36,-488.15 9.42,-114.16 5.32,-39.13 -74.13,-142.88 -47.57,-62.12 -51.85,-61.04 -102.95,-142.8 -41.92,-67.11 -194.84,-274.05 -71.07,-258.13 -89.76,-198.61 -156.31,-135.83 -183.81,-399.66 -22.37,-214.57 12.05,-284.98 -56.71,-473.27 -144.68,-396.12 0.52,-437.85 243.91,-688.12 147.74,35.89 40.46,19.45 159.8,90.29 7.25,4.33 16.77,10.78 24.16,14.88 7.44,4.14 17.61,9.61 25.29,13.56 156.59,81.2 72.2,-29.06 194.84,119.39 78.41,-114.25 116.18,-251.4 199.54,-387.13 79.88,-130.08 170.58,-218.85 221.49,-344.18 -74.97,9.61 -252.34,186.13 -318.32,-43.47 -108.55,-377.8 78.98,-982.37 60.1,-1494.16 -9.38,-254.46 -83.46,-165.4 -159,-331.89 -116.14,69.52 12.25,51.67 -123.44,215.42 -46.91,-49.55 -44.74,-5.04 -199.59,0 -23.6,363.01 -28.92,-30.9 -79.73,239.25l-128.43 -141.72c-4.43,-15.11 -18.94,-13.09 -29.35,-17.8 27.7,305.37 108.18,960.43 -257.38,551.59 1.84,147.93 10.18,359.67 -188.29,287.19 -145.99,-53.36 -332.49,-628.21 -729.32,-850.79 46.9,194.89 32.82,126.69 182.87,286.91l345.4 452.03c11.45,20.63 61.79,131.91 63.58,139.36 8.15,33.9 5.75,39.18 4,81.85 -0.23,5.37 -6.82,32.12 -7.25,26.75 -0.47,-5.51 -4.71,18.56 -9.46,26.75 -58.26,34.8 87.26,44.51 -118.73,30.52 -173.36,-11.82 -1012.19,-1183.43 -1043.7,-1271.22 168.61,-272.4 156.97,-85.48 119.63,-278.33 167.52,10.59 304.61,92.54 276.45,-160.27 -140.82,-85.34 -192.53,-4.57 -346.3,-85.86 221.68,-86.23 230.35,28.87 348.18,-174.25 -662.31,139.26 -363.15,16.1 -629.15,508.49 -102.06,188.9 -91.32,309 24.82,476.52 433.61,625.53 348.04,308.48 341.91,777.32 149.96,93.86 234.83,157.02 245.33,395.28 -167.66,3.15 -75.5,13.84 -155.56,-43.99 -119.91,-86.61 32.92,-31.74 -143.27,-123.44 -256.43,78.46 -639.23,378.7 -733.52,570.57 -115.19,234.25 -70.83,874.52 175.25,1022.97 204.21,-60.42 69.65,-18.98 159.51,-166.49 143.41,302.55 -41.54,215.28 219.28,456.51 297.41,275.13 119.01,276.21 338.95,327.22 46.39,-114.21 49.55,-167.99 104.08,-272.4 -65.13,-174.64 -128.15,13.14 -112.27,-235.25 6.82,-106.58 78.55,-164.08 143.59,-227.05 116.56,-112.89 272.78,-245.93 422.83,-331.51 81.99,144.16 126.22,136.53 233.17,195.69 -706.44,1118.43 -433.85,909.89 -518.01,1081.32 -58.4,119.01 -321.14,176.42 -354.96,194.7l167.66 625.57c96.6,183.68 227.19,314.56 365.7,478.59 168.94,200.11 214.24,86.28 453.91,342.58 51.95,55.57 129.19,167.09 183.73,213.53 133.18,113.5 186.31,30.1 197.94,240.76z"/>
  <path class="fil1" d="M4251.31 7891.81l386.1 -135.3 33.29 160.78c14.09,127.3 -183.43,269.77 144.26,126.27 -99.37,335.98 -203.6,170.3 -263.03,633.82 123.95,-13.71 193.85,-15.41 229.31,-112.42 170.3,-111.1 222.06,-290.11 358.68,-239.82 150.1,122.08 9.23,233.22 -67.86,340.7l-634.81 1032.62c-205.57,-5.55 -258.04,-31.46 -334.05,112.19 -20.96,-75.92 -29.81,-146.33 -54.26,-211.84 -123.25,-330.29 -296.75,-129.28 -317.05,115.76 -88.26,-164.18 -149.48,-92.87 -208.4,-274.1 -231.94,-713.69 -180.99,-174.25 -107.47,-833.22 44.03,-394.76 -98.15,-121.56 -124.95,-344.13l-48.83 38.71c-131.87,215.32 17.47,149.53 -79.08,405.78 -58.92,156.45 -122.4,258.46 -145.2,422.5 115.48,77.99 216.36,96.12 294.17,231.48 199.82,347.85 32.63,424.43 505.1,485.18 48.09,6.17 117.36,32.82 158.81,47.85l119.34 39.7c9.51,3.2 21.9,7.16 30.47,10.08 8.62,2.92 23.27,8.33 30.24,10.74 121.17,41.96 292.04,446.47 506,687.65 271.08,305.65 312.67,390.66 283.8,894.77 -163,108.7 -187.68,67.16 -280.18,268.4 -137.05,-61.36 -71.82,-82.56 -146,-111.94 -172.88,-68.58 -173.36,13.61 -198.74,30.94l163 16.39 31.79 149.1 -142.14 63.58c261.72,38.9 264.02,61.89 365.42,-115.67 116.37,123.91 128.05,317.76 107.19,460.41 -32.82,224.7 108.65,743.65 185.98,964.95 68.57,196.44 45.22,295.06 161.82,412.28 32.45,21.62 106.77,55.39 143.6,77.71 72.1,43.61 53.6,28.87 115.29,86.94l234.59 247.77c21.85,28.68 32.92,49.41 49.35,74.98l552.67 432.86c226.11,137.38 493.38,404.74 479.3,710.44 -105.26,72.01 -162.39,90.19 -257.33,179.34 61.41,83.79 100.78,20.58 183.34,223.38 -105.59,97.82 22.14,58.68 -198.98,74.98 121.93,202.37 151.42,123.06 318.8,11.58 160.26,125.47 -19.69,77.33 161.49,123.02 143.5,36.21 45.77,-23.22 237.03,-4.67 7.16,-169.59 379.27,-678.51 502.28,-901.7 89.58,-162.48 163.19,-264.49 257.76,-458.71 106.81,-219.19 168.27,-201.1 347.94,-424.48 10.22,-297.97 186.17,-649.22 366.41,-812.5 -54.07,-43.28 16.58,-20.01 -82.28,-36.59 -60.66,-10.17 -77.66,2.4 -99.04,7.91 -70.83,279.09 -269.58,206.28 -523.71,756.6 -96.69,209.43 -115.62,196.72 -242.78,356.99 -237.41,299.1 -196.62,487.77 -489.47,233.92 -111.38,-96.5 -40.08,-63.11 -206.14,-110.3 -363.53,-103.23 -396.73,-437.33 -676.29,-601.22 -294.64,-172.71 -127.26,235.19 -537.37,-301.47l-54.77 -64.52c-66.69,-88.35 -82.42,-159.84 -172.8,-227.89 -39.13,-29.49 -9.32,-2.92 -49.5,-30.19 -195.91,-132.72 -255.68,-403.47 -285.44,-669.1 -17.62,-157.44 9.56,-446.18 128.8,-558.46 117.32,16.11 233.03,3.77 338.62,17.8 196.86,26.23 86,62.26 259.97,88.07 -26.51,-52.27 -34.75,-82.37 -138.36,-133.7 -79.22,-39.23 -162.16,-56.71 -255.88,-68.25 13.38,-227.14 40.22,-183.29 -94.42,-303.95 -53.36,-36.41 -69.57,-44.79 -109.31,-74.56 32.96,-168.88 107.47,-163.56 95.13,-341.4 -14.32,-207.17 -100.97,-204.96 -148.97,-332.16 31.32,-260.49 230.02,-285.22 403.1,-397.68 218.76,-142.09 -28.73,-58.54 486.31,-339.8 281.59,-153.77 924.12,-453.63 1320.86,-260.53 242.16,57.59 1098.93,618.6 1301.54,640.78 291.05,31.84 83.31,5.7 212.07,-60.89 230.16,343.47 365.42,84.39 1256.15,259.54 -333.86,426.69 -742.37,-84.39 -904.29,392.69 194.6,49.4 334.52,-39.37 563.69,-53.03 207.13,360.85 211.13,-51.71 340.6,509.49 325.34,52.27 53.26,-71.31 319.22,-52.8 -4.24,128.57 -158.91,785.47 303.58,687.46l104.41 -37.49c28.54,-4.66 377.85,49.08 400.5,57.18 262.14,26.46 183.35,-35.37 325.86,-63.68 89.11,-17.66 318.75,-5.46 420.33,-5.46 -10.78,-13.33 -29.24,-44.55 -38.19,-34.33l-176.42 -117.84c-144.54,-88.77 -92.97,-42.62 -135.97,-126.78 216.55,-183.34 591.05,222.86 1433.18,-61.22l204.77 -121.14c-0.66,0.05 -115.57,3.73 -119.86,3.21 -97.77,-11.35 -47.47,-5.18 -121.98,-32.45 -56.79,-20.77 -162.24,-68.43 -220.5,-90.33 -113.41,-42.62 -357.27,-103.75 -505.91,-97.87 -81.57,3.2 -360.14,97.96 -471.33,128.81 -206.94,57.41 -231.24,153.77 -362.69,268.21l155.98 112.7c-230.58,70.03 -257.56,347.62 -848.05,-59.29 -43.05,-29.67 -79.41,-59.72 -111.43,-87.18 -34.81,-29.76 -33.82,-28.4 -64.15,-57.55 -38.38,-36.83 -33.58,-32.63 -63.2,-65.37l46.67 -421.84c-260.91,92.03 -520.22,-95.27 -519.33,-335.79 129.94,-108.6 160.18,-113.17 293.74,-188.57 126.74,-71.54 211.09,-358.21 544.53,-571.65l374.74 -205.39 -165.4 16.25c339.23,-137.38 61.27,-141.43 260.53,-379.83 78.09,-93.39 274.15,-193.99 386.75,-265.81 -65.65,-47.1 20.21,-24.07 -90.18,-30.33 -265.63,-14.98 -893.18,610.41 -1108.69,800.49 -168.32,148.45 -135.4,217.3 -430.69,241.93 -221.87,18.46 -45.88,-28.82 -262.61,-56.56 -326.42,-41.82 -41.4,104.88 -577.16,-102.67l-206.19 -37.16c-7.35,1.04 -18.93,5.75 -25.9,7.11 -109.31,21.15 6.03,89.67 -206.14,-42.66l-595.2 -381.39c49.36,-55.71 98.67,-35.46 145.24,-119.62 -87.83,-241.37 -505.48,-300.47 -811.13,-316.53 -7.25,-103.1 9.75,-161.36 6.17,-175.2 -155.32,99.51 -304.95,37.49 -471.24,-72.34 -477.46,-315.21 -232.14,-80.21 -397.35,-284.93 -138.32,-171.43 -355.2,-183.96 -431.03,-384.35 -2.11,-5.51 -3.72,-17.71 -5.6,-23.22 -83.59,-247.3 -79.07,-28.31 -132.72,-263.64 180.33,-127.63 8.91,-111.01 359.02,-119.02 154.33,-3.53 307.91,-8.47 462.24,-14.22 -161.11,-23.5 7.4,-62.35 -223.94,-125.6 -564.35,-154.24 -646.25,37.39 -945.03,-183.63 -173.26,-128.1 -243.43,-226.25 -408.27,-351.05 -166.01,-125.75 -257.76,-200.68 -431.59,-315.5 -211.51,142.28 -186.5,267.32 -154.99,592.66 54.06,558.22 115.34,546.17 -90.47,612.86l-36.5 -292.52c-64.67,-510.38 -559.79,-221.44 -652.71,-80.3z"/>
  <path class="fil3" d="M13977.3 18319.48c-53.08,144.58 -211.75,228.04 -264.54,330.61l-105.31 104.04c-181.74,176.66 -62.21,155.09 -187.82,322.98 -137.47,183.68 -250.69,152.08 -461.96,103.71 49.59,375.31 92.17,241.98 249.94,356.56 -108.18,419.25 29.81,389.77 -497.85,714.73 -148.4,91.37 -189.52,58.54 -329.02,103.75 -145.01,-236.42 -111.71,-152.78 -316.15,-288.08 -199.88,-132.3 -190.27,-222.01 -406.25,-117.46 -22.61,-104.51 -117.7,-152.92 -199.36,-194.93l160.46 -246.64c5.55,-24.96 296.65,-417.74 -19.83,-681.1 -153.77,170.48 -145.62,596.47 -349.83,718.49l-210.57 117.37 281.07 -86.05c-3.15,207.22 -18.93,149.39 -69.23,282.34 -2.12,5.56 -8.15,14.74 -9.61,19.92 -19.02,66.36 19.17,119.34 21.71,152.03l60.52 -40.41c8.01,-5.23 19.12,-13.23 27.51,-18.56 7.58,-4.85 17.89,-12.05 25.1,-16.43 44.08,-26.85 2.73,-31.09 86.23,-41.07 47.66,87.88 -0.42,25.9 77.15,85.06 142.84,108.98 237.74,28.87 367.67,107.85l351.86 226.67c6.07,286.01 -52.84,329.53 -77.33,540.8 -32.17,-116.98 3.01,-71.87 -114.87,-110.11 -303.35,293.83 -734.7,195.78 -1034.18,-21.62 -277.02,-201.05 -109.55,-229.26 -210.76,-475.99 -101.44,-247.26 51.62,-352.61 119.53,-556.91 -74.64,154.19 -57.08,112.88 -208.49,177.26 -94.9,143.51 -95.79,275.37 -38.57,472.14 69.75,239.77 13.42,146.66 34.85,375.5 276.64,77.42 639.14,240 750.61,416.47 125.04,1.51 287.1,-39.23 359.16,-130.79 16.58,-21.1 66.5,-91.51 72.43,-97.96 125.65,21.01 183.49,52.7 276.79,112.61 -18.84,234.21 -77.81,98.24 -60.52,319.64 12.15,155.79 12.05,672.67 -96.88,798.23 -106.3,122.4 19.73,45.02 -152.03,73.75 157.78,280.98 503.65,942.49 248.53,1296.93 146.33,77.29 -15.21,70.79 308.71,149.53 74.93,18.23 210.76,220.08 239.82,355.11 64.38,152.26 105.87,95.98 222.81,189.18 152.73,121.74 48.37,118.96 160.17,263.41l280.18 83.12c177.41,129.05 123.06,293.69 107.85,416 -18.65,150.71 8.99,190.17 -53.41,324.12 -55.57,119.38 -91.04,64.66 -127.11,249.42 -17.66,90.37 -15.83,219.7 -3.49,311.63 154.62,13.71 95.75,13.75 202.33,-35.79 283.37,-131.78 198.79,-137.95 483.06,-432.25 214.95,-222.62 137.33,-339.75 690.19,-578.67 175.25,-81.9 356.47,-442.89 542.12,-497.52 21.76,-117.65 75.69,-288.93 19.41,-412.56 -92.73,-203.64 -127.4,13.47 -199.97,-299.86 161.4,-141.85 -30.19,-213.91 253.04,-119.3 200.26,-3.53 284.46,-78.55 377.71,-204.82 -36.12,-198.55 -142.13,-296.04 -211.03,-432.71 -115.29,-228.8 -191.87,-298.5 -447.89,-190.98l-579.94 864.17c-143.59,220.92 -21,222.34 -282.15,238.63 -11.54,-164.32 30.57,-297.5 82.04,-410.44 -1.27,-144.07 30.38,-57.5 -18.93,-148.4 31.51,-104.46 102.53,-172.14 154.15,-266.47 47.94,-87.6 82.27,-177.32 134.5,-266.66 108.56,-185.7 236.52,-464.22 88.68,-684.54 -344.55,-23.97 -150.94,104.18 -347.52,241.65 -39.61,546.98 -387.93,1152.91 -737.38,1262.6 16.91,-536.94 459.04,-640.04 420.24,-1299.14 -118.17,42.62 -302.59,205.81 -372.06,307.82 -202.32,-63.25 -378.75,-207.84 -500.63,-371.87 50.44,-201.1 753.39,-658.78 844.38,-1162.14 -463.33,-12.49 -428.76,10.12 -757.39,186.97 39.84,278.33 13.18,30.23 83.07,207.64 -490.5,601.32 -175.19,490.08 -293.17,660.48l-621.53 -523.19c-115.33,-131.16 -28.54,-195.17 21.53,-275.33l101.21 115.81c5.6,5.33 18.08,15.64 22.79,19.97 4.8,4.38 15.54,13.47 23.13,20.44 283.75,-172.7 292.6,-262.89 398.71,-438.6 85.81,139.78 -49.97,119.29 154.05,118.87 88.92,-0.14 39.09,4.52 93.2,-27.46 137.71,-81.38 35.89,-12.62 98.2,-104.55 -137.38,-8.81 -124.52,26.42 -168.93,-89.58 -136.35,-356.14 723.77,-255.17 757.02,-740.49 64.89,-947.71 292.27,-360.85 666.88,-1070.59 54.53,-103.37 66.54,-198.41 96.92,-325.71 65.13,-273.35 47.61,-145.1 160.55,-296.47 186.41,-249.85 52.18,-487.07 183.53,-812.08l26.66 -56.32c172.56,-438.8 -511.65,-678.05 -801.72,-678.61 16.58,361.6 289.64,259.5 450.34,609.7 56.98,124.24 92.16,232.71 17.09,325.44 -5.56,6.87 -14.74,16.48 -20.49,24.11l-59.9 100.36c-33.16,86.47 4.57,76.82 -49.83,190.41 -112.51,47.19 -120.52,19.69 -229.87,90.9 -134.56,87.5 -27.6,75.4 -232.09,120.28z"/>
  <path class="fil4" d="M9419.3 11158.58c-252.15,259.78 -17.71,513.58 -271.7,780.81 -5.7,5.93 -14.46,13.94 -20.2,19.87l-198.23 203.27c-94.9,100.4 -117.69,161.25 -268.45,186.12l-36.64 54.44c-10.17,6.22 -24.68,10.18 -33.34,12.95 -208.97,67.21 -188.01,12.06 -341.59,141.9 -105.82,89.49 -165.12,118.73 -281.63,197.01 -731.5,491.54 -1224.83,-233.32 -1299.38,-284.18 -114.68,-78.32 -488.39,-153.53 -672.77,-292.28 -173.97,-25.81 -63.11,-61.84 -259.97,-88.07 -105.59,-14.03 -221.3,-1.69 -338.62,-17.8 -51.57,617 364.1,836.85 475.01,952.28 52.8,54.91 155.89,312.91 506.61,367.16 -37.86,140.63 39.52,39.8 -15.3,127.4l-103.38 116.46c142.09,134.75 123.87,32.17 344.84,60.15 125.6,15.91 45.31,29.85 176.61,47.56 119.58,16.11 68.9,-18.51 232.84,-11.44 65.61,30.38 64.19,277.96 473.36,190.36 196.72,-42.1 -9.13,-0.24 121.32,-43.37 96.97,-32.08 136.35,-23.51 224.09,-54.17 237.45,-82.93 397.63,-427.06 673.47,-536.75 21.38,-5.51 38.38,-18.08 99.04,-7.91 98.86,16.58 28.21,-6.69 82.28,36.59 -180.24,163.28 -356.19,514.53 -366.41,812.5l74.6 -14.83c135.5,-179.48 575.47,-448.5 771.67,-524.09l84.3 -126.78c-287.28,-387.6 -125.7,-145.24 -393.16,-306.31 112.52,-94.52 409.5,-431.87 523.71,-458.72l17.05 308.77c356.61,2.82 613.38,-97.92 804.31,32.4 4.89,3.29 14.78,12.01 18.83,15.16 75.26,58.26 7.26,-24.72 45.4,47.43 -113.03,60.47 -133.7,60.61 -238.91,-12.06 -9.47,-6.55 -50.73,-29.57 -56.38,-47.38 -5.55,-17.42 -18.6,-18.36 -29.29,-25.85 -60.19,65.46 9.42,-5.84 -84.68,66.31l-105.16 81.85c181.6,51.24 293.03,64 326.14,285.5l48.17 -89.01c40.93,-53.79 -32.26,-67.59 246.03,-75.26 17.43,-279.24 45.88,-71.07 188.29,-494.42 3.21,-9.42 7.3,-19.54 10.46,-28.96l67.06 -211.79c3.44,-8.43 8.34,-18.98 12.06,-26.94 3.58,-7.68 9.47,-18.23 13.14,-25.29 3.58,-6.88 10.78,-17.99 14.13,-23.97 18.04,-32.12 43.28,-68.43 43.42,-68.62 176.56,108.88 42.39,36.17 156.27,156.45 95.98,101.3 86.79,60 186.64,134.84l169.35 149.67c61.13,47.8 100.22,65.27 172.52,109.07 126.92,76.91 47.75,-2.26 198.08,192.81l34.34 45.12c81.61,112.04 202.65,298.54 370.12,314.41 462.11,-43.09 483.3,220.79 865.91,319.74 52.7,-101.68 -184.38,-232.75 678.51,-241.42 289.03,-2.92 191.4,-9.04 353.65,-79.35 8.66,-3.77 19.02,-8.39 28.07,-11.92 157.15,-61.6 117.31,34.38 191.96,-86.23 125.93,-203.55 -151.23,-128.1 -18.32,-359.25 114.87,-199.87 70.45,-252.15 268.02,-426.12 107,-94.24 205.29,-87.6 289.22,-230.02 75.68,-128.53 29.81,-78.27 -6.5,-462.95l-100.36 -60.29c-4.1,-218.71 29.15,-363.58 -209.53,-285.3 -449.44,147.41 -454.15,389.53 -573.3,516.26 -91.32,97.16 -198.89,136.67 -283.47,209.77 -47.66,72.34 19.07,29.95 -113.32,123.95 -151.88,107.81 -819.23,196.91 -942.95,187.49 -467.05,-35.7 -580.98,-172.37 -745.53,-260.96 -63.49,-34.19 -190.88,-70.78 -240.43,-92.96 -22.65,-8.1 -371.96,-61.84 -400.5,-57.18l-104.41 37.49c-462.49,98.01 -307.82,-558.89 -303.58,-687.46 -265.96,-18.51 6.12,105.07 -319.22,52.8 -129.47,-561.2 -133.47,-148.64 -340.6,-509.49 -229.17,13.66 -369.09,102.43 -563.69,53.03z"/>
  <path class="fil4" d="M7213.18 15914.33c-58.44,310.37 -72.06,262 -159.47,273.58 15.64,85.63 -11.44,92.17 53.69,160.46l38.81 21.95c5.37,2.12 17.57,3.67 23.45,4.94 178.97,38.48 212.22,-57.64 295.67,-75.4 5.04,-1.03 17.81,-1.13 22.23,-1.55 4.52,-0.38 18.7,3.15 22.28,3.2 154.24,1.93 -34.85,358.12 178.59,758.67 50.15,94.05 75.68,74.84 123.06,164.27 176.47,-24.82 100.27,16.11 153.72,-136.81 -177.27,-246.36 -176.85,-442.23 -41.35,-721.14l39.09 -73.8c7.35,-13.04 36.17,-61.74 42.62,-70.92 30.61,-43.76 282.86,-354.87 254.7,-477.65 -3.35,162.15 -80.07,197.99 -89.67,443.55 339.98,-7.72 236.75,-27.65 372.2,-274.05 60,-109.22 131.49,-229.55 189.75,-324.07 -11.78,58.87 -117.32,126.36 -136.06,288.23l16.43 189.04c167.33,49.83 89.3,7.72 275.18,11.35 18.09,35.18 28.03,69.28 41.68,94.33l55.53 90.29c5.56,8.71 13.85,22.65 22.42,32.73l518.38 -364.43 253.71 81.57c6.92,-6.12 39.7,-34.85 48.51,-43 93.34,-86.56 153.58,-179.29 256.01,-229.26 70.41,28.63 75.26,78.18 184.43,77.28 69.84,-0.56 122.64,-45.02 265.53,11.68 178.96,71.07 230.77,459.8 388.87,196.35 81.33,255.26 209.1,217.72 272.5,235.52 9.74,-105.82 39.32,-259.83 82.93,-323.73 89.11,-130.55 195.07,-121.94 281.12,-117.98 139.4,197.19 215.37,569.77 255.4,825.83 63.86,28.49 95.75,40.64 143.12,60.71 36.22,-80.12 67.21,-131.17 104.42,-232.47 66.92,-182.22 31.08,-359.86 201.66,-426.31 4.48,-1.75 15.87,-5.28 20.44,-6.69 4.66,-1.46 16.3,-4.33 21.05,-5.46l109.22 -9.14c73.42,1.46 103.8,116 126.36,170.2 1.97,4.76 5.74,15.83 7.77,20.49l87.17 170.39 212.5 -185.08c81.95,-90.38 129.8,-86.14 89.58,-333.11 -261.15,-448.22 -542.88,-1044.26 -979.93,-1312.14 -84.91,71.63 -33.44,74.31 -133,115.52 -64.66,26.8 -25.9,-19.26 -187.77,40.08 -149.63,-31.32 -324.45,-53.97 -476.52,-47.66 -57.22,185.32 -571.56,421.13 -669.23,494.79 -602.83,454.38 -204.54,-214.71 -896.05,-314.7 -279.37,-40.36 -218.01,-25.66 -420.57,-138.98 -237.6,-132.9 -196.53,-36.59 -407.05,-19.45l-364.43 -13c-137.66,-244.14 -76.43,-332.12 -8.1,-558.74l-74.6 14.83c-179.67,223.38 -241.13,205.29 -347.94,424.48 -94.57,194.22 -168.18,296.23 -257.76,458.71 -123.01,223.19 -495.12,732.11 -502.28,901.7z"/>
  <path class="fil1" d="M8603.64 18643.78l-18.36 177.08c-42.63,9.99 -100.7,13.38 -103.05,14.18 -10.22,3.34 -21.66,6.92 -32.59,11.07l-111.01 53.26c10.51,166.82 90.76,390.29 31.32,525.88 113.83,84.02 330.52,94.14 506.05,98.05 -35.23,-295.1 -164.22,-234.26 -220.46,-416.52l-6.68 -170.72c101.3,51.01 171.05,154.62 235.76,236.09 332.4,418.22 51.05,-155.13 382.89,690.85 75.59,192.72 14.5,147.98 27.5,431.97 -97.16,18.79 -203.73,-62.92 -239.24,310.88 230.58,146.99 183.01,147.79 507.03,302.68 252.48,120.66 371.82,130.08 683.69,113.46 489.24,-26.14 699.61,457.96 994.25,640.65l46.81 -46.06c61.18,-69.47 109.78,-100.74 89.58,-187.26 -48.04,-205.43 -320.59,-229.5 -429.38,-322.04 -98.99,-84.21 -130.03,-119.29 -245.65,-198.51l-632.08 -408.93c-62.87,-29.91 -52.84,-25.11 -116.46,-76.44 -81.76,-65.94 -157.3,-111.43 -201.29,-208.17 91.27,-249.32 133.7,104.28 166.44,-323.17 188.76,215.37 162.76,246.31 354.91,309.09 7.25,-309.89 1.13,-434.55 218.34,-615.16 8.85,-7.4 123.86,-82.66 170.67,-100.6 -55.76,74.17 -106.86,116.61 -118.02,216.64 -23.5,211.93 36.64,191.35 188.48,186.26 151.41,-64.38 133.85,-23.07 208.49,-177.26l97.63 -47.52 210.57 -117.37c204.21,-122.02 196.06,-548.01 349.83,-718.49 316.48,263.36 25.38,656.14 19.83,681.1l-64.38 131.16c234.44,17.8 373.8,89.77 549.46,200.49 78.18,49.31 -42.33,-6.03 93.21,55.62l92.31 -65.47c7.2,-6.21 17,-14.97 24.44,-21.8l112.42 -118.87c220.88,-232.84 256.2,-566.14 -23.74,-798.51 -260.25,-215.99 -405.87,-347.71 -712.61,-445.11 -59.81,-18.98 -229.55,-75.96 -279.42,-105.12l-6.26 -197.38c-275.42,-81.8 -861.86,52.05 -1258.69,2.92 -228.89,-28.35 -425.18,-43.56 -628.69,22.05 -318.32,102.57 -243.01,-20.49 -459.13,-59.39 -50.54,75.59 -67.73,80.72 -118.31,170.01 -197.14,348.37 -57.69,103.43 -336.41,364.43z"/>
  <path class="fil5" d="M11855.15 9938.89l-363.06 99.7 -374.74 205.39c-333.44,213.44 -417.79,500.11 -544.53,571.65 -133.56,75.4 -163.8,79.97 -293.74,188.57 -0.89,240.52 258.42,427.82 519.33,335.79l-46.67 421.84c29.62,32.74 24.82,28.54 63.2,65.37 30.33,29.15 29.34,27.79 64.15,57.55 32.02,27.46 68.38,57.51 111.43,87.18 590.49,406.91 617.47,129.32 848.05,59.29l-155.98 -112.7c131.45,-114.44 155.75,-210.8 362.69,-268.21 111.19,-30.85 389.76,-125.61 471.33,-128.81 148.64,-5.88 392.5,55.25 505.91,97.87 58.26,21.9 163.71,69.56 220.5,90.33 74.51,27.27 24.21,21.1 121.98,32.45 4.29,0.52 119.2,-3.16 119.86,-3.21l0.71 17.34c157.06,-197.38 211.08,-172.23 427.49,-168.75 586.72,9.42 533.08,-570.8 138.51,-801.57 -132.06,-77.24 -198.04,23.83 -436.39,-31.75 -162.39,-37.86 -243.11,-83.64 -402.25,-111.42 -611.45,-106.72 -705.83,47.89 -954.59,61.08 29.48,-309.89 254.6,-509.39 398.57,-636.03 276.08,-242.83 338.01,-239.44 777.84,-215.33 -276.64,-431.54 -1088.48,26 -1579.6,86.38z"/>
  <path class="fil3" d="M1754.99 10629.03c108.51,21.34 11.35,-10.08 78.42,54.4 172.98,166.15 137.56,198.65 196.29,361.23 217.26,9.32 181.32,-10.04 349.5,-51.67l612.01 46.53c115.2,63.91 74.84,114.87 182.64,213.3 256.68,234.35 273.02,271.27 487.92,316.06 304.47,63.39 153.25,181.41 659.2,156.08 25.38,-17.33 25.86,-99.52 198.74,-30.94 74.18,29.38 8.95,50.58 146,111.94 92.5,-201.24 117.18,-159.7 280.18,-268.4 28.87,-504.11 -12.72,-589.12 -283.8,-894.77 -213.96,-241.18 -384.83,-645.69 -506,-687.65 -6.97,-2.41 -21.62,-7.82 -30.24,-10.74 -8.57,-2.92 -20.96,-6.88 -30.47,-10.08l-119.34 -39.7c-41.45,-15.03 -110.72,-41.68 -158.81,-47.85 -472.47,-60.75 -305.28,-137.33 -505.1,-485.18 -77.81,-135.36 -178.69,-153.49 -294.17,-231.48 22.8,-164.04 86.28,-266.05 145.2,-422.5 96.55,-256.25 -52.79,-190.46 79.08,-405.78 -284.04,23.22 -319.88,268.83 -453.87,470.35 -146.04,219.66 -258.84,251.35 -366.78,593.03 -359.63,1138.92 -448.4,544.86 -572.92,1079.16 -43.52,186.74 52.98,27.41 -93.68,184.66z"/>
  <path class="fil0" d="M5809.06 19616.93c117.41,44.13 200.16,171.1 342.77,263.03 143.12,92.26 293.12,183.96 457.96,201.8l221.87 31.37c-86.71,-236 -230.35,-302.87 -277.21,-626 29.81,-270.14 -111.1,-390.05 -3.91,-649.83l71.54 -22.61c2.78,-0.14 11.82,-72.9 178.68,55.06 58.12,44.55 117.98,108.7 178.92,147.46 114.4,-65.65 49.69,13.42 7.96,-92.45 -72.01,-182.64 -296.66,-747.98 -228.18,-912.63 85.43,-205.38 -12.86,-69.8 134.93,-123.72 90.56,139.03 -5.42,166.25 124.94,367.68 130.32,201.43 226.49,507.22 338.53,658.16 122.31,164.7 167.33,128.39 198.18,367.64 -201.15,-5.89 -164.51,2.26 -302.78,-100.74l-0.19 83.55c9.42,72.05 -19.45,32.73 64.05,97.11 204.82,56.89 94.1,59.39 220.65,110.16 157.67,23.31 129.32,52.27 252.67,-26.75 -8.57,-102.67 -24.49,-110.26 -70.98,-180.19 -153.95,-231.67 -201.47,-250.74 -286.58,-515.05 -38.71,-120.28 -124.42,-300.61 -83.45,-455.08 107.24,-404.42 62.31,177.36 180.47,-285.17 156.36,31.04 118.07,72.1 223.14,-42.67 46.11,-50.39 107.24,-136.67 143.17,-184.19 -25.24,-114.82 -33.62,-86.09 -52.18,-161.54 -2.4,-9.7 -12.57,-79.45 -12.53,-80.72l155.04 -258.7c4.06,-14.37 19.36,-10.65 27.6,-17.29l-48.93 -176.98c-53.45,152.92 22.75,111.99 -153.72,136.81 -47.38,-89.43 -72.91,-70.22 -123.06,-164.27 -213.44,-400.55 -24.35,-756.74 -178.59,-758.67 -3.58,-0.05 -17.76,-3.58 -22.28,-3.2 -4.42,0.42 -17.19,0.52 -22.23,1.55 -83.45,17.76 -116.7,113.88 -295.67,75.4 -5.88,-1.27 -18.08,-2.82 -23.45,-4.94l-38.81 -21.95c-65.13,-68.29 -38.05,-74.83 -53.69,-160.46 87.41,-11.58 101.03,36.79 159.47,-273.58 -191.26,-18.55 -93.53,40.88 -237.03,4.67 -181.18,-45.69 -1.23,2.45 -161.49,-123.02 -167.38,111.48 -196.87,190.79 -318.8,-11.58 -93.2,-68.86 -135.96,-105.59 -275.51,-91.23 75.54,166.49 149.62,77.43 159,331.89 18.88,511.79 -168.65,1116.36 -60.1,1494.16 65.98,229.6 243.35,53.08 318.32,43.47 -50.91,125.33 -141.61,214.1 -221.49,344.18 -83.36,135.73 -121.13,272.88 -199.54,387.13 -122.64,-148.45 -38.25,-38.19 -194.84,-119.39 -7.68,-3.95 -17.85,-9.42 -25.29,-13.56 -7.39,-4.1 -16.91,-10.55 -24.16,-14.88 -119.34,-70.84 -12.06,-54.4 -159.8,-90.29 -243.39,250.27 -388.59,292 -243.91,688.12 68.76,188.29 34.34,258.7 56.71,473.27 27.5,263.83 94.05,201.05 183.81,399.66z"/>
  <path class="fil6" d="M6115.33 23245.91c-101.4,-119.62 11.91,-39.23 -137.85,-147.74l168.18 690.47c115.33,317.95 272.96,180.29 242.45,576.18 -137.99,104.27 -367.54,115.99 -291.2,343.7 123.21,67.35 92.03,56.05 258.23,31.98 190.5,-27.55 270.66,-72.29 370.17,44.04 102.34,119.57 98.58,183.58 154.34,359.57 49.21,155.23 113.69,357.09 174.25,515.42 178.31,-1.55 77.05,19.64 173.6,-48.79 6.4,-4.52 14.55,-13.23 20.53,-18.23l39.47 -39.98c209.34,-197.57 214.33,-108.79 373.75,-242.59 11.49,36.12 20.87,93.91 99.85,135.07l181.93 33.67 43.56 198.75 -237.03 185.13c-198.84,122.88 -43.1,-51.8 -103.71,97.87l-24.82 73.8c-0.7,1.6 -32.59,60.56 -38.19,73.18 261.1,69.38 503.08,214.24 666.59,305.28 8.01,4.48 22.52,13.56 29.3,17.47 7.11,4.05 20.06,12.72 30.33,18.75 -139.78,-485.8 -81.43,-9.33 253.33,-773.6 46.01,-105.03 114.58,-589.31 410.44,-766.06l17.38 -69.57c-9.99,-276.78 -238.59,-637.2 376.39,-637.2l119.62 -159.47c124.76,2.54 90.99,-3.25 195.03,24.06l374.13 151.89c399.61,190.74 261.24,208.68 467.38,222.76l119.62 -618.23c-139.4,-121.88 -7.91,-191.72 -209.29,-367.77l-701.26 -382.18c-120.14,-52.8 -244.43,-110.87 -300.19,-184.24 -191.4,18.41 -88.5,-50.58 -180.99,130.45l-74.04 202.14c-39.37,151.08 -16.1,359.44 -112.23,433.33 -132.38,101.77 -127.16,-49.54 -354.06,211.98 -158.67,182.92 -185.75,116 -335.66,220.93 -76.43,53.5 -177.45,218.8 -268.59,290.39 -221.21,173.88 -502.84,22.14 -1022.83,104.22 -141.28,22.28 -282.95,43.24 -425.08,14.56 -150.85,-30.38 -196.58,-105.36 -157.45,-278.01 19.88,-87.69 69.05,-166.63 110.91,-217.82 -152.02,-81.52 -138.83,57.41 -358.87,-357.03l150.95 -28.26c-104.79,-69.28 -265.3,-198.98 -288.37,-370.27z"/>
  <path class="fil3" d="M10671.16 24860.45l20.67 352.14c-84.91,57.18 -133.28,47.29 -231.19,122.07 -102.72,78.42 -37.02,66.6 -176.89,148.92 -223.57,-58.49 -55.01,-118.07 -284.7,-124.71 -388.92,0 -18.6,51.48 -552.67,-27.6l-97.82 219.42c-20.11,79.41 -32.54,164.56 -54.44,249.99 -56.23,219.56 -129.28,265.71 -367.73,236.23 -25.15,-311.54 157.68,-622.7 333.3,-780 -61.46,-132.91 -183.77,-278.1 -286.86,-347.66 -295.86,176.75 -364.43,661.03 -410.44,766.06 -334.76,764.27 -393.11,287.8 -253.33,773.6l260.25 221.91c328.21,6.6 726.22,-202.08 1037.76,-299.15 230.54,-71.77 262.66,-110.25 472.94,-212.03 307.82,-149.01 202.09,-106.72 283.47,-382.32l421.56 -1.37c14.93,233.32 18.36,372.81 545.79,350.49 62.59,-122.5 91.13,-204.72 126.36,-354.58 99.84,131.91 172.51,41.3 341.78,4.85 49.63,133.66 141.99,454.57 246.31,534.49 115.15,88.21 209.2,73.66 322.93,20.49l51.95 -32.12c7.82,-4.38 17.29,-11.12 24.87,-15.36l96.83 -48.74c136.29,-73.52 6.36,51.19 54.77,-34.15l120.66 -404.88c126.17,-262.18 36.74,-22.89 222.15,-126.31l-232.89 -370.18c-143.26,34.2 -267.93,190.79 -504.16,270.52 -269.2,90.9 -351.43,213.96 -600.99,18.14 -82.89,-253.9 -25.95,-342.16 112.56,-474.4 202.46,-193.33 1.98,-179.91 142.56,-455.23 8.95,-0.24 21.9,5.23 25.95,6.87l76.2 66.5c192.95,-604.99 283.66,-386.51 -100.79,-867.88 -40.03,454.9 -19.82,127.06 -145.19,371.54 -297.79,-33.39 -34.71,-12.72 -234.97,-61.46 -218.19,-53.17 -191.44,124.33 -245.13,300.71 -250.83,65.32 -319.26,-44.89 -529.5,-17.43 -73.33,146.99 -58.4,213.25 -31.93,402.62z"/>
  <path class="fil5" d="M8117 18344.44l69.42 0c9.18,-226.01 -44.51,-438.84 91.6,-576.45 246.03,-248.81 166.77,4.47 168.09,-428.81 477.88,-232.42 30.56,-552.67 2198.44,-492.96 153.48,4.24 498.18,40.41 617.76,60.47 201.24,33.82 130.88,26.38 270.28,97.78 471.67,241.55 57.93,-94.24 536,468.6 168.42,198.37 110.39,246.31 84.16,469.31 -120.47,78.04 -55.48,-5.51 -190.83,86.23 -113.97,77.24 -188.34,197.53 -508.92,-107.99 -104.55,-99.6 -50.49,-43.94 0.61,-185.22 -123.2,-60.81 -330.9,-215.52 -451.98,-242.5 -220.13,-49.03 -1200.29,58.87 -1519.08,70.27 -321.67,11.53 -243.3,16.9 -264.68,71.3 -75.97,56.28 -35.04,7.58 -81.38,175.81 -98.29,357.17 -582.2,520.46 -532.85,833.5 278.72,-261 139.27,-16.06 336.41,-364.43 50.58,-89.29 67.77,-94.42 118.31,-170.01 216.12,38.9 140.81,161.96 459.13,59.39 203.51,-65.61 399.8,-50.4 628.69,-22.05 396.83,49.13 983.27,-84.72 1258.69,-2.92 240,25.53 111.28,28.31 386.75,157.21 534.16,249.94 821.26,784.01 1126.49,718.03 4.19,-205.29 -36.31,-23.32 -171.01,-199.6 37.73,-96.17 40.79,-87.69 48.75,-199.17 -123.35,-105.35 -83.22,-91.03 -253.52,-104.12 -54.35,-362.22 -47.47,-141.34 -123.49,-346.16 -49.35,-133 -50.39,-399.89 -165.4,-546.55 232,-196.44 335.7,-207.5 361.93,-618.28l-255.82 59.49c-453.16,125.46 -302.45,-178.69 -423.49,-288.98 -66.4,-60.43 -152.02,-39.56 -261.62,-167.1l-8.19 19.87c-10.46,-5.55 -21.99,-15.4 -29.15,-20.34l-109.64 -74.32c-75.17,-39.28 -24.59,-26.14 -126.31,-42.86 -136.21,-22.37 -230.77,7.21 -360.01,-1.03 -146.13,-9.33 -155.41,-41.73 -303.39,-56.28 -157.96,-15.59 -157.25,26.42 -306.92,-38.86 -201.72,-28.16 -208.21,-76.48 -346.49,-165.59 -232.98,10.32 -266,56.85 -535.57,59.44 -179.02,1.74 -38.29,29.53 -369.9,149.39 -440.81,159.32 -497.52,232.27 -831.99,195.78 -53.08,184.52 -50.02,244.28 -302.41,219.23l24.45 371.68c-21.43,292.51 -0.05,6.55 -63.54,188.71 -96.31,276.5 123.63,762.91 111.62,931.09z"/>
  <path class="fil0" d="M1734.74 11526.02c192.91,107.05 156.5,195.97 436.63,220.08 18.13,479.25 186.45,356.38 300.85,693.4l280.17 118.02 -6.73 517.96c130.69,87.46 576.69,262.42 617.05,307.54 258.13,45.21 955.34,387.5 1090.88,611.59 79.26,34 91.09,14.6 167.95,159.46 123.95,-56.93 149.34,-30.94 98.29,-325.33 -24.64,-141.95 1.74,-241.98 0.42,-336.79 -239.2,-499.03 -90,-579 -195.12,-1039.6 -481.27,27.46 -372.11,342.53 -627.65,423.92l-230.11 12.95c-442.51,-109.97 34.19,-448.17 129.09,-793.24l577.16 -141.95 142.14 -63.58 -31.79 -149.1 -163 -16.39c-505.95,25.33 -354.73,-92.69 -659.2,-156.08 -214.9,-44.79 -231.24,-81.71 -487.92,-316.06 -107.8,-98.43 -67.44,-149.39 -182.64,-213.3l-612.01 -46.53c-168.18,41.63 -132.24,60.99 -349.5,51.67 -58.73,-162.58 -23.31,-195.08 -196.29,-361.23 -67.07,-64.48 30.09,-33.06 -78.42,-54.4 -92.64,111.43 -206.28,556.54 -200.39,743.88l180.14 153.11z"/>
  <path class="fil7" d="M10724.71 22385.65c120.04,166.77 175.9,103.19 129.32,319.08 -149.34,53.45 -66.64,47 -229.59,-4.57 89.01,116.14 84.3,51.71 185.37,136.72 127.63,107.38 39.98,102.34 180.28,197.19l329.39 -69.47c-37.53,-315.21 -114.77,-207.12 80.72,-396.78 128.91,35.37 154.71,55.06 211.94,184.71 127.44,288.84 209.76,359.63 279.28,528.61 148.77,361.65 -298.59,412.93 -570.76,446.8 40.31,229.07 -51.52,394.38 -279.33,400.88l-125.84 -154.76c-57.46,249.99 -166.48,222.58 -365.51,330.43 70.64,371.77 -24.73,395.65 121.18,555.96 -26.47,-189.37 -41.4,-255.63 31.93,-402.62 210.24,-27.46 278.67,82.75 529.5,17.43 53.69,-176.38 26.94,-353.88 245.13,-300.71 200.26,48.74 -62.82,28.07 234.97,61.46 125.37,-244.48 105.16,83.36 145.19,-371.54 384.45,481.37 293.74,262.89 100.79,867.88l-76.2 -66.5c-4.05,-1.64 -17,-7.11 -25.95,-6.87 -140.58,275.32 59.9,261.9 -142.56,455.23 -138.51,132.24 -195.45,220.5 -112.56,474.4 249.56,195.82 331.79,72.76 600.99,-18.14 236.23,-79.73 360.9,-236.32 504.16,-270.52l232.89 370.18c-185.41,103.42 -95.98,-135.87 -222.15,126.31l-120.66 404.88c93.2,-65.74 39.56,-3.15 98.01,-104.97 18.69,-32.59 37.16,-124.2 45.44,-150.1 489.85,-205.52 137.43,-186.83 450.53,-314.03 -26.33,215.51 4.33,366.87 74.6,533.45l168.55 7.77 96.88 -310.88c10.92,7.44 25.29,7.3 30.56,25.39 0.52,1.83 83.08,143.92 304.62,161.77 181.93,-95.37 107.85,-343.42 130.22,-610.93 201.38,-136.91 543.44,-388.68 642.53,-619.17 -552.86,238.92 -475.24,356.05 -690.19,578.67 -284.27,294.3 -199.69,300.47 -483.06,432.25 -106.58,49.54 -47.71,49.5 -202.33,35.79 -12.34,-91.93 -14.17,-221.26 3.49,-311.63 36.07,-184.76 71.54,-130.04 127.11,-249.42 62.4,-133.95 34.76,-173.41 53.41,-324.12 15.21,-122.31 69.56,-286.95 -107.85,-416l-280.18 -83.12c110.91,232.6 76.96,177.03 -10.12,365.18 -121.18,261.81 -12.15,355.76 -433.52,400.03 -185.28,19.45 -101.78,36.69 -280.93,-29.86 -91.41,-212.59 35.89,-422.49 -34.57,-734.46 -52.75,-233.59 -96.59,-493.66 -116,-738.7 167.19,30.38 161.07,25.9 259.93,133.19 157.58,171.05 -43.76,30.85 232.23,152.03 -29.06,-135.03 -164.89,-336.88 -239.82,-355.11 -323.92,-78.74 -162.38,-72.24 -308.71,-149.53 255.12,-354.44 -90.75,-1015.95 -248.53,-1296.93 -49.59,-141.19 -158.85,-212.45 -295.38,-246.4 -237.32,-59.11 -226.82,30.94 -382.7,104.55 -394.43,-443.41 -472.71,-783.77 -1089.85,-768.47 90.66,403.85 671.92,603.54 749.39,1050.9 -70.36,41.92 121.98,98.76 -135.68,17.19z"/>
  <path class="fil1" d="M8203.52 2767.16c31.88,228.7 14.5,60.28 -33.16,123.72 -267.88,-215.56 -1092.49,387.13 -1115.99,446.19l-167.61 444.68c-457.07,-105.92 -266.19,-319.27 -191.59,-435.41 29.3,-45.63 36.31,-57.78 60.71,-96.83 59.76,-95.65 78.32,-124.09 135.82,-227.66 -282.1,82.47 -606.97,270.66 -501.19,582.96 -14.13,5.79 -69.94,26.75 -81.95,34.94 -85.57,58.31 -35.7,12.25 -93.91,87.93 116.09,-43.94 170.07,-82.94 176.05,-39.32l202.32 402.71c148.45,258.18 278.62,247.49 369.94,292.7l226.11 -222.43c164.79,-146.8 74.69,-244.85 153.86,-323.41 16.72,-11.82 436.3,-121.55 528.04,-153.34 680.11,-235.25 625.58,-123.02 1019.06,-417.74l103.66 -62.83c7.96,-4.24 18.94,-8.67 26.75,-12.72 7.63,-4 18.7,-8.33 26.09,-12.34 189.85,-102.57 4.76,58.4 106.3,-79.92l60.71 -141.85 1310.91 -35.51 704.32 -191.02c147.74,-90.57 646.21,-441.01 723.73,-127.26 33.44,135.5 23.59,65.04 -67.58,163.8l180.28 -0.94c51.85,237.98 -244.52,518.67 -389.58,603.35 204.26,258.42 235.01,180.52 598.54,316.2 116.9,43.61 188.48,78.98 282.39,145.2 157.4,111.05 111.57,96.4 345.78,115.2 29.06,-301.51 40.69,-47.85 176.33,-370.98 2.31,-5.51 6.12,-16.86 8.62,-22.56 2.68,-6.12 7.48,-17.71 10.31,-23.78 6.26,-13.42 31.41,-61.23 41.26,-75.92l-240.81 -45.92c-22.27,-133.8 12.77,-208.16 -93.53,-263.74 -105.07,-54.91 -176.51,47.19 -220.45,112.8 -103.76,-234.35 -107.05,-76.3 -344.75,-142.66 -167.56,-46.76 -85.57,-183.58 -103.8,-399.23 305.04,1.23 540.19,-169.69 865.91,-32.02 -193.99,-247.02 -81.48,103.18 -929.63,-245 -179.57,-73.7 8.2,-39.79 -196.95,-67.3 -170.91,-22.93 -595.58,-77.14 -714.07,-184.57 -739.27,-27.55 -621.53,179.72 -722.45,324.12 -155.89,223.04 -819.8,347.57 -1117.22,383.31 -497.14,59.77 -517.63,336.6 -1088.2,-104.32 -7.01,-5.41 -18.88,-15.3 -29.38,-21.28z"/>
  <path class="fil5" d="M13181.14 20928.13c-62.31,91.93 39.51,23.17 -98.2,104.55 -54.11,31.98 -4.28,27.32 -93.2,27.46 -204.02,0.42 -68.24,20.91 -154.05,-118.87 -106.11,175.71 -114.96,265.9 -398.71,438.6 -7.59,-6.97 -18.33,-16.06 -23.13,-20.44 -4.71,-4.33 -17.19,-14.64 -22.79,-19.97l-101.21 -115.81c-50.07,80.16 -136.86,144.17 -21.53,275.33l621.53 523.19c117.98,-170.4 -197.33,-59.16 293.17,-660.48 -69.89,-177.41 -43.23,70.69 -83.07,-207.64 328.63,-176.85 294.06,-199.46 757.39,-186.97 -90.99,503.36 -793.94,961.04 -844.38,1162.14 121.88,164.03 298.31,308.62 500.63,371.87 69.47,-102.01 253.89,-265.2 372.06,-307.82 38.8,659.1 -403.33,762.2 -420.24,1299.14 349.45,-109.69 697.77,-715.62 737.38,-1262.6 150.05,-811.93 36.88,-405.63 281.64,-679.07 153.48,-171.53 -1.89,-93.91 218.29,-175.48 -16.02,204.53 -64.34,240.47 -81.48,405.63 242.17,-149.43 46.3,-64.05 185.09,-290.3 -26.8,-79.26 -48.89,-88.49 -75.97,-148.49 -81.66,-41.82 -117.22,-48.65 -175.9,-137.94 -199.08,-303.16 107.42,-395.09 161.58,-421.98 170.26,-84.54 71.21,-43.05 153.25,-196.77 80.96,-3.58 130.18,10.5 169.97,9.89 171.2,-2.5 -24.96,3.53 123.35,-13.47 465.17,-53.31 445.53,435.5 664.29,29.11 -136.67,-71.4 -267.98,-60.48 -362.83,-116.76l11.92 -661.04c-62.03,69.66 -31.37,8.95 -61.18,141.01l-26.94 360.71c-389.58,83.26 -2.59,122.35 -320.21,149.72 -234.16,20.15 -509.67,-69.71 -370.45,-325.53l132.01 -228.28c-177.32,60.01 -41.35,52.09 -184.01,28.69 -2.12,-9.09 -1.22,-22.75 -0.28,-27.93 43.94,-240.71 476.38,-305.7 304.15,-655.3 -102.77,30.1 -158.39,142.38 -250.23,211.09 -112.08,83.88 -159.56,96.26 -277.77,164.18 -406.34,233.4 -134.88,332.68 -198.41,594.68 -23.93,98.66 -104.37,119.86 -172,258.88 -64.71,133.19 -56.8,176.66 -226.67,210.99 -155.37,31.42 -251.02,0.66 -392.4,54.73 -130.32,49.83 -124.67,98.71 -250.46,157.35z"/>
  <path class="fil8" d="M8186.42 18344.44l-5.09 193.57 268.17 161.77c71.63,-23.41 102.43,-34.85 154.14,-56 -49.35,-313.04 434.56,-476.33 532.85,-833.5 46.34,-168.23 5.41,-119.53 81.38,-175.81 21.38,-54.4 -56.99,-59.77 264.68,-71.3 318.79,-11.4 1298.95,-119.3 1519.08,-70.27 121.08,26.98 328.78,181.69 451.98,242.5 -51.1,141.28 -105.16,85.62 -0.61,185.22 320.58,305.52 394.95,185.23 508.92,107.99 135.35,-91.74 70.36,-8.19 190.83,-86.23 26.23,-223 84.26,-270.94 -84.16,-469.31 -478.07,-562.84 -64.33,-227.05 -536,-468.6 -139.4,-71.4 -69.04,-63.96 -270.28,-97.78 -119.58,-20.06 -464.28,-56.23 -617.76,-60.47 -2167.88,-59.71 -1720.56,260.54 -2198.44,492.96 -1.32,433.28 77.94,180 -168.09,428.81 -136.11,137.61 -82.42,350.44 -91.6,576.45z"/>
  <path class="fil3" d="M15985.28 14771.93c2.83,-111.39 41.16,-315.26 72.01,-422.08 93.49,-323.74 79.17,-18.18 260.72,-286.95 -525.63,-23.13 -389.9,-548.86 -611.35,-612.3 -116.33,185.84 -142.89,938.86 -534.07,1038.37 -0.61,-385.34 61.84,-628.92 197.52,-908.15 158.81,-326.75 89.2,-504.82 376.44,-696.31 159.09,56.04 -2.21,89.34 232.28,72.76 122.54,-8.66 152.97,-56.51 223.71,-120l-256.63 -9.56 -157.87 -270.99c-180.09,-220.08 -56.79,-53.17 -510.33,-29.77 -35.79,189.85 -176,302.13 -307.72,769.18l-120.66 280.64c-5.8,6.03 -16.3,12.01 -22.42,17.66 -276.31,254.46 27.5,194.37 -356,561.34 -5.84,5.56 -15.54,12.67 -21.24,18.27 -5.65,5.56 -15.35,12.53 -20.72,18.28l-70.69 121.55c-270.66,824.75 -57.04,960.52 -234.78,1286.62 30.8,69.09 16.58,5.79 47.85,49.35 71.07,99.05 10.65,-54.63 33.96,215.66 17.14,198.88 39.32,94.28 145.67,235.76l239.24 -8.1c103.33,-180.85 112.14,-115.2 195.36,-225.03l41.02 -72.43c77.99,-168.46 62.26,-246.74 237.83,-530.54 155.99,-252.24 137.67,44.84 166.11,-113.78 128.81,-89.06 210.28,-459.56 274.9,-667.45 99.94,-321.24 88.96,-501.47 217.96,-639.89 6.78,-7.25 25.15,-6.4 30.42,-24.54 5.42,-18.79 20.63,-17.66 32.6,-23.87 190.97,154.85 83.45,87.5 137.47,287.47 10.88,40.22 77.94,47.99 26.04,286.53 -154.33,709.08 -142.51,231.29 -220.31,1224.17 -15.73,200.25 -17,131.68 -78.94,254.13 -63.48,125.46 -56.65,115.38 16.11,201.57 5.32,-12.15 31.6,-63.63 33.25,-66.64l26.37 -47.14c19.36,-34.53 60.48,-107.24 71.45,-128.34 121.46,-233.17 93.01,-415.01 100.08,-697.45 3.2,-128.28 14.74,-226.95 87.36,-338z"/>
  <path class="fil5" d="M7414.42 10456.05c226.86,151.46 -134.17,120.47 326.1,401.26 9.74,5.93 24.44,4.42 29.01,18.27 12.01,36.31 37.77,22.32 54.63,30.52 25.01,12.1 41.72,19.12 64.14,25.43 87.46,41.35 229.88,76.63 355.34,120.99 340.79,120.57 109.88,-75.87 503.74,253.09 45.02,37.59 9.51,1.94 61.37,55.72 97.77,101.3 82.27,157.77 219.89,183.86l-120.52 243.96c-199.08,-283.99 -275.98,-346.2 -641.64,-533.93 -17.75,-9.13 -140.25,-63.2 -147.22,-63.53 -160.6,-7.49 -139.26,28.73 -187.91,75.92 206.23,18.51 346.81,145.76 514.24,254.88l344.65 253.38c75.96,96.22 51.1,28.02 78.7,173.03 -328.69,22.56 -80.73,29.34 -611.78,-308.06 -196.67,-124.99 -445.29,-253 -685.06,-239.34 -496.3,28.31 -818.15,256.11 -1023.25,671.54 -7.21,14.65 -11.07,24.45 -17.67,38.72 -7.2,15.59 -11.82,29.62 -17.66,43.04 -6.17,14.04 -12.95,29.91 -17.66,45.45 222.81,-84.4 163.57,-135.64 358.45,-60.85l74.98 1.46 715.62 -387.17c214.66,-97.78 251.49,2.4 487.49,14.78 223.09,11.64 377.81,-17.56 275.56,224.32l245.61 36.88c-83.79,328.16 -172.38,19.17 -205.72,290.39 110.44,59.48 64,38.9 212.87,28.59 150.76,-24.87 173.55,-85.72 268.45,-186.12l198.23 -203.27c5.74,-5.93 14.5,-13.94 20.2,-19.87 253.99,-267.23 19.55,-521.03 271.7,-780.81 161.92,-477.08 570.43,34 904.29,-392.69 -890.73,-175.15 -1025.99,83.93 -1256.15,-259.54 -128.76,66.59 78.98,92.73 -212.07,60.89 -202.61,-22.18 -1059.38,-583.19 -1301.54,-640.78l-340.55 -3.44 -111.06 276.03c160.88,37.01 -24.91,-40.32 152.41,118.35 94.75,84.82 77.56,37.53 159.79,138.65z"/>
  <path class="fil3" d="M7112.16 22568.43c99.47,246.13 13.85,193.43 -70.69,318.42 243.67,474.35 68.05,236.61 165.17,476.61l-362.64 -17.99c39.09,92.12 -59.77,79.87 226.43,200.35l-84.35 110.53c-28.39,30.38 -103.28,89.44 -131.02,106.01 -110.15,65.75 -161.02,29.58 -236.98,-37.91 -204.64,-181.65 -242.55,-392.73 -502.75,-478.54 23.07,171.29 183.58,300.99 288.37,370.27l-150.95 28.26c220.04,414.44 206.85,275.51 358.87,357.03 -41.86,51.19 -91.03,130.13 -110.91,217.82 -39.13,172.65 6.6,247.63 157.45,278.01 142.13,28.68 283.8,7.72 425.08,-14.56 519.99,-82.08 801.62,69.66 1022.83,-104.22 91.14,-71.59 192.16,-236.89 268.59,-290.39 149.91,-104.93 176.99,-38.01 335.66,-220.93 226.9,-261.52 221.68,-110.21 354.06,-211.98 96.13,-73.89 72.86,-282.25 112.23,-433.33l74.04 -202.14c92.49,-181.03 -10.41,-112.04 180.99,-130.45l-116.28 -153.49c-68.86,-78.7 -23.64,-16.01 -85.67,-102.53 -69.32,-96.78 -94.52,-164.22 -151.51,-264.63 -103.33,-85.43 -104.03,-119.15 -150.37,-239.25 -100.74,-77.89 -35.37,-102.01 -239.86,-218.99l-118.64 -60.1c0,155.14 32.45,145.48 -39.84,199.36 30.8,187.54 141.99,376.3 245.84,547.4 201.05,331.41 386.04,396.88 -19.69,956.23 -133.61,184.24 -186.78,235.11 -470.3,255.31 123.63,-264.02 438.8,-353.22 405.78,-720.05 -209.91,-10.83 -263.36,78.51 -373.52,182.88 -111.43,105.63 -176.04,171.9 -306.69,258.03 -99.56,-39.18 -63.72,-86.32 -161.82,-126.59 -307.68,291.05 95.98,129.66 -523.71,513.91 -165.26,102.48 -456.5,345.64 -616.34,295.25 73,-33.54 74.93,-48.42 139.78,-88.73l271.84 -173.03c25.85,-21.76 74.79,-61.13 106.76,-91.98 67.59,-65.23 143.6,-147.41 217.4,-225.21 80.2,-84.54 109.54,-141.86 125.13,-267.75 -145.85,-94.71 -74.41,-30.37 -192.38,-79.78 -30.66,-196.48 -6.88,-257.75 -16.86,-440.96 -9.05,-165.4 -42.15,-160.78 -107.85,-299.34l-140.68 23.17z"/>
  <path class="fil2" d="M17780.35 10555.66c244.52,-30.99 88.96,48.7 364.71,-69.85l55.1 -474.21c3.53,-117.55 -143.55,-724.19 -181.04,-884.69 -120.85,-517.16 -29.95,-365.56 -309.04,-768.56 -160.41,-231.67 -768.51,-1101.67 -954.83,-1208.44 47.05,250.03 112.66,334.01 141.2,661.09 22.09,253.42 36.97,462.01 69.56,702.15l-254.32 -146.84c42.2,174.77 -110.3,-23.93 46.34,187.01 150.85,203.13 229.03,369.19 440.92,524.09 190.64,139.4 278.1,287.05 435.35,477.55 155.28,188.15 258.46,108.42 312.29,412.52 -175.1,165.68 -301.32,-0.95 -437.47,-127.21 -89.48,-82.94 -104.51,-127.11 -194.27,-212.12 -340.27,-322.28 -277.49,-161.68 -461.68,-330.57l-572.17 -488.24c-2.55,-9.94 -50.68,-9.56 -43.24,156.5 2.55,57.22 16.02,98.95 35.47,149.39 116.18,301.65 184.24,333.44 335.51,466.39 352.84,309.94 695.51,880.69 1012.09,817.11 139.64,-28.02 44.41,29.49 119.25,-72.62 21.57,56.61 63.39,98.43 120,120.05 -114.63,78.04 -42.48,25.76 -79.73,109.5z"/>
  <path class="fil1" d="M7965.21 17087.64l48.93 176.98c-8.24,6.64 -23.54,2.92 -27.6,17.29l-155.04 258.7c-0.04,1.27 10.13,71.02 12.53,80.72 18.56,75.45 26.94,46.72 52.18,161.54 -35.93,47.52 -97.06,133.8 -143.17,184.19 -105.07,114.77 -66.78,73.71 -223.14,42.67 -118.16,462.53 -73.23,-119.25 -180.47,285.17 -40.97,154.47 44.74,334.8 83.45,455.08 85.11,264.31 132.63,283.38 286.58,515.05 46.49,69.93 62.41,77.52 70.98,180.19 -123.35,79.02 -95,50.06 -252.67,26.75l263.78 169.31c6.12,1.13 18.37,0.94 24.96,2.12 51.29,8.9 -24.25,-13.29 86.14,16.53 115.15,31.13 -30.28,40.59 150.1,45.73 52.37,-95.42 7.58,-498.42 -8.34,-683.6 -35.51,-412.85 -27.17,-286.25 62.59,-677.62 12.01,-168.18 -207.93,-654.59 -111.62,-931.09 63.49,-182.16 42.11,103.8 63.54,-188.71l-24.45 -371.68c252.39,25.05 249.33,-34.71 302.41,-219.23 334.47,36.49 391.18,-36.46 831.99,-195.78 331.61,-119.86 190.88,-147.65 369.9,-149.39 269.57,-2.59 302.59,-49.12 535.57,-59.44 138.28,89.11 144.77,137.43 346.49,165.59l218.19 -11.72c17.05,-301.61 -113.03,-180.48 -193.99,-354.59 82.75,-75.02 41.31,-64.47 187.59,-46.53 46.43,190.17 144.39,370.13 318.98,454.95 377.19,7.58 334.62,-378.61 558.23,-562.56 110.72,188.71 50.77,474.49 146.42,754.14l8.19 -19.87 140.68 36.83c-40.03,-256.06 -116,-628.64 -255.4,-825.83 -86.05,-3.96 -192.01,-12.57 -281.12,117.98 -43.61,63.9 -73.19,217.91 -82.93,323.73 -63.4,-17.8 -191.17,19.74 -272.5,-235.52 -158.1,263.45 -209.91,-125.28 -388.87,-196.35 -142.89,-56.7 -195.69,-12.24 -265.53,-11.68 -109.17,0.9 -114.02,-48.65 -184.43,-77.28 -102.43,49.97 -162.67,142.7 -256.01,229.26 -8.81,8.15 -41.59,36.88 -48.51,43l-253.71 -81.57 -518.38 364.43c-8.57,-10.08 -16.86,-24.02 -22.42,-32.73l-55.53 -90.29c-13.65,-25.05 -23.59,-59.15 -41.68,-94.33 -185.88,-3.63 -107.85,38.48 -275.18,-11.35l-16.43 -189.04c18.74,-161.87 124.28,-229.36 136.06,-288.23 -58.26,94.52 -129.75,214.85 -189.75,324.07 -135.45,246.4 -32.22,266.33 -372.2,274.05 9.6,-245.56 86.32,-281.4 89.67,-443.55 28.16,122.78 -224.09,433.89 -254.7,477.65 -6.45,9.18 -35.27,57.88 -42.62,70.92l-39.09 73.8c-135.5,278.91 -135.92,474.78 41.35,721.14z"/>
  <path class="fil5" d="M9167.43 13590.52c-196.2,75.59 -636.17,344.61 -771.67,524.09 -68.33,226.62 -129.56,314.6 8.1,558.74l364.43 13c31.7,-93.34 403.85,-352.79 413.36,-356.98 174.31,-77.05 434.32,69.56 610.84,109.64 1003.38,227.89 810.94,-625.3 1441.18,-153.73 117.88,88.17 93.54,49.55 178.21,169.13 -9.56,9.23 -31.46,29.85 -37.3,34.66l-136.1 104.88c-51.43,42.76 -28.31,8.95 -77.29,70.74 152.07,-6.31 326.89,16.34 476.52,47.66l47.94 -199.17c244.76,-155.84 233.83,-18.6 174.4,-438.65 -224.51,-114.82 -482.69,-153.39 -614.7,-367.4 -85.43,-138.46 -121.46,-154.66 -248.48,-228.41 -140.86,-81.81 -13.09,-45.64 -202.65,-17 -408.7,61.79 -420.43,245.27 -752.26,259.45 -337.16,14.41 -344.61,-195.59 -874.53,-130.65z"/>
  <path class="fil0" d="M16682.49 18022.12c20.02,-153.77 29.34,-373.81 11.4,-559.03 -22.8,-234.64 -107.99,-234.49 -147.13,-410.54l-548.57 -412.37c-119.02,99.79 -82.56,197.85 -113.22,130.45 -3.06,-6.73 -12.11,17.19 -18.79,25.29 -150.43,0.62 -319.79,-68.71 -579.85,108.18l21.62 121.18c122.07,50.49 11.87,15.5 198.13,2.45 7.49,280.98 36.64,107.66 158.24,276.64l-33.86 86.8c-3.77,8.1 -8.67,19.5 -12.81,27.6l-44.79 71.63c-3.44,5.84 -11.35,15.03 -14.41,20.72l-29.25 118.78c-13.89,204.21 21.81,271.37 -48.83,365.56 -4.1,5.46 -13.05,13.94 -17.67,19.4l-133.7 148.97c-121.93,126.36 -167.62,116.47 -270.1,247.63l-64.33 97.96c-68.01,139.03 -15.64,332.87 74.13,462.24 237.22,-27.12 -4.8,-31.74 202.37,-56.7 84.82,-10.22 110.02,44.84 326.23,-85.34 137.57,-82.79 1.79,-26.56 152.5,-82.27 230.87,-85.39 474.21,-147.32 665.52,-287.52l43.98 -880.04c100.32,43.28 78.42,-25.48 106.06,169.73 9.66,68.01 5.14,197.48 7.4,272.6 50.15,30.7 -56.99,97.01 109.73,0z"/>
  <path class="fil0" d="M4453.59 13994.61c60.24,293.97 -323.31,-6.83 -421.27,-31.42 4.66,238.55 121.69,335.23 227.24,470.21 -62.41,54.4 8.14,43.42 -106.35,26.28 -78.74,225.02 -104.27,69.56 -103.8,389.11 206.9,-10.08 231.57,-57.04 452.6,-50.58 179.01,5.27 334.24,-9.28 348.08,153.58l-550.6 98.76c-117.83,203.12 -126.5,88.02 -348.18,174.25 153.77,81.29 205.48,0.52 346.3,85.86 28.16,252.81 -108.93,170.86 -276.45,160.27 37.34,192.85 48.98,5.93 -119.63,278.33 31.51,87.79 870.34,1259.4 1043.7,1271.22 205.99,13.99 60.47,4.28 118.73,-30.52 4.75,-8.19 8.99,-32.26 9.46,-26.75 0.43,5.37 7.02,-21.38 7.25,-26.75 1.75,-42.67 4.15,-47.95 -4,-81.85 -1.79,-7.45 -52.13,-118.73 -63.58,-139.36l-345.4 -452.03c-150.05,-160.22 -135.97,-92.02 -182.87,-286.91 -67.82,-130.22 -129.66,-113.78 -193.47,-270.66 272.21,8.29 722.92,-155.37 913.47,58.4 99.37,111.43 190.08,635.18 197.61,775.86 365.56,408.84 285.08,-246.22 257.38,-551.59 -186.68,-1009.5 -806.99,-870.66 -933.16,-1897.54 123.82,-116.71 -17.8,10.59 133.95,-71.82 -27.04,-84.82 -10.55,-152.17 -62.83,-288.84 -33.77,-88.26 -65.7,-137.71 -77.52,-238.17 1.32,94.81 -25.06,194.84 -0.42,336.79 51.05,294.39 25.66,268.4 -98.29,325.33 -76.86,-144.86 -88.69,-125.46 -167.95,-159.46z"/>
  <path class="fil3" d="M4373.62 11954.03l-577.16 141.95c-94.9,345.07 -571.6,683.27 -129.09,793.24l230.11 -12.95c255.54,-81.39 146.38,-396.46 627.65,-423.92 105.12,460.6 -44.08,540.57 195.12,1039.6 11.82,100.46 43.75,149.91 77.52,238.17 52.28,136.67 35.79,204.02 62.83,288.84 -25.86,210.19 107.47,278.52 182.68,497.99l501.53 868.97c347.52,334 190.5,276.97 446.47,262.42 -29.67,-200.87 -73.19,-158.72 -105.17,-284.93 -54.35,-214.24 33.82,-30.85 107.52,-230.92 -112.18,-117.12 -115.15,-258.22 -135.82,-377.94 -49.97,-289.36 -520.13,-557.76 -663.78,-1078.55 -116.6,-117.22 -93.25,-215.84 -161.82,-412.28 -77.33,-221.3 -218.8,-740.25 -185.98,-964.95 20.86,-142.65 9.18,-336.5 -107.19,-460.41 -101.4,177.56 -103.7,154.57 -365.42,115.67z"/>
  <path class="fil2" d="M15475.99 19833.14l-11.92 661.04c94.85,56.28 226.16,45.36 362.83,116.76 -218.76,406.39 -199.12,-82.42 -664.29,-29.11 -148.31,17 47.85,10.97 -123.35,13.47 -39.79,0.61 -89.01,-13.47 -169.97,-9.89 -82.04,153.72 17.01,112.23 -153.25,196.77 -54.16,26.89 -360.66,118.82 -161.58,421.98 58.68,89.29 94.24,96.12 175.9,137.94 -69.32,-176.37 -69.7,-115.67 -84.25,-317.29 48.18,-44.88 100.36,-102.24 143.45,-167.61l507.23 47c170.11,37.77 527.42,533.32 561.76,640.04 237.22,737 -171.53,269.72 -418.92,190.41 74.13,238.49 51.33,117.17 202.32,262.98 84.92,81.95 113.83,155.42 143.46,291.67 219.84,-102.2 42.95,-129.09 182.92,-255.22 78.55,-70.78 126.4,-32.02 252.86,-184 75.4,-473.6 -165.92,-312.48 114.11,-687.46 376.01,-503.6 394.9,-714.4 374.51,-1348.88 -4.76,-147.5 -103.1,-520.69 -285.41,-546.78 -71.44,118.25 -27.36,245.27 -57.22,409.73 -29.43,162.2 -79.26,227.29 -129.56,357.08 -259.92,-2.4 -555.59,-102.95 -761.63,-200.63z"/>
  <path class="fil7" d="M5506.71 11672.59c134.64,120.66 107.8,76.81 94.42,303.95 93.72,11.54 176.66,29.02 255.88,68.25 103.61,51.33 111.85,81.43 138.36,133.7 171.24,14.22 360.29,108.37 427.12,115.39 372.81,38.99 -72.77,-167.01 431.82,-154.48 -194.88,-74.79 -135.64,-23.55 -358.45,60.85 4.71,-15.54 11.49,-31.41 17.66,-45.45 5.84,-13.42 10.46,-27.45 17.66,-43.04 6.6,-14.27 10.46,-24.07 17.67,-38.72 205.1,-415.43 526.95,-643.23 1023.25,-671.54 239.77,-13.66 488.39,114.35 685.06,239.34 531.05,337.4 283.09,330.62 611.78,308.06 -27.6,-145.01 -2.74,-76.81 -78.7,-173.03l-344.65 -253.38c-167.43,-109.12 -308.01,-236.37 -514.24,-254.88 48.65,-47.19 27.31,-83.41 187.91,-75.92 6.97,0.33 129.47,54.4 147.22,63.53 365.66,187.73 442.56,249.94 641.64,533.93l120.52 -243.96c-137.62,-26.09 -122.12,-82.56 -219.89,-183.86 -51.86,-53.78 -16.35,-18.13 -61.37,-55.72 -393.86,-328.96 -162.95,-132.52 -503.74,-253.09 -125.46,-44.36 -267.88,-79.64 -355.34,-120.99 -46.34,46.53 43.99,71.82 -314.5,55.67 -1027.31,-46.25 -898.08,210.71 -1957.97,267.97l-51.57 4.34c-101.68,328.26 10.83,41.11 63.06,223.19l-119.11 135.91c-52.93,257.95 -14.88,-203.73 -1.5,53.98z"/>
  <path class="fil3" d="M13608.54 6242.98c-30.33,84.45 -44.75,126.5 -69.05,189.56 479.82,21.34 404.13,-210.18 901.94,-216.5 61.6,24.54 619.22,993.26 809.48,1077.65 -189.89,-291.28 -575.04,-622.09 -567.93,-1105.53 670.89,-208.16 450.19,60.19 754.43,258.56 105.07,-384.21 -166.57,-616.58 -137,-986.14 510.1,-17.85 453.3,716.05 853.95,1069.83l366.87 295.2c-336.87,-624.82 -345.54,-270.38 -644.22,-1189.08 -4.05,-12.44 -36.5,-99.19 -42.58,-111.71 -4.14,-8.48 -70.55,-113.46 -74.88,-118.73 -159.98,-192.77 -222.1,-7.07 -370.6,-348.18 -342.15,-785.99 -371.3,-503.13 -596.42,-833.04 -83.83,-122.82 -148.64,-350.3 -253.24,-467.71l-387.55 -361.65c135.45,421.46 116.14,37.96 447.79,782.36 86.89,195.07 43.37,323.03 39.84,557.05l20.68 165.17c-7.63,264.07 -52.51,107.94 -83.03,225.59 -55.06,212.02 299.62,172.09 39.7,596.37 -142.33,232.28 -352.42,60.71 -1008.18,520.93z"/>
  <path class="fil0" d="M11815.12 16645.36l262.75 61.13c36.59,89.15 26.7,403.05 321,159.47 193.43,-160.13 85.62,-344.89 237.46,-466.49 193.8,54.73 45.54,44.6 140.82,158.71 72.24,86.57 47.8,-11.3 162.62,121.37l102.86 95.79c7.68,4.9 19.26,8.57 27.08,13.38 7.82,4.76 19.03,9.04 26.7,13.94 7.59,4.8 17.9,10.5 25.15,15.59l103.38 96.31c19.02,19.03 134.17,16.86 125.6,308.9 -12.85,435.73 -175.19,585.97 -380.96,849.85 -194.13,249.04 -165.07,140.77 -265.15,250.83 34.38,74.88 63.16,88.64 91.42,182.03 375.96,5.89 432.53,-350.16 626.51,-389.01l169.41 -538.97c92.5,125.93 43.37,74.27 194.03,164.03 25.91,306.88 36.55,479.63 -119.43,672.77 -171.95,212.78 -343.47,177.36 -470.25,324.87 35.36,22.84 -18.61,74.55 205.62,-25.57 148.68,-66.36 120.19,-55.62 311.02,-64.2 52.79,-102.57 211.46,-186.03 264.54,-330.61 68.9,-308.9 182.63,-440.44 147.69,-858.04 -39.37,-469.93 -380.16,-376.44 -634.24,-775.25 -181.56,-285.02 -238.97,-174.16 -370.46,-346.06 -146.51,-191.59 44.55,-37.3 -181.88,-471.24 40.22,246.97 -7.63,242.73 -89.58,333.11l-212.5 185.08 -87.17 -170.39c-2.03,-4.66 -5.8,-15.73 -7.77,-20.49 -22.56,-54.2 -52.94,-168.74 -126.36,-170.2l-109.22 9.14c-4.75,1.13 -16.39,4 -21.05,5.46 -4.57,1.41 -15.96,4.94 -20.44,6.69 -170.58,66.45 -134.74,244.09 -201.66,426.31 -37.21,101.3 -68.2,152.35 -104.42,232.47 -47.37,-20.07 -79.26,-32.22 -143.12,-60.71z"/>
  <path class="fil3" d="M17780.35 10555.66c-99.75,20.67 -117.18,8.19 -198.47,14.93l-164.36 34.85c74.13,146.66 -38.39,28.49 140.39,91.84 168.79,59.76 104.32,2.44 188.81,91.55 267.46,138.09 302.78,476.52 317.47,774.59 9.09,184.1 89.44,316.01 118.97,479.72 31.32,173.45 46.58,332.78 37.34,524.79 -164.36,68.85 -302.4,86.47 -488,142.89 -131.54,39.98 -273.26,139.83 -388.59,149.06 -65.94,-78.94 -56.57,-123.21 -51.06,-220.41 4.67,-82 45.36,-223.99 5.89,-404.18l-55.34 -146.28c-3.39,-21.9 -12.48,-25.34 -21.52,-36.08l-100.6 193.19c67.35,-58.77 21.2,44.93 102.3,-93.81 12.38,900.42 -109.93,246.83 -167.81,956.14 -350.96,195.73 -416.18,355.01 -575.6,743.36 144.96,-41.54 340.22,-196.91 454.19,-304.1 893.36,-840.28 912.16,-435.63 1164.17,-461.73 166.48,-17.19 121.41,-66.78 160.12,-172.6 -15.68,185.27 -433.52,235.85 -509.48,451.32 480.57,10.5 201.66,69.09 783.11,-137.29 52.65,-574.66 -89.34,-1120.41 -93.86,-1667.1 -2.26,-276.55 -184.38,-625.95 -179.11,-1112.97 1.37,-129.71 32.17,-231.86 -9.18,-351.2 -36.97,-106.76 11.16,-18.18 -49.97,-84.54l-55.1 474.21c-275.75,118.55 -120.19,38.86 -364.71,69.85z"/>
  <path class="fil2" d="M11815.12 16645.36l-140.68 -36.83c109.6,127.54 195.22,106.67 261.62,167.1 121.04,110.29 -29.67,414.44 423.49,288.98l255.82 -59.49c-26.23,410.78 -129.93,421.84 -361.93,618.28 115.01,146.66 116.05,413.55 165.4,546.55 76.02,204.82 69.14,-16.06 123.49,346.16 170.3,13.09 130.17,-1.23 253.52,104.12 -7.96,111.48 -11.02,103 -48.75,199.17 300,0 228.04,33.58 420.57,-99.7 227.1,-157.21 444.59,-240.05 497.38,-538.64 41.49,-234.53 -111.99,-108.5 -165.97,-89.05l-76.72 25.15c-193.98,38.85 -250.55,394.9 -626.51,389.01 -28.26,-93.39 -57.04,-107.15 -91.42,-182.03 100.08,-110.06 71.02,-1.79 265.15,-250.83 205.77,-263.88 368.11,-414.12 380.96,-849.85 8.57,-292.04 -106.58,-289.87 -125.6,-308.9l-103.38 -96.31c-7.25,-5.09 -17.56,-10.79 -25.15,-15.59 -7.67,-4.9 -18.88,-9.18 -26.7,-13.94 -7.82,-4.81 -19.4,-8.48 -27.08,-13.38l-102.86 -95.79c-114.82,-132.67 -90.38,-34.8 -162.62,-121.37 -95.28,-114.11 52.98,-103.98 -140.82,-158.71 -151.84,121.6 -44.03,306.36 -237.46,466.49 -294.3,243.58 -284.41,-70.32 -321,-159.47l-262.75 -61.13z"/>
  <path class="fil0" d="M8506.25 13288.26c-275.84,109.69 -436.02,453.82 -673.47,536.75 -87.74,30.66 -127.12,22.09 -224.09,54.17 -130.45,43.13 75.4,1.27 -121.32,43.37 -409.17,87.6 -407.75,-159.98 -473.36,-190.36 -163.94,-7.07 -113.26,27.55 -232.84,11.44 -131.3,-17.71 -51.01,-31.65 -176.61,-47.56 -220.97,-27.98 -202.75,74.6 -344.84,-60.15l103.38 -116.46c54.82,-87.6 -22.56,13.23 15.3,-127.4 -350.72,-54.25 -453.81,-312.25 -506.61,-367.16 -110.91,-115.43 -526.58,-335.28 -475.01,-952.28 -119.24,112.28 -146.42,401.02 -128.8,558.46 29.76,265.63 89.53,536.38 285.44,669.1 40.18,27.27 10.37,0.7 49.5,30.19 90.38,68.05 106.11,139.54 172.8,227.89l54.77 64.52c410.11,536.66 242.73,128.76 537.37,301.47 279.56,163.89 312.76,497.99 676.29,601.22 166.06,47.19 94.76,13.8 206.14,110.3 292.85,253.85 252.06,65.18 489.47,-233.92 127.16,-160.27 146.09,-147.56 242.78,-356.99 254.13,-550.32 452.88,-477.51 523.71,-756.6z"/>
  <path class="fil5" d="M5430.41 21558.04c-53.27,360.42 122.78,309.89 150.19,650.3 13.04,161.58 20.58,196.91 71.4,320.86l90.04 196.63c72.72,102.01 -29.34,-3.16 74.7,81.05l-18.46 -255.83c247.44,33.87 381.52,239.96 547.35,405.36 165.4,164.93 311.82,250.79 498.37,389.06l362.64 17.99c-97.12,-240 78.5,-2.26 -165.17,-476.61 84.54,-124.99 170.16,-72.29 70.69,-318.42 -140.96,-154.33 -88.92,-255.16 -277.68,-380.2 -142.65,-94.57 -260.77,-114.68 -425.89,-245.37 -127.53,-100.98 -58.3,-94.01 -183.48,-182.45 -86.85,-61.32 -125.75,-49.83 -216.17,-100.46 -178.17,-99.89 -144.82,-226.81 -350.68,-291.38 -193.66,105.68 -12.53,169.4 -227.85,189.47z"/>
  <path class="fil5" d="M17121.28 12246.12c-95.04,78.79 -107.09,62.07 -188.24,184.1 -76.95,115.76 -62.35,131.16 -175.57,221.16 -146.75,116.61 -322.7,172.7 -554.93,185.89 -70.74,63.49 -101.17,111.34 -223.71,120 -234.49,16.58 -73.19,-16.72 -232.28,-72.76 -287.24,191.49 -217.63,369.56 -376.44,696.31 -135.68,279.23 -198.13,522.81 -197.52,908.15 391.18,-99.51 417.74,-852.53 534.07,-1038.37 221.45,63.44 85.72,589.17 611.35,612.3l162.16 -211.09c159.42,-388.35 224.64,-547.63 575.6,-743.36 57.88,-709.31 180.19,-55.72 167.81,-956.14 -81.1,138.74 -34.95,35.04 -102.3,93.81z"/>
  <path class="fil0" d="M16480.17 13851.81l-162.16 211.09c-181.55,268.77 -167.23,-36.79 -260.72,286.95 -30.85,106.82 -69.18,310.69 -72.01,422.08 -3.25,364.57 -14.93,754.38 159.99,1004.22 50.15,-150.04 62.21,-444.68 72.71,-624.91 25.2,-431.73 7.59,-486.83 206.24,-597.98 -2.17,368.1 -108.51,1141.28 1.41,1427.81 98.57,34.05 105.12,5.7 198.37,-8.67 28.96,-532.18 -6.03,-550.97 -5.09,-901.74 0.71,-259.46 82.51,-244.53 124.29,-278.15 172.7,296.47 -43.47,728.67 77.89,1181.82l228.47 -26.27 -5.75 -488.15c-29.86,-263.65 -138.56,-329.06 -77.71,-493.34l27.13 -54.67c-180.14,-133.99 -39.75,73.98 -212.69,-232.71 -74.5,-132.1 -120.89,-152.3 -168.79,-285.63 6.74,-169.17 793.05,-1015.2 1137.42,-1028.86 75.96,-215.47 493.8,-266.05 509.48,-451.32 -38.71,105.82 6.36,155.41 -160.12,172.6 -252.01,26.1 -270.81,-378.55 -1164.17,461.73 -113.97,107.19 -309.23,262.56 -454.19,304.1z"/>
  <path class="fil3" d="M7537.77 19471.97c-126.55,-50.77 -15.83,-53.27 -220.65,-110.16 103.33,212.21 260.58,281.07 283.66,422.68 30.57,187.73 -100.17,383.46 -93.63,550.37l348.33 106.25c-57.13,175.52 -175.25,206.65 -355.01,200.53 -114.16,-130.6 -69.19,-168.13 -232.23,-283.14 -287.9,-203.08 -264.35,-264.49 -475.01,-558.23 -39.19,-54.63 -57.93,-83.88 -94.71,-138.37l-117.84 -148.68c-6.31,-6.78 -16.81,-18.13 -26.23,-26.09 46.86,323.13 190.5,390 277.21,626l-221.87 -31.37 247.49 133.47 45.73 300.19c-81.57,46.02 -203.27,112.8 -287.76,147.89 -456.45,-280.27 -131.26,-273.63 -558.04,-502.57 144.49,458.15 73.05,135.64 370.36,488.15 96.27,114.17 324.16,246.46 485.7,298.31 181.56,-288.13 20.63,-511.04 412.57,-438.65 36.21,105.49 4.23,-48.56 10.12,96.97 0.05,0.8 -0.61,72.29 0.09,90.05 10.7,270.19 98.67,262.65 236.19,445.15 38.2,-120.24 -28.16,-73.71 64.95,-188.39 212.26,-261.38 -82.42,178.64 63.11,-69.23 83.4,-142.09 -14.98,-126.45 207.74,-293.12 265.29,-198.61 300.99,-262.99 472.75,-564.87 101.02,-177.46 105.11,-385.29 -10.84,-599.86 59.44,-135.59 -20.81,-359.06 -31.32,-525.88l111.01 -53.26c10.93,-4.15 22.37,-7.73 32.59,-11.07 2.35,-0.8 60.42,-4.19 103.05,-14.18l18.36 -177.08c-51.71,21.15 -82.51,32.59 -154.14,56l-268.17 -161.77 5.09 -193.57 -69.42 0c-89.76,391.37 -98.1,264.77 -62.59,677.62 15.92,185.18 60.71,588.18 8.34,683.6 -180.38,-5.14 -34.95,-14.6 -150.1,-45.73 -110.39,-29.82 -34.85,-7.63 -86.14,-16.53 -6.59,-1.18 -18.84,-0.99 -24.96,-2.12l-263.78 -169.31z"/>
  <path class="fil2" d="M13422.36 18117.16l76.72 -25.15c53.98,-19.45 207.46,-145.48 165.97,89.05 -52.79,298.59 -270.28,381.43 -497.38,538.64 -192.53,133.28 -120.57,99.7 -420.57,99.7 134.7,176.28 175.2,-5.69 171.01,199.6 -305.23,65.98 -592.33,-468.09 -1126.49,-718.03 -275.47,-128.9 -146.75,-131.68 -386.75,-157.21l6.26 197.38c49.87,29.16 219.61,86.14 279.42,105.12 306.74,97.4 452.36,229.12 712.61,445.11 279.94,232.37 244.62,565.67 23.74,798.51l-112.42 118.87c-7.44,6.83 -17.24,15.59 -24.44,21.8l-92.31 65.47c-135.54,-61.65 -15.03,-6.31 -93.21,-55.62 -175.66,-110.72 -315.02,-182.69 -549.46,-200.49l64.38 -131.16 -160.46 246.64c81.66,42.01 176.75,90.42 199.36,194.93 215.98,-104.55 206.37,-14.84 406.25,117.46 204.44,135.3 171.14,51.66 316.15,288.08 139.5,-45.21 180.62,-12.38 329.02,-103.75 527.66,-324.96 389.67,-295.48 497.85,-714.73 -157.77,-114.58 -200.35,18.75 -249.94,-356.56 211.27,48.37 324.49,79.97 461.96,-103.71 125.61,-167.89 6.08,-146.32 187.82,-322.98l105.31 -104.04c-190.83,8.58 -162.34,-2.16 -311.02,64.2 -224.23,100.12 -170.26,48.41 -205.62,25.57 126.78,-147.51 298.3,-112.09 470.25,-324.87 155.98,-193.14 145.34,-365.89 119.43,-672.77 -150.66,-89.76 -101.53,-38.1 -194.03,-164.03l-169.41 538.97z"/>
  <path class="fil0" d="M12009.67 13508.95c63.91,121.42 108.89,133.24 210.29,226.21 337.49,309.46 641.4,706.86 951.71,605.32 529.08,-173.12 507.98,-92.45 664.76,-345.4l284.56 -311.02c245.27,-284.65 468.84,-658.92 695.13,-894.5 91.89,-95.74 103.52,-141.99 111.2,-309.28 7.34,-160.5 -5.89,-231.29 -54.78,-352.09 -65.13,-161.02 -48.74,-146.47 -212.35,-196.76 36.31,384.68 82.18,334.42 6.5,462.95 -83.93,142.42 -182.22,135.78 -289.22,230.02 -197.57,173.97 -153.15,226.25 -268.02,426.12 -132.91,231.15 144.25,155.7 18.32,359.25 -74.65,120.61 -34.81,24.63 -191.96,86.23 -9.05,3.53 -19.41,8.15 -28.07,11.92 -162.25,70.31 -64.62,76.43 -353.65,79.35 -862.89,8.67 -625.81,139.74 -678.51,241.42 -382.61,-98.95 -403.8,-362.83 -865.91,-319.74z"/>
  <path class="fil6" d="M8990.21 24839.68c123.01,-109.31 62.45,-58.54 137.14,-220.4 126.08,31.97 170.06,85.52 242.83,174.82l185.74 178.35c180.66,150.19 -25.85,38.99 318.42,275.56l124.71 110.86c229.69,6.64 61.13,66.22 284.7,124.71 139.87,-82.32 74.17,-70.5 176.89,-148.92 97.91,-74.78 146.28,-64.89 231.19,-122.07l-20.67 -352.14c-145.91,-160.31 -50.54,-184.19 -121.18,-555.96 199.03,-107.85 308.05,-80.44 365.51,-330.43 -67.25,-98.52 -72.81,-44.98 -259.78,-63.53l-13.33 -87.04 -119.62 618.23c-206.14,-14.08 -67.77,-32.02 -467.38,-222.76l-374.13 -151.89c-104.04,-27.31 -70.27,-21.52 -195.03,-24.06l-119.62 159.47c-614.98,0 -386.38,360.42 -376.39,637.2z"/>
  <path class="fil2" d="M4860.6 14018.96c-151.75,82.41 -10.13,-44.89 -133.95,71.82 126.17,1026.88 746.48,888.04 933.16,1897.54 10.41,4.71 24.92,2.69 29.35,17.8l128.43 141.72c50.81,-270.15 56.13,123.76 79.73,-239.25 154.85,-5.04 152.68,-49.55 199.59,0 135.69,-163.75 7.3,-145.9 123.44,-215.42 139.55,-14.36 182.31,22.37 275.51,91.23 221.12,-16.3 93.39,22.84 198.98,-74.98 -82.56,-202.8 -121.93,-139.59 -183.34,-223.38 94.94,-89.15 152.07,-107.33 257.33,-179.34 14.08,-305.7 -253.19,-573.06 -479.3,-710.44l-552.67 -432.86c-16.43,-25.57 -27.5,-46.3 -49.35,-74.98l-234.59 -247.77c-61.69,-58.07 -43.19,-43.33 -115.29,-86.94 -36.83,-22.32 -111.15,-56.09 -143.6,-77.71 143.65,520.79 613.81,789.19 663.78,1078.55 20.67,119.72 23.64,260.82 135.82,377.94 -73.7,200.07 -161.87,16.68 -107.52,230.92 31.98,126.21 75.5,84.06 105.17,284.93 -255.97,14.55 -98.95,71.58 -446.47,-262.42l-501.53 -868.97c-75.21,-219.47 -208.54,-287.8 -182.68,-497.99z"/>
  <path class="fil0" d="M15244.04 10191.13c157.11,120.19 337.53,147.6 543.2,333.77 660.62,598.08 1199.49,691.33 668.01,1187.44l-232.75 267.45 177.7 4.43c71.35,-119.76 159.37,-138.04 223.56,-230.3 7.21,11.16 23.13,36.5 27.32,40.83l29.62 31.6c77.9,55.63 -2.07,48.94 63.72,15.41 135.17,-94.24 64.33,-413.79 83.74,-566.76 24.25,-191.63 -71.73,-82.6 74.93,-151.18 -57.41,-165.02 -87.6,-111.52 -117.13,-356.18 76.25,10.22 170.35,34.09 173.93,34.57l100.64 2.63c-45.12,-119.53 -217.35,-239.95 -317.33,-316.76l-695.8 -582.16c-165.68,-127.16 -164.27,-251.35 -374.41,-252.48 55.34,227.14 207.08,213.16 281.58,434.88 -210.14,-99.18 -265.9,-263.36 -428.9,-335.88 -167.28,-74.51 -137.94,7.63 -258.37,-146.57 -114.68,-146.8 -25.05,-77.19 -198.6,-177.45l-173.93 84.34 -0.94 255.31c179.11,87.88 49.78,-51.71 207.41,130.83 108.75,125.94 121.51,171.67 142.8,292.23z"/>
  <path class="fil3" d="M5506.71 11672.59c-13.38,-257.71 -51.43,203.97 1.5,-53.98l119.11 -135.91c-52.23,-182.08 -164.74,105.07 -63.06,-223.19l51.57 -4.34c1059.89,-57.26 930.66,-314.22 1957.97,-267.97 358.49,16.15 268.16,-9.14 314.5,-55.67 -22.42,-6.31 -39.13,-13.33 -64.14,-25.43 -16.86,-8.2 -42.62,5.79 -54.63,-30.52 -4.57,-13.85 -19.27,-12.34 -29.01,-18.27 -82.38,128.81 84.58,52.18 -167.29,100.55 -134.55,25.85 -426.17,-86.19 -525.07,-99.05 -131.68,-17.19 -273.11,-1.88 -394.67,-8.85 -140.91,-8.05 -63.06,10.93 -161.87,-34.85l-125.79 -90.05c175.57,-168.46 172.47,-11.91 487.11,-280.93 246.6,-210.84 307.73,-29.15 561.48,11.92 -82.23,-101.12 -65.04,-53.83 -159.79,-138.65 -177.32,-158.67 8.47,-81.34 -152.41,-118.35l111.06 -276.03 340.55 3.44c-396.74,-193.1 -1039.27,106.76 -1320.86,260.53 -515.04,281.26 -267.55,197.71 -486.31,339.8 -173.08,112.46 -371.78,137.19 -403.1,397.68 48,127.2 134.65,124.99 148.97,332.16 12.34,177.84 -62.17,172.52 -95.13,341.4 39.74,29.77 55.95,38.15 109.31,74.56z"/>
  <path class="fil6" d="M4153.21 14459.68c114.49,17.14 43.94,28.12 106.35,-26.28 -105.55,-134.98 -222.58,-231.66 -227.24,-470.21 97.96,24.59 481.51,325.39 421.27,31.42 -135.54,-224.09 -832.75,-566.38 -1090.88,-611.59 -153.39,22.28 -561.62,-30.14 -706.68,-91.74 -47.09,447.6 226.49,590.91 512.88,999.89 32.49,46.39 106.25,112.7 154.38,161.87l59.81 60.85c44.36,49.02 33.53,18.32 65.32,86.09 21.38,45.54 47.62,202.18 66.17,257.85 393.06,10.97 167.95,-10.03 338.43,-198.56 77.01,-85.19 187.63,-116.75 300.19,-199.59z"/>
  <path class="fil7" d="M15898.11 12091.98c98.71,-27.08 233.78,-98.72 324.39,-112.19l232.75 -267.45c531.48,-496.11 -7.39,-589.36 -668.01,-1187.44 -205.67,-186.17 -386.09,-213.58 -543.2,-333.77 -477.98,73.47 162.43,681.81 234.11,877.4l195.97 530.3c87.03,209.49 -7.63,483.16 223.99,493.15z"/>
  <path class="fil0" d="M17343.91 12859.88c115.33,-9.23 257.05,-109.08 388.59,-149.06 185.6,-56.42 323.64,-74.04 488,-142.89 9.24,-192.01 -6.02,-351.34 -37.34,-524.79 -29.53,-163.71 -109.88,-295.62 -118.97,-479.72 -14.69,-298.07 -50.01,-636.5 -317.47,-774.59l-285.59 -6.5 -28.97 184.29c-80.15,233.78 1.46,107.85 -54.3,348.08l-83.87 683.65c20.39,165.26 34.89,50.77 64.8,243.34 36.78,236.85 -39.84,386.62 -14.88,618.19z"/>
  <path class="fil6" d="M8768.29 14686.35c210.52,-17.14 169.45,-113.45 407.05,19.45 202.56,113.32 141.2,98.62 420.57,138.98 691.51,99.99 293.22,769.08 896.05,314.7 97.67,-73.66 612.01,-309.47 669.23,-494.79 48.98,-61.79 25.86,-27.98 77.29,-70.74l136.1 -104.88c5.84,-4.81 27.74,-25.43 37.3,-34.66 -84.67,-119.58 -60.33,-80.96 -178.21,-169.13 -630.24,-471.57 -437.8,381.62 -1441.18,153.73 -176.52,-40.08 -436.53,-186.69 -610.84,-109.64 -9.51,4.19 -381.66,263.64 -413.36,356.98z"/>
  <path class="fil7" d="M17043.81 15459.91l48.09 96.68c4.05,12.2 6.64,22.09 10.07,35.04l53.6 448.31c-185.46,26.51 -622.37,63.01 -694.57,238.35 -86.42,209.91 94.05,316.25 123.11,408.56 110.25,86.99 88.73,78.32 136.15,195.21 150.9,372.16 91.74,140.3 422.03,262.61 145.57,-572.64 161.07,-143.12 140.67,-946.58 -6.35,-249.66 220.13,-110.25 -67.48,-864.73 -47.95,-134.41 -75.55,-242.64 -120.29,-412.89 -63.11,-240.19 -124.52,-192.48 -252.2,-327.56 190.88,-192.9 322.19,-467.66 532.47,-662.16 70.22,-107.2 111.76,-186.93 180.24,-282.58 47.09,-65.84 69.32,-72.86 113.55,-125.13 94.42,-111.72 62.63,-10.46 79.92,-158.34 -344.37,13.66 -1130.68,859.69 -1137.42,1028.86 47.9,133.33 94.29,153.53 168.79,285.63 172.94,306.69 32.55,98.72 212.69,232.71l-27.13 54.67c-60.85,164.28 47.85,229.69 77.71,493.34z"/>
  <path class="fil7" d="M11039.21 19663.51l-97.63 47.52c-67.91,204.3 -220.97,309.65 -119.53,556.91 101.21,246.73 -66.26,274.94 210.76,475.99 299.48,217.4 730.83,315.45 1034.18,21.62 117.88,38.24 82.7,-6.87 114.87,110.11 24.49,-211.27 83.4,-254.79 77.33,-540.8l-351.86 -226.67c-129.93,-78.98 -224.83,1.13 -367.67,-107.85 -77.57,-59.16 -29.49,2.82 -77.15,-85.06 -83.5,9.98 -42.15,14.22 -86.23,41.07 -7.21,4.38 -17.52,11.58 -25.1,16.43 -8.39,5.33 -19.5,13.33 -27.51,18.56l-60.52 40.41c-2.54,-32.69 -40.73,-85.67 -21.71,-152.03 1.46,-5.18 7.49,-14.36 9.61,-19.92 50.3,-132.95 66.08,-75.12 69.23,-282.34l-281.07 86.05z"/>
  <path class="fil1" d="M6929.29 12140.86l-74.98 -1.46c-504.59,-12.53 -59.01,193.47 -431.82,154.48 -66.83,-7.02 -255.88,-101.17 -427.12,-115.39 184.38,138.75 558.09,213.96 672.77,292.28 74.55,50.86 567.88,775.72 1299.38,284.18 116.51,-78.28 175.81,-107.52 281.63,-197.01 153.58,-129.84 132.62,-74.69 341.59,-141.9 8.66,-2.77 23.17,-6.73 33.34,-12.95 -106.15,5.89 -224.88,44.18 -249.13,-87.13 -21.86,-118.39 48.17,-102.43 74.36,-274.8 -304.15,0 -508.07,55.95 -765.36,77.66 -250.97,21.19 -501.15,-22.46 -754.66,22.04z"/>
  <path class="fil2" d="M4251.31 7891.81c-102.9,-2.87 -527.52,209.82 -603.67,629.49 -29.44,162.01 -73.9,206.37 -115.67,344.18 330.38,92.26 78.56,133.47 309.42,288.13 157.16,105.26 317.43,10.41 463.43,-21.24 -3.77,154.99 -41.03,159.75 -2.27,227.8 86.28,-146.61 449.44,-680.82 478.69,-795.21 -35.46,97.01 -105.36,98.71 -229.31,112.42 59.43,-463.52 163.66,-297.84 263.03,-633.82 -327.69,143.5 -130.17,1.03 -144.26,-126.27l-33.29 -160.78 -386.1 135.3z"/>
  <path class="fil7" d="M14202.79 22229.81c196.58,-137.47 2.97,-265.62 347.52,-241.65 147.84,220.32 19.88,498.84 -88.68,684.54 -52.23,89.34 -86.56,179.06 -134.5,266.66 -51.62,94.33 -122.64,162.01 -154.15,266.47 49.31,90.9 17.66,4.33 18.93,148.4 9.42,-7.11 22.84,-30.24 27.08,-22.75l87.18 -96.07c19.64,-28.78 43.14,-82.33 69.37,-130.55 109.03,-200.35 376.53,-652.85 608.43,-645.74l-12.01 202.75c256.02,-107.52 332.6,-37.82 447.89,190.98 68.9,136.67 174.91,234.16 211.03,432.71 -93.25,126.27 -177.45,201.29 -377.71,204.82 144.64,76.91 159.71,77.43 334.86,31.46 75.77,-135.96 89.57,-186.31 82.18,-397.58 -8.81,-252.67 -32.07,-202.7 -142.32,-341.21 -295.63,-371.21 169.31,-443.41 170.81,-443.97 118.97,-44.7 46.39,-1.32 86.71,-49.78 -196.77,7.25 -221.36,5.46 -313.99,-128.29 -111.95,-161.68 -92.78,-109.31 -200.49,-233.22 -147.32,-169.45 -260.44,-341.07 -464.6,-437.2 -138.79,226.25 57.08,140.87 -185.09,290.3 17.14,-165.16 65.46,-201.1 81.48,-405.63 -220.18,81.57 -64.81,3.95 -218.29,175.48 -244.76,273.44 -131.59,-132.86 -281.64,679.07z"/>
  <path class="fil8" d="M17375.46 13930.75c-210.28,194.5 -341.59,469.26 -532.47,662.16 127.68,135.08 189.09,87.37 252.2,327.56 44.74,170.25 72.34,278.48 120.29,412.89 72.1,37.63 80.39,-34.43 61.03,43.84 32.26,-351.14 117.41,-237.88 300.24,-429.89 197.76,-207.55 727.68,-1142.55 622.18,-1494.87 -213.15,37.44 -437.71,187.25 -599.57,321.85l-223.9 156.46z"/>
  <path class="fil1" d="M8927.81 22129.4c46.34,120.1 47.04,153.82 150.37,239.25 269.11,304.57 339.19,517.4 795.6,633.73l442.42 179.38c164.45,104.51 179.38,227.1 441.85,338.91 21.66,-270.8 105.68,-238.73 -94.57,-490.98l-183.3 -200.82c-6.64,-11.2 -27.45,-52.13 -33.95,-63.67l-42.86 -74.55c-68.43,15.12 124.1,65.65 -80.72,1.93 -105.5,-32.83 -76.58,-33.16 -108.56,-52.98 -379.36,-121.51 -559.03,-235.81 -772.84,-464.65 -112.56,-120.48 -185.23,-214.57 -274.76,-368.95 -59.91,-103.29 -124.38,-251.97 -222.3,-354.87 -108.41,-65.09 -122.3,-174.96 -183.15,-51.1 -47,95.74 -36.64,404.84 35.51,545.18 6.31,12.29 57.27,92.59 60.52,97.21 44.55,64.05 -27.65,5.74 70.74,86.98z"/>
  <path class="fil6" d="M6554.45 19487.13c9.42,7.96 19.92,19.31 26.23,26.09l117.84 148.68c36.78,54.49 55.52,83.74 94.71,138.37 210.66,293.74 187.11,355.15 475.01,558.23 163.04,115.01 118.07,152.54 232.23,283.14 179.76,6.12 297.88,-25.01 355.01,-200.53l-348.33 -106.25c-6.54,-166.91 124.2,-362.64 93.63,-550.37 -23.08,-141.61 -180.33,-210.47 -283.66,-422.68 -83.5,-64.38 -54.63,-25.06 -64.05,-97.11l-273.39 -247.49c-60.94,-38.76 -120.8,-102.91 -178.92,-147.46 -166.86,-127.96 -175.9,-55.2 -178.68,-55.06l-71.54 22.61c-107.19,259.78 33.72,379.69 3.91,649.83z"/>
  <path class="fil1" d="M14730.36 21342.1c27.08,60 49.17,69.23 75.97,148.49 204.16,96.13 317.28,267.75 464.6,437.2 107.71,123.91 88.54,71.54 200.49,233.22 92.63,133.75 117.22,135.54 313.99,128.29 -29.63,-136.25 -58.54,-209.72 -143.46,-291.67 -150.99,-145.81 -128.19,-24.49 -202.32,-262.98 247.39,79.31 656.14,546.59 418.92,-190.41 -34.34,-106.72 -391.65,-602.27 -561.76,-640.04l-507.23 -47c-43.09,65.37 -95.27,122.73 -143.45,167.61 14.55,201.62 14.93,140.92 84.25,317.29z"/>
  <path class="fil5" d="M10214.09 22639.6l410.35 60.56c162.95,51.57 80.25,58.02 229.59,4.57 46.58,-215.89 -9.28,-152.31 -129.32,-319.08 -381.72,-173.69 -554.65,-397.39 -820.32,-594.68 -142.56,-105.82 -345.55,-133.14 -499.97,-222.15 -85.06,-48.93 -135.92,-90.09 -228.84,-140.68 -87.88,-47.8 -174.68,-53.68 -231.39,22.99 97.92,102.9 162.39,251.58 222.3,354.87 89.53,154.38 162.2,248.47 274.76,368.95 213.81,228.84 393.48,343.14 772.84,464.65z"/>
  <path class="fil1" d="M13138.85 3452.97c-9.85,14.69 -35,62.5 -41.26,75.92 -2.83,6.07 -7.63,17.66 -10.31,23.78 -2.5,5.7 -6.31,17.05 -8.62,22.56 -135.64,323.13 -147.27,69.47 -176.33,370.98 602.55,203.4 998.72,713.55 1201.37,799.97 199.22,84.96 353.46,137.66 478.87,-82.04 -70.59,-90.95 -101.25,-81.24 -173.92,-174.31l-112.28 -174.96c-135.82,-217.53 -155.74,-342.9 -264.44,-522.62 -313.43,2.64 -278.48,39.32 -541.23,-63.72l-45.73 -259.5 -306.12 -16.06z"/>
  <path class="fil6" d="M13058.97 24482.04c-111.8,-144.45 -7.44,-141.67 -160.17,-263.41 -116.94,-93.2 -158.43,-36.92 -222.81,-189.18 -275.99,-121.18 -74.65,19.02 -232.23,-152.03 -98.86,-107.29 -92.74,-102.81 -259.93,-133.19 19.41,245.04 63.25,505.11 116,738.7 70.46,311.97 -56.84,521.87 34.57,734.46 179.15,66.55 95.65,49.31 280.93,29.86 421.37,-44.27 312.34,-138.22 433.52,-400.03 87.08,-188.15 121.03,-132.58 10.12,-365.18z"/>
  <path class="fil0" d="M11451.3 12269.39c49.55,22.18 176.94,58.77 240.43,92.96 164.55,88.59 278.48,225.26 745.53,260.96 123.72,9.42 791.07,-79.68 942.95,-187.49 132.39,-94 65.66,-51.61 113.32,-123.95 -284.23,110.53 -441.72,86.32 -688.83,-1.93 109.4,-227.52 248.01,-177.27 667.77,-350.12 160.32,-66.02 133.8,-79.54 197.9,-158.14 -92.49,-68.95 146.66,-108.28 -184.8,-45.4l-0.71 -17.34 -204.77 121.14c-842.13,284.08 -1216.63,-122.12 -1433.18,61.22 43,84.16 -8.57,38.01 135.97,126.78l176.42 117.84c8.95,-10.22 27.41,21 38.19,34.33 -101.58,0 -331.22,-12.2 -420.33,5.46 -142.51,28.31 -63.72,90.14 -325.86,63.68z"/>
  <path class="fil1" d="M5215.32 6936.99c139.03,124.85 283.66,168.37 424.05,297.74 148.26,136.67 311.07,204.63 417.65,340.27 173.27,-50.44 8.53,-14.46 140.63,-53.88 123.63,-36.83 160.88,-8.76 248.9,-119.06 73.8,-92.45 144.68,-241.18 -42.34,-231.38l-426.92 29.95c-7.11,-64.9 -2.26,72.63 10.17,-23.03l-7.72 -360.23c101.96,-99.33 179.43,-124.76 300.42,-199.36l4.71 -265.48c-247.58,-150.76 -438.04,-65.75 -673.94,56.56 -168.93,87.6 -398.01,286.06 -395.61,527.9z"/>
  <path class="fil3" d="M16546.76 17052.55c39.14,176.05 124.33,175.9 147.13,410.54 17.94,185.22 8.62,405.26 -11.4,559.03 -37.44,203.92 -64.85,135.02 -150.14,302.12 -57.13,111.85 -58.73,231.61 -87.79,381.24 270,-60.14 340.84,-214.24 436.53,-381.62 82.23,-143.78 159.42,-437.15 300.95,-539.16 118.54,104.75 -1.93,9.71 82.79,110.21 78.23,92.83 2.78,60.61 116.57,95.6 96.26,-250.88 50.81,-844.19 -239.11,-845.84 -330.29,-122.31 -271.13,109.55 -422.03,-262.61 -47.42,-116.89 -25.9,-108.22 -136.15,-195.21 -14.23,123.58 -13.8,-42.72 -19.41,148.59 -3.25,110.63 -0.42,93.34 -17.94,217.11z"/>
  <path class="fil2" d="M9431.64 22889.3c55.76,73.37 180.05,131.44 300.19,184.24l701.26 382.18c201.38,176.05 69.89,245.89 209.29,367.77l13.33 87.04c186.97,18.55 192.53,-34.99 259.78,63.53l125.84 154.76c227.81,-6.5 319.64,-171.81 279.33,-400.88 9.04,-260.49 -238.59,-508.55 -330.57,-693.87 -140.3,-94.85 -52.65,-89.81 -180.28,-197.19 -101.07,-85.01 -96.36,-20.58 -185.37,-136.72l-410.35 -60.56c31.98,19.82 3.06,20.15 108.56,52.98 204.82,63.72 12.29,13.19 80.72,-1.93l42.86 74.55c6.5,11.54 27.31,52.47 33.95,63.67l183.3 200.82c200.25,252.25 116.23,220.18 94.57,490.98 -262.47,-111.81 -277.4,-234.4 -441.85,-338.91l-442.42 -179.38c-456.41,-116.33 -526.49,-329.16 -795.6,-633.73 56.99,100.41 82.19,167.85 151.51,264.63 62.03,86.52 16.81,23.83 85.67,102.53l116.28 153.49z"/>
  <path class="fil7" d="M15763.84 7811.04l0.61 105.92c-33.72,188.86 -115.06,741.72 -194.6,836.43 -75.5,89.76 -464.79,202.84 -249.56,681.43 140.11,-132.76 51.14,-394.33 244.09,-211.6 124.53,117.93 135.83,240.47 308.81,307.53 19.17,-871.22 133.71,-1073.22 179.34,-2013.11 180.48,94.14 -119.71,37.91 190.41,77.8 -0.94,-127.4 12.72,-175.29 -43.47,-269.81 -68,-114.4 -101.11,-94.95 -198.74,-132.53 -43.52,96.03 -74.6,184.33 -106.34,297.55 -15.97,56.94 -24.68,105.92 -41.45,156.69 -27.93,84.82 2.26,18.18 -34.71,87.74 -39.84,74.93 -5.41,23.26 -54.39,75.96z"/>
  <path class="fil5" d="M4484.82 15976.31c396.83,222.58 583.33,797.43 729.32,850.79 198.47,72.48 190.13,-139.26 188.29,-287.19 -7.53,-140.68 -98.24,-664.43 -197.61,-775.86 -190.55,-213.77 -641.26,-50.11 -913.47,-58.4 63.81,156.88 125.65,140.44 193.47,270.66z"/>
  <path class="fil0" d="M6891.7 3021.85c-57.5,103.57 -76.06,132.01 -135.82,227.66 -24.4,39.05 -31.41,51.2 -60.71,96.83 -74.6,116.14 -265.48,329.49 191.59,435.41l167.61 -444.68c23.5,-59.06 848.11,-661.75 1115.99,-446.19 47.66,-63.44 65.04,104.98 33.16,-123.72 -170.4,-336.88 -595.11,-147.98 -695.61,-125.8 -149.58,33.02 -482.5,-3.53 -616.21,380.49z"/>
  <path class="fil1" d="M3610.24 7429.94c5.75,-6.31 13.19,-26.37 15.12,-20.77l192.58 -239.01c5.18,-7.72 11.49,-17.19 16.01,-25.62l31.7 -92.87c65.32,-217.35 368.9,-599.25 527.42,-742.66 107.48,-97.25 305.99,-182.68 355.53,-330.24 -185.65,16.44 -240.66,40.55 -337.49,149.06l-230.68 262.09 201.67 -482.97c-316.16,97.35 -556.02,337.96 -701.35,567.93 -120.99,191.4 -221.54,508.36 -206.1,738.85 11.92,178.25 20.11,140.11 135.59,216.21z"/>
  <path class="fil3" d="M5178.63 5662.15c214.2,83.92 138.56,98.71 428.3,92.97 44.08,181.65 19.63,115 144.91,148.58 189.42,-124.19 61.55,33.77 156.08,-243.25 47.99,-140.58 50.44,-147.78 158.38,-224.69 311.63,-222.06 397.07,-238.07 407.85,-470.44 -279.33,1.74 -287.71,88.21 -471.43,196.62 -139.17,82.18 -366.55,101.87 -503.93,127.82 -45.73,-97.54 -66.12,-551.78 -265.67,-296.94 -89.24,113.93 -51,505.67 -54.49,669.33z"/>
  <path class="fil6" d="M10990.09 23034.07c91.98,185.32 339.61,433.38 330.57,693.87 272.17,-33.87 719.53,-85.15 570.76,-446.8 -69.52,-168.98 -151.84,-239.77 -279.28,-528.61 -57.23,-129.65 -83.03,-149.34 -211.94,-184.71 -195.49,189.66 -118.25,81.57 -80.72,396.78l-329.39 69.47z"/>
  <path class="fil2" d="M9217.87 17634.47l-4.85 185.18c211.6,51.99 1344.64,194.18 1579.93,118.07l428.71 -139.92c8.57,-3.02 22.51,-8.1 32.17,-14.93 -207.36,-244.19 -693.77,-192.01 -993.16,-152.69 -296.94,39 -276.88,-59.81 -480.52,-38.05 -224.08,23.88 -341.45,30.8 -562.28,42.34z"/>
  <path class="fil7" d="M8990.21 24839.68l-17.38 69.57c103.09,69.56 225.4,214.75 286.86,347.66 -175.62,157.3 -358.45,468.46 -333.3,780 238.45,29.48 311.5,-16.67 367.73,-236.23 21.9,-85.43 34.33,-170.58 54.44,-249.99l97.82 -219.42c534.07,79.08 163.75,27.6 552.67,27.6l-124.71 -110.86c-344.27,-236.57 -137.76,-125.37 -318.42,-275.56l-185.74 -178.35c-72.77,-89.3 -116.75,-142.85 -242.83,-174.82 -74.69,161.86 -14.13,111.09 -137.14,220.4z"/>
  <path class="fil2" d="M5816.74 22806.88l160.74 291.29c149.76,108.51 36.45,28.12 137.85,147.74 260.2,85.81 298.11,296.89 502.75,478.54 75.96,67.49 126.83,103.66 236.98,37.91 27.74,-16.57 102.63,-75.63 131.02,-106.01l84.35 -110.53c-286.2,-120.48 -187.34,-108.23 -226.43,-200.35 -186.55,-138.27 -332.97,-224.13 -498.37,-389.06 -165.83,-165.4 -299.91,-371.49 -547.35,-405.36l18.46 255.83z"/>
  <path class="fil0" d="M15764.45 7916.96l-0.61 -105.92c-21.1,-219.32 65.55,-214.24 -14.84,-436.67l-240 -60.52 -112.94 193.8c-82.13,119.11 -36.92,-16.34 -138.55,147.08l1.5 1158.85c473.74,-449.77 294.54,-439.5 407.01,-741.81l28.44 -63.02c42.39,-75.87 21.06,-43.89 69.99,-91.79z"/>
  <path class="fil0" d="M12074.01 11128.58c366.59,-13.85 1117.91,-161.68 1510.79,123.72 94.76,68.81 214.94,222.58 321.76,263.5 -9.8,-617.99 -822.96,-771.33 -1419.66,-710.63 -316.06,32.17 -380.68,13.8 -412.89,323.41z"/>
  <path class="fil1" d="M7740.52 10857.31c-460.27,-280.79 -99.24,-249.8 -326.1,-401.26 -253.75,-41.07 -314.88,-222.76 -561.48,-11.92 -314.64,269.02 -311.54,112.47 -487.11,280.93l125.79 90.05c98.81,45.78 20.96,26.8 161.87,34.85 121.56,6.97 262.99,-8.34 394.67,8.85 98.9,12.86 390.52,124.9 525.07,99.05 251.87,-48.37 84.91,28.26 167.29,-100.55z"/>
  <path class="fil3" d="M6929.29 12140.86c253.51,-44.5 503.69,-0.85 754.66,-22.04 257.29,-21.71 461.21,-77.66 765.36,-77.66 -26.19,172.37 -96.22,156.41 -74.36,274.8 24.25,131.31 142.98,93.02 249.13,87.13l36.64 -54.44c-148.87,10.31 -102.43,30.89 -212.87,-28.59 33.34,-271.22 121.93,37.77 205.72,-290.39l-245.61 -36.88c102.25,-241.88 -52.47,-212.68 -275.56,-224.32 -236,-12.38 -272.83,-112.56 -487.49,-14.78l-715.62 387.17z"/>
  <path class="fil6" d="M6057.21 20160.74c426.78,228.94 101.59,222.3 558.04,502.57 84.49,-35.09 206.19,-101.87 287.76,-147.89l-45.73 -300.19 -247.49 -133.47c-164.84,-17.84 -314.84,-109.54 -457.96,-201.8 -142.61,-91.93 -225.36,-218.9 -342.77,-263.03 -123.77,-15.92 29.15,191.02 71.07,258.13 51.1,81.76 55.38,80.68 102.95,142.8 79.45,103.75 83.55,28.72 74.13,142.88z"/>
  <path class="fil2" d="M6979.68 19017.21l273.39 247.49 0.19 -83.55c138.27,103 101.63,94.85 302.78,100.74 -30.85,-239.25 -75.87,-202.94 -198.18,-367.64 -112.04,-150.94 -208.21,-456.73 -338.53,-658.16 -130.36,-201.43 -34.38,-228.65 -124.94,-367.68 -147.79,53.92 -49.5,-81.66 -134.93,123.72 -68.48,164.65 156.17,729.99 228.18,912.63 41.73,105.87 106.44,26.8 -7.96,92.45z"/>
  <path class="fil3" d="M4391.61 8963.58c129.09,-260.49 79.64,-232.89 -81.52,-437.34 -124,-157.3 -117.55,-416.18 -409.92,-301.03 -127.45,50.2 -124.15,112.46 -112.94,262.75 26.42,353.03 187.91,594.06 604.38,475.62z"/>
  <path class="fil4" d="M16222.5 11979.79c-90.61,13.47 -225.68,85.11 -324.39,112.19 -5.04,10.07 -15.45,12.24 -18.37,28.35 -27.55,150.89 4.9,-18.13 -35.09,55.81 -243.06,449.1 297.74,438.7 564.68,171 84.31,-84.58 308.25,-346.11 335.09,-505.38 -65.79,33.53 14.18,40.22 -63.72,-15.41l-29.62 -31.6c-4.19,-4.33 -20.11,-29.67 -27.32,-40.83 -64.19,92.26 -152.21,110.54 -223.56,230.3l-177.7 -4.43z"/>
  <path class="fil6" d="M14191.91 23354.23c-51.47,112.94 -93.58,246.12 -82.04,410.44 261.15,-16.29 138.56,-17.71 282.15,-238.63l579.94 -864.17 12.01 -202.75c-231.9,-7.11 -499.4,445.39 -608.43,645.74 -26.23,48.22 -49.73,101.77 -69.37,130.55l-87.18 96.07c-4.24,-7.49 -17.66,15.64 -27.08,22.75z"/>
  <path class="fil3" d="M2472.22 12439.5c-114.4,-337.02 -282.72,-214.15 -300.85,-693.4 -280.13,-24.11 -243.72,-113.03 -436.63,-220.08 35.37,222.77 -174.02,495.59 90.99,633.82 69.18,36.03 239.58,96.74 322.8,132.91 129.65,56.32 187.86,96.92 323.69,146.75z"/>
  <path class="fil3" d="M10430.83 16394.71c149.67,65.28 148.96,23.27 306.92,38.86 147.98,14.55 157.26,46.95 303.39,56.28 129.24,8.24 223.8,-21.34 360.01,1.03 101.72,16.72 51.14,3.58 126.31,42.86l109.64 74.32c7.16,4.94 18.69,14.79 29.15,20.34 -95.65,-279.65 -35.7,-565.43 -146.42,-754.14 -223.61,183.95 -181.04,570.14 -558.23,562.56 -174.59,-84.82 -272.55,-264.78 -318.98,-454.95 -146.28,-17.94 -104.84,-28.49 -187.59,46.53 80.96,174.11 211.04,52.98 193.99,354.59l-218.19 11.72z"/>
  <path class="fil3" d="M11675.62 3369.61c145.06,-84.68 441.43,-365.37 389.58,-603.35l-180.28 0.94c-90.38,50.82 -136.72,108.18 -227.05,200.54 -103.76,106.06 -151.7,135.02 -144.92,347l162.67 54.87z"/>
 </g>
</svg>
