<?xml version="1.0" encoding="UTF-8"?>
<!DOCTYPE svg PUBLIC "-//W3C//DTD SVG 1.0//EN" "http://www.w3.org/TR/2001/REC-SVG-20010904/DTD/svg10.dtd">
<!-- Creator: CorelDRAW -->
<svg xmlns="http://www.w3.org/2000/svg" xml:space="preserve" width="297mm" height="210mm" version="1.0" style="shape-rendering:geometricPrecision; text-rendering:geometricPrecision; image-rendering:optimizeQuality; fill-rule:evenodd; clip-rule:evenodd"
viewBox="0 0 29700 21000"
 xmlns:xlink="http://www.w3.org/1999/xlink"
 xmlns:xodm="http://www.corel.com/coreldraw/odm/2003">
 <defs>
  <style type="text/css">
   <![CDATA[
    .fil0 {fill:black;fill-rule:nonzero}
   ]]>
  </style>
 </defs>
 <g id="Слой_x0020_1">
  <metadata id="CorelCorpID_0Corel-Layer"/>
  <g id="_2550229612080">
   <path class="fil0" d="M3758.3 15813.57l0 431.79c0,122.94 0,231.26 0,323.47 1.46,92.21 1.46,171.25 2.94,234.19 0,64.4 1.46,120.02 1.46,166.85 1.46,46.84 1.46,86.36 2.94,121.49 1.46,33.66 2.93,65.86 4.4,96.6 1.46,39.52 5.86,71.72 14.68,95.14 7.33,23.42 27.88,42.45 61.63,58.55 32.28,14.63 83.65,26.34 154.09,35.13 70.44,8.78 168.77,16.1 294.97,24.88l-86.58 190.28c-16.14,-1.47 -48.43,-2.93 -98.33,-7.32 -48.42,-2.93 -107.13,-5.86 -176.1,-7.32 -67.51,-2.93 -142.35,-5.86 -221.59,-7.32 -80.72,-2.93 -159.97,-4.39 -236.28,-4.39 -93.92,0 -183.44,1.46 -268.56,4.39 -85.11,2.93 -159.96,7.32 -226,10.25 -66.03,4.39 -120.34,7.32 -161.42,11.71 -42.57,5.85 -68.98,8.78 -77.78,8.78 0,-13.17 2.93,-30.74 7.33,-55.62 5.88,-23.42 22.02,-48.3 49.9,-73.19 27.89,-26.34 70.45,-49.76 127.68,-71.72 57.23,-21.95 139.41,-36.59 245.07,-45.37 13.22,-143.44 20.54,-324.94 22.02,-545.95 2.94,-221.01 4.4,-490.33 4.4,-809.41l0 -102.46c-316.98,0 -619.3,1.46 -908.41,5.86 -289.09,4.39 -570.86,11.7 -846.76,20.49 0,216.62 1.48,398.12 1.48,544.48 1.46,147.83 1.46,269.32 2.92,364.46 0,96.6 1.48,171.25 2.94,225.4 1.47,55.62 2.94,98.07 5.88,130.27 2.92,39.52 8.8,71.72 16.14,95.14 7.34,23.42 27.88,42.45 58.69,57.08 32.29,16.1 80.72,27.81 145.29,36.6 66.04,8.78 157.03,16.1 274.43,24.88l-86.58 190.28c-14.68,-1.47 -46.97,-2.93 -92.46,-7.32 -46.96,-2.93 -102.73,-5.86 -168.77,-7.32 -64.57,-2.93 -136.48,-5.86 -215.73,-7.32 -79.23,-2.93 -157.02,-4.39 -233.33,-4.39 -95.39,0 -186.38,1.46 -272.95,4.39 -88.06,2.93 -167.3,7.32 -236.29,10.25 -68.97,4.39 -126.2,7.32 -170.22,11.71 -46.97,5.85 -73.38,8.78 -80.71,8.78 0,-13.17 2.92,-30.74 8.8,-55.62 4.4,-23.42 20.54,-48.3 49.89,-73.19 29.36,-26.34 74.85,-49.76 137.95,-71.72 63.11,-21.95 152.62,-36.59 268.56,-45.37 5.87,-60.01 10.27,-136.12 13.2,-226.87 4.4,-92.21 7.34,-188.81 8.82,-294.2 2.92,-103.92 4.4,-210.77 4.4,-319.08l0 -888.45c0,-163.93 -1.48,-302.98 -1.48,-417.15 -1.46,-115.63 -1.46,-209.3 -2.92,-282.49 -1.48,-74.64 -2.94,-134.65 -4.42,-182.96 -1.46,-49.76 -2.92,-87.82 -4.4,-118.55 -1.46,-29.28 -2.93,-58.55 -4.4,-84.9 -2.93,-40.98 -7.34,-71.72 -14.67,-95.14 -5.87,-23.41 -24.95,-40.98 -54.3,-52.69 -30.82,-13.17 -77.77,-23.42 -140.88,-32.2 -64.57,-7.32 -154.09,-16.1 -271.49,-26.34l71.91 -193.21c11.74,2.93 42.55,5.86 92.45,8.78 48.43,2.93 108.59,5.86 177.56,8.78 67.51,2.93 140.89,4.4 220.14,5.86 77.78,1.46 151.15,2.93 220.13,2.93 108.6,0 208.39,-1.47 299.38,-5.86 90.98,-2.93 170.22,-5.85 236.27,-10.24 64.57,-2.93 117.4,-7.32 155.56,-10.25 39.62,-4.39 61.63,-5.85 64.57,-5.85 0,16.1 -2.94,36.59 -8.81,61.47 -7.34,24.88 -24.95,49.77 -55.76,74.65 -29.36,24.88 -74.85,48.3 -136.48,68.79 -60.18,21.96 -145.29,36.59 -253.89,46.84 -5.87,76.11 -10.28,155.15 -14.68,235.65 -2.93,80.5 -5.86,172.71 -7.34,275.17 -1.46,100.99 -1.46,218.09 -2.92,348.36 0,131.73 -1.48,283.95 -1.48,458.13 283.23,-13.18 567.94,-23.42 855.58,-29.28 289.1,-7.32 588.47,-11.71 899.59,-14.63 0,-194.67 -1.46,-355.68 -2.94,-481.55 -1.46,-127.34 -2.94,-231.26 -4.4,-311.77 -1.46,-81.96 -2.94,-147.83 -4.4,-196.13 -2.94,-48.3 -4.4,-92.21 -5.88,-130.27 -2.92,-40.98 -8.8,-71.72 -16.14,-95.14 -7.33,-21.95 -26.41,-40.98 -55.77,-52.69 -29.34,-13.17 -73.37,-23.42 -133.54,-32.2 -60.16,-7.32 -142.35,-16.1 -250.94,-26.34l73.38 -193.21c11.73,2.93 41.09,5.86 89.51,8.78 48.43,2.93 105.66,5.86 171.7,8.78 67.51,2.93 137.96,4.4 215.73,5.86 76.31,1.46 148.22,2.93 217.19,2.93 111.53,0 212.8,-1.47 305.25,-5.86 93.92,-2.93 174.64,-5.85 243.61,-10.24 68.97,-2.93 123.28,-7.32 162.9,-10.25 41.09,-4.39 61.63,-5.85 64.57,-5.85 0,16.1 -2.94,36.59 -8.8,61.47 -5.88,24.88 -23.49,49.77 -54.31,74.65 -30.82,24.88 -79.24,48.3 -145.28,68.79 -66.04,21.96 -158.49,36.59 -277.37,46.84 -5.86,81.96 -10.26,165.39 -13.2,253.21 -4.4,87.82 -7.34,185.89 -8.8,297.13 -1.48,111.24 -1.48,237.12 -2.94,379.09 0,141.98 0,308.84 0,497.65zm1847.61 102.46l0 825.51c0,108.31 1.47,196.13 2.94,267.85 1.46,71.72 2.94,121.49 5.87,147.83 2.93,40.99 11.73,74.65 24.95,98.07 13.2,23.42 36.68,40.98 70.43,52.69 32.3,13.18 77.79,20.49 135.02,23.42 57.24,4.39 130.61,5.86 221.6,5.86 135.01,0 250.95,-2.93 350.74,-10.25 98.32,-5.85 184.91,-19.03 256.82,-36.59 73.37,-19.03 136.47,-45.37 190.78,-79.04 54.29,-35.13 102.72,-80.5 145.28,-136.12 42.56,-57.08 83.65,-125.88 121.81,-204.92 39.61,-80.5 80.71,-175.64 124.73,-288.34l193.71 43.91c-33.75,153.69 -64.57,285.42 -89.51,392.27 -26.42,108.31 -49.9,197.59 -71.91,270.78 -20.54,71.72 -42.56,128.8 -61.64,171.25 -20.55,42.44 -42.55,73.18 -66.04,93.67 -23.48,21.96 -49.9,35.13 -79.24,39.52 -29.35,5.85 -64.57,8.78 -104.2,8.78 -32.28,0 -80.71,0 -148.22,-2.93 -67.5,-1.46 -145.29,-4.39 -234.8,-7.31 -88.05,-2.93 -186.38,-5.86 -290.58,-8.79 -105.65,-1.46 -212.78,-4.39 -321.38,-7.31 -107.13,-2.93 -214.26,-5.86 -318.46,-7.32 -104.19,-1.47 -201.04,-2.93 -290.57,-2.93 -253.88,0 -446.12,5.85 -575.27,17.56 -132.08,11.71 -212.79,17.57 -242.14,17.57 0,-13.17 2.93,-30.74 8.81,-55.62 4.4,-23.42 20.54,-48.3 49.89,-73.19 29.36,-26.34 74.85,-49.76 137.95,-71.72 63.11,-21.95 152.62,-36.59 268.56,-45.37 5.87,-60.01 10.27,-136.12 13.2,-226.87 4.4,-92.21 7.34,-190.28 8.81,-294.2 2.93,-103.92 4.41,-210.77 4.41,-319.08l0 -891.38c0,-162.46 -1.48,-301.51 -1.48,-417.14 -1.46,-114.17 -1.46,-209.31 -2.93,-282.49 -1.47,-73.19 -2.93,-134.66 -4.41,-182.96 -1.46,-48.3 -2.93,-87.82 -4.4,-118.56 -1.46,-29.27 -2.93,-58.55 -4.4,-84.89 -2.93,-40.99 -7.34,-71.72 -14.67,-95.14 -5.87,-23.42 -24.95,-40.99 -54.3,-54.16 -30.82,-11.71 -77.78,-23.42 -140.88,-30.74 -64.57,-7.31 -154.1,-16.1 -271.49,-26.34l71.9 -190.28c36.69,5.86 123.28,11.71 259.76,17.56 136.47,5.86 316.98,8.79 540.04,8.79 113,0 228.94,-1.47 349.28,-2.93 121.8,-1.46 240.67,-2.93 359.55,-5.86 118.86,-2.92 230.39,-5.85 337.52,-8.78 107.13,-2.92 202.52,-5.85 287.64,-8.78 82.18,-2.93 149.69,-4.39 202.52,-5.85 52.83,-1.47 82.17,-2.93 90.99,-2.93 20.54,0 41.09,7.32 63.09,20.49 20.56,13.17 32.29,42.45 33.76,86.36 2.94,83.43 4.4,187.35 4.4,310.3 0,122.94 2.94,250.28 8.81,382.01l-189.31 21.96c-19.08,-89.28 -36.69,-165.4 -55.77,-226.87 -19.08,-62.94 -41.08,-115.63 -68.97,-156.61 -26.42,-39.52 -61.64,-71.72 -101.26,-96.61 -41.09,-23.41 -93.92,-40.98 -158.5,-51.22 -64.57,-11.71 -142.34,-19.03 -234.8,-21.96 -90.99,-2.93 -202.52,-4.39 -330.19,-4.39l-391.83 0c-4.4,77.57 -7.34,159.54 -10.28,244.43 -2.93,86.36 -5.86,181.5 -7.34,283.96 -1.46,103.92 -1.46,218.08 -2.93,342.5 0,125.87 -1.47,266.39 -1.47,423 174.64,-13.17 331.66,-24.88 474.01,-35.13 140.88,-10.25 264.16,-19.03 366.89,-24.88 102.73,-7.32 186.38,-13.18 248.01,-16.1 61.63,-4.39 98.33,-5.86 111.53,-5.86 44.03,0 74.85,17.57 92.45,52.7 19.08,35.12 27.89,73.18 27.89,117.09 0,39.52 -5.87,76.11 -16.14,108.31 -8.81,32.2 -19.08,58.55 -27.89,81.97 -111.53,-5.86 -220.13,-11.71 -325.79,-16.1 -105.66,-4.39 -211.32,-10.25 -315.52,-14.64 -104.2,-2.93 -208.39,-7.32 -314.05,-11.71 -104.19,-2.93 -211.32,-5.85 -321.39,-8.78zm2177.82 -1659.81c145.29,-29.27 289.11,-54.16 432.93,-76.11 142.34,-20.49 281.75,-38.06 415.31,-52.69 133.54,-13.18 261.21,-23.42 381.55,-29.28 120.33,-7.31 230.4,-10.24 328.72,-10.24 331.67,0 620.77,35.13 870.25,106.85 248.02,71.72 454.93,175.64 620.77,310.3 165.82,136.12 289.09,302.98 372.74,499.11 83.65,197.59 124.74,421.54 124.74,670.36 0,149.3 -14.67,300.06 -45.49,453.74 -30.82,153.69 -79.25,301.52 -145.28,443.49 -66.04,141.98 -152.63,275.18 -256.82,399.59 -105.66,125.87 -233.34,234.19 -381.56,327.86 -149.69,93.68 -321.39,168.32 -518.04,221.02 -195.18,54.15 -416.77,80.5 -664.78,80.5 -67.51,0 -132.08,-1.47 -195.18,-5.86 -61.65,-2.92 -124.75,-7.31 -189.32,-11.71 -66.03,-4.39 -135.01,-8.78 -205.45,-11.71 -71.91,-4.39 -148.22,-5.85 -231.87,-5.85 -83.65,0 -168.76,1.46 -252.41,4.39 -85.13,2.93 -161.44,7.32 -230.41,10.25 -68.97,4.39 -126.21,7.32 -170.23,11.71 -44.03,5.85 -68.97,8.78 -73.38,8.78 0,-13.17 2.94,-30.74 7.34,-55.62 5.87,-23.42 22.01,-48.3 49.89,-73.19 27.89,-26.34 71.91,-49.76 133.55,-71.72 60.17,-21.95 148.22,-36.59 261.22,-45.37 5.88,-64.4 10.28,-141.98 13.21,-232.72 4.4,-90.75 7.33,-188.82 8.81,-297.13 2.93,-106.85 4.4,-221.01 4.4,-338.11l0 -1779.83c0,-67.33 -1.47,-125.87 -1.47,-175.64 -1.47,-48.3 -1.47,-93.67 -2.93,-133.19l-258.29 39.52c-86.59,11.71 -171.7,26.34 -258.29,42.44l55.77 -223.94zm1350.12 68.79c-96.85,0 -205.45,2.93 -322.85,8.79 -2.93,71.72 -4.41,153.68 -5.87,245.89 -1.46,92.21 -2.94,201.99 -2.94,330.79l0 1043.6c0,221.02 1.48,405.44 1.48,551.81 1.46,147.83 1.46,266.39 2.92,357.14 0,90.74 1.48,158.07 4.41,200.52 1.47,42.45 4.41,71.72 8.81,84.89 4.4,46.84 17.61,83.43 39.62,111.24 22.01,27.81 52.83,48.3 90.98,64.4 38.16,14.64 82.19,24.89 133.55,27.81 51.37,4.39 110.06,7.32 173.17,7.32 208.38,0 390.36,-19.03 542.98,-54.15 154.1,-36.6 283.24,-86.36 391.83,-150.76 107.13,-62.94 193.72,-137.59 261.23,-225.41 66.03,-86.36 118.86,-181.49 155.56,-282.49 36.68,-100.99 61.63,-207.84 74.83,-319.08 13.22,-112.7 19.08,-225.41 19.08,-338.11 0,-294.2 -35.22,-547.41 -104.19,-758.18 -70.45,-210.77 -173.17,-382.02 -306.72,-516.68 -135.01,-134.66 -299.37,-232.72 -493.08,-295.66 -195.18,-62.94 -416.79,-93.68 -664.8,-93.68zm3300.48 1352.44c0,260.53 32.28,491.79 96.85,698.17 64.57,204.92 155.56,379.09 272.96,521.07 118.87,141.98 259.75,251.75 425.59,327.86 165.82,74.65 347.8,112.71 548.85,112.71 139.42,0 271.49,-20.49 396.23,-61.48 126.21,-39.52 236.28,-109.77 331.67,-207.84 95.38,-98.07 170.23,-229.8 225.99,-395.19 55.77,-163.93 85.12,-370.31 85.12,-616.21 0,-260.53 -33.75,-494.72 -98.32,-701.1 -66.04,-206.38 -157.03,-382.02 -274.43,-525.46 -117.4,-143.44 -258.29,-253.21 -422.65,-329.33 -164.36,-76.11 -344.87,-114.16 -544.45,-114.16 -139.42,0 -271.49,20.49 -397.7,62.94 -126.21,42.44 -236.27,112.7 -331.67,212.23 -95.39,100.99 -171.7,232.72 -228.93,398.12 -55.76,165.39 -85.11,371.77 -85.11,617.67zm1331.05 -1589.55c228.93,0 443.19,38.05 642.77,112.7 201.05,74.65 377.15,184.42 526.85,329.33 151.15,144.9 270.02,323.47 356.6,534.24 88.05,212.23 132.08,455.2 132.08,727.45 0,219.55 -27.88,417.14 -85.11,592.78 -55.77,177.11 -132.08,333.72 -228.94,469.84 -95.39,136.13 -208.39,253.22 -337.53,351.29 -127.68,98.06 -264.16,180.03 -407.97,244.43 -143.82,64.4 -292.04,111.24 -443.2,140.51 -152.62,30.74 -299.37,45.38 -443.19,45.38 -149.69,0 -293.51,-16.1 -431.45,-46.84 -139.42,-32.2 -270.03,-79.04 -393.31,-141.98 -121.8,-62.94 -234.79,-140.51 -336.06,-234.19 -101.25,-95.13 -189.31,-204.91 -262.69,-330.79 -73.37,-124.41 -129.14,-266.39 -170.23,-423 -39.62,-156.61 -60.16,-329.33 -60.16,-515.21 0,-228.34 29.34,-433.25 88.05,-613.28 57.23,-181.5 136.48,-339.57 234.8,-477.16 99.8,-137.59 214.26,-256.14 344.87,-352.75 129.14,-96.6 267.09,-175.64 410.91,-237.11 143.82,-61.48 290.57,-106.85 438.79,-134.66 148.22,-27.81 289.1,-40.98 424.12,-40.98zm5372.61 1449.04l0 1091.9c0,100.99 0,201.99 1.48,300.05 1.46,99.53 4.4,200.52 7.34,302.98 2.92,103.92 7.32,215.16 11.74,333.72 -27.89,2.93 -58.71,7.32 -92.47,11.71 -33.74,5.85 -67.5,11.71 -101.25,19.03 -33.75,7.32 -66.04,14.63 -98.33,20.49 -30.81,7.32 -58.69,13.17 -80.71,19.03 -350.74,-471.31 -705.89,-930.9 -1068.36,-1375.86 -361.02,-446.42 -730.83,-886.99 -1107.99,-1321.7l-13.2 4.39c-4.4,80.51 -5.88,158.08 -7.34,232.73 -1.46,73.18 -2.94,152.22 -4.4,237.11 0,83.43 0,175.65 0,275.17l0 349.82c0,181.5 0,336.65 0,465.45 1.46,128.81 1.46,238.58 2.94,327.87 0,89.28 1.46,161 2.92,216.62 1.48,57.08 2.94,102.46 5.88,140.51 1.46,39.52 7.34,71.72 16.14,95.14 10.28,23.42 32.29,42.45 67.51,58.55 36.68,14.63 89.51,26.34 161.42,35.13 70.45,8.78 168.78,16.1 293.51,24.88l-86.58 190.28c-14.68,-1.47 -42.57,-2.93 -85.12,-7.32 -42.56,-2.93 -92.45,-5.86 -152.62,-7.32 -58.7,-2.93 -124.75,-5.86 -198.12,-7.32 -71.91,-2.93 -145.28,-4.39 -220.13,-4.39 -89.52,0 -174.64,1.46 -253.88,4.39 -77.78,2.93 -148.22,7.32 -208.39,10.25 -60.17,4.39 -108.6,7.32 -145.28,11.71 -38.16,5.85 -58.71,8.78 -64.58,8.78 0,-13.17 2.94,-30.74 8.81,-55.62 4.4,-23.42 24.95,-48.3 58.7,-73.19 33.75,-26.34 85.12,-49.76 157.03,-71.72 70.43,-21.95 171.7,-36.59 303.78,-45.37 10.26,-96.6 19.08,-191.74 24.94,-288.34 5.88,-98.07 11.74,-203.45 14.68,-319.08 4.4,-117.1 5.86,-247.37 7.34,-392.27 0,-146.37 0,-314.69 0,-509.36 0,-272.24 0,-512.28 -1.48,-720.13 -1.46,-209.3 -8.8,-393.72 -19.08,-556.19 -51.35,-48.3 -93.91,-86.36 -132.07,-114.17 -36.69,-27.81 -77.78,-49.76 -124.74,-67.33 -45.49,-16.1 -99.79,-29.27 -164.36,-36.59 -63.11,-8.78 -145.28,-17.56 -245.07,-26.35l71.9 -184.42c17.61,2.93 52.83,5.86 108.6,8.78 54.29,2.93 117.4,5.86 190.78,7.32 73.37,2.93 151.15,4.39 234.8,7.32 82.18,1.46 161.43,2.93 236.28,2.93 52.83,0 105.65,-1.47 158.48,-2.93 52.83,-1.46 95.39,-2.93 124.74,-5.86 159.96,178.57 328.73,373.24 509.24,581.08 179.04,209.31 361.01,423.01 542.98,642.56 183.45,218.08 361.01,436.17 537.11,654.26 174.64,218.09 337.54,424.47 487.22,619.13l17.62 0c5.86,-96.6 10.27,-190.27 13.2,-281.02 2.94,-90.75 4.41,-174.18 5.88,-250.29 1.46,-74.65 1.46,-141.98 1.46,-201.99l0 -139.05c0,-152.22 0,-283.95 0,-396.65 -1.46,-112.71 -1.46,-209.31 -2.93,-291.27 0,-81.97 -1.47,-150.76 -4.41,-207.85 -1.46,-57.08 -4.4,-105.38 -5.86,-147.83 -2.94,-42.44 -4.4,-79.03 -7.34,-111.24 -2.94,-30.73 -5.88,-62.93 -8.8,-96.6 -4.41,-39.52 -10.28,-71.72 -17.62,-95.14 -8.8,-21.95 -29.35,-40.98 -63.11,-54.15 -33.74,-13.18 -85.11,-24.89 -155.55,-32.2 -70.44,-8.79 -168.77,-16.1 -296.44,-24.89l55.76 -184.42c10.28,2.93 38.16,5.86 86.59,8.78 48.43,2.93 104.19,5.86 168.76,8.78 64.57,2.93 133.56,4.4 205.46,5.86 71.91,1.46 137.95,2.93 196.65,2.93 93.92,0 181.97,-1.47 264.15,-5.86 83.65,-2.93 155.56,-5.85 218.67,-10.24 61.63,-2.93 111.53,-7.32 149.68,-10.25 36.69,-4.39 57.24,-5.85 60.17,-5.85 0,16.1 -2.93,36.59 -7.34,60.01 -5.87,24.88 -24.95,48.3 -55.76,73.18 -32.29,24.88 -83.65,46.84 -152.63,67.33 -70.43,20.49 -168.76,36.59 -296.44,45.37 -10.27,99.53 -17.6,201.99 -23.48,310.3 -5.86,108.31 -10.26,213.7 -13.2,317.62 -2.94,102.46 -4.4,200.52 -4.4,292.73 -1.48,90.75 -1.48,169.79 -1.48,235.66zm1805.06 276.63l0 431.79c0,122.94 1.48,231.26 1.48,323.47 1.46,92.21 1.46,171.25 2.92,234.19 0,64.4 0,120.02 1.48,166.85 0,46.84 1.46,86.36 2.94,121.49 1.46,33.66 2.92,65.86 4.4,96.6 1.46,39.52 5.86,71.72 14.67,95.14 7.33,23.42 27.88,42.45 60.16,58.55 33.76,14.63 85.13,26.34 155.56,35.13 70.45,8.78 168.78,16.1 294.98,24.88l-86.58 190.28c-16.14,-1.47 -48.44,-2.93 -96.87,-7.32 -48.42,-2.93 -107.13,-5.86 -176.1,-7.32 -68.97,-2.93 -143.82,-5.86 -224.53,-7.32 -80.71,-2.93 -161.42,-4.39 -239.21,-4.39 -98.32,0 -190.78,1.46 -278.83,4.39 -88.05,2.93 -167.3,7.32 -236.27,10.25 -70.44,4.39 -126.21,7.32 -168.76,11.71 -45.5,5.85 -71.91,8.78 -80.71,8.78 0,-13.17 2.92,-30.74 8.8,-55.62 4.4,-23.42 20.54,-48.3 49.89,-73.19 29.36,-26.34 74.85,-49.76 137.95,-71.72 63.11,-21.95 152.62,-36.59 268.56,-45.37 5.87,-60.01 10.28,-136.12 13.2,-226.87 4.4,-90.75 7.34,-188.81 8.82,-292.73 2.92,-105.39 4.4,-213.7 4.4,-324.94l0 -916.26c0,-161 -1.48,-294.2 -1.48,-401.05 -1.46,-106.85 -1.46,-193.2 -2.92,-259.07 -1.48,-64.4 -2.94,-118.56 -4.42,-162.47 -1.46,-43.91 -2.92,-83.43 -4.4,-117.09 -1.46,-32.2 -2.92,-71.72 -4.4,-118.56 -2.93,-39.52 -7.34,-70.25 -14.67,-93.67 -5.87,-23.42 -24.95,-40.99 -55.76,-54.16 -30.82,-13.17 -77.79,-23.42 -142.36,-30.74 -63.1,-7.31 -152.62,-16.1 -268.55,-26.34l71.91 -190.28c13.2,2.93 44.02,5.86 93.91,8.78 49.9,2.93 108.6,5.86 176.11,8.78 68.98,2.93 142.35,4.4 220.13,5.86 79.24,1.46 154.09,2.93 224.53,2.93 113,0 217.19,-1.47 311.12,-5.86 95.39,-2.93 176.1,-5.85 245.07,-10.24 68.97,-2.93 123.28,-7.32 161.43,-10.25 38.16,-4.39 60.18,-5.85 64.58,-5.85 0,16.1 -2.94,36.59 -8.82,61.47 -5.86,24.88 -23.47,49.77 -54.29,74.65 -30.82,24.88 -79.25,48.3 -145.29,68.79 -66.03,21.96 -158.49,36.59 -277.36,46.84 -5.87,81.96 -10.28,165.39 -14.68,253.21 -2.92,87.82 -5.86,185.89 -7.34,297.13 -1.46,111.24 -1.46,237.12 -2.92,379.09 0,141.98 -1.48,308.84 -1.48,497.65zm1116.79 734.77c14.68,158.07 49.9,289.8 108.6,396.65 57.23,106.85 127.68,191.74 211.32,256.14 83.65,64.41 174.64,109.78 275.9,137.59 99.79,27.81 199.58,42.45 297.91,42.45 88.05,0 168.76,-10.25 243.61,-29.28 76.31,-20.49 140.88,-51.23 193.71,-92.21 54.3,-40.98 96.86,-90.75 127.68,-152.22 30.82,-60.01 45.49,-131.73 45.49,-215.16 0,-98.07 -20.54,-184.42 -64.57,-256.14 -42.56,-71.72 -101.26,-137.59 -173.17,-196.14 -73.37,-58.54 -158.5,-112.7 -256.81,-162.46 -96.86,-49.77 -199.59,-102.46 -309.66,-156.62 -73.37,-35.13 -148.22,-73.18 -221.59,-111.24 -74.85,-38.05 -145.29,-80.5 -212.8,-124.41 -66.03,-43.91 -129.14,-92.21 -187.84,-143.44 -57.23,-51.23 -108.6,-108.31 -151.15,-171.25 -42.56,-62.94 -76.32,-131.73 -101.26,-206.38 -23.49,-74.64 -36.69,-156.61 -36.69,-247.36 0,-152.22 33.76,-291.27 102.73,-418.61 67.51,-125.88 159.96,-234.19 278.83,-324.94 117.4,-90.74 255.35,-161 413.84,-210.76 157.03,-49.77 325.79,-74.65 506.3,-74.65 117.4,0 234.8,10.24 355.14,29.27 118.87,20.49 224.53,45.38 316.98,73.19 19.08,7.31 33.76,13.17 45.5,19.02 11.74,5.86 19.08,13.18 24.95,21.96 5.86,8.78 10.27,19.03 11.74,32.2 2.94,13.17 4.4,29.27 4.4,51.23l0 278.1c0,71.72 0,146.36 1.46,226.87 1.48,80.5 4.41,152.22 5.88,218.08l-187.84 17.57c-30.82,-235.65 -110.07,-411.3 -237.75,-524 -126.2,-114.16 -302.3,-171.25 -523.9,-171.25 -86.59,0 -167.3,8.78 -242.15,26.35 -74.84,17.56 -140.88,46.84 -196.65,86.35 -55.76,40.99 -99.79,90.75 -132.07,153.69 -32.29,61.47 -48.43,136.12 -48.43,222.48 0,98.07 20.54,184.42 61.63,257.61 41.1,73.18 96.87,140.51 165.84,199.06 70.44,60.01 152.62,115.63 248.01,165.39 93.93,51.23 195.18,102.46 302.31,153.69 120.34,58.54 239.21,118.55 358.07,180.03 117.41,60.01 221.6,130.27 315.52,207.84 92.46,77.58 168.77,166.86 226,269.32 57.23,100.99 85.12,219.55 85.12,357.13 0,103.92 -16.14,200.53 -51.36,289.81 -33.76,89.29 -82.18,169.79 -142.35,242.97 -61.64,74.65 -133.55,140.51 -215.73,197.6 -83.65,57.08 -174.64,106.85 -272.96,144.9 -98.32,39.52 -202.52,70.26 -311.11,90.75 -110.07,20.49 -221.6,30.74 -334.6,30.74 -101.27,0 -208.39,-7.32 -318.46,-23.42 -110.06,-16.1 -211.32,-36.59 -302.31,-62.94 -90.98,-26.35 -165.82,-57.08 -224.53,-93.68 -58.7,-35.12 -88.05,-73.18 -88.05,-111.23l0 -5.86c0,-4.39 1.46,-14.64 2.94,-32.2 0,-16.1 0,-39.52 1.46,-73.18 0,-30.74 1.48,-76.12 2.94,-133.2 1.46,-58.55 2.94,-130.27 5.86,-218.09 2.94,-86.35 5.88,-191.74 8.82,-316.15l189.3 -17.56z"/>
   <path class="fil0" d="M28144.22 14166.94c8.8,0 35.22,0 80.71,0 46.97,0 99.8,0 161.44,0 92.45,0 181.97,-1.47 270.02,-5.86 88.05,-2.93 167.3,-5.85 236.27,-10.24 67.5,-2.93 123.27,-7.32 167.3,-10.25 42.56,-4.39 66.04,-5.85 68.98,-5.85 0,16.1 -2.94,36.59 -8.82,61.47 -5.86,24.88 -24.94,49.77 -57.23,74.65 -32.28,24.88 -83.65,48.3 -155.55,68.79 -71.91,21.96 -173.17,36.59 -303.78,46.84 -2.94,52.69 -4.4,102.46 -4.4,150.76l0 156.61c0,127.34 2.93,294.2 7.34,499.11 5.86,206.38 11.74,440.57 19.08,705.49 5.86,225.41 10.26,412.76 16.14,560.59 4.4,147.83 8.8,270.78 13.2,365.92 4.4,96.6 8.81,171.25 13.21,226.87 4.4,55.62 8.8,102.46 13.21,140.51 2.93,40.99 8.8,71.72 16.14,96.61 7.33,23.41 27.89,42.44 61.64,57.08 33.74,14.64 86.58,26.34 155.55,35.13 68.98,8.78 167.3,17.56 294.98,26.34l-85.11 184.43c-16.16,-1.47 -48.44,-2.93 -98.33,-7.32 -49.9,-2.93 -108.6,-5.86 -176.11,-7.32 -67.5,-2.93 -142.35,-5.86 -223.06,-7.32 -79.25,-2.93 -158.5,-4.39 -236.27,-4.39 -92.45,0 -181.98,1.46 -265.63,4.39 -83.65,2.93 -158.48,7.32 -223.06,10.25 -64.57,4.39 -118.87,7.32 -159.96,11.71 -41.09,5.85 -67.51,8.78 -74.84,8.78 0,-13.17 1.46,-30.74 7.33,-54.16 4.41,-23.42 20.55,-46.84 48.44,-70.25 26.4,-24.89 68.97,-46.84 124.73,-68.8 57.23,-20.49 136.48,-35.13 240.67,-43.91 2.94,-43.91 4.41,-89.28 4.41,-133.19l0 -168.32c0,-137.59 -2.94,-297.13 -5.87,-481.55 -2.94,-182.96 -8.81,-387.88 -16.14,-613.28 -7.34,-210.77 -13.22,-401.05 -19.08,-567.91 -7.34,-168.32 -13.21,-310.3 -16.14,-425.93l-16.15 -4.39c-212.79,389.34 -428.52,799.17 -648.65,1228.02 -220.13,430.32 -446.12,886.99 -679.46,1368.54 -26.41,2.93 -52.83,5.85 -80.72,10.25 -26.41,4.39 -52.82,10.24 -79.24,16.1 -177.57,-469.84 -369.81,-920.66 -575.27,-1352.44 -206.93,-433.25 -421.18,-851.86 -641.32,-1257.3l-13.2 4.39c-11.74,133.2 -23.48,273.71 -35.23,423.01 -11.74,147.83 -23.48,297.12 -33.74,444.95 -11.74,149.3 -22.02,295.67 -32.29,437.64 -8.8,143.44 -17.61,273.71 -24.94,392.27 -7.34,120.02 -13.22,223.94 -17.62,313.22 -4.4,89.29 -5.87,156.62 -5.87,199.06 0,38.06 2.93,70.26 11.74,93.68 7.33,23.42 29.35,42.45 63.1,57.08 33.76,14.64 85.12,24.88 154.1,33.67 67.5,8.78 161.42,17.56 281.77,26.34l-85.13 184.43c-14.67,-1.47 -42.55,-2.93 -82.17,-7.32 -39.63,-2.93 -89.53,-5.86 -146.76,-7.32 -58.7,-2.93 -123.27,-5.86 -193.72,-7.32 -70.43,-2.93 -143.82,-4.39 -220.13,-4.39 -90.98,0 -174.62,1.46 -250.95,4.39 -76.31,2.93 -143.81,7.32 -199.58,10.25 -57.23,4.39 -102.72,7.32 -136.48,11.71 -36.68,5.85 -57.23,8.78 -64.57,8.78 0,-13.17 2.94,-30.74 10.28,-55.62 7.34,-23.42 27.88,-48.3 63.1,-73.19 33.75,-26.34 86.58,-49.76 157.03,-71.72 71.91,-21.95 170.22,-36.59 297.9,-45.37 14.68,-95.14 29.36,-212.23 45.5,-354.21 16.14,-140.51 32.28,-294.2 46.96,-461.06 16.15,-166.86 30.81,-339.57 45.49,-521.06 14.68,-180.04 27.89,-357.14 41.09,-529.85 13.21,-171.25 23.48,-333.72 33.76,-487.41 10.27,-152.22 17.61,-283.95 23.48,-396.65 -41.1,-52.7 -80.72,-96.61 -115.93,-128.81 -36.7,-33.66 -79.25,-60.01 -126.22,-79.04 -46.96,-20.49 -104.19,-36.59 -168.76,-45.37 -66.04,-10.25 -146.75,-19.03 -246.55,-26.35l73.38 -184.42c17.61,2.93 55.76,5.86 114.47,8.78 58.7,2.93 126.21,5.86 205.45,7.32 79.25,2.93 162.89,4.39 249.48,7.32 88.05,1.46 168.77,2.93 243.61,2.93 52.83,0 105.66,-1.47 161.43,-2.93 54.3,-1.46 95.39,-2.93 126.21,-5.86 230.4,389.34 449.06,791.85 655.98,1207.54 208.39,417.14 406.51,841.61 594.35,1277.78l17.61 0c161.43,-320.54 350.74,-686.46 569.4,-1097.75 218.67,-412.76 465.21,-872.35 742.57,-1378.78z"/>
  </g>
 </g>
</svg>
