<svg width="126" height="125" viewBox="0 0 126 125" fill="none" xmlns="http://www.w3.org/2000/svg">
<path fill-rule="evenodd" clip-rule="evenodd" d="M79.3897 39.8114C98.6819 39.8114 114.321 56.1502 114.321 76.3051C114.321 83.9854 112.05 91.1115 108.172 96.9906L126 115.616L117.018 125L99.1896 106.374C93.5622 110.426 86.7412 112.799 79.3897 112.799C60.0976 112.799 44.4583 96.4601 44.4583 76.3051C44.4583 56.1502 60.0976 39.8114 79.3897 39.8114ZM79.3897 53.0818C67.1129 53.0818 57.1606 63.4793 57.1606 76.3051C57.1606 89.131 67.1129 99.5284 79.3897 99.5284C91.6665 99.5284 101.619 89.131 101.619 76.3051C101.619 63.4793 91.6665 53.0818 79.3897 53.0818ZM38.2274 72.9872C38.1477 74.0822 38.1071 75.1887 38.1071 76.3051C38.1071 79.7309 38.4894 83.0633 39.2119 86.2585L0 86.258V72.9875L38.2274 72.9872ZM25.4047 0V66.3523H6.35118V0H25.4047ZM50.8094 26.5409L50.8086 45.1839C45.1729 50.8344 41.0688 58.1396 39.2119 66.3518L31.7559 66.3523V26.5409H50.8094ZM76.2141 13.2705L76.214 33.3019C69.2341 33.8566 62.7393 36.2247 57.1604 39.9563L57.1606 13.2705H76.2141ZM101.619 19.9057L101.619 39.9563C96.0402 36.2248 89.5455 33.8567 82.5656 33.3019L82.5653 19.9057H101.619Z" fill="#BC4914"/>
</svg>
