<svg width="40" height="40" viewBox="0 0 40 40" fill="none" xmlns="http://www.w3.org/2000/svg">
<path d="M19.9088 38.4048L19.9086 38.4048L19.9068 38.4049L19.8977 38.4055L19.8587 38.4077C19.8234 38.4097 19.7699 38.4126 19.6994 38.4162C19.5583 38.4233 19.3494 38.4332 19.0822 38.4436C18.5477 38.4644 17.7813 38.4876 16.8607 38.4963C15.0147 38.514 12.5701 38.4737 10.1396 38.2465C7.68228 38.0168 5.35568 37.6057 3.68511 36.9333C1.92044 36.223 1.5 35.4989 1.5 34.9422C1.5 32.7099 3.09494 30.6582 6.48855 29.0856C9.84751 27.529 14.6133 26.6429 20 26.6429C25.3867 26.6429 30.1525 27.529 33.5115 29.0856C36.9051 30.6582 38.5 32.7099 38.5 34.9422C38.5 35.4989 38.0796 36.223 36.3149 36.9333C34.6443 37.6057 32.3177 38.0168 29.8604 38.2465C27.4299 38.4737 24.9853 38.514 23.1393 38.4963C22.2187 38.4876 21.4523 38.4644 20.9178 38.4436C20.6506 38.4332 20.4417 38.4233 20.3006 38.4162C20.2301 38.4126 20.1766 38.4097 20.1413 38.4077L20.1023 38.4055L20.0932 38.4049L20.0914 38.4048L20.0912 38.4048L20 38.3993L19.9088 38.4048Z" stroke="#D9D9D9" stroke-width="3"/>
<circle cx="20" cy="12" r="10.5" stroke="#D9D9D9" stroke-width="3"/>
</svg>
