<svg width="40" height="40" viewBox="0 0 40 40" fill="none" xmlns="http://www.w3.org/2000/svg">
<path d="M1.63925 38.5L3.6583 15.7857H36.3417L38.3608 38.5H1.63925Z" stroke="#D9D9D9" stroke-width="3"/>
<path d="M19.8487 16.7669L19.8478 16.7668L19.8467 16.7667L19.8466 16.7667L19.8462 16.7667L19.7143 16.7547L19.5824 16.7667L19.582 16.7667L19.5819 16.7667L19.5808 16.7668L19.5799 16.7669L19.5745 16.7673C19.5656 16.768 19.5493 16.7692 19.5262 16.7707C19.4799 16.7736 19.4064 16.7776 19.3097 16.7807C19.1158 16.787 18.8314 16.7898 18.4876 16.7742C17.7906 16.7426 16.895 16.6376 16.0253 16.3615C15.1527 16.0844 14.3884 15.6617 13.8482 15.0492C13.3333 14.4653 12.9286 13.6056 12.9286 12.2481C12.9286 9.12519 13.7875 6.36479 15.0978 4.42788C16.4139 2.48239 18.0736 1.5 19.7143 1.5C21.355 1.5 23.0147 2.48239 24.3308 4.42788C25.6411 6.36479 26.5 9.12519 26.5 12.2481C26.5 13.6056 26.0953 14.4653 25.5804 15.0492C25.0402 15.6617 24.2759 16.0844 23.4033 16.3615C22.5336 16.6376 21.638 16.7426 20.941 16.7742C20.5972 16.7898 20.3128 16.787 20.1189 16.7807C20.0222 16.7776 19.9487 16.7736 19.9024 16.7707C19.8793 16.7692 19.863 16.768 19.8541 16.7673L19.8487 16.7669Z" stroke="#D9D9D9" stroke-width="3"/>
</svg>
