<svg width="125" height="125" viewBox="0 0 175 155" fill="none" xmlns="http://www.w3.org/2000/svg">
<path d="M9.75666 9.57317V0C4.40114 0 0.0596924 4.28602 0.0596924 9.57317H9.75666ZM95.09 9.57317H104.787C104.787 4.28602 100.446 0 95.09 0V9.57317ZM95.09 55.5244V45.9512C92.5184 45.9512 90.0515 46.9599 88.2331 48.7552C86.4147 50.5505 85.393 52.9854 85.393 55.5244H95.09ZM9.75666 19.1463H95.09V0H9.75666V19.1463ZM85.393 9.57317V132.11H104.787V9.57317H85.393ZM19.4536 116.793V9.57317H0.0596924V116.793H19.4536ZM95.09 65.0976H133.878V45.9512H95.09V65.0976ZM155.211 86.1585V116.793H174.605V86.1585H155.211ZM104.787 132.11V55.5244H85.393V132.11H104.787ZM137.992 136.171C135.72 138.414 132.036 138.414 129.764 136.171L116.05 149.71C125.896 159.43 141.86 159.43 151.706 149.71L137.992 136.171ZM129.764 128.048C132.036 125.805 135.72 125.805 137.992 128.048L151.706 114.51C141.86 104.789 125.896 104.789 116.05 114.51L129.764 128.048ZM44.901 136.171C42.6289 138.414 38.945 138.414 36.6729 136.171L22.9593 149.71C32.8053 159.43 48.7687 159.43 58.6147 149.71L44.901 136.171ZM36.6729 128.048C38.945 125.805 42.6289 125.805 44.901 128.048L58.6147 114.51C48.7687 104.789 32.8053 104.789 22.9593 114.51L36.6729 128.048ZM137.992 128.048C139.13 129.172 139.696 130.625 139.696 132.11H159.09C159.09 125.755 156.627 119.368 151.706 114.51L137.992 128.048ZM139.696 132.11C139.696 133.595 139.13 135.048 137.992 136.171L151.706 149.71C156.627 144.851 159.09 138.465 159.09 132.11H139.696ZM118.363 122.537H95.09V141.683H118.363V122.537ZM129.764 136.171C128.626 135.048 128.06 133.595 128.06 132.11H108.666C108.666 138.465 111.129 144.851 116.05 149.71L129.764 136.171ZM128.06 132.11C128.06 130.625 128.626 129.172 129.764 128.048L116.05 114.51C111.129 119.368 108.666 125.755 108.666 132.11H128.06ZM36.6729 136.171C35.5349 135.048 34.9688 133.595 34.9688 132.11H15.5748C15.5748 138.465 18.0383 144.851 22.9593 149.71L36.6729 136.171ZM34.9688 132.11C34.9688 130.625 35.5349 129.172 36.6729 128.048L22.9593 114.51C18.0383 119.368 15.5748 125.755 15.5748 132.11H34.9688ZM95.09 122.537H56.3021V141.683H95.09V122.537ZM44.901 128.048C46.039 129.172 46.6051 130.625 46.6051 132.11H65.9991C65.9991 125.755 63.5357 119.368 58.6147 114.51L44.901 128.048ZM46.6051 132.11C46.6051 133.595 46.039 135.048 44.901 136.171L58.6147 149.71C63.5357 144.851 65.9991 138.465 65.9991 132.11H46.6051ZM155.211 116.793C155.211 119.965 152.606 122.537 149.393 122.537V141.683C163.317 141.683 174.605 130.539 174.605 116.793H155.211ZM133.878 65.0976C145.66 65.0976 155.211 74.5267 155.211 86.1585H174.605C174.605 63.9526 156.371 45.9512 133.878 45.9512V65.0976ZM0.0596924 116.793C0.0596924 130.539 11.3475 141.683 25.2718 141.683V122.537C22.0585 122.537 19.4536 119.965 19.4536 116.793H0.0596924Z" fill="#BC4914"/>
</svg>
