<svg width="125" height="125" viewBox="0 0 200 130" fill="none" xmlns="http://www.w3.org/2000/svg">
<path d="M190.786 5.55246C190.382 2.42094 187.716 0 184.478 0C181.251 0 178.593 2.40484 178.175 5.52025H26.3159C21.0414 5.52025 16.7659 9.79984 16.7659 15.0792V44.7095C16.7659 48.4302 18.8943 51.6469 21.9954 53.2264L0.694529 117.429C-0.272137 120.343 0.217899 123.544 2.01381 126.034C3.80904 128.524 6.69027 130 9.75786 130H49.188C53.3027 130 56.9542 127.362 58.2514 123.454L68.9062 91.3421C69.1441 91.3784 69.3821 91.4153 69.6261 91.4341C69.7816 91.4461 70.5807 91.5018 71.8752 91.5018C77.6873 91.5018 93.4931 90.3813 106.023 79.1656C113.117 72.816 117.918 64.4729 120.388 54.2692H137.429C142.703 54.2692 146.979 49.9896 146.979 44.7102V40.2199H190.138C195.413 40.2199 199.688 35.9403 199.688 30.661V15.0799C199.688 10.0186 195.757 5.88728 190.786 5.55246ZM93.4134 64.8044C87.4826 70.1837 79.8941 71.7706 75.2491 72.2189L81.2047 54.2685H100.419C98.785 58.53 96.4461 62.0527 93.4134 64.8044Z" fill="#BC4914"/>
</svg>
