<svg width="199" height="70" viewBox="0 0 199 70" fill="none" xmlns="http://www.w3.org/2000/svg">
<path d="M132.57 41.9248C140.691 41.9248 147.276 35.4522 147.276 27.468C147.276 19.4837 140.691 13.0112 132.57 13.0112C124.448 13.0112 117.864 19.4837 117.864 27.468C117.864 35.4522 124.448 41.9248 132.57 41.9248Z" stroke="#E25D21" stroke-width="7"/>
<path fill-rule="evenodd" clip-rule="evenodd" d="M151.371 15.5833H152.85L153.014 13.5556L150.055 10.683V5.78273H148.083V10.683L145.124 13.5556L145.288 15.5833H146.768L147.096 16.4282H145.617L147.589 18.7939H150.549L152.521 16.4282H151.042L151.371 15.5833Z" fill="#E25D21"/>
<path d="M145.523 15.9025H148.71L147.811 17.9868L145.85 20.9624L142.254 15.9025H145.523Z" fill="#E25D21" stroke="#E25D21"/>
<path fill-rule="evenodd" clip-rule="evenodd" d="M154.385 28.9319L155.54 29.844L156.785 28.2672L156.056 24.0656L158.753 20.0101L157.213 18.7939L154.516 22.8494L150.624 23.4025L149.636 25.1819L150.791 26.0941L150.583 26.996L149.428 26.0838L149.666 29.258L151.976 31.0822L154.818 30.3406L153.663 29.4285L154.385 28.9319Z" fill="#E25D21"/>
<path d="M149.101 25.9901L151.58 28.0731L149.81 29.1973L146.757 30.3594L146.558 23.8538L149.101 25.9901Z" fill="#E25D21" stroke="#E25D21"/>
<path fill-rule="evenodd" clip-rule="evenodd" d="M150.243 40.5587L150.81 41.9208L152.738 41.3361L154.246 37.5689L158.753 35.7899L157.997 33.9736L153.49 35.7526L149.714 34.0712L147.912 34.9586L148.479 36.3207L147.828 36.9304L147.261 35.5682L145.841 38.2433L146.975 40.9676L149.906 41.9248L149.34 40.5627L150.243 40.5587Z" fill="#E25D21"/>
<path d="M146.708 35.099L147.993 38.3106L145.742 38.1804L142.254 37.3106L145.389 31.805L146.708 35.099Z" fill="#E25D21" stroke="#E25D21"/>
<path fill-rule="evenodd" clip-rule="evenodd" d="M138.64 49.2589L138.285 50.6912L140.165 51.3218L143.596 49.1253L148.236 50.2646L148.71 48.355L144.07 47.2157L142.062 43.6829L140.102 43.3705L139.746 44.8027L138.867 44.9246L139.223 43.4924L136.509 44.8522L135.798 47.7166L137.564 50.1764L137.919 48.7442L138.64 49.2589Z" fill="#E25D21"/>
<path d="M139.259 43.0502L138.438 46.2619L136.687 44.8836L134.363 42.2332L140.102 39.7563L139.259 43.0502Z" fill="#E25D21" stroke="#E25D21"/>
<path fill-rule="evenodd" clip-rule="evenodd" d="M126.449 48.7122L125.31 49.6187L126.446 51.1737L130.512 51.4212L133.562 54.936L135.081 53.7275L132.031 50.2127L132.521 46.3396L131.132 44.9861L129.993 45.8923L129.214 45.4878L130.354 44.5816L127.362 44.0933L125.084 45.9058L125.038 48.8111L126.177 47.9048L126.449 48.7122Z" fill="#E25D21"/>
<path d="M130.803 44.0695L128.032 46.2619L127.442 44.0719L127.19 40.4791L133.646 41.8207L130.803 44.0695Z" fill="#E25D21" stroke="#E25D21"/>
<path fill-rule="evenodd" clip-rule="evenodd" d="M114.356 40.2888L112.876 40.3885L112.843 42.4012L115.987 45.0383L116.303 49.8761L118.276 49.7433L117.96 44.9056L120.733 41.8706L120.438 39.8796L118.959 39.9793L118.576 39.1673L120.055 39.0676L117.93 36.8649L114.971 37.064L113.15 39.5322L114.63 39.4326L114.356 40.2888Z" fill="#E25D21"/>
<path d="M120.688 38.8105L117.147 39.0335L118.006 36.9685L119.986 33.9736L124.32 38.582L120.688 38.8105Z" fill="#E25D21" stroke="#E25D21"/>
<path fill-rule="evenodd" clip-rule="evenodd" d="M111.367 28.3799L109.986 27.6824L108.845 29.3387L110.207 33.1903L107.821 37.3806L109.662 38.3106L112.048 34.1203L116.208 33.0595L117.042 31.248L115.661 30.5505L115.766 29.673L117.147 30.3705L116.458 27.4176L113.697 26.0223L110.704 27.115L112.085 27.8127L111.367 28.3799Z" fill="#E25D21"/>
<path d="M116.747 30.2539L113.56 28.7414L115.477 27.4886L118.892 26.0223L120.016 31.805L116.747 30.2539Z" fill="#E25D21" stroke="#E25D21"/>
<path fill-rule="evenodd" clip-rule="evenodd" d="M114.68 14.4319L114.011 13.0749L112.098 13.801L110.83 17.757L106.386 19.876L107.277 21.6853L111.721 19.5663L115.662 21.0381L117.427 20.0105L116.759 18.6535L117.376 17.9867L118.045 19.3436L119.299 16.5114L117.962 13.7975L114.926 13.0112L115.594 14.3681L114.68 14.4319Z" fill="#E25D21"/>
<path d="M118.44 19.4896L117.147 16.6441L119.102 16.6254L122.168 17.2039L119.768 22.4081L118.44 19.4896Z" fill="#E25D21" stroke="#E25D21"/>
<path fill-rule="evenodd" clip-rule="evenodd" d="M125.069 7.12803L125.43 5.697L123.551 5.05989L120.112 7.24466L115.476 6.08926L114.995 7.99729L119.631 9.15269L121.629 12.6921L123.587 13.0112L123.948 11.5801L124.827 11.4613L124.467 12.8924L127.186 11.5421L127.907 8.68004L126.149 6.2142L125.789 7.64523L125.069 7.12803Z" fill="#E25D21"/>
<path d="M124.456 12.9745L125.288 10.1198L127.031 11.351L129.342 13.716L123.603 15.9025L124.456 12.9745Z" fill="#E25D21" stroke="#E25D21"/>
<path fill-rule="evenodd" clip-rule="evenodd" d="M139.412 6.62103L140.543 5.64605L139.403 3.98857L135.345 3.74384L132.285 0L130.776 1.29996L133.836 5.04381L133.367 9.1884L134.759 10.6292L135.891 9.65427L136.67 10.0831L135.538 11.058L138.524 11.5655L140.788 9.61554L140.819 6.50822L139.688 7.48317L139.412 6.62103Z" fill="#E25D21"/>
<path d="M135.442 11.3278L137.893 9.39695L138.427 11.3121L138.667 14.4568L132.928 13.3082L135.442 11.3278Z" fill="#E25D21" stroke="#E25D21"/>
<path d="M28.3405 4.64202C29.7303 4.75493 30.8848 4.81138 31.8039 4.81138H34.5949C35.5364 4.81138 36.5228 4.72103 37.554 4.54032V32.5619C37.554 38.1183 35.8839 42.5797 32.5437 45.9453C29.3828 49.1308 25.4149 50.7233 20.6401 50.7233C15.4168 50.7233 11.1911 49.3564 7.96304 46.6233C4.35381 43.5512 2.54925 39.1238 2.54925 33.3411V4.64202C4.40991 4.75493 6.15846 4.81138 7.79489 4.81138C9.45378 4.81138 10.8213 4.72103 11.8973 4.54032V33.7813C11.8973 36.6278 12.7604 38.8412 14.4865 40.4228C16.1005 41.8684 18.1181 42.5913 20.5392 42.5913C24.126 42.5913 26.5134 40.7386 27.7015 37.0341C28.1275 35.7019 28.3405 34.0524 28.3405 32.0877V4.64202ZM55.4094 49.8761C52.1141 49.8761 49.9283 49.944 48.8523 50.0792V4.60812C49.3903 4.74365 50.5 4.81138 52.1813 4.81138C53.885 4.81138 55.8577 4.76628 58.0995 4.67593V41.7441H65.06C67.0777 41.7441 68.6917 41.6762 69.902 41.541C69.7449 46.8264 69.6667 49.5711 69.6667 49.7742V50.1132C67.4699 49.9549 63.7823 49.8761 58.6038 49.8761H55.4094ZM93.7763 50.0792C92.7003 49.944 89.932 49.8761 85.4708 49.8761H84.3948V12.4012H77.737C75.7643 12.4012 74.5986 12.5029 74.2399 12.7062C73.8812 12.9095 73.6014 13.0902 73.3991 13.2483L73.2987 13.2144V4.54032L73.3991 4.43869C74.1394 4.6872 76.1344 4.81138 79.3848 4.81138H100.469C102.441 4.81138 103.607 4.70975 103.966 4.50649C104.324 4.30315 104.604 4.12244 104.806 3.96436L104.907 3.99819V12.6723L104.806 12.774C104.066 12.5255 102.071 12.4012 98.8208 12.4012H93.7763V50.0792ZM178.245 32.3587C177.573 32.4036 176.855 32.426 176.093 32.426C175.331 32.426 174.199 32.3696 172.697 32.2568V49.8761H163.786V4.57422C166.924 4.16762 170.78 3.96436 175.353 3.96436C181.586 3.96436 186.226 5.1277 189.275 7.45431C192.346 9.75837 193.881 13.3274 193.881 18.1614C193.881 21.9111 192.48 25.1188 189.678 27.7842C188.759 28.6426 187.705 29.3879 186.517 30.0203L193.377 44.5907C194.722 47.5948 195.753 49.3788 196.471 49.944L196.302 50.1132C194.128 49.7518 190.71 49.7633 186.047 50.1472L178.245 32.3587ZM175.992 11.9608C174.849 11.9608 173.751 12.0172 172.697 12.1302V25.0736C173.795 25.2317 175.084 25.3107 176.564 25.3107C178.043 25.3107 179.288 25.1866 180.297 24.938C181.305 24.667 182.18 24.2604 182.919 23.7183C184.511 22.521 185.307 20.7253 185.307 18.3308C185.307 15.9364 184.477 14.2536 182.819 13.2822C181.271 12.4012 178.996 11.9608 175.992 11.9608Z" fill="#D9D9D9"/>
<path d="M0.935064 67.2243V58.9666H5.80158V59.8802H1.96806V62.4593H3.18469C4.00343 62.4593 4.63853 62.5634 5.08996 62.7716C5.54146 62.9718 5.85516 63.2494 6.03113 63.6043C6.20717 63.9513 6.29512 64.3525 6.29512 64.8071C6.29512 65.308 6.19569 65.7403 5.9967 66.1024C5.80545 66.4646 5.49168 66.7422 5.05553 66.9352C4.61937 67.1282 4.04552 67.2243 3.3339 67.2243H0.935064ZM3.2306 66.3338C3.96517 66.3338 4.48164 66.2101 4.78006 65.9637C5.07848 65.7092 5.22769 65.3239 5.22769 64.8071C5.22769 64.4522 5.15502 64.171 5.00962 63.9628C4.87188 63.7467 4.64233 63.5927 4.32095 63.5002C4.00726 63.4077 3.58641 63.3614 3.05844 63.3614H1.96806V66.3338H3.2306ZM12.1974 67.2243H11.1759V61.8695H9.36239C9.28584 62.8489 9.19022 63.6853 9.07544 64.3792C8.96067 65.0652 8.81526 65.6246 8.63929 66.0562C8.46332 66.4877 8.25285 66.8043 8.00802 67.0046C7.76318 67.2048 7.47624 67.3053 7.14719 67.3053C7.04769 67.3053 6.94827 67.2973 6.84877 67.2821C6.75695 67.2742 6.68041 67.2554 6.61922 67.2243V66.461C6.66513 66.4762 6.71484 66.4877 6.76843 66.4957C6.82201 66.5036 6.87553 66.5072 6.92911 66.5072C7.09748 66.5072 7.25049 66.4378 7.38822 66.2991C7.52595 66.1603 7.64841 65.9485 7.75551 65.663C7.87029 65.3774 7.97359 65.0189 8.06541 64.5874C8.15723 64.1479 8.23757 63.631 8.30644 63.0376C8.3753 62.4441 8.43649 61.7733 8.49008 61.0252H12.1974V67.2243ZM16.1816 60.9096C16.7095 60.9096 17.161 61.0252 17.5359 61.2565C17.9185 61.4878 18.2093 61.8153 18.4082 62.2396C18.6148 62.6559 18.7181 63.1453 18.7181 63.7084V64.3214H14.5058C14.5211 65.0232 14.6971 65.5589 15.0338 65.929C15.3781 66.2911 15.8564 66.4725 16.4685 66.4725C16.8588 66.4725 17.2031 66.4378 17.5015 66.3684C17.8076 66.2911 18.1213 66.1834 18.4427 66.0446V66.9352C18.129 67.0739 17.8191 67.1744 17.513 67.2359C17.2069 67.3053 16.8435 67.34 16.4226 67.34C15.841 67.34 15.3245 67.2207 14.8731 66.9814C14.4293 66.7422 14.0812 66.388 13.8286 65.9174C13.5838 65.4396 13.4614 64.857 13.4614 64.171C13.4614 63.4923 13.5723 62.9104 13.7942 62.4246C14.0238 61.9389 14.3413 61.5652 14.7469 61.3028C15.1601 61.0404 15.6383 60.9096 16.1816 60.9096ZM16.1701 61.7423C15.688 61.7423 15.3055 61.9006 15.0223 62.2165C14.7469 62.5251 14.5824 62.9566 14.5288 63.5118H17.6622C17.6622 63.1569 17.6086 62.8489 17.5015 62.5865C17.3944 62.3242 17.2298 62.1203 17.008 61.9736C16.7937 61.8196 16.5144 61.7423 16.1701 61.7423ZM22.4076 67.34C21.8644 67.34 21.3785 67.2279 20.95 67.0046C20.5292 66.7812 20.1963 66.4342 19.9514 65.9637C19.7143 65.4931 19.5956 64.8917 19.5956 64.1594C19.5956 63.3961 19.7219 62.7752 19.9744 62.2974C20.2269 61.8196 20.5674 61.4683 20.9959 61.2449C21.432 61.0216 21.9256 60.9096 22.4765 60.9096C22.7903 60.9096 23.0925 60.9443 23.3832 61.0136C23.6741 61.0751 23.9112 61.1524 24.0949 61.2449L23.785 62.0892C23.6013 62.0198 23.3871 61.9541 23.1422 61.8926C22.8974 61.8312 22.6678 61.8001 22.4536 61.8001C22.0404 61.8001 21.6999 61.889 21.432 62.0661C21.1642 62.2432 20.9653 62.5056 20.8352 62.8525C20.7051 63.1995 20.6401 63.6311 20.6401 64.1479C20.6401 64.6416 20.7051 65.0616 20.8352 65.4085C20.9653 65.7555 21.1604 66.0179 21.4206 66.195C21.6807 66.3721 22.0059 66.461 22.3962 66.461C22.7329 66.461 23.0274 66.4263 23.2799 66.3569C23.5401 66.2875 23.7774 66.2029 23.9916 66.1024V67.0046C23.785 67.1123 23.5554 67.1932 23.3029 67.2474C23.0581 67.3089 22.7596 67.34 22.4076 67.34ZM29.357 61.8811H27.3484V67.2243H26.3499V61.8811H24.3642V61.0252H29.357V61.8811ZM30.6034 67.2243H29.4326L31.1887 64.6221C30.9515 64.5606 30.7219 64.4638 30.5001 64.3329C30.2782 64.1941 30.0983 64.0055 29.9606 63.7662C29.8229 63.5197 29.754 63.2147 29.754 62.8525C29.754 62.2591 29.9529 61.808 30.3508 61.4994C30.7488 61.1835 31.2767 61.0252 31.9348 61.0252H34.6894V67.2243H33.6794V64.7608H32.1873L30.6034 67.2243ZM30.7296 62.8641C30.7296 63.219 30.8597 63.485 31.1199 63.6621C31.3876 63.832 31.7588 63.9166 32.2332 63.9166H33.6794V61.8695H32.0381C31.5713 61.8695 31.2346 61.962 31.028 62.1471C30.8291 62.3321 30.7296 62.5714 30.7296 62.8641ZM44.6244 61.0252V66.38H45.5197V69.3639H44.5096V67.2243H36.2916V61.0252H37.3017V66.3684H39.953V61.0252H40.963V66.3684H43.6259V61.0252H44.6244ZM48.7248 60.9096C49.2528 60.9096 49.7042 61.0252 50.0792 61.2565C50.4618 61.4878 50.7526 61.8153 50.9515 62.2396C51.1581 62.6559 51.2614 63.1453 51.2614 63.7084V64.3214H47.0491C47.0644 65.0232 47.2404 65.5589 47.5771 65.929C47.9214 66.2911 48.3997 66.4725 49.0118 66.4725C49.402 66.4725 49.7463 66.4378 50.0448 66.3684C50.3509 66.2911 50.6646 66.1834 50.9859 66.0446V66.9352C50.6722 67.0739 50.3623 67.1744 50.0562 67.2359C49.7501 67.3053 49.3867 67.34 48.9659 67.34C48.3843 67.34 47.8678 67.2207 47.4164 66.9814C46.9725 66.7422 46.6244 66.388 46.3719 65.9174C46.1271 65.4396 46.0046 64.857 46.0046 64.171C46.0046 63.4923 46.1156 62.9104 46.3375 62.4246C46.567 61.9389 46.8846 61.5652 47.2901 61.3028C47.7033 61.0404 48.1816 60.9096 48.7248 60.9096ZM48.7134 61.7423C48.2313 61.7423 47.8487 61.9006 47.5656 62.2165C47.2901 62.5251 47.1256 62.9566 47.072 63.5118H50.2055C50.2055 63.1569 50.1519 62.8489 50.0448 62.5865C49.9377 62.3242 49.7731 62.1203 49.5512 61.9736C49.3369 61.8196 49.0577 61.7423 48.7134 61.7423ZM54.8592 60.9096C55.3871 60.9096 55.8386 61.0252 56.2135 61.2565C56.5961 61.4878 56.8868 61.8153 57.0858 62.2396C57.2924 62.6559 57.3957 63.1453 57.3957 63.7084V64.3214H53.1834C53.1987 65.0232 53.3747 65.5589 53.7114 65.929C54.0557 66.2911 54.5339 66.4725 55.1461 66.4725C55.5363 66.4725 55.8807 66.4378 56.1791 66.3684C56.4851 66.2911 56.7989 66.1834 57.1203 66.0446V66.9352C56.8065 67.0739 56.4966 67.1744 56.1906 67.2359C55.8845 67.3053 55.521 67.34 55.1002 67.34C54.5186 67.34 54.0021 67.2207 53.5507 66.9814C53.1069 66.7422 52.7587 66.388 52.5062 65.9174C52.2613 65.4396 52.1389 64.857 52.1389 64.171C52.1389 63.4923 52.2498 62.9104 52.4718 62.4246C52.7013 61.9389 53.0188 61.5652 53.4244 61.3028C53.8376 61.0404 54.3158 60.9096 54.8592 60.9096ZM54.8477 61.7423C54.3656 61.7423 53.983 61.9006 53.6999 62.2165C53.4244 62.5251 53.2599 62.9566 53.2064 63.5118H56.3398C56.3398 63.1569 56.2862 62.8489 56.1791 62.5865C56.0719 62.3242 55.9074 62.1203 55.6855 61.9736C55.4713 61.8196 55.192 61.7423 54.8477 61.7423ZM61.7628 63.5002C61.7628 62.5981 61.8508 61.8312 62.0268 61.1987C62.2104 60.559 62.4897 60.0501 62.8646 59.672C63.2472 59.2868 63.7369 59.028 64.3338 58.8972C64.8311 58.7895 65.317 58.6926 65.7914 58.608C66.2658 58.5235 66.7097 58.4461 67.1228 58.3767L67.295 59.2673C67.0961 59.2983 66.8741 59.3366 66.6293 59.3829C66.3845 59.4212 66.1358 59.4639 65.8833 59.5101C65.6308 59.5484 65.3859 59.5911 65.1487 59.6373C64.9191 59.6757 64.7163 59.7147 64.5404 59.753C64.2879 59.8072 64.0621 59.8997 63.8632 60.0306C63.6643 60.1542 63.4921 60.3233 63.3467 60.5395C63.209 60.7556 63.098 61.0216 63.0138 61.3375C62.9297 61.6534 62.8799 62.0278 62.8646 62.4593H62.9335C63.0406 62.3126 63.186 62.1622 63.3696 62.0083C63.561 61.8543 63.7866 61.7228 64.0468 61.615C64.3146 61.5073 64.6169 61.4531 64.9536 61.4531C65.4892 61.4531 65.933 61.5724 66.285 61.8117C66.6446 62.043 66.9125 62.3668 67.0884 62.7832C67.2721 63.1995 67.3639 63.6853 67.3639 64.2404C67.3639 64.9264 67.2453 65.501 67.0081 65.9637C66.7708 66.4263 66.4419 66.7732 66.021 67.0046C65.6001 67.2279 65.1104 67.34 64.5518 67.34C64.131 67.34 63.7484 67.259 63.4041 67.0971C63.0597 66.9272 62.7651 66.6807 62.5203 66.3569C62.2755 66.0331 62.0879 65.6319 61.9579 65.1541C61.8278 64.6763 61.7628 64.1248 61.7628 63.5002ZM64.6322 66.4957C64.9688 66.4957 65.2597 66.4263 65.5045 66.2875C65.757 66.1487 65.9521 65.921 66.0899 65.6051C66.2276 65.2892 66.2965 64.8686 66.2965 64.3445C66.2965 63.712 66.1779 63.2147 65.9406 62.8525C65.7111 62.4825 65.3285 62.2974 64.7929 62.2974C64.4562 62.2974 64.1501 62.3747 63.8747 62.5287C63.5992 62.6755 63.3696 62.8446 63.186 63.0376C63.0024 63.2306 62.8723 63.3925 62.7958 63.5234C62.7958 63.9014 62.8225 64.2671 62.8761 64.6221C62.9297 64.977 63.0215 65.2965 63.1516 65.582C63.2893 65.8596 63.4767 66.0829 63.714 66.2528C63.9588 66.4147 64.2649 66.4957 64.6322 66.4957ZM67.6466 61.0252H68.7255L70.057 64.5527C70.1337 64.7609 70.2026 64.9611 70.2636 65.1541C70.3324 65.3471 70.3934 65.5357 70.4472 65.7208C70.501 65.8979 70.5426 66.0714 70.5735 66.2412H70.6194C70.6653 66.0482 70.7377 65.7981 70.8375 65.4895C70.9372 65.1736 71.0405 64.857 71.1474 64.5411L72.3984 61.0252H73.4888L70.8375 68.0801C70.6918 68.4654 70.5197 68.8008 70.321 69.0863C70.1294 69.3791 69.8927 69.6032 69.6094 69.7571C69.3339 69.919 68.9974 70 68.5992 70C68.4156 70 68.2549 69.9884 68.1172 69.9653C67.9794 69.9501 67.8609 69.9306 67.7614 69.9075V69.0979C67.8456 69.1131 67.945 69.129 68.0598 69.1442C68.1822 69.1593 68.3085 69.1673 68.4386 69.1673C68.6758 69.1673 68.8784 69.121 69.0469 69.0285C69.2227 68.9439 69.3719 68.8167 69.4946 68.6469C69.6172 68.4849 69.7205 68.2919 69.8045 68.0686L70.1258 67.2474L67.6466 61.0252ZM78.4615 61.0252V66.3684H79.3568V69.3755H78.3812V67.2243H74.1V69.3755H73.1359V66.3684H73.6294C73.9809 65.8747 74.2722 65.3391 74.5017 64.7608C74.7384 64.1746 74.9149 63.566 75.0297 62.9335C75.1516 62.2938 75.2169 61.6577 75.2248 61.0252H78.4615ZM76.1201 61.8232C76.0892 62.3473 76.0089 62.8909 75.879 63.454C75.7485 64.0091 75.5806 64.5411 75.374 65.05C75.1746 65.5589 74.9415 65.9984 74.6739 66.3684H77.4859V61.8232H76.1201ZM79.2542 61.0252H80.3331L81.6645 64.5527C81.7405 64.7609 81.8094 64.9611 81.8711 65.1541C81.94 65.3471 82.0009 65.5357 82.0547 65.7208C82.1078 65.8979 82.1502 66.0714 82.181 66.2412H82.2269C82.2728 66.0482 82.3453 65.7981 82.445 65.4895C82.544 65.1736 82.6473 64.857 82.7549 64.5411L84.006 61.0252H85.0963L82.445 68.0801C82.2994 68.4654 82.1272 68.8008 81.9285 69.0863C81.737 69.3791 81.4995 69.6032 81.2169 69.7571C80.9414 69.919 80.6043 70 80.2068 70C80.0232 70 79.8625 69.9884 79.7248 69.9653C79.587 69.9501 79.468 69.9306 79.369 69.9075V69.0979C79.4529 69.1131 79.5526 69.129 79.6674 69.1442C79.7893 69.1593 79.9156 69.1673 80.0461 69.1673C80.2829 69.1673 80.4859 69.121 80.6545 69.0285C80.8302 68.9439 80.9794 68.8167 81.1021 68.6469C81.2241 68.4849 81.3273 68.2919 81.412 68.0686L81.7334 67.2474L79.2542 61.0252ZM94.0575 61.0252V66.38H94.9528V69.3639H93.9428V67.2243H85.7247V61.0252H86.7348V66.3684H89.3861V61.0252H90.3962V66.3684H93.059V61.0252H94.0575ZM98.1579 60.9096C98.6859 60.9096 99.1371 61.0252 99.5123 61.2565C99.8947 61.4878 100.185 61.8153 100.385 62.2396C100.591 62.6559 100.695 63.1453 100.695 63.7084V64.3214H96.4822C96.4973 65.0232 96.673 65.5589 97.0102 65.929C97.3545 66.2911 97.8323 66.4725 98.4449 66.4725C98.8351 66.4725 99.1795 66.4378 99.4779 66.3684C99.7835 66.2911 100.098 66.1834 100.419 66.0446V66.9352C100.105 67.0739 99.795 67.1744 99.4894 67.2359C99.1831 67.3053 98.8193 67.34 98.399 67.34C97.8172 67.34 97.3007 67.2207 96.8495 66.9814C96.4054 66.7422 96.0575 66.388 95.805 65.9174C95.5597 65.4396 95.4377 64.857 95.4377 64.171C95.4377 63.4923 95.5482 62.9104 95.7706 62.4246C96.0001 61.9389 96.3172 61.5652 96.7232 61.3028C97.1364 61.0404 97.6142 60.9096 98.1579 60.9096ZM98.1465 61.7423C97.6644 61.7423 97.2813 61.9006 96.9987 62.2165C96.7232 62.5251 96.5582 62.9566 96.5052 63.5118H99.6386C99.6386 63.1569 99.5848 62.8489 99.4779 62.5865C99.3703 62.3242 99.206 62.1203 98.9843 61.9736C98.7699 61.8196 98.4908 61.7423 98.1465 61.7423ZM104.292 60.9096C104.82 60.9096 105.271 61.0252 105.646 61.2565C106.029 61.4878 106.32 61.8153 106.519 62.2396C106.725 62.6559 106.829 63.1453 106.829 63.7084V64.3214H102.616C102.631 65.0232 102.808 65.5589 103.144 65.929C103.489 66.2911 103.967 66.4725 104.579 66.4725C104.969 66.4725 105.314 66.4378 105.612 66.3684C105.918 66.2911 106.232 66.1834 106.553 66.0446V66.9352C106.24 67.0739 105.93 67.1744 105.623 67.2359C105.317 67.3053 104.954 67.34 104.533 67.34C103.951 67.34 103.435 67.2207 102.984 66.9814C102.54 66.7422 102.192 66.388 101.939 65.9174C101.695 65.4396 101.572 64.857 101.572 64.171C101.572 63.4923 101.683 62.9104 101.905 62.4246C102.134 61.9389 102.452 61.5652 102.857 61.3028C103.271 61.0404 103.749 60.9096 104.292 60.9096ZM104.281 61.7423C103.799 61.7423 103.416 61.9006 103.133 62.2165C102.857 62.5251 102.693 62.9566 102.639 63.5118H105.773C105.773 63.1569 105.719 62.8489 105.612 62.5865C105.505 62.3242 105.34 62.1203 105.118 61.9736C104.904 61.8196 104.625 61.7423 104.281 61.7423ZM112.47 64.8071C112.47 64.8765 112.466 64.977 112.458 65.1078C112.458 65.2314 112.454 65.3659 112.447 65.5126C112.439 65.6514 112.431 65.7866 112.424 65.9174C112.416 66.041 112.408 66.1408 112.401 66.2181L115.695 61.0252H116.935V67.2243H115.994V63.5696C115.994 63.446 115.994 63.2841 115.994 63.0839C116.001 62.8836 116.009 62.687 116.017 62.494C116.024 62.2938 116.032 62.1434 116.039 62.043L112.768 67.2243H111.517V61.0252H112.47V64.8071ZM126.698 67.2243H125.676V61.8695H123.863C123.786 62.8489 123.691 63.6853 123.576 64.3792C123.461 65.0652 123.316 65.6246 123.14 66.0562C122.963 66.4877 122.753 66.8043 122.509 67.0046C122.263 67.2048 121.976 67.3053 121.648 67.3053C121.548 67.3053 121.448 67.2973 121.349 67.2821C121.258 67.2742 121.181 67.2554 121.12 67.2243V66.461C121.166 66.4762 121.215 66.4877 121.269 66.4957C121.322 66.5036 121.376 66.5072 121.43 66.5072C121.598 66.5072 121.751 66.4378 121.889 66.2991C122.027 66.1603 122.148 65.9485 122.256 65.663C122.371 65.3774 122.474 65.0189 122.566 64.5874C122.658 64.1479 122.738 63.631 122.807 63.0376C122.876 62.4441 122.937 61.7733 122.991 61.0252H126.698V67.2243ZM127.342 61.0252H128.421L129.752 64.5527C129.828 64.7609 129.897 64.9611 129.959 65.1541C130.028 65.3471 130.089 65.5357 130.143 65.7208C130.196 65.8979 130.238 66.0714 130.269 66.2412H130.315C130.361 66.0482 130.433 65.7981 130.533 65.4895C130.632 65.1736 130.735 64.857 130.843 64.5411L132.094 61.0252H133.184L130.533 68.0801C130.387 68.4654 130.215 68.8008 130.016 69.0863C129.825 69.3791 129.587 69.6032 129.305 69.7571C129.029 69.919 128.692 70 128.295 70C128.111 70 127.95 69.9884 127.813 69.9653C127.675 69.9501 127.556 69.9306 127.457 69.9075V69.0979C127.541 69.1131 127.641 69.129 127.755 69.1442C127.877 69.1593 128.004 69.1673 128.134 69.1673C128.371 69.1673 128.574 69.121 128.742 69.0285C128.918 68.9439 129.067 68.8167 129.19 68.6469C129.312 68.4849 129.415 68.2919 129.5 68.0686L129.821 67.2474L127.342 61.0252ZM134.696 63.2805C134.696 63.6426 134.795 63.913 134.995 64.0901C135.201 64.2599 135.496 64.3445 135.879 64.3445C136.261 64.3445 136.609 64.2867 136.923 64.171C137.237 64.0474 137.558 63.8855 137.887 63.6853V61.0252H138.897V67.2243H137.887V64.4601C137.543 64.6835 137.202 64.8613 136.866 64.9922C136.536 65.1158 136.138 65.1772 135.672 65.1772C135.044 65.1772 134.554 65.0117 134.203 64.6799C133.859 64.3481 133.686 63.905 133.686 63.3499V61.0252H134.696V63.2805ZM148.851 61.0252V67.2243H140.507V61.0252H141.517V66.3684H144.168V61.0252H145.178V66.3684H147.841V61.0252H148.851ZM152.805 60.9211C153.555 60.9211 154.11 61.0866 154.469 61.4184C154.829 61.7502 155.008 62.2779 155.008 63.0029V67.2243H154.274L154.079 66.3453H154.033C153.857 66.5687 153.673 66.7581 153.482 66.912C153.298 67.0588 153.084 67.1665 152.839 67.2359C152.602 67.3053 152.311 67.34 151.967 67.34C151.599 67.34 151.267 67.2742 150.968 67.1433C150.678 67.0125 150.448 66.8116 150.28 66.5419C150.112 66.2644 150.027 65.9174 150.027 65.501C150.027 64.8845 150.268 64.4103 150.75 64.0785C151.232 63.7395 151.975 63.5544 152.977 63.5234L154.021 63.4887V63.1186C154.021 62.6017 153.911 62.2432 153.688 62.043C153.467 61.8427 153.153 61.7423 152.747 61.7423C152.426 61.7423 152.12 61.7921 151.829 61.8926C151.539 61.9851 151.267 62.0928 151.014 62.2165L150.704 61.4531C150.973 61.3064 151.29 61.1835 151.657 61.083C152.024 60.9753 152.407 60.9211 152.805 60.9211ZM153.103 64.2288C152.338 64.2599 151.806 64.3828 151.508 64.5989C151.217 64.8151 151.072 65.1194 151.072 65.5126C151.072 65.8596 151.175 66.114 151.381 66.2759C151.596 66.4378 151.868 66.5188 152.196 66.5188C152.717 66.5188 153.149 66.3764 153.493 66.0909C153.838 65.7981 154.01 65.3507 154.01 64.7493V64.1941L153.103 64.2288ZM156.943 67.2243H155.772L157.528 64.6221C157.291 64.5606 157.061 64.4638 156.84 64.3329C156.618 64.1941 156.438 64.0055 156.3 63.7662C156.163 63.5197 156.094 63.2147 156.094 62.8525C156.094 62.2591 156.292 61.808 156.691 61.4994C157.089 61.1835 157.617 61.0252 158.274 61.0252H161.029V67.2243H160.019V64.7608H158.527L156.943 67.2243ZM157.069 62.8641C157.069 63.219 157.199 63.485 157.46 63.6621C157.727 63.832 158.099 63.9166 158.573 63.9166H160.019V61.8695H158.378C157.911 61.8695 157.574 61.962 157.368 62.1471C157.169 62.3321 157.069 62.5714 157.069 62.8641ZM173.478 61.0252L170.942 64.0322L173.696 67.2243H172.548L169.886 64.0785V67.2243H168.944V64.0785L166.282 67.2243H165.134L167.888 64.0322L165.352 61.0252H166.454L168.944 64.0322V61.0252H169.886V64.0322L172.388 61.0252H173.478ZM175.315 64.8071C175.315 64.8765 175.311 64.977 175.303 65.1078C175.303 65.2314 175.299 65.3659 175.292 65.5126C175.284 65.6514 175.277 65.7866 175.269 65.9174C175.261 66.041 175.254 66.1408 175.246 66.2181L178.54 61.0252H179.779V67.2243H178.838V63.5696C178.838 63.446 178.838 63.2841 178.838 63.0839C178.846 62.8836 178.853 62.687 178.861 62.494C178.869 62.2938 178.876 62.1434 178.884 62.043L175.613 67.2243H174.362V61.0252H175.315V64.8071ZM183.011 60.9096C183.478 60.9096 183.883 60.9753 184.228 61.1062C184.572 61.2298 184.84 61.4148 185.031 61.6613C185.223 61.9006 185.318 62.1933 185.318 62.5403C185.318 62.9183 185.215 63.219 185.008 63.4424C184.802 63.6585 184.519 63.8161 184.159 63.9166V63.9628C184.404 64.0322 184.629 64.1284 184.836 64.252C185.043 64.3756 185.208 64.5375 185.33 64.7377C185.46 64.9379 185.525 65.1967 185.525 65.5126C185.525 65.8516 185.429 66.1603 185.238 66.4378C185.054 66.7154 184.767 66.9352 184.377 67.0971C183.995 67.259 183.501 67.34 182.896 67.34C182.606 67.34 182.327 67.3248 182.058 67.2937C181.799 67.2626 181.561 67.2164 181.347 67.1549C181.14 67.0935 180.957 67.0197 180.796 66.9352V66.0215C181.056 66.1451 181.363 66.2564 181.714 66.3569C182.074 66.4574 182.464 66.5072 182.885 66.5072C183.191 66.5072 183.467 66.4725 183.711 66.4031C183.964 66.3338 184.163 66.2261 184.308 66.0793C184.454 65.9254 184.526 65.7172 184.526 65.4548C184.526 65.2155 184.462 65.0232 184.331 64.8765C184.201 64.7225 184.006 64.6069 183.746 64.5295C183.493 64.4522 183.168 64.4139 182.77 64.4139H181.944V63.5812H182.609C183.137 63.5812 183.558 63.5118 183.872 63.373C184.193 63.2263 184.354 62.9798 184.354 62.6328C184.354 62.3401 184.232 62.1203 183.987 61.9736C183.75 61.8268 183.406 61.7538 182.954 61.7538C182.617 61.7538 182.319 61.7885 182.058 61.8579C181.806 61.9194 181.527 62.0162 181.221 62.1471L180.865 61.3375C181.194 61.1907 181.538 61.083 181.898 61.0136C182.258 60.9443 182.629 60.9096 183.011 60.9096ZM187.685 61.0252V63.6043H191.025V61.0252H192.035V67.2243H191.025V64.4601H187.685V67.2243H186.675V61.0252H187.685ZM196.474 63.5696C197.01 63.5696 197.454 63.6354 197.806 63.7662C198.157 63.8971 198.421 64.0937 198.598 64.3561C198.781 64.6105 198.873 64.9343 198.873 65.3276C198.873 65.7128 198.785 66.0482 198.609 66.3338C198.441 66.6193 198.177 66.839 197.817 66.993C197.457 67.1469 196.994 67.2243 196.428 67.2243H193.639V61.0252H194.649V63.5696H196.474ZM197.863 65.3854C197.863 65.0073 197.729 64.7529 197.461 64.6221C197.201 64.4833 196.834 64.4139 196.36 64.4139H194.649V66.4031H196.383C196.811 66.4031 197.163 66.3258 197.439 66.1718C197.721 66.0179 197.863 65.7555 197.863 65.3854Z" fill="#D9D9D9"/>
</svg>
