<svg width="108" height="133" viewBox="0 0 108 133" fill="none" xmlns="http://www.w3.org/2000/svg">
<path d="M78.9223 33.25V16.625H66.4609V33.25H78.9223ZM70.6147 29.0938V20.7813H74.7685V29.0938H70.6147ZM62.3071 33.25V16.625H49.8457V33.25L62.3071 33.25ZM53.9995 29.0938V20.7813H58.1533V29.0938H53.9995ZM45.6919 24.9375C45.6919 18.0506 40.1133 12.4688 33.2305 12.4688C26.3476 12.4688 20.769 18.0506 20.769 24.9375C20.769 31.8244 26.3476 37.4063 33.2305 37.4063C40.1133 37.4063 45.6919 31.8244 45.6919 24.9375ZM24.9228 24.9375C24.9228 20.3532 28.6488 16.625 33.2305 16.625C37.8121 16.625 41.5381 20.3532 41.5381 24.9375C41.5381 29.5218 37.8121 33.25 33.2305 33.25C28.6488 33.25 24.9228 29.5218 24.9228 24.9375ZM67.9313 89.9662L64.9946 92.9047L56.687 84.5922L59.6237 81.6537L67.9313 89.9662ZM99.6913 128.844V122.252L106.782 115.157C108.406 113.532 108.406 110.905 106.782 109.28L99.6913 102.186V4.15625C99.6913 1.862 97.8304 0 95.5375 0L4.15381 0C1.86091 0 0 1.862 0 4.15625L0 128.844C0 131.138 1.86091 133 4.15381 133H95.5375C97.8304 133 99.6913 131.138 99.6913 128.844ZM58.1533 66.5H41.5381V83.125L74.7685 116.375H20.769L20.769 45.7188L78.9223 45.7188V87.2812L58.1533 66.5ZM55.2165 70.6562L45.6919 80.1865V70.6562H55.2165ZM48.0222 83.7318L58.7639 72.9837L97.9717 112.219L87.2299 122.967L48.0222 83.7318ZM8.30761 8.3125L91.3837 8.3125V99.75L83.0761 91.4375V41.5625L16.6152 41.5625L16.6152 120.531H78.9223L83.0761 124.688H8.30761L8.30761 8.3125Z" fill="#BC4914"/>
</svg>
