<svg width="108" height="133" viewBox="0 0 108 133" fill="none" xmlns="http://www.w3.org/2000/svg">
<path fill-rule="evenodd" clip-rule="evenodd" d="M8.6458 38.7841C2.45141 44.9785 2.4514 55.0217 8.6458 61.2161L42.7841 95.3543C48.9785 101.549 59.0217 101.549 65.2161 95.3543L99.3543 61.2161C105.549 55.0217 105.549 44.9786 99.3543 38.7841L65.2161 4.6458C59.0217 -1.54859 48.9786 -1.5486 42.7841 4.6458L8.6458 38.7841ZM13.1322 56.7297C9.41554 53.013 9.41554 46.9872 13.1322 43.2705L47.2705 9.1322C50.9872 5.41554 57.013 5.41554 60.7297 9.1322L94.8679 43.2705C98.5847 46.9872 98.5847 53.013 94.8679 56.7297L60.7297 90.8679C57.013 94.5847 50.9872 94.5847 47.2705 90.8679L13.1322 56.7297ZM39.0706 30.0559C35.45 34.5405 33.6397 40.7465 33.6397 48.6738C33.6397 56.6012 35.45 62.8187 39.0706 67.3259C42.7122 71.8104 47.9339 74.0526 54.7358 74.0526C58.9633 74.0526 62.4689 73.1916 65.2523 71.4703C68.0356 69.7268 70.0449 67.5524 71.2796 64.9473C71.9077 63.6111 71.8449 62.7051 71.0912 62.2292L68.486 60.6328C67.6276 60.1118 66.8745 60.5082 66.2254 61.8219C65.4095 63.4525 64.0908 65.0152 62.27 66.51C60.4702 68.0055 58.0634 68.7529 55.0497 68.7529C49.8175 68.7529 46.0086 66.9973 43.6226 63.4868C41.2577 59.9533 40.0753 55.0157 40.0753 48.6738C40.0753 42.332 41.2577 37.4057 43.6226 33.895C46.0086 30.3616 49.8175 28.595 55.0497 28.595C57.9797 28.595 60.2295 29.2179 61.7991 30.4636C63.3688 31.7094 64.499 33.0457 65.1895 34.4725C65.8384 35.8542 66.5814 36.2845 67.4182 35.7636L69.8984 34.2007C70.6731 33.7025 70.767 32.7965 70.1807 31.4828C69.0507 28.946 67.1886 26.9529 64.5931 25.5034C61.998 24.0311 58.7122 23.295 54.7358 23.295C47.9339 23.295 42.7122 25.5487 39.0706 30.0559Z" fill="#BC4914"/>
</svg>
