<svg width="105" height="129" viewBox="0 0 105 129" fill="none" xmlns="http://www.w3.org/2000/svg">
<path d="M100.962 16.125H92.8846V4.03125C92.8846 1.806 91.0754 0 88.8462 0H4.03846C1.80923 0 0 1.806 0 4.03125V112.875C0 115.1 1.80923 116.906 4.03846 116.906H16.1538V124.969C16.1538 127.194 17.9631 129 20.1923 129H100.962C103.191 129 105 127.194 105 124.969V20.1562C105 17.931 103.191 16.125 100.962 16.125ZM84.8077 108.844H8.07692V8.0625H84.8077V108.844ZM96.9231 120.938H24.2308V112.875H84.8077C87.0369 112.875 88.8462 111.069 88.8462 108.844V24.1875H96.9231V120.938ZM68.6538 36.2812H24.2308V32.25H68.6538V36.2812ZM68.6538 48.375H24.2308V44.3438H68.6538V48.375ZM68.6538 60.4688H24.2308V56.4375H68.6538V60.4688ZM68.6538 72.5625H24.2308V68.5312H68.6538V72.5625ZM68.6538 84.6562H24.2308V80.625H68.6538V84.6562Z" fill="#BC4914"/>
</svg>
