<svg width="126" height="125" viewBox="0 0 126 125" fill="none" xmlns="http://www.w3.org/2000/svg">
<path fill-rule="evenodd" clip-rule="evenodd" d="M125.876 105.459C125.944 105.771 125.984 106.087 125.996 106.406L126 106.609V112.739C126 119.511 113.307 125 97.65 125C82.1493 125 69.5542 119.62 69.3038 112.942L69.3 112.739V106.609L69.3038 106.406C69.3157 106.088 69.3556 105.773 69.4226 105.461C71.159 106.731 73.2728 107.902 75.7221 108.905C81.439 111.245 89.1477 112.739 97.65 112.739C106.489 112.739 114.47 111.122 120.255 108.62C122.418 107.684 124.3 106.613 125.876 105.459ZM56.7 0L113.4 30.6523L113.4 53.2742C108.756 52.114 103.383 51.4345 97.65 51.4345C89.0154 51.4345 81.1999 52.9792 75.4344 55.4727C67.5397 58.887 63.5206 64.1087 63.0125 69.3929L62.9982 69.5531L63.0342 119.185L56.7 122.609L0 91.9568V30.6523L56.7 0ZM125.876 87.0677C125.944 87.3799 125.984 87.6957 125.996 88.0145L126 88.2173V94.3477C126 101.119 113.307 106.609 97.65 106.609C82.1493 106.609 69.5542 101.228 69.3038 94.5505L69.3 94.3477V88.2173L69.3038 88.0145C69.3157 87.6964 69.3556 87.3813 69.4226 87.0696C71.159 88.3394 73.2728 89.5105 75.7221 90.5132C81.439 92.8534 89.1477 94.3477 97.65 94.3477C106.489 94.3477 114.47 92.7302 120.255 90.2282C122.418 89.293 124.3 88.2218 125.876 87.0677ZM37.7997 57.2167L37.8 98.7691L50.4 105.581V64.0281L37.7997 57.2167ZM12.6 43.5939V85.1452L25.1999 91.9571V50.4053L12.6 43.5939ZM97.65 57.565C113.151 57.565 125.746 62.9451 125.996 69.6231L126 69.8259V75.9564C126 82.7279 113.307 88.2173 97.65 88.2173C82.1493 88.2173 69.5542 82.8371 69.3038 76.1591L69.3 75.9564V69.8259L69.3419 69.1532C70.1495 62.6945 82.5146 57.565 97.65 57.565ZM81.5036 27.0322L44.4185 47.1724L56.7 53.8118L93.87 33.7175L81.5036 27.0322ZM56.7 13.6232L19.53 33.7175L31.8332 40.3688L68.918 20.2285L56.7 13.6232Z" fill="#BC4914"/>
</svg>
