<svg width="125" height="125" viewBox="0 0 150 175" fill="none" xmlns="http://www.w3.org/2000/svg">
<path d="M135.376 75.9106V72.085C135.376 71.0288 134.956 70.0158 134.207 69.269C133.459 68.5221 132.444 68.1026 131.386 68.1026L130.852 57.1902H131.511C132.034 57.1943 132.552 57.0952 133.036 56.8985C133.52 56.7018 133.96 56.4114 134.331 56.0441C134.702 55.6768 134.996 55.2399 135.197 54.7584C135.398 54.277 135.502 53.7607 135.502 53.2392V49.4136C135.502 48.8921 135.398 48.3757 135.197 47.8943C134.996 47.4129 134.702 46.9759 134.331 46.6086C133.96 46.2413 133.52 45.9509 133.036 45.7542C132.552 45.5575 132.034 45.4584 131.511 45.4625H108.984C108.461 45.4584 107.943 45.5575 107.459 45.7542C106.975 45.9509 106.535 46.2413 106.164 46.6086C105.793 46.9759 105.499 47.4129 105.298 47.8943C105.097 48.3757 104.994 48.8921 104.994 49.4136V53.2392C104.994 53.7607 105.097 54.277 105.298 54.7584C105.499 55.2399 105.793 55.6768 106.164 56.0441C106.535 56.4114 106.975 56.7018 107.459 56.8985C107.943 57.0952 108.461 57.1943 108.984 57.1902H109.329L108.795 68.1339C107.773 68.1745 106.806 68.6086 106.097 69.3452C105.388 70.0818 104.993 71.0637 104.994 72.085V75.9106C104.994 76.8192 105.306 77.7002 105.878 78.4075C106.449 79.1148 107.246 79.6057 108.136 79.7989L104.742 150.886H83.4086L80.2353 93.7843C81.1706 93.6354 82.0224 93.1594 82.6383 92.4413C83.2542 91.7232 83.5941 90.8099 83.5972 89.8646V86.1017C83.5889 85.051 83.1648 84.0461 82.4174 83.306C81.67 82.5659 80.6598 82.1507 79.6069 82.1507L78.9785 71.2383H79.6069C80.6652 71.2383 81.6801 70.8187 82.4285 70.0719C83.1768 69.3251 83.5972 68.3121 83.5972 67.2559V63.4617C83.5972 62.4055 83.1768 61.3926 82.4285 60.6457C81.6801 59.8989 80.6652 59.4793 79.6069 59.4793H57.2051C56.6825 59.4793 56.1652 59.5825 55.6828 59.783C55.2005 59.9835 54.7626 60.2774 54.3946 60.6476C54.0266 61.0178 53.7356 61.4571 53.5386 61.9401C53.3415 62.423 53.2421 62.9402 53.2463 63.4617V67.2559C53.2421 67.7774 53.3415 68.2946 53.5386 68.7776C53.7356 69.2606 54.0266 69.6998 54.3946 70.07C54.7626 70.4402 55.2005 70.7341 55.6828 70.9346C56.1652 71.1351 56.6825 71.2383 57.2051 71.2383H57.5507L56.9223 82.1507C55.9248 82.2293 54.9933 82.6791 54.3124 83.4109C53.6316 84.1427 53.251 85.1031 53.2463 86.1017V89.9273C53.2384 90.8066 53.5245 91.6633 54.0595 92.3619C54.5944 93.0605 55.3476 93.561 56.1997 93.7843L53.0578 150.886H31.4728L28.7079 107.832C29.5949 107.646 30.3909 107.161 30.9628 106.459C31.5346 105.757 31.8478 104.88 31.8498 103.975V100.056C31.8333 99.0271 31.4123 98.0462 30.6775 97.3246C29.9428 96.603 28.9533 96.1987 27.9224 96.1988L27.2312 85.2551H27.9224C28.4436 85.2511 28.9587 85.1436 29.4378 84.9389C29.9169 84.7342 30.3504 84.4364 30.713 84.0628C31.0756 83.6892 31.3601 83.2474 31.5499 82.763C31.7396 82.2786 31.8309 81.7613 31.8184 81.2413V77.4784C31.8226 76.9637 31.7251 76.4532 31.5315 75.9761C31.338 75.4989 31.0521 75.0645 30.6904 74.6976C30.3286 74.3307 29.8979 74.0385 29.423 73.8377C28.9481 73.637 28.4382 73.5315 27.9224 73.5274H5.42633C4.37639 73.5274 3.36945 73.9437 2.62703 74.6846C1.88461 75.4256 1.46752 76.4306 1.46752 77.4784V81.2413C1.46752 82.2892 1.88461 83.2942 2.62703 84.0351C3.36945 84.7761 4.37639 85.1924 5.42633 85.1924H5.74052L5.01788 96.1361C4.05096 96.2498 3.1582 96.7098 2.50529 97.4306C1.85238 98.1515 1.48365 99.0842 1.46752 100.056V103.881C1.47082 104.732 1.74716 105.56 2.25604 106.243C2.76492 106.926 3.47957 107.428 4.29524 107.676L0.273593 170.924C0.228307 171.443 0.294559 171.966 0.467931 172.459C0.641303 172.951 0.917811 173.4 1.27901 173.777C1.64108 174.164 2.07897 174.472 2.56544 174.682C3.05191 174.892 3.57655 175.001 4.10673 175H132.423C132.949 174.998 133.47 174.891 133.956 174.686C134.441 174.482 134.881 174.183 135.25 173.808C135.607 173.427 135.884 172.978 136.062 172.488C136.24 171.997 136.317 171.476 136.287 170.955L131.826 79.8302C132.795 79.723 133.692 79.2649 134.346 78.5427C135 77.8205 135.366 76.8841 135.376 75.9106Z" fill="#BC4914"/>
<path d="M16.2031 66.9109C18.2469 66.8952 20.2013 66.0721 21.6386 64.6218C22.3198 63.9364 22.8636 63.1275 23.241 62.2387C26.1862 62.2051 28.9986 61.0102 31.0643 58.9148C32.7066 57.3282 33.8059 55.2654 34.2063 53.0196C36.2339 52.8923 38.2003 52.2764 39.9372 51.2245C41.674 50.1726 43.1295 48.7162 44.1788 46.98C45.2282 45.2438 45.8402 43.2796 45.9623 41.2557C46.0845 39.2317 45.7133 37.2084 44.8804 35.359C44.0474 33.5096 42.7777 31.8894 41.18 30.637C39.5822 29.3846 37.7041 28.5375 35.7065 28.1682C33.7089 27.7989 31.6513 27.9184 29.7101 28.5165C27.7689 29.1147 26.0019 30.1735 24.5606 31.6025C22.3804 33.7693 21.0725 36.659 20.8845 39.724C18.6714 40.177 16.6398 41.2672 15.0406 42.8598C13.7615 44.1472 12.8091 45.7209 12.2626 47.4499C11.7161 49.1789 11.5913 51.0132 11.8987 52.8001C11.5379 53.0633 11.1918 53.3459 10.8618 53.6467C10.0974 54.3756 9.48886 55.2515 9.07305 56.2216C8.65724 57.1917 8.44276 58.2359 8.44256 59.2911C8.45083 61.3427 9.27111 63.3079 10.7247 64.7587C12.1783 66.2094 14.1474 67.0281 16.2031 67.0363V66.9109Z" fill="#BC4914"/>
<path d="M67.9818 53.3019C69.4838 53.294 70.9512 52.8514 72.206 52.0276C73.4608 51.2038 74.4492 50.0343 75.0511 48.661C77.6198 48.5745 80.0834 47.6223 82.0404 45.9595C83.9974 44.2968 85.3324 42.0215 85.8279 39.5046C88.8769 39.3021 91.7475 37.9978 93.9026 35.8358C95.0693 34.6701 95.9945 33.2864 96.6253 31.7637C97.256 30.2411 97.58 28.6093 97.5787 26.9616C97.5841 25.3087 97.2621 23.671 96.6313 22.1427C96.0004 20.6144 95.0731 19.2256 93.9026 18.0561C92.1909 16.3268 90.0125 15.1312 87.6325 14.6147C85.2525 14.0982 82.7733 14.283 80.4966 15.1467C78.2199 16.0105 76.2437 17.5158 74.8084 19.4798C73.3731 21.4437 72.5405 23.7816 72.4119 26.2091C69.5077 26.7805 66.941 28.4595 65.2573 30.8894C63.5735 33.3193 62.9053 36.3087 63.3946 39.2224C63.0212 39.4807 62.6739 39.7747 62.3578 40.1004C61.6331 40.8118 61.0593 41.6615 60.6707 42.5989C60.282 43.5363 60.0865 44.5422 60.0956 45.5566C60.0915 46.5749 60.2894 47.5839 60.6779 48.5255C61.0664 49.4671 61.6379 50.3225 62.3594 51.0426C63.0808 51.7626 63.938 52.333 64.8814 52.7207C65.8249 53.1085 66.8359 53.306 67.8562 53.3019H67.9818Z" fill="#BC4914"/>
<path d="M146.153 3.69441C144.985 2.5235 143.597 1.59437 142.068 0.960368C140.54 0.326371 138.901 0 137.245 0C135.59 0 133.951 0.326371 132.422 0.960368C130.894 1.59437 129.506 2.5235 128.338 3.69441C126.163 5.87752 124.857 8.77483 124.662 11.8473C122.449 12.3003 120.417 13.3905 118.818 14.9831C117.535 16.2612 116.58 17.8291 116.033 19.554C115.486 21.2789 115.363 23.1099 115.676 24.892C115.31 25.1594 114.963 25.4528 114.639 25.77C113.916 26.487 113.343 27.3395 112.951 28.2786C112.56 29.2177 112.358 30.2248 112.358 31.2419C112.358 32.259 112.56 33.2661 112.951 34.2052C113.343 35.1443 113.916 35.9968 114.639 36.7138C115.352 37.437 116.203 38.0097 117.143 38.3976C118.082 38.7855 119.09 38.9807 120.106 38.9715C121.127 38.9778 122.139 38.7814 123.083 38.3938C124.027 38.0062 124.884 37.4351 125.605 36.7138C126.285 36.0215 126.838 35.2147 127.238 34.3306C129.786 34.204 132.218 33.231 134.148 31.5662C136.078 29.9014 137.395 27.6405 137.889 25.1429C140.984 25.0574 143.933 23.8151 146.153 21.6622C147.331 20.4962 148.266 19.1089 148.904 17.5804C149.542 16.052 149.87 14.4125 149.87 12.7567C149.87 11.1009 149.542 9.46145 148.904 7.93297C148.266 6.40449 147.331 5.01723 146.153 3.8512V3.69441Z" fill="#BC4914"/>
</svg>
