<svg width="126" height="125" viewBox="0 0 126 125" fill="none" xmlns="http://www.w3.org/2000/svg">
<path fill-rule="evenodd" clip-rule="evenodd" d="M101.914 59.2105L101.914 66.2529C105.145 67.3868 108.099 69.1011 110.651 71.2695L116.799 67.7446L126 83.5711L119.856 87.0939C120.158 88.7187 120.316 90.3936 120.316 92.1053C120.316 93.8169 120.158 95.4919 119.856 97.1167L126 100.639L116.799 116.466L110.651 112.941C108.099 115.109 105.145 116.824 101.914 117.958L101.914 125H83.5114L83.5112 117.958C80.2807 116.824 77.3262 115.11 74.7747 112.941L68.6266 116.466L59.4254 100.639L65.5692 97.1167C65.2669 95.4919 65.1089 93.8169 65.1089 92.1053C65.1089 90.3935 65.2669 88.7185 65.5692 87.0936L59.4254 83.5711L68.6266 67.7446L74.7744 71.2696C77.326 69.1011 80.2806 67.3868 83.5112 66.2529L83.5114 59.2105H101.914ZM119.248 0L119.249 62.6836C115.426 59.2852 110.936 56.6109 105.999 54.8778L105.998 39.4737H13.2498V105.263L55.2612 105.263C57.0063 110.166 59.6991 114.625 63.1212 118.422L0 118.421V0H119.248ZM92.7127 81.1403C86.6146 81.1403 81.6712 86.0495 81.6712 92.1053C81.6712 98.161 86.6146 103.07 92.7127 103.07C98.8108 103.07 103.754 98.161 103.754 92.1053C103.754 86.0495 98.8108 81.1403 92.7127 81.1403ZM39.7494 78.9474V92.1053H26.4996V78.9474H39.7494ZM39.7494 52.6316V65.7895H26.4996V52.6316H39.7494ZM66.249 52.6316L66.2483 62.6835C65.1492 63.6604 64.1051 64.6972 63.1213 65.7887L52.9992 65.7895V52.6316H66.249ZM105.998 13.1579H13.2498V26.3158H105.998V13.1579Z" fill="#BC4914"/>
</svg>
