<svg width="125" height="125" viewBox="0 0 190 50" fill="none" xmlns="http://www.w3.org/2000/svg">
<path d="M0.428574 61.773V46.5759L28.1437 0.984995H41.3285V21.2477H33.7943L18.8605 46.0131V46.5759H59.7603V61.773H0.428574ZM33.9288 73.03V57.1294L34.3324 50.5159V0.984995H51.8226V73.03H33.9288ZM97.6079 75C91.3518 74.9766 85.9478 73.4639 81.3959 70.462C76.8441 67.4602 73.3348 63.1332 70.8683 57.4812C68.4017 51.8292 67.1796 45.0516 67.202 37.1482C67.2245 29.2214 68.4578 22.4906 70.9018 16.9559C73.3684 11.4212 76.8665 7.21154 81.3959 4.32692C85.9478 1.44231 91.3518 0 97.6079 0C103.864 0 109.268 1.45403 113.82 4.36211C118.372 7.24672 121.881 11.4563 124.347 16.9911C126.814 22.5258 128.036 29.2449 128.014 37.1482C128.014 45.0985 126.78 51.8996 124.314 57.5516C121.847 63.2036 118.338 67.5305 113.787 70.5323C109.257 73.5108 103.864 75 97.6079 75ZM97.6079 59.0994C100.837 59.0994 103.482 57.3406 105.545 53.8227C107.631 50.2814 108.662 44.7233 108.64 37.1482C108.64 32.1998 108.169 28.1544 107.228 25.0117C106.285 21.8692 104.985 19.5474 103.326 18.0464C101.666 16.522 99.7609 15.7599 97.6079 15.7599C94.379 15.7599 91.7442 17.4719 89.7038 20.8959C87.6633 24.3199 86.6206 29.7374 86.5757 37.1482C86.5533 42.1904 87.013 46.3415 87.9547 49.6014C88.8965 52.8377 90.1971 55.2298 91.8564 56.7777C93.5381 58.3255 95.4553 59.0994 97.6079 59.0994ZM157.512 63.1801V11.1163H172.579V63.1801H157.512ZM140.156 45.0281V29.2683H189.935V45.0281H140.156Z" fill="#BC4914"/>
</svg>
