<svg width="75" height="75" viewBox="0 0 75 75" fill="none" xmlns="http://www.w3.org/2000/svg">
<path d="M37.5 0L38.3476 14.3747C38.0663 14.3646 37.7837 14.3596 37.5 14.3596C37.2163 14.3596 36.9337 14.3646 36.6524 14.3747L37.5 0Z" fill="#FD7E14"/>
<path d="M49.1756 17.4802C48.6864 17.1979 48.1862 16.9327 47.6757 16.6856L55.0551 4.35873L49.1756 17.4802Z" fill="#FD7E14"/>
<path d="M57.3283 25.3032C57.0234 24.823 56.7017 24.3546 56.3642 23.8988L68.5886 16.4364L57.3283 25.3032Z" fill="#FD7E14"/>
<path d="M60.9374 36.0462C60.8898 35.4751 60.8222 34.9098 60.7351 34.351L75 33.4661L60.9374 36.0462Z" fill="#FD7E14"/>
<path d="M59.1831 47.2494C59.4018 46.7267 59.6025 46.1945 59.7842 45.6535L72.8206 51.5466L59.1831 47.2494Z" fill="#FD7E14"/>
<path d="M52.4529 56.3427C52.8892 55.9804 53.3123 55.6025 53.7214 55.2099L62.5497 66.5359L52.4529 56.3427Z" fill="#FD7E14"/>
<path d="M42.3036 61.2516C42.8596 61.1354 43.4084 60.9994 43.9493 60.8444L46.5403 75L42.3036 61.2516Z" fill="#FD7E14"/>
<path d="M31.0507 60.8444C31.5916 60.9994 32.1404 61.1354 32.6964 61.2516L28.4597 75L31.0507 60.8444Z" fill="#FD7E14"/>
<path d="M21.2787 55.2099C21.6877 55.6025 22.1108 55.9804 22.5471 56.3427L12.4503 66.5359L21.2787 55.2099Z" fill="#FD7E14"/>
<path d="M15.2158 45.6535C15.3975 46.1945 15.5982 46.7267 15.8169 47.2494L2.17936 51.5466L15.2158 45.6535Z" fill="#FD7E14"/>
<path d="M14.2649 34.351C14.1778 34.9098 14.1102 35.4751 14.0626 36.0462L0 33.4661L14.2649 34.351Z" fill="#FD7E14"/>
<path d="M18.6358 23.8988C18.2983 24.3546 17.9766 24.823 17.6717 25.3032L6.41144 16.4364L18.6358 23.8988Z" fill="#FD7E14"/>
<path d="M19.9449 4.35873L25.8244 17.4802C26.3136 17.1979 26.8138 16.9327 27.3243 16.6856L19.9449 4.35873Z" fill="#FD7E14"/>
<path d="M37.5 56.0023C47.3409 56.0023 55.3186 47.9661 55.3186 38.0529C55.3186 28.1397 47.3409 20.1034 37.5 20.1034C27.6591 20.1034 19.6814 28.1397 19.6814 38.0529C19.6814 47.9661 27.6591 56.0023 37.5 56.0023Z" fill="#FD7E14"/>
</svg>
