<svg width="140" height="40" viewBox="0 0 150 45" fill="none" xmlns="http://www.w3.org/2000/svg">
<path d="M127.475 0L127.983 8.6248C127.814 8.61878 127.645 8.61575 127.475 8.61575C127.304 8.61575 127.135 8.61878 126.966 8.6248L127.475 0Z" fill="#FD7E14"/>
<path d="M134.48 10.4881C134.187 10.3187 133.886 10.1596 133.58 10.0114L138.008 2.61524L134.48 10.4881Z" fill="#FD7E14"/>
<path d="M139.372 15.1819C139.189 14.8938 138.996 14.6128 138.793 14.3393L146.128 9.86183L139.372 15.1819Z" fill="#FD7E14"/>
<path d="M141.537 21.6277C141.509 21.2851 141.468 20.9459 141.416 20.6106L149.975 20.0797L141.537 21.6277Z" fill="#FD7E14"/>
<path d="M140.485 28.3496C140.616 28.036 140.736 27.7167 140.845 27.3921L148.667 30.928L140.485 28.3496Z" fill="#FD7E14"/>
<path d="M136.446 33.8056C136.708 33.5882 136.962 33.3615 137.207 33.1259L142.505 39.9215L136.446 33.8056Z" fill="#FD7E14"/>
<path d="M130.357 36.751C130.69 36.6813 131.02 36.5997 131.344 36.5067L132.899 45L130.357 36.751Z" fill="#FD7E14"/>
<path d="M123.605 36.5067C123.93 36.5997 124.259 36.6813 124.592 36.751L122.051 45L123.605 36.5067Z" fill="#FD7E14"/>
<path d="M117.742 33.1259C117.987 33.3615 118.241 33.5882 118.503 33.8056L112.445 39.9215L117.742 33.1259Z" fill="#FD7E14"/>
<path d="M114.104 27.3921C114.213 27.7167 114.334 28.036 114.465 28.3496L106.282 30.928L114.104 27.3921Z" fill="#FD7E14"/>
<path d="M113.534 20.6106C113.481 20.9459 113.441 21.2851 113.412 21.6277L104.975 20.0797L113.534 20.6106Z" fill="#FD7E14"/>
<path d="M116.156 14.3393C115.954 14.6127 115.761 14.8938 115.578 15.1819L108.822 9.86183L116.156 14.3393Z" fill="#FD7E14"/>
<path d="M116.942 2.61524L120.469 10.4881C120.763 10.3187 121.063 10.1596 121.369 10.0114L116.942 2.61524Z" fill="#FD7E14"/>
<path d="M127.475 33.6014C133.379 33.6014 138.166 28.7797 138.166 22.8317C138.166 16.8838 133.379 12.062 127.475 12.062C121.57 12.062 116.784 16.8838 116.784 22.8317C116.784 28.7797 121.57 33.6014 127.475 33.6014Z" fill="#FD7E14"/>
<path d="M5.96706 16.2289L0.494088 14.9557C1.6723 10.4202 5.02323 8.15245 10.5469 8.15245C13.8155 8.15245 16.2796 8.87458 17.9392 10.3188C19.6115 11.7504 20.4476 13.4354 20.4476 15.3737C20.4476 16.704 20.0676 17.9075 19.3074 18.9844C18.5473 20.0486 17.4071 20.9861 15.8868 21.7969C17.7365 22.4303 19.1237 23.3298 20.0486 24.4954C20.9734 25.6482 21.4358 27.0735 21.4358 28.7711C21.4358 31.2162 20.5363 33.1926 18.7373 34.7002C16.951 36.2078 14.2715 36.9616 10.6989 36.9616C7.78505 36.9616 5.48564 36.4802 3.80068 35.5173C2.11571 34.5418 0.848818 32.7238 0 30.0633L5.14992 28.372C5.68201 30.0443 6.38514 31.1275 7.25929 31.6216C8.14611 32.1157 9.23564 32.3628 10.5279 32.3628C12.3015 32.3628 13.5938 31.9827 14.4046 31.2226C15.2154 30.4497 15.6208 29.5693 15.6208 28.5811C15.6208 27.4409 15.1584 26.5224 14.2335 25.8256C13.3214 25.1288 11.9405 24.7804 10.0908 24.7804H8.81757V20.5807H9.46368C11.1867 20.5807 12.5042 20.1943 13.4164 19.4215C14.3285 18.6486 14.7846 17.6225 14.7846 16.3429C14.7846 15.3294 14.4109 14.4742 13.6634 13.7774C12.9286 13.0807 11.8708 12.7323 10.4899 12.7323C8.13345 12.7323 6.62584 13.8978 5.96706 16.2289Z" fill="#FD7E14"/>
<path d="M51.5182 36.4865H45.3991L42.9666 30.1584H31.8307L29.5312 36.4865H23.5642L34.4151 8.62753H40.3632L51.5182 36.4865ZM41.1613 25.4645L37.3226 15.1267L33.56 25.4645H41.1613Z" fill="#FD7E14"/>
<path d="M54.5207 36.4865V8.62753H63.5473C66.9679 8.62753 69.1976 8.76689 70.2365 9.04561C71.8328 9.46368 73.1693 10.3758 74.2462 11.7821C75.3231 13.1757 75.8615 14.981 75.8615 17.1981C75.8615 18.9084 75.5511 20.3463 74.9303 21.5118C74.3095 22.6774 73.5177 23.5959 72.5549 24.2673C71.6047 24.9261 70.6356 25.3632 69.6474 25.5785C68.3045 25.8446 66.3598 25.9776 63.8133 25.9776H60.1457V36.4865H54.5207ZM60.1457 13.3404V21.2458H63.2242C65.4413 21.2458 66.9236 21.1001 67.671 20.8087C68.4185 20.5173 69.0013 20.0612 69.4193 19.4405C69.8501 18.8197 70.0655 18.0976 70.0655 17.2741C70.0655 16.2606 69.7677 15.4244 69.1723 14.7656C68.5769 14.1068 67.8231 13.6951 66.9109 13.5304C66.2394 13.4037 64.8902 13.3404 62.8632 13.3404H60.1457Z" fill="#FD7E14"/>
<path d="M96.1571 36.4865V24.8564H95.0169C93.2432 24.8564 91.989 25.1225 91.2542 25.6546C90.5321 26.1867 89.2905 27.7766 87.5296 30.4244L83.4628 36.4865H76.7356L80.1372 31.0515C81.4801 28.8978 82.5507 27.3902 83.3488 26.5287C84.147 25.6546 85.1478 24.8754 86.3513 24.1913C83.7542 23.7859 81.8792 22.8864 80.7263 21.4928C79.5735 20.0866 78.997 18.4079 78.997 16.4569C78.997 14.7593 79.4215 13.258 80.2703 11.9531C81.1318 10.6356 82.2593 9.75507 83.6529 9.31166C85.0591 8.85557 87.1558 8.62753 89.943 8.62753H101.782V36.4865H96.1571ZM96.1571 13.3404H91.7673C89.5376 13.3404 88.068 13.391 87.3585 13.4924C86.6617 13.5938 86.06 13.9358 85.5532 14.5186C85.0465 15.1014 84.7931 15.8615 84.7931 16.799C84.7931 17.7745 85.0338 18.5536 85.5152 19.1364C86.0093 19.7065 86.6301 20.0612 87.3775 20.2006C88.1377 20.3399 89.6769 20.4096 91.9954 20.4096H96.1571V13.3404Z" fill="#FD7E14"/>
</svg>
